<svg width="50" height="50" viewBox="0 0 50 50" fill="none" xmlns="http://www.w3.org/2000/svg">
<g clip-path="url(#clip0_318_656)">
<path fill-rule="evenodd" clip-rule="evenodd" d="M12.6437 4.825C12.2902 6.29844 10.963 7.395 9.38166 7.395C7.53038 7.395 6.02734 5.89197 6.02734 4.04069C6.02734 2.18932 7.53038 0.686279 9.38166 0.686279C10.963 0.686279 12.2902 1.78285 12.6437 3.25638H21.7384C22.092 1.78285 23.4192 0.686279 25.0005 0.686279C26.5818 0.686279 27.9089 1.78285 28.2625 3.25638H37.3572C37.7108 1.78285 39.0379 0.686279 40.6193 0.686279C42.4706 0.686279 43.9736 2.18932 43.9736 4.04069C43.9736 5.89197 42.4706 7.395 40.6193 7.395C39.0379 7.395 37.7108 6.29844 37.3572 4.825H28.2625C27.9693 6.04687 27.0067 7.00951 25.7848 7.30265V13.1922C26.0152 13.3424 26.2359 13.5063 26.4457 13.6827C26.9644 13.5413 27.5102 13.4657 28.0739 13.4657C31.0853 13.4657 33.5917 15.6187 34.1413 18.4692C34.5647 18.6391 34.9542 18.8702 35.3002 19.1502H38.3025C40.0631 19.1502 41.5044 20.5915 41.5044 22.3521V38.9785C41.5044 40.7392 40.0631 42.1805 38.3025 42.1805H30.7267V44.4526H33.621C35.2285 44.4526 36.4666 45.5985 36.4666 46.8822V48.5294C36.4666 48.9626 36.1154 49.3137 35.6822 49.3137H14.3209C13.8877 49.3137 13.5366 48.9626 13.5366 48.5294V46.8822C13.5366 45.5985 14.7746 44.4526 16.3821 44.4526H19.2765V42.1805H11.6984C9.93783 42.1805 8.49656 40.7392 8.49656 38.9785V22.3521C8.49656 20.5915 9.93783 19.1502 11.6984 19.1502H14.7016C14.9009 18.9889 15.114 18.8442 15.3388 18.7181C15.4147 15.0498 18.4113 12.099 22.0977 12.099C22.8374 12.099 23.5497 12.2178 24.2162 12.4377V7.30265C22.9943 7.00951 22.0317 6.04687 21.7384 4.825H12.6437ZM36.5417 20.7188C36.6769 20.9999 36.7836 21.296 36.8586 21.603H37.6165C38.2194 21.603 38.717 22.0937 38.717 22.7036V36.8949C38.717 37.328 38.366 37.6792 37.9327 37.6792H12.0682C11.635 37.6792 11.2839 37.328 11.2839 36.8949V22.7036C11.2839 22.0951 11.778 21.603 12.3865 21.603H13.1417C13.2167 21.295 13.3235 20.999 13.4584 20.7188H11.6984C10.8004 20.7188 10.0652 21.454 10.0652 22.3521V38.9785C10.0652 39.8767 10.8004 40.6119 11.6984 40.6119H38.3025C39.2006 40.6119 39.9358 39.8767 39.9358 38.9785V22.3521C39.9358 21.454 39.2006 20.7188 38.3025 20.7188H36.5417ZM36.9588 23.1717C36.7065 25.4244 34.7811 27.1916 32.4623 27.1916H17.5386C15.2199 27.1916 13.2945 25.4244 13.0421 23.1717H12.8525V36.1106H37.1484V23.1717H36.9588ZM29.158 42.1805H20.8451V44.4526H29.158V42.1805ZM32.4623 25.6229C34.0881 25.6229 35.4182 24.2932 35.4182 22.6684C35.4182 21.3372 34.5151 20.1643 33.232 19.8162C32.9204 19.7316 32.6923 19.4646 32.6576 19.1435C32.4078 16.8327 30.4515 15.0343 28.0739 15.0343C27.5277 15.0343 27.0041 15.1291 26.5178 15.3032C26.2366 15.404 25.9225 15.3362 25.7078 15.1284C24.7734 14.2238 23.5 13.6677 22.0977 13.6677C19.23 13.6677 16.906 15.9929 16.906 18.8608C16.906 18.9606 16.9081 19.0605 16.9139 19.1592C16.9333 19.4935 16.7384 19.8032 16.4286 19.9304C15.35 20.3729 14.5827 21.4349 14.5827 22.6684C14.5827 24.2932 15.9128 25.6229 17.5386 25.6229H32.4623ZM25.0005 2.25491C24.0149 2.25491 23.2147 3.0551 23.2147 4.04069C23.2147 5.02618 24.0149 5.82638 25.0005 5.82638C25.9861 5.82638 26.7863 5.02618 26.7863 4.04069C26.7863 3.0551 25.9861 2.25491 25.0005 2.25491ZM9.38166 2.25491C8.39617 2.25491 7.59597 3.0551 7.59597 4.04069C7.59597 5.02618 8.39617 5.82638 9.38166 5.82638C10.3672 5.82638 11.1674 5.02618 11.1674 4.04069C11.1674 3.0551 10.3672 2.25491 9.38166 2.25491ZM40.6193 2.25491C39.6337 2.25491 38.8335 3.0551 38.8335 4.04069C38.8335 5.02618 39.6337 5.82638 40.6193 5.82638C41.6048 5.82638 42.405 5.02618 42.405 4.04069C42.405 3.0551 41.6048 2.25491 40.6193 2.25491ZM15.1052 47.7451H34.8979V46.8822C34.8979 46.3538 34.2826 46.0213 33.621 46.0213H16.3821C15.7205 46.0213 15.1052 46.3538 15.1052 46.8822V47.7451Z" fill="#014339"/>
</g>
<defs>
<clipPath id="clip0_318_656">
<rect width="50" height="50" fill="white"/>
</clipPath>
</defs>
</svg>
