<svg width="50" height="50" viewBox="0 0 50 50" fill="none" xmlns="http://www.w3.org/2000/svg">
<g clip-path="url(#clip0_318_504)">
<path d="M43.7433 19.0475C42.0143 17.7268 39.9817 16.8607 37.8316 16.5284H37.8409V10.5989C39.4429 9.85066 40.4698 8.24558 40.4776 6.47741V6.33884C40.4709 3.81882 38.4296 1.77751 35.9095 1.77077H35.771C33.2509 1.77751 31.2096 3.81882 31.2029 6.33884V6.47741C31.2107 8.24558 32.2376 9.85066 33.8396 10.5989V16.5408C31.5832 16.8858 29.4579 17.821 27.6791 19.2514L11.3719 6.55134C12.1134 3.77536 10.464 0.923898 7.68806 0.182394C4.91208 -0.55911 2.06062 1.09021 1.31911 3.86618C0.577609 6.64216 2.22693 9.49362 5.003 10.2351C6.33034 10.5896 7.74392 10.4049 8.93542 9.72087L24.9683 22.2022C22.0129 26.6611 22.0923 32.4757 25.1685 36.852L20.2893 41.7312C19.8976 41.6065 19.4898 41.54 19.0788 41.5341C16.7396 41.5341 14.8434 43.4302 14.8434 45.7694C14.8434 48.1086 16.7396 50.0049 19.0788 50.0049C21.4179 50.0049 23.3141 48.1086 23.3141 45.7694C23.3084 45.3585 23.242 44.9505 23.117 44.5589L27.9438 39.7321C33.6557 44.095 41.8229 43.0014 46.1859 37.2895C50.5488 31.5776 49.4552 23.4104 43.7433 19.0475ZM35.8479 36.0666L35.8325 36.0634C32.1443 36.055 29.1613 33.0582 29.1699 29.37C29.1784 25.6818 32.1752 22.6989 35.8633 22.7073C39.5467 22.7158 42.5277 25.7051 42.526 29.3885C42.5259 33.0767 39.5361 36.0666 35.8479 36.0666Z" fill="#FF7B57"/>
</g>
<defs>
<clipPath id="clip0_318_504">
<rect width="50" height="50" fill="white" transform="translate(0 0.00488281)"/>
</clipPath>
</defs>
</svg>
