<svg width="42" height="42" viewBox="0 0 42 42" fill="none" xmlns="http://www.w3.org/2000/svg">
<path fill-rule="evenodd" clip-rule="evenodd" d="M12.901 37.8673L13.2456 38.4763C13.2459 38.4769 13.2462 38.4774 13.2465 38.4779C13.6305 39.161 13.3868 40.0325 12.7078 40.416L11.2514 41.2415C11.2507 41.2419 11.25 41.2422 11.2494 41.2426C10.5663 41.6266 9.69488 41.3829 9.31112 40.7035L5.02827 33.1358C4.64072 32.4521 4.88448 31.5796 5.56439 31.1956L7.02253 30.3701L7.02311 30.3698C7.70277 29.986 8.57464 30.2271 8.9617 30.9067L8.96252 30.9082L9.22811 31.3775L12.9175 29.2415C14.1006 28.5573 15.3113 28.1204 16.6106 28.5423C17.8326 28.9386 19.8272 29.7936 21.863 30.1614C21.8921 30.1667 21.9208 30.174 21.9488 30.183C23.0526 30.5404 23.7204 31.6581 23.4191 32.779C23.4033 32.8378 23.3857 32.8951 23.3665 32.951C23.4763 32.905 23.585 32.8508 23.6927 32.7881L28.8859 29.7635C30.8346 28.6283 32.1366 28.7749 32.872 29.2682C33.523 29.705 33.8276 30.4494 33.8081 31.1816C33.7884 31.9227 33.431 32.6283 32.8497 32.9862L23.4266 38.788C22.4006 39.4212 21.277 39.5703 20.1129 39.2598L20.1121 39.2595L13.54 37.4983L12.901 37.8673ZM12.0981 39.1239L7.81649 31.5585L7.81584 31.5573C7.78635 31.5073 7.72187 31.4885 7.67122 31.5171L6.21358 32.3422L6.213 32.3426C6.16277 32.371 6.14597 32.4356 6.17462 32.4861L6.17479 32.4864L10.4579 40.0546L10.4581 40.0551C10.4869 40.1058 10.5523 40.1227 10.6033 40.0942L12.0581 39.2697L12.059 39.2692C12.1098 39.2405 12.1266 39.1751 12.0981 39.1239ZM12.2519 36.7205L13.1176 36.2207C13.2688 36.1333 13.4487 36.1096 13.6175 36.1548L20.4526 37.9867C21.254 38.2004 22.0282 38.1026 22.7345 37.6668L22.7351 37.6663L32.1588 31.8643C32.3838 31.7257 32.4833 31.4334 32.4909 31.1466C32.5143 30.266 31.6243 29.6931 29.5492 30.902L24.3561 33.9265C23.4938 34.4291 22.5901 34.5691 21.6051 34.4123C21.6044 34.4121 21.6036 34.412 21.6029 34.4118L20.9592 34.3072C20.9589 34.3071 20.9586 34.307 20.9584 34.307C20.9494 34.3055 20.9405 34.3039 20.9317 34.3021C20.9314 34.3021 20.9311 34.302 20.9308 34.3019C19.7561 34.0608 18.6665 33.7061 17.4576 33.3812C17.1064 33.2868 16.898 32.9251 16.9923 32.574C17.0867 32.2228 17.4484 32.0144 17.7996 32.1087C18.9725 32.4239 20.03 32.7698 21.1685 33.0056C21.6638 33.0583 22.0323 32.8625 22.1465 32.4371L22.1466 32.4369C22.2613 32.0103 21.9912 31.6004 21.579 31.449C19.4946 31.0646 17.4554 30.2015 16.2041 29.7956L16.2037 29.7955C15.2734 29.4935 14.4243 29.8921 13.5772 30.3821L9.87713 32.5243L12.2519 36.7205ZM7.39402 32.2838C7.72459 32.2347 8.0316 32.4629 8.08077 32.7934C8.12795 33.124 7.89975 33.4329 7.56919 33.4801C7.23862 33.5293 6.9317 33.2991 6.88245 32.9685C6.83526 32.638 7.06354 32.331 7.39402 32.2838ZM11.7911 19.3403V2.28423C11.7911 1.34607 12.559 0.578125 13.4972 0.578125H35.453C36.3913 0.578125 37.1577 1.34582 37.1577 2.28423V19.3403C37.1577 20.2767 36.3916 21.0451 35.453 21.0451H33.0164V21.7063C33.0164 21.9789 32.8486 22.2234 32.5943 22.3213C32.5943 22.3213 31.6026 22.7029 31.6027 22.7028C31.45 23.23 31.2386 23.7382 30.9738 24.219L31.4048 25.1922C31.5151 25.4411 31.4608 25.7323 31.2683 25.9248L29.7604 27.4328C29.5679 27.6253 29.2767 27.6796 29.0277 27.5692L28.0557 27.1387C27.5754 27.4043 27.0661 27.6149 26.5384 27.7672L26.1568 28.7586C26.0589 29.013 25.8145 29.1809 25.542 29.1809H23.409C23.1364 29.1809 22.892 29.013 22.7941 28.7586C22.7941 28.7586 22.4126 27.7673 22.4126 27.7674C21.8839 27.6147 21.3753 27.4031 20.8941 27.1382L19.9211 27.5692C19.6721 27.6796 19.3809 27.6253 19.1884 27.4328L17.6805 25.9248C17.4877 25.732 17.4336 25.4404 17.5444 25.1913C17.5444 25.1913 17.9764 24.2196 17.9764 24.2197C17.711 23.7396 17.5002 23.2306 17.347 22.7032L16.3545 22.3213C16.1001 22.2234 15.9324 21.9789 15.9324 21.7063V21.0451H13.4972C12.5588 21.0451 11.7911 20.2765 11.7911 19.3403ZM35.84 4.31505V2.28423C35.84 2.07085 35.6663 1.89577 35.453 1.89577H13.4972C13.2836 1.89577 13.1087 2.07061 13.1087 2.28423V4.31505H35.84ZM33.0164 19.7274H35.453C35.666 19.7274 35.84 19.5529 35.84 19.3403V5.6327H13.1087V19.3403C13.1087 19.5531 13.2838 19.7274 13.4972 19.7274H15.9324V19.5734C15.9324 19.3008 16.1001 19.0565 16.3545 18.9586C16.3545 18.9586 17.3467 18.5767 17.3466 18.5768C17.5 18.0481 17.7109 17.5395 17.9765 17.0584L17.5444 16.0863C17.4336 15.8372 17.4877 15.5456 17.6805 15.3528L19.1884 13.8449C19.3812 13.6521 19.6728 13.598 19.9219 13.7087L20.894 14.141C21.3751 13.8753 21.8834 13.6647 22.4108 13.5125L22.7944 12.5184C22.8924 12.2643 23.1366 12.0967 23.409 12.0967H25.542C25.8146 12.0967 26.0592 12.2647 26.1569 12.5193L26.5386 13.5126C27.0658 13.6649 27.5739 13.8755 28.0548 14.141L29.0269 13.7087C29.276 13.598 29.5676 13.6521 29.7604 13.8449L31.2683 15.3528C31.4608 15.5454 31.5151 15.8366 31.4048 16.0855C31.4048 16.0855 30.9741 17.0579 30.9741 17.0579C31.2399 17.5393 31.4506 18.0481 31.603 18.577L32.5943 18.9586C32.8486 19.0565 33.0164 19.3008 33.0164 19.5734V19.7274ZM25.4296 14.3L25.0893 13.4144H23.8609L23.5188 14.3009C23.4407 14.5034 23.2677 14.6545 23.0565 14.7047C22.4289 14.8538 21.8302 15.1019 21.28 15.4409C21.0949 15.5549 20.8655 15.5703 20.6668 15.4819L19.8001 15.0966L18.9322 15.9645L19.3176 16.8312C19.4059 17.0299 19.3905 17.2594 19.2764 17.4445C18.9371 17.9952 18.6891 18.5943 18.5378 19.2245C18.4872 19.4353 18.3361 19.6077 18.1338 19.6857L17.25 20.0258V21.254L18.1338 21.5942C18.336 21.672 18.487 21.8442 18.5377 22.0548C18.6889 22.6828 18.9367 23.2837 19.2759 23.8323C19.3905 24.0175 19.406 24.2474 19.3176 24.4464L18.9322 25.3131L19.8006 26.1815L20.6676 25.7974C20.8656 25.7098 21.094 25.7249 21.2786 25.838C21.8292 26.1754 22.4281 26.4257 23.0582 26.575C23.2699 26.6251 23.443 26.7764 23.5212 26.9794L23.8613 27.8632H25.0896L25.4297 26.9794C25.5078 26.7766 25.6808 26.6253 25.8922 26.5751C26.5196 26.426 27.1199 26.1783 27.6678 25.8395C27.8528 25.7251 28.0823 25.7094 28.2811 25.7974L29.1482 26.1815L30.017 25.3127L29.633 24.4456C29.5453 24.2476 29.5605 24.0192 29.6736 23.8346C30.0109 23.2839 30.2614 22.6849 30.4106 22.0567C30.4609 21.8453 30.6122 21.6723 30.815 21.5942L31.6988 21.254V20.0258L30.815 19.6857C30.612 19.6075 30.4607 19.4342 30.4105 19.2227C30.2614 18.5932 30.0134 17.9946 29.6744 17.4445C29.5606 17.2597 29.5451 17.0306 29.633 16.832L30.017 15.965L29.1487 15.0966L28.2819 15.4819C28.0833 15.5703 27.8538 15.5549 27.6687 15.4409C27.1185 15.1019 26.5199 14.8538 25.8922 14.7047C25.6807 14.6545 25.5076 14.503 25.4296 14.3ZM24.4744 16.2596C26.894 16.2596 28.8557 18.2193 28.8557 20.6388C28.8557 23.0583 26.8939 25.0201 24.4744 25.0201C22.0548 25.0201 20.0952 23.0584 20.0952 20.6388C20.0952 18.2191 22.0547 16.2596 24.4744 16.2596ZM24.4744 17.5773C22.7827 17.5773 21.4128 18.9472 21.4128 20.6388C21.4128 22.3306 22.7827 23.7025 24.4744 23.7025C26.1662 23.7025 27.538 22.3307 27.538 20.6388C27.538 18.9471 26.1661 17.5773 24.4744 17.5773ZM19.9897 3.71635C19.6531 3.71635 19.3782 3.44285 19.3782 3.10611C19.3782 2.76937 19.6531 2.49448 19.9897 2.49448C20.3265 2.49448 20.6014 2.76937 20.6014 3.10611C20.6014 3.44285 20.3265 3.71635 19.9897 3.71635ZM15.2963 3.71635C14.9595 3.71635 14.6846 3.44285 14.6846 3.10611C14.6846 2.76937 14.9595 2.49448 15.2963 2.49448C15.6329 2.49448 15.9078 2.76937 15.9078 3.10611C15.9078 3.44285 15.6329 3.71635 15.2963 3.71635ZM17.6437 3.71635C17.307 3.71635 17.0321 3.44285 17.0321 3.10611C17.0321 2.76937 17.307 2.49448 17.6437 2.49448C17.9804 2.49448 18.2539 2.76937 18.2539 3.10611C18.2539 3.44285 17.9804 3.71635 17.6437 3.71635Z" fill="#014339"/>
</svg>
