<svg width="50" height="50" viewBox="0 0 50 50" fill="none" xmlns="http://www.w3.org/2000/svg">
<g clip-path="url(#clip0_1494_118)">
<path d="M33.4643 2.21193C33.6062 2.20768 33.6062 2.20768 33.751 2.20335C34.4915 2.19684 35.0306 2.3307 35.5761 2.8467C36.0045 3.56066 36.1122 4.35869 36.2292 5.17214C36.3118 5.19631 36.3943 5.22048 36.4794 5.24538C36.8151 5.36745 36.8151 5.36745 37.1264 5.59328C37.3736 5.74334 37.4756 5.76123 37.7673 5.72145C38.0403 5.64592 38.3057 5.55884 38.5729 5.46511C39.1833 5.28068 39.8812 5.25447 40.465 5.51393C41.1915 6.20583 41.9155 7.20392 41.9482 8.2361C41.9311 8.89899 41.5711 9.34092 41.112 9.78639C41.0274 9.86948 40.9428 9.95256 40.8557 10.0382C40.6237 10.2503 40.6237 10.2503 40.3307 10.4456C40.2933 10.7163 40.2718 10.9674 40.2636 11.239C40.2603 11.3127 40.2569 11.3863 40.2535 11.4622C40.2454 11.6441 40.2391 11.8261 40.2331 12.0081C40.4214 12.0058 40.4214 12.0058 40.6136 12.0034C41.0826 11.9981 41.5516 11.9947 42.0206 11.992C42.223 11.9905 42.4254 11.9885 42.6278 11.986C42.92 11.9824 43.2121 11.9808 43.5042 11.9795C43.5936 11.978 43.6831 11.9764 43.7753 11.9749C44.7273 11.9746 45.4041 12.2112 46.0974 12.8683C46.6572 13.4976 46.7905 14.1619 46.7993 14.9835C46.8001 15.0536 46.8009 15.1236 46.8017 15.1958C46.8031 15.3436 46.8041 15.4913 46.8049 15.639C46.806 15.79 46.808 15.941 46.8109 16.0919C46.8151 16.3105 46.8166 16.5289 46.8176 16.7475C46.8202 16.8483 46.8202 16.8483 46.8228 16.9512C46.8213 17.279 46.7977 17.4485 46.5961 17.712C46.3218 17.9144 46.1399 17.9582 45.7995 17.9651C45.3537 17.7571 45.3537 17.7571 45.2136 17.4768C45.2031 17.2568 45.1984 17.0364 45.1964 16.8161C45.1941 16.6815 45.1918 16.5468 45.1893 16.4121C45.1859 16.2002 45.183 15.9883 45.1817 15.7764C45.1802 15.5715 45.1763 15.3669 45.172 15.1621C45.1698 14.9783 45.1698 14.9783 45.1677 14.7908C45.1064 14.3866 44.985 14.1767 44.7253 13.8635C44.4136 13.6387 44.1189 13.6389 43.7411 13.6278C43.6278 13.624 43.5145 13.6202 43.3978 13.6164C43.2799 13.6133 43.1621 13.6103 43.0407 13.6072C42.9214 13.6034 42.802 13.5996 42.6791 13.5958C42.3846 13.5865 42.0901 13.5782 41.7956 13.5706C41.8278 13.6673 41.86 13.7639 41.8932 13.8635C41.8999 14.0323 41.9015 14.2013 41.8994 14.3701C41.8985 14.4581 41.8976 14.5461 41.8967 14.6368C41.895 14.7374 41.895 14.7374 41.8932 14.8401C41.9933 14.8415 42.0934 14.8429 42.1965 14.8443C42.3294 14.8489 42.4623 14.8536 42.5952 14.8584C42.6609 14.859 42.7267 14.8595 42.7945 14.8601C43.1389 14.8753 43.3398 14.9247 43.6214 15.1258C43.9383 15.5487 43.9145 15.8778 43.9084 16.3935C43.9091 16.4917 43.9099 16.5898 43.9107 16.691C43.9126 17.0204 43.9111 17.3496 43.9096 17.679C43.9102 17.915 43.9111 18.1509 43.9121 18.3869C43.9141 18.9615 43.9138 19.5361 43.9124 20.1107C43.9113 20.5777 43.9112 21.0446 43.9117 21.5116C43.9118 21.5781 43.9119 21.6446 43.9119 21.713C43.9121 21.8481 43.9123 21.9831 43.9124 22.1181C43.9138 23.3842 43.9122 24.6503 43.9096 25.9165C43.9074 27.0028 43.9078 28.0892 43.91 29.1755C43.9126 30.4371 43.9137 31.6987 43.9122 32.9603C43.912 33.0948 43.9119 33.2294 43.9117 33.3639C43.9116 33.4301 43.9116 33.4963 43.9115 33.5645C43.9111 34.0309 43.9118 34.4973 43.9129 34.9637C43.9144 35.5915 43.9134 36.2193 43.9105 36.8471C43.9099 37.0777 43.9101 37.3084 43.9112 37.539C43.9125 37.8534 43.9108 38.1676 43.9084 38.482C43.9095 38.5737 43.9106 38.6655 43.9117 38.76C43.9104 38.8443 43.9091 38.9287 43.9078 39.0156C43.9077 39.0881 43.9077 39.1606 43.9076 39.2354C43.811 39.5734 43.6304 39.7228 43.3581 39.9378C43.0626 39.999 43.0626 39.999 42.7259 39.9992C42.5331 40.0011 42.5331 40.0011 42.3363 40.0031C42.1938 40.002 42.0512 40.0009 41.9087 39.9998C41.7571 40.0003 41.6056 40.0011 41.4541 40.0021C41.0375 40.0041 40.6209 40.0031 40.2043 40.0016C39.7551 40.0005 39.3058 40.0022 38.8566 40.0035C37.9765 40.0057 37.0965 40.0052 36.2164 40.0038C35.5012 40.0027 34.7861 40.0026 34.071 40.0031C33.9184 40.0032 33.9184 40.0032 33.7628 40.0033C33.5562 40.0035 33.3496 40.0036 33.143 40.0038C31.2049 40.0052 29.2667 40.0036 27.3286 40.001C25.6648 39.9988 24.0011 39.9992 22.3373 40.0014C20.4062 40.004 18.4751 40.0051 16.544 40.0036C16.3381 40.0034 16.1323 40.0033 15.9265 40.0031C15.8252 40.003 15.7239 40.003 15.6196 40.0029C14.9051 40.0025 14.1907 40.0032 13.4762 40.0043C12.6058 40.0057 11.7354 40.0053 10.8649 40.0027C10.4206 40.0014 9.9764 40.0009 9.53211 40.0025C9.12561 40.004 8.71918 40.0032 8.31269 40.0006C8.16542 40.0001 8.01815 40.0003 7.87089 40.0015C7.6711 40.003 7.47129 40.0012 7.27151 39.9992C7.10487 39.9991 7.10487 39.9991 6.93487 39.999C6.5457 39.9184 6.39826 39.7536 6.15106 39.4495C6.08972 39.1901 6.08972 39.1901 6.08943 38.9087C6.08821 38.8028 6.08698 38.6969 6.08572 38.5878C6.08702 38.4743 6.08831 38.3609 6.08965 38.244C6.08941 38.1267 6.08917 38.0093 6.08893 37.8884C6.08903 37.6405 6.09034 37.3926 6.09277 37.1447C6.09612 36.7653 6.09479 36.3861 6.09289 36.0067C6.09356 35.7658 6.09451 35.5248 6.09575 35.2838C6.09526 35.1704 6.09478 35.057 6.09428 34.9401C6.10574 34.155 6.10574 34.155 6.33762 33.763C6.55695 33.5772 6.64817 33.5235 6.93231 33.5291C6.99677 33.5278 7.06122 33.5266 7.12762 33.5253C7.32294 33.5901 7.32294 33.5901 7.71356 34.0784C7.71356 35.4964 7.71356 36.9143 7.71356 38.3753C19.1218 38.3753 30.53 38.3753 42.2839 38.3753C42.2839 31.1565 42.2839 23.9378 42.2839 16.5003C41.0658 16.4921 41.0658 16.4921 40.3307 17.0862C39.5171 17.3574 38.7545 17.1515 37.9721 16.8691C37.5883 16.7644 37.4246 16.8278 37.0799 17.0072C37.0046 17.0514 36.9293 17.0956 36.8517 17.1411C36.4458 17.3792 36.4458 17.3792 36.2292 17.3792C36.2126 17.4829 36.196 17.5866 36.1788 17.6935C35.8949 19.3825 35.8949 19.3825 35.3076 19.9549C34.7239 20.325 34.2322 20.3417 33.5558 20.3394C33.466 20.3409 33.3761 20.3425 33.2835 20.3441C32.6644 20.3446 32.1633 20.2934 31.6701 19.877C31.2383 19.4315 31.1447 19.0007 31.0412 18.4046C30.9346 17.9157 30.8463 17.5691 30.5003 17.1972C30.0436 16.9088 29.6549 16.7293 29.1125 16.836C28.9007 16.9042 28.9007 16.9042 28.7097 16.9885C28.0769 17.2417 27.3477 17.3467 26.7024 17.0812C26.5074 16.9637 26.334 16.8541 26.1706 16.6956C26.1706 16.6311 26.1706 16.5667 26.1706 16.5003C25.6227 16.5325 25.0749 16.5647 24.5104 16.5979C24.6068 17.3822 24.6068 17.3822 25.0426 18.0101C25.4648 18.2894 25.7884 18.4654 26.3026 18.4324C26.5958 18.3607 26.8672 18.2726 27.1472 18.1604C27.4479 18.0602 27.6797 18.0367 27.9955 18.0261C28.0926 18.0214 28.1897 18.0166 28.2897 18.0116C28.8095 18.0941 29.206 18.3274 29.5453 18.7327C29.683 18.9358 29.8049 19.1424 29.9243 19.3567C29.9876 19.4611 29.9876 19.4611 30.0522 19.5677C30.3659 20.1125 30.5632 20.6812 30.4157 21.3113C30.1859 22.0053 29.7232 22.4286 29.1789 22.8918C28.8685 23.1537 28.8685 23.1537 28.7436 23.5369C28.6761 24.2402 28.6761 24.2402 28.928 24.8775C29.1864 25.1534 29.4717 25.3829 29.7705 25.6132C30.1738 25.9314 30.3854 26.3348 30.4492 26.8457C30.4578 26.905 30.4665 26.9643 30.4755 27.0254C30.4515 27.6738 30.1481 28.1912 29.8144 28.7256C29.7744 28.7938 29.7345 28.8619 29.6933 28.9322C29.3957 29.4127 29.1323 29.6513 28.612 29.8792C27.8719 30.0154 27.2168 29.8415 26.5311 29.5645C26.2287 29.4771 26.0789 29.4967 25.78 29.5862C25.6591 29.6221 25.6591 29.6221 25.5358 29.6587C25.1673 29.8257 24.8827 29.9794 24.7224 30.369C24.6285 30.6893 24.5571 31.0125 24.487 31.3388C24.3507 31.9534 24.1818 32.4468 23.6315 32.8089C23.108 33.0448 22.5962 33.04 22.0324 33.0408C21.9438 33.0432 21.8552 33.0456 21.7639 33.048C21.0476 33.0511 20.5143 32.898 19.9877 32.3999C19.5594 31.686 19.4516 30.8879 19.3347 30.0745C19.2501 30.0503 19.1655 30.0261 19.0783 30.0012C18.7487 29.8792 18.7487 29.8792 18.4741 29.6594C18.0808 29.4436 17.9171 29.4971 17.5002 29.6137C17.3179 29.6728 17.1361 29.7331 16.9543 29.7937C16.3627 29.9365 15.7856 29.9624 15.2026 29.7754C14.4226 29.2131 13.7812 28.2594 13.6138 27.3111C13.5938 26.7163 13.6496 26.326 14.0612 25.8753C14.949 24.9431 14.949 24.9431 15.2331 24.801C15.3538 23.8168 15.3538 23.8168 15.0832 22.9059C14.8875 22.7406 14.8875 22.7406 14.6708 22.6023C14.4252 22.4396 14.2583 22.2596 14.0673 22.0362C14.0121 21.9721 13.9568 21.908 13.8999 21.842C13.6085 21.4746 13.6087 21.1222 13.6115 20.6644C13.7518 19.8208 14.2909 18.9249 14.934 18.3618C15.4854 17.9905 15.9435 18.0039 16.6003 18.0628C16.9336 18.1554 17.2532 18.2632 17.5761 18.387C18.0747 18.4997 18.4843 18.2733 18.9135 18.0261C19.4665 17.6316 19.4665 17.6316 19.6276 16.5003C15.696 16.5003 11.7643 16.5003 7.71356 16.5003C7.71809 17.5732 7.72263 18.6461 7.72729 19.7515C7.72929 20.4302 7.73119 21.1089 7.73264 21.7876C7.73495 22.8655 7.73768 23.9433 7.74303 25.0212C7.74692 25.8061 7.74944 26.591 7.75031 27.376C7.75082 27.7917 7.75202 28.2073 7.75486 28.623C7.75751 29.0142 7.75833 29.4054 7.75774 29.7967C7.75785 29.9402 7.75863 30.0838 7.76013 30.2274C7.76207 30.4235 7.76137 30.6196 7.76054 30.8157C7.7609 30.9255 7.76126 31.0352 7.76163 31.1482C7.70264 31.5083 7.57571 31.6716 7.32294 31.9299C7.12762 31.9948 7.12762 31.9948 6.93231 31.991C6.86786 31.9922 6.80341 31.9935 6.737 31.9948C6.43048 31.893 6.32672 31.7072 6.15106 31.4417C6.10163 31.1328 6.10163 31.1328 6.1008 30.7782C6.10012 30.7127 6.09945 30.6473 6.09875 30.5798C6.09696 30.3611 6.09796 30.1425 6.09897 29.9238C6.09828 29.7667 6.09743 29.6097 6.09642 29.4526C6.09422 29.0265 6.09451 28.6004 6.09538 28.1742C6.09588 27.8184 6.09516 27.4626 6.09445 27.1069C6.09279 26.2676 6.09314 25.4283 6.09477 24.589C6.09642 23.7232 6.09488 22.8573 6.09172 21.9914C6.08912 21.2479 6.08841 20.5044 6.08923 19.7609C6.08972 19.3168 6.0895 18.8728 6.0875 18.4288C6.08571 18.0113 6.08628 17.5939 6.08869 17.1764C6.08918 17.0232 6.08883 16.8701 6.0876 16.7169C6.08604 16.5077 6.0875 16.2987 6.08971 16.0895C6.08977 15.9725 6.08983 15.8554 6.08989 15.7349C6.17166 15.322 6.29869 15.1818 6.63934 14.9378C6.91392 14.8906 7.12874 14.8735 7.40247 14.879C7.47866 14.8786 7.55484 14.8782 7.63334 14.8778C7.88829 14.877 8.14309 14.8797 8.39804 14.8823C8.58091 14.8825 8.76379 14.8824 8.94666 14.8821C9.44299 14.882 9.93927 14.8848 10.4356 14.8883C10.9543 14.8913 11.473 14.8916 11.9918 14.8922C12.974 14.8937 13.9562 14.8977 14.9384 14.9026C16.0567 14.9081 17.1749 14.9107 18.2932 14.9132C20.5935 14.9183 22.8938 14.9269 25.194 14.9378C25.1858 14.8788 25.1777 14.8199 25.1692 14.7592C25.1593 14.6812 25.1493 14.6031 25.1391 14.5227C25.1289 14.4457 25.1187 14.3686 25.1082 14.2893C25.0963 14.0583 25.126 13.8878 25.194 13.6682C22.6576 13.6591 20.1212 13.6522 17.5847 13.648C16.407 13.646 15.2293 13.6432 14.0516 13.6388C13.0252 13.6349 11.9989 13.6323 10.9725 13.6315C10.4289 13.631 9.88538 13.6298 9.34184 13.6269C8.83029 13.6243 8.31876 13.6235 7.80721 13.624C7.61942 13.6239 7.43164 13.6232 7.24387 13.6217C6.98745 13.6197 6.73114 13.6202 6.47472 13.6213C6.40044 13.6201 6.32615 13.619 6.24961 13.6178C5.74796 13.6234 5.45806 13.734 5.07684 14.0589C4.89798 14.3473 4.857 14.5647 4.85641 14.9016C4.85578 14.9925 4.85515 15.0834 4.8545 15.1771C4.8548 15.2766 4.8551 15.3761 4.85541 15.4787C4.85497 15.5847 4.85453 15.6907 4.85407 15.7999C4.85283 16.1563 4.853 16.5127 4.85316 16.8691C4.85257 17.1241 4.85191 17.3792 4.85117 17.6342C4.84955 18.2558 4.84901 18.8773 4.8489 19.4989C4.84881 20.0041 4.84841 20.5093 4.84779 21.0145C4.84607 22.4468 4.84517 23.879 4.84531 25.3112C4.84533 25.427 4.84533 25.427 4.84534 25.5451C4.84535 25.6225 4.84535 25.6998 4.84536 25.7794C4.84544 27.0325 4.84357 28.2856 4.84082 29.5387C4.83802 30.8252 4.83666 32.1117 4.83683 33.3982C4.8369 34.1206 4.83636 34.8429 4.83426 35.5653C4.8323 36.2445 4.83235 36.9237 4.83378 37.603C4.83398 37.8525 4.83352 38.102 4.83234 38.3515C4.83084 38.6917 4.83173 39.0318 4.83324 39.372C4.83224 39.4711 4.83123 39.5702 4.8302 39.6723C4.83568 40.23 4.88123 40.5803 5.27216 41.012C5.61321 41.2371 5.91059 41.2319 6.31316 41.2324C6.41151 41.2329 6.41151 41.2329 6.51185 41.2335C6.73256 41.2344 6.95324 41.2339 7.17395 41.2334C7.33338 41.2338 7.49281 41.2342 7.65225 41.2347C8.09116 41.2359 8.53006 41.2359 8.96897 41.2357C9.44201 41.2356 9.91506 41.2367 10.3881 41.2377C11.3152 41.2393 12.2422 41.2398 13.1693 41.2399C13.9227 41.24 14.676 41.2404 15.4294 41.241C17.5641 41.2428 19.6988 41.2437 21.8336 41.2435C21.9487 41.2435 22.0638 41.2435 22.1825 41.2435C22.2977 41.2435 22.413 41.2435 22.5318 41.2435C24.4006 41.2434 26.2694 41.2452 28.1382 41.248C30.056 41.2508 31.9737 41.2522 33.8914 41.252C34.9685 41.2519 36.0456 41.2525 37.1228 41.2546C38.0398 41.2563 38.9567 41.2568 39.8737 41.2554C40.3418 41.2548 40.8098 41.2548 41.2778 41.2565C41.7061 41.258 42.1344 41.2577 42.5627 41.256C42.7178 41.2557 42.8729 41.2561 43.0279 41.2572C43.2386 41.2586 43.4491 41.2575 43.6597 41.2559C43.7767 41.2559 43.8938 41.256 44.0144 41.256C44.4532 41.1893 44.7769 40.9988 45.0533 40.6484C45.1506 40.3027 45.1425 39.9592 45.1405 39.6031C45.1408 39.5193 45.1411 39.4355 45.1414 39.3492C45.1421 39.0679 45.1415 38.7866 45.1408 38.5053C45.1411 38.3039 45.1415 38.1024 45.1419 37.9009C45.1427 37.4669 45.1429 37.0328 45.1427 36.5987C45.1424 35.9127 45.1438 35.2267 45.1455 34.5407C45.1501 32.5898 45.1525 30.639 45.1531 28.6881C45.1535 27.6109 45.1552 26.5336 45.1585 25.4564C45.1605 24.774 45.1607 24.0918 45.1596 23.4094C45.1594 22.9854 45.1607 22.5614 45.1626 22.1373C45.1631 21.9403 45.1629 21.7433 45.1621 21.5463C45.161 21.2779 45.1623 21.0096 45.1642 20.7411C45.1633 20.6627 45.1624 20.5844 45.1615 20.5036C45.1664 20.1531 45.1836 19.9573 45.3998 19.6749C45.6199 19.5163 45.7263 19.4721 45.9948 19.4727C46.0915 19.4695 46.0915 19.4695 46.1901 19.4662C46.5045 19.5651 46.6012 19.741 46.7761 20.0159C46.8133 20.307 46.8281 20.5616 46.8244 20.8523C46.8248 20.9363 46.8253 21.0204 46.8258 21.1071C46.8269 21.3887 46.8252 21.6703 46.8235 21.952C46.8237 22.154 46.8241 22.3559 46.8246 22.5579C46.8256 23.1065 46.8241 23.6551 46.8221 24.2037C46.8204 24.7778 46.8207 25.3519 46.8208 25.9259C46.8206 26.8902 46.8189 27.8545 46.8163 28.8188C46.8132 29.9334 46.8122 31.048 46.8123 32.1626C46.8124 33.3492 46.8111 34.5358 46.8093 35.7224C46.8089 36.0643 46.8087 36.4061 46.8087 36.748C46.8085 37.2855 46.8073 37.823 46.8053 38.3605C46.8047 38.5577 46.8045 38.7549 46.8046 38.9521C46.8047 39.2215 46.8036 39.4908 46.8022 39.7602C46.8025 39.838 46.8028 39.9159 46.8031 39.9961C46.799 40.4677 46.7301 40.857 46.5807 41.3049C46.6576 41.3029 46.7344 41.3009 46.8135 41.2988C47.1631 41.2906 47.5128 41.2855 47.8625 41.2805C47.9833 41.2773 48.1042 41.274 48.2287 41.2706C49.3491 41.2586 49.3491 41.2586 49.8034 41.6956C50.1271 42.1812 50.035 42.7649 50.0349 43.3339C50.0353 43.554 50.0389 43.774 50.0426 43.9941C50.0524 45.2157 49.8324 46.0484 48.9741 46.9492C48.2594 47.5771 47.5102 47.7609 46.5786 47.766C46.478 47.7667 46.478 47.7667 46.3754 47.7675C46.1548 47.7689 45.9342 47.7696 45.7137 47.7701C45.5598 47.7707 45.406 47.7712 45.2522 47.7718C44.9303 47.7728 44.6085 47.7734 44.2866 47.7737C43.8743 47.7743 43.462 47.7766 43.0496 47.7794C42.7322 47.7812 42.4148 47.7817 42.0973 47.7819C41.9453 47.7822 41.7932 47.7829 41.6412 47.7842C41.4287 47.7859 41.2163 47.7857 41.0038 47.7851C40.883 47.7854 40.7622 47.7858 40.6377 47.7861C40.3055 47.7473 40.1704 47.6962 39.9401 47.4573C39.8323 47.0693 39.8019 46.8626 39.9706 46.4929C40.1354 46.2854 40.1354 46.2854 40.3307 46.1878C40.54 46.178 40.7496 46.1745 40.9591 46.1739C41.0558 46.1734 41.0558 46.1734 41.1545 46.1729C41.2948 46.1722 41.4351 46.1716 41.5754 46.1713C41.798 46.1706 42.0206 46.1691 42.2431 46.1673C42.8761 46.1621 43.509 46.1574 44.1419 46.1559C44.529 46.1549 44.9161 46.1521 45.3032 46.148C45.4503 46.1468 45.5974 46.1463 45.7445 46.1465C46.659 46.1475 47.3839 46.1413 48.0822 45.4798C48.5584 44.6739 48.4757 43.7975 48.5339 42.8674C42.5075 42.8674 36.4811 42.8674 30.2722 42.8674C30.2722 43.1575 30.2722 43.4475 30.2722 43.7464C30.1166 44.321 29.7749 44.6833 29.2956 45.0159C28.8879 45.2209 28.513 45.2402 28.065 45.2396C27.9919 45.2402 27.9188 45.2409 27.8435 45.2416C27.6026 45.2434 27.3617 45.2438 27.1208 45.244C26.9526 45.2446 26.7844 45.2453 26.6162 45.246C26.2638 45.2471 25.9114 45.2475 25.559 45.2474C25.1088 45.2474 24.6586 45.25 24.2085 45.2534C23.861 45.2556 23.5136 45.256 23.1662 45.2559C23.0003 45.2561 22.8344 45.257 22.6685 45.2585C20.8887 45.2732 20.8887 45.2732 20.2627 44.6827C19.7101 44.0709 19.7253 43.713 19.7253 42.8674C13.6989 42.8674 7.67255 42.8674 1.46356 42.8674C1.46401 44.5019 1.46401 44.5019 2.24481 45.7971C2.90199 46.1863 3.58675 46.1304 4.33087 46.1258C4.47492 46.1259 4.61896 46.1263 4.76301 46.1267C5.15803 46.1275 5.55302 46.1265 5.94804 46.1252C6.37434 46.1241 6.80065 46.1248 7.22696 46.1252C7.96541 46.1258 8.70385 46.1253 9.44229 46.1242C10.5105 46.1227 11.5787 46.1233 12.6469 46.1244C14.3807 46.1262 16.1145 46.1271 17.8484 46.1271C18.004 46.1271 18.004 46.1271 18.1627 46.1271C19.3207 46.1271 20.4787 46.1267 21.6367 46.126C21.7409 46.126 21.845 46.1259 21.9523 46.1259C22.0564 46.1258 22.1605 46.1257 22.2677 46.1257C22.4775 46.1255 22.6874 46.1254 22.8972 46.1253C23.0009 46.1252 23.1046 46.1252 23.2114 46.1251C24.939 46.1241 26.6666 46.125 28.3942 46.1275C29.46 46.1289 30.5258 46.1287 31.5916 46.1264C32.3214 46.125 33.0513 46.1253 33.7811 46.1269C34.2025 46.1279 34.6238 46.128 35.0451 46.1259C35.4306 46.1241 35.8161 46.1245 36.2016 46.1267C36.3413 46.1271 36.4809 46.1267 36.6205 46.1253C37.7953 46.1148 37.7953 46.1148 38.1181 46.4174C38.3196 46.7393 38.3576 46.8893 38.28 47.262C38.0373 47.5607 37.8889 47.7294 37.5074 47.8112C37.4016 47.8112 37.2958 47.8112 37.1868 47.8112C37.0643 47.8123 36.9418 47.8135 36.8156 47.8147C36.6799 47.8135 36.5443 47.8122 36.4086 47.811C36.2642 47.8114 36.1199 47.812 35.9756 47.8128C35.5788 47.8145 35.1821 47.8131 34.7854 47.8112C34.3575 47.8097 33.9297 47.811 33.5018 47.812C32.6635 47.8134 31.8251 47.8122 30.9868 47.8101C30.0104 47.8078 29.034 47.8079 28.0576 47.8082C26.315 47.8086 24.5724 47.8065 22.8298 47.8032C21.1394 47.8 19.449 47.7986 17.7586 47.7992C15.9181 47.7998 14.0776 47.7996 12.237 47.7977C12.0909 47.7975 12.0909 47.7975 11.9419 47.7974C11.7463 47.7972 11.5507 47.797 11.3551 47.7968C10.6748 47.7961 9.99445 47.796 9.31413 47.7962C8.48446 47.7963 7.6548 47.7954 6.82513 47.793C6.40195 47.7919 5.97879 47.7912 5.55561 47.7918C5.16783 47.7923 4.78008 47.7914 4.39231 47.7895C4.2524 47.789 4.11248 47.789 3.97257 47.7896C2.67329 47.7944 1.76634 47.6185 0.810486 46.7157C0.0149359 45.8724 -0.0649118 44.895 -0.0522079 43.7875C-0.0500968 43.568 -0.0522056 43.3488 -0.0546875 43.1293C-0.0544296 42.9885 -0.0539297 42.8477 -0.0531616 42.7069C-0.052721 42.5806 -0.0522804 42.4544 -0.0518265 42.3243C0.00725744 41.9318 0.107712 41.7753 0.389343 41.5003C0.714869 41.2723 1.00413 41.2822 1.3949 41.2859C1.5126 41.2865 1.6303 41.2871 1.75157 41.2878C1.87406 41.2894 1.99654 41.2911 2.12274 41.2927C2.24674 41.2936 2.37074 41.2945 2.49849 41.2954C2.80457 41.2977 3.11062 41.3009 3.41669 41.3049C3.385 41.2145 3.35331 41.124 3.32066 41.0307C3.18096 40.5376 3.19372 40.0495 3.19526 39.5404C3.19482 39.4323 3.19437 39.3243 3.19392 39.213C3.19268 38.8514 3.19284 38.4899 3.193 38.1283C3.19242 37.8689 3.19176 37.6095 3.19101 37.3501C3.1894 36.7189 3.18886 36.0876 3.18875 35.4564C3.18865 34.9432 3.18825 34.43 3.18763 33.9168C3.18591 32.4608 3.18501 31.0048 3.18516 29.5487C3.18517 29.4703 3.18517 29.3919 3.18518 29.3111C3.18519 29.2325 3.1852 29.154 3.18521 29.0731C3.18529 27.8003 3.18342 26.5275 3.18066 25.2548C3.17786 23.947 3.17651 22.6391 3.17668 21.3313C3.17674 20.5974 3.17621 19.8636 3.17411 19.1297C3.17232 18.505 3.1719 17.8802 3.17323 17.2554C3.17386 16.9369 3.17367 16.6184 3.17218 16.2998C3.17068 15.9539 3.17158 15.6082 3.17309 15.2623C3.17208 15.1624 3.17108 15.0624 3.17004 14.9594C3.17895 14.0317 3.47775 13.344 4.10677 12.665C4.76343 12.0786 5.4763 11.9934 6.32637 11.9963C6.41403 11.9962 6.5017 11.9962 6.59202 11.9961C6.88637 11.9959 7.18071 11.9965 7.47505 11.997C7.68581 11.997 7.89657 11.997 8.10733 11.9969C8.68011 11.9969 9.25289 11.9975 9.82568 11.9982C10.424 11.9988 11.0224 11.9988 11.6208 11.999C12.7541 11.9993 13.8875 12.0001 15.0209 12.001C16.3111 12.0021 17.6012 12.0027 18.8914 12.0032C21.5457 12.0042 24.1999 12.0059 26.8542 12.0081C26.8452 11.7717 26.8345 11.5357 26.8227 11.2995C26.8203 11.2329 26.818 11.1662 26.8156 11.0975C26.7942 10.703 26.7551 10.4512 26.4796 10.161C26.3128 10.0198 26.3128 10.0198 26.134 9.89626C26.0188 9.80602 25.9041 9.71524 25.7899 9.62389C25.7099 9.56062 25.7099 9.56062 25.6283 9.49607C25.2052 9.1226 25.1265 8.69009 25.0918 8.15332C25.1042 7.48647 25.4667 6.9698 25.8044 6.41725C25.8394 6.35837 25.8743 6.29949 25.9104 6.23882C26.1942 5.79415 26.4695 5.5856 26.9518 5.36745C27.692 5.23124 28.347 5.40507 29.0328 5.68216C29.3351 5.7695 29.4849 5.74996 29.7839 5.66042C29.8644 5.6365 29.945 5.61258 30.028 5.58794C30.4009 5.41898 30.679 5.26251 30.8477 4.87292C30.9755 4.47116 31.064 4.06481 31.1476 3.65198C31.2553 3.1384 31.4081 2.8309 31.8347 2.511C32.3773 2.19445 32.8522 2.21792 33.4643 2.21193ZM32.8112 3.80495C32.5498 4.34022 32.4323 4.86129 32.3268 5.44718C32.0908 6.17001 31.5825 6.47587 30.9435 6.81398C30.8737 6.85244 30.8038 6.8909 30.7318 6.93052C30.0542 7.29973 29.4652 7.45482 28.7016 7.23322C28.5014 7.16335 28.3021 7.09089 28.1039 7.0154C27.8008 6.90565 27.8008 6.90565 27.3425 6.92995C27.0041 7.55837 27.0041 7.55837 26.6589 8.19948C26.82 8.36061 26.9811 8.52175 27.1472 8.68776C27.2029 8.74579 27.2587 8.80383 27.3161 8.86362C27.4514 9.00398 27.5922 9.13902 27.7331 9.2737C27.7975 9.2737 27.862 9.2737 27.9284 9.2737C28.2907 9.92064 28.3524 10.5436 28.3495 11.2695C28.3511 11.3484 28.3527 11.4273 28.3543 11.5085C28.3548 12.154 28.2496 12.6973 27.8472 13.2147C27.7833 13.2737 27.7195 13.3327 27.6537 13.3936C27.5856 13.4574 27.5175 13.5212 27.4474 13.587C27.1887 13.8154 26.9284 14.0386 26.6589 14.2542C26.8312 14.7397 27.088 15.1755 27.3425 15.6214C27.7744 15.5821 28.1448 15.5246 28.551 15.3711C29.3358 15.1091 29.8674 15.1469 30.6111 15.5124C30.6845 15.5503 30.758 15.5883 30.8337 15.6275C30.9041 15.6636 30.9745 15.6997 31.0471 15.7368C31.5934 16.0383 32.0743 16.399 32.304 16.9987C32.3615 17.2143 32.4059 17.4281 32.445 17.6477C32.5505 18.2247 32.5505 18.2247 32.8112 18.7464C33.0678 18.768 33.3004 18.7739 33.5558 18.7647C33.6248 18.7633 33.6938 18.762 33.7649 18.7607C33.9353 18.7572 34.1057 18.752 34.2761 18.7464C34.4818 18.1584 34.6418 17.5785 34.7701 16.9687C34.9914 16.3112 35.4608 16.0531 36.04 15.7434C36.1103 15.7045 36.1806 15.6656 36.253 15.6256C36.8784 15.283 37.3665 15.1552 38.0847 15.2307C38.3926 15.3217 38.6884 15.4271 38.9868 15.5454C39.2966 15.6326 39.4462 15.6443 39.7448 15.5237C39.9383 15.2936 39.9383 15.2936 40.0805 15.0049C40.1327 14.9106 40.185 14.8163 40.2388 14.7192C40.3531 14.4631 40.3531 14.4631 40.2819 14.2492C40.0095 13.8952 39.6569 13.6273 39.3179 13.3394C38.7838 12.8044 38.7291 12.3411 38.7234 11.6104C38.7241 11.5019 38.7248 11.3935 38.7255 11.2818C38.7236 11.1737 38.7216 11.0656 38.7196 10.9543C38.7201 10.2167 38.7859 9.77161 39.3008 9.21903C39.4525 9.07048 39.6087 8.93038 39.7692 8.79152C39.8504 8.71929 39.8504 8.71929 39.9333 8.64561C40.065 8.52862 40.1978 8.41275 40.3307 8.29714C40.2664 7.94846 40.1196 7.69388 39.934 7.39382C39.8805 7.3067 39.827 7.21959 39.7719 7.12984C39.7307 7.06388 39.6896 6.99791 39.6472 6.92995C39.2138 6.96935 38.8407 7.02786 38.4326 7.18019C37.709 7.42712 37.2163 7.39941 36.5222 7.06423C36.3253 6.95713 36.1299 6.84731 35.9362 6.73464C35.8505 6.68554 35.7648 6.63645 35.6764 6.58586C35.0679 6.21185 34.8255 5.84621 34.6537 5.14582C34.6207 4.9981 34.5884 4.85021 34.5568 4.70217C34.4897 4.21469 34.4897 4.21469 34.2761 3.80495C34.0289 3.79781 33.7846 3.79592 33.5375 3.79885C33.4681 3.79929 33.3987 3.79973 33.3272 3.80018C33.1552 3.80133 32.9832 3.80309 32.8112 3.80495ZM21.2878 16.5003C21.0818 17.0888 20.9247 17.666 20.8033 18.2779C20.5744 18.8941 20.0106 19.189 19.4689 19.5032C19.3711 19.5615 19.3711 19.5615 19.2713 19.6211C18.696 19.9605 18.2445 20.0901 17.5768 20.0159C17.2465 19.923 16.9248 19.817 16.6018 19.7012C16.2827 19.6189 16.1247 19.6015 15.819 19.7229C15.6301 19.9306 15.6301 19.9306 15.4894 20.1929C15.4128 20.3207 15.4128 20.3207 15.3346 20.4511C15.2173 20.6866 15.2173 20.6866 15.2461 20.9051C15.3486 21.1291 15.4702 21.2617 15.6481 21.4319C15.7403 21.521 15.7403 21.521 15.8343 21.612C16.0229 21.787 16.0229 21.787 16.2829 21.969C16.6367 22.2835 16.7713 22.6402 16.8252 23.1015C16.8385 23.3899 16.8404 23.6762 16.8383 23.9649C16.8412 24.1111 16.8412 24.1111 16.8442 24.2603C16.8437 25.0422 16.6981 25.562 16.1601 26.1369C16.0336 26.2431 16.0336 26.2431 15.9045 26.3513C15.8196 26.4236 15.7348 26.4959 15.6474 26.5703C15.5751 26.631 15.5029 26.6917 15.4284 26.7542C15.3317 26.8508 15.3317 26.8508 15.2331 26.9495C15.2686 27.2969 15.449 27.5605 15.6298 27.8528C15.7101 27.9835 15.7101 27.9835 15.7919 28.1168C15.8331 28.1827 15.8743 28.2487 15.9167 28.3167C16.3119 28.2746 16.6492 28.2068 17.0214 28.0664C17.7403 27.8256 18.2788 27.8189 18.977 28.1464C20.4604 28.893 20.4604 28.893 20.7995 29.6839C20.8815 29.9681 20.9454 30.2551 21.007 30.5445C21.0742 31.0319 21.0742 31.0319 21.2878 31.4417C21.5314 31.4566 21.7704 31.4643 22.0141 31.4661C22.0819 31.4681 22.1497 31.4701 22.2195 31.4722C22.4401 31.4773 22.4401 31.4773 22.7526 31.4417C22.9506 31.1446 23.0059 30.9129 23.074 30.5673C23.3449 29.2131 23.3449 29.2131 23.9245 28.8049C24.7758 28.2564 25.5177 27.8163 26.5612 27.926C26.8692 28.017 27.165 28.1224 27.4634 28.2408C27.7717 28.3275 27.9231 28.3352 28.2214 28.219C28.4104 28.0148 28.4104 28.0148 28.551 27.7551C28.6021 27.6711 28.6532 27.587 28.7058 27.5003C28.8284 27.1888 28.832 27.0649 28.7097 26.7542C28.4977 26.5161 28.4977 26.5161 28.2336 26.3025C28.1472 26.2287 28.0609 26.155 27.9719 26.079C27.8379 25.9646 27.7034 25.8508 27.5675 25.7387C27.1596 25.238 27.2122 24.5873 27.2143 23.9771C27.2127 23.8876 27.2111 23.7982 27.2095 23.706C27.209 23.0301 27.293 22.5417 27.7514 22.0178C27.9086 21.8781 28.0684 21.741 28.2347 21.6123C28.4416 21.4474 28.6311 21.2875 28.8073 21.0901C28.8651 20.5586 28.4894 20.0703 28.2214 19.6253C27.672 19.6689 27.212 19.7471 26.7012 19.9552C25.9999 20.1342 25.5108 19.9924 24.895 19.6619C24.8266 19.626 24.7583 19.5901 24.6879 19.5531C23.493 18.9104 23.493 18.9104 23.2653 18.1909C23.2228 18.0184 23.1823 17.8455 23.1432 17.6721C23.0912 17.4746 23.0383 17.2772 22.9846 17.0801C22.9611 16.9903 22.9377 16.9006 22.9136 16.8081C22.8695 16.6017 22.8695 16.6017 22.7526 16.5003C22.5055 16.4931 22.2611 16.4912 22.0141 16.4942C21.9447 16.4946 21.8752 16.495 21.8037 16.4955C21.6317 16.4966 21.4598 16.4984 21.2878 16.5003ZM21.2878 42.8674C21.2878 43.0608 21.2878 43.2542 21.2878 43.4534C21.5668 43.7324 21.7569 43.6735 22.1476 43.674C22.2501 43.6745 22.2501 43.6745 22.3546 43.675C22.5808 43.6759 22.8071 43.6753 23.0334 43.6746C23.1903 43.6748 23.3472 43.675 23.5041 43.6752C23.8331 43.6755 24.1621 43.6751 24.4912 43.6742C24.9135 43.673 25.3358 43.6737 25.7581 43.6749C26.0822 43.6756 26.4062 43.6753 26.7303 43.6748C26.886 43.6747 27.0418 43.6749 27.1975 43.6753C27.415 43.6758 27.6324 43.6751 27.8498 43.674C27.9737 43.6738 28.0976 43.6737 28.2252 43.6735C28.526 43.679 28.526 43.679 28.7097 43.4534C28.7097 43.26 28.7097 43.0667 28.7097 42.8674C26.2604 42.8674 23.8112 42.8674 21.2878 42.8674Z" fill="#01594D"/>
<path d="M36.038 8.03791C36.8522 8.7276 37.4054 9.61229 37.5784 10.6739C37.6773 11.8922 37.4138 13.0149 36.6209 13.9579C35.9077 14.7035 35.0339 15.2443 33.9865 15.3316C33.9179 15.3378 33.8493 15.3439 33.7786 15.3503C32.5835 15.4098 31.5764 14.944 30.673 14.1998C29.956 13.5458 29.5526 12.6267 29.4615 11.6653C29.4486 10.4617 29.658 9.50287 30.4709 8.59333C30.5187 8.53429 30.5665 8.47525 30.6158 8.41442C31.979 6.86566 34.4456 6.87127 36.038 8.03791ZM31.5912 9.67022C31.0901 10.3415 30.9703 10.9869 31.0568 11.816C31.089 11.8804 31.1212 11.9449 31.1545 12.0113C32.7336 12.0113 34.3127 12.0113 35.9396 12.0113C36.0394 11.0137 36.0652 10.4121 35.433 9.63092C34.9055 9.07774 34.2882 8.82307 33.5348 8.75812C32.7682 8.7724 32.0997 9.10404 31.5912 9.67022ZM32.8146 13.5738C33.2323 13.7826 33.4316 13.8018 33.8888 13.7691C34.0177 13.7047 34.1466 13.6402 34.2795 13.5738C33.7961 13.5738 33.3127 13.5738 32.8146 13.5738Z" fill="#01594D"/>
<path d="M24.3822 20.6314C25.2373 21.2578 25.8313 22.0678 26.0489 23.1197C26.1947 24.2666 26.0729 25.403 25.3687 26.3538C25.2499 26.491 25.1278 26.6254 25.0025 26.7567C24.9151 26.8499 24.9151 26.8499 24.8259 26.9451C24.1067 27.6418 23.115 28.0303 22.1155 28.0506C20.9594 28.0317 19.9922 27.6453 19.1366 26.8658C18.343 26.019 17.9128 24.9339 17.9472 23.7728C18.0609 22.6438 18.4929 21.6407 19.3274 20.858C20.8598 19.6995 22.7669 19.5879 24.3822 20.6314ZM20.022 22.4598C19.6101 23.1083 19.4244 23.7576 19.5753 24.5273C19.7633 25.1962 20.126 25.7273 20.7148 26.1074C21.3962 26.4608 22.0377 26.5717 22.793 26.366C23.4181 26.1363 23.9196 25.7257 24.2655 25.1556C24.5562 24.5057 24.6542 23.8664 24.4314 23.1819C24.1048 22.45 23.6022 21.9063 22.8602 21.587C21.7876 21.2518 20.7564 21.6244 20.022 22.4598Z" fill="#01594D"/>
</g>
<defs>
<clipPath id="clip0_1494_118">
<rect width="50" height="50" fill="white"/>
</clipPath>
</defs>
</svg>
