<svg width="50" height="50" viewBox="0 0 50 50" fill="none" xmlns="http://www.w3.org/2000/svg">
<g clip-path="url(#clip0_318_549)">
<path d="M3.76593 40.9093L5.96417 44.722C6.42091 45.5246 7.07843 46.1558 7.85079 46.6153L15.7359 41.0247L15.7503 32.9983L7.88145 29.4531L7.99572e-06 32.9701C-0.0015545 33.8578 0.225887 34.746 0.682723 35.5486L3.76593 40.9093Z" fill="#0066DD"/>
<path d="M25.0286 16.9782L25.4399 6.52275L17.1778 3.33301C16.4038 3.78984 15.744 4.41865 15.2844 5.21963L0.691895 30.394C0.232324 31.1951 0.0015625 32.0824 0 32.9701L15.7503 32.9982L25.0286 16.9782Z" fill="#00AD3C"/>
<path d="M25.0286 16.9783L32.5973 12.9066L32.928 3.36124C32.1557 2.90167 31.2683 2.671 30.352 2.66934L19.7563 2.6504C18.8399 2.64874 17.9518 2.90489 17.1777 3.33311L25.0286 16.9783Z" fill="#00831E"/>
<path d="M34.2494 33.0311L15.75 32.998L7.85059 46.615C8.62295 47.0746 9.51035 47.3053 10.4267 47.3069L39.5217 47.3589C40.4381 47.3605 41.3263 47.1044 42.1003 46.6762L42.131 37.5297L34.2494 33.0311Z" fill="#0084FF"/>
<path d="M42.1004 46.6767C42.8744 46.2198 43.5342 45.591 43.9938 44.79L44.913 43.2167L49.308 35.6357C49.7676 34.8348 49.9983 33.9475 49.9999 33.0597L40.8963 28.2695L34.2783 33.0316L42.1004 46.6767Z" fill="#FF4131"/>
<path d="M42.0663 17.8681L34.815 5.25479C34.3583 4.45205 33.7008 3.8209 32.9283 3.36133L25.0288 16.9784L34.2498 33.0316L49.9715 33.0598C49.973 32.1721 49.7455 31.2839 49.2888 30.4812L42.0663 17.8681Z" fill="#FFBA00"/>
</g>
<defs>
<clipPath id="clip0_318_549">
<rect width="50" height="50" fill="white" transform="translate(0 0.00488281)"/>
</clipPath>
</defs>
</svg>
