<svg width="50" height="50" viewBox="0 0 50 50" fill="none" xmlns="http://www.w3.org/2000/svg">
<path fill-rule="evenodd" clip-rule="evenodd" d="M12.6712 32.7993H8.30574C4.71299 32.7993 1.77417 29.8602 1.77417 26.2698C1.77417 23.7417 3.23015 21.5372 5.34417 20.4526C5.34407 20.4414 5.34407 20.4301 5.34407 20.4188C5.34407 14.9135 9.80594 10.4496 15.3113 10.4496C15.582 10.4496 15.8503 10.4604 16.1155 10.4816C17.2229 6.18326 21.124 3.00659 25.7681 3.00659C28.2879 3.00659 30.5911 3.94238 32.3467 5.4862C33.1717 5.23953 34.0455 5.10669 34.951 5.10669C39.4534 5.10669 43.1871 8.38395 43.902 12.6829C46.4661 13.6076 48.2259 16.0634 48.2259 18.8268C48.2259 22.4173 45.2871 25.3563 41.6944 25.3563H37.7046C37.7472 25.6558 37.7693 25.9609 37.7693 26.2698C37.7693 29.8602 34.8304 32.7993 31.2377 32.7993H26.8722V40.0458H29.4937C29.8409 38.7248 31.0443 37.7492 32.4737 37.7492C34.1742 37.7492 35.5547 39.1297 35.5547 40.8301C35.5547 42.5306 34.1742 43.9111 32.4737 43.9111C31.0443 43.9111 29.8409 42.9355 29.4937 41.6144H26.0879C25.6548 41.6144 25.3036 41.2634 25.3036 40.8301V32.7993H20.556V40.9325C21.8771 41.2797 22.8526 42.4831 22.8526 43.9125C22.8526 45.6129 21.4721 46.9935 19.7717 46.9935C18.0713 46.9935 16.6907 45.6129 16.6907 43.9125C16.6907 42.4831 17.6663 41.2797 18.9874 40.9325V32.7993H14.2399V40.8301C14.2399 41.2634 13.8887 41.6144 13.4555 41.6144H10.0498C9.7025 42.9355 8.49917 43.9111 7.06976 43.9111C5.36927 43.9111 3.98878 42.5306 3.98878 40.8301C3.98878 39.1297 5.36927 37.7492 7.06976 37.7492C8.49917 37.7492 9.7025 38.7248 10.0498 40.0458H12.6712V32.7993ZM17.6724 10.731C19.2609 11.117 20.7011 11.8837 21.8901 12.9291C22.7151 12.6825 23.5889 12.5496 24.4943 12.5496C28.9966 12.5496 32.7304 15.827 33.4453 20.1258C35.2016 20.7591 36.5805 22.1109 37.2751 23.7877H41.6944C44.4242 23.7877 46.6573 21.5548 46.6573 18.8268C46.6573 16.5919 45.1415 14.6225 42.9872 14.0378C42.6755 13.9533 42.4476 13.6863 42.4129 13.3652C42.0061 9.60316 38.8216 6.67532 34.951 6.67532C34.0619 6.67532 33.2096 6.82973 32.4181 7.11326C32.1368 7.21394 31.8228 7.1462 31.6081 6.93836C30.0965 5.47512 28.0364 4.57522 25.7681 4.57522C21.9063 4.57522 18.6538 7.18149 17.6724 10.731ZM31.2377 31.2307C33.9675 31.2307 36.2006 28.9979 36.2006 26.2698C36.2006 24.0348 34.6848 22.0654 32.5305 21.4808C32.2189 21.3962 31.9909 21.1292 31.9562 20.8082C31.5495 17.0461 28.365 14.1183 24.4943 14.1183C23.6052 14.1183 22.7529 14.2728 21.9614 14.5562C21.6802 14.657 21.366 14.5891 21.1514 14.3814C19.6399 12.9181 17.5797 12.0183 15.3113 12.0183C10.6723 12.0183 6.9127 15.7798 6.9127 20.4188C6.9127 20.5805 6.91633 20.7422 6.92564 20.902C6.94505 21.2362 6.75015 21.546 6.44035 21.6731C4.62976 22.4159 3.3428 24.1992 3.3428 26.2698C3.3428 28.9979 5.57593 31.2307 8.30574 31.2307H31.2377ZM32.4737 39.3179C31.6391 39.3179 30.9614 39.9955 30.9614 40.8301C30.9614 41.6648 31.6391 42.3425 32.4737 42.3425C33.3084 42.3425 33.986 41.6648 33.986 40.8301C33.986 39.9955 33.3084 39.3179 32.4737 39.3179ZM19.7717 42.4001C18.937 42.4001 18.2594 43.0778 18.2594 43.9125C18.2594 44.7472 18.937 45.4248 19.7717 45.4248C20.6064 45.4248 21.284 44.7472 21.284 43.9125C21.284 43.0778 20.6064 42.4001 19.7717 42.4001ZM7.06976 39.3179C6.23505 39.3179 5.55741 39.9955 5.55741 40.8301C5.55741 41.6648 6.23505 42.3425 7.06976 42.3425C7.90437 42.3425 8.58201 41.6648 8.58201 40.8301C8.58201 39.9955 7.90437 39.3179 7.06976 39.3179ZM34.9814 11.6618V9.94561C34.9814 9.51277 35.3329 9.1613 35.7657 9.1613C36.1987 9.1613 36.5501 9.51277 36.5501 9.94561V11.6618H38.2662C38.6991 11.6618 39.0505 12.0132 39.0505 12.4461C39.0505 12.8789 38.6991 13.2304 38.2662 13.2304H36.5501V14.9465C36.5501 15.3793 36.1987 15.7308 35.7657 15.7308C35.3329 15.7308 34.9814 15.3793 34.9814 14.9465V13.2304H33.2653C32.8325 13.2304 32.481 12.8789 32.481 12.4461C32.481 12.0132 32.8325 11.6618 33.2653 11.6618H34.9814Z" fill="#014339"/>
</svg>
