<svg width="60" height="60" viewBox="0 0 60 60" fill="none" xmlns="http://www.w3.org/2000/svg">
<g clip-path="url(#clip0_318_587)">
<g clip-path="url(#clip1_318_587)">
<path d="M34.6876 0.468771C34.7751 0.491959 34.8625 0.515147 34.9526 0.539038C38.2772 1.45099 41.0807 3.17383 43.5939 5.50783C43.707 5.60935 43.707 5.60935 43.8223 5.71291C46.9717 8.67082 49.1674 13.4635 49.355 17.7781C49.3994 21.9797 49.3994 21.9797 48.9845 23.6719C48.9496 23.8179 48.9496 23.8179 48.914 23.9669C48.2447 26.6886 47.0102 29.0811 45.4437 31.3884C45.06 31.956 44.6932 32.5342 44.3263 33.1128C44.2569 33.2223 44.1874 33.3317 44.1159 33.4445C43.9737 33.6689 43.8315 33.8932 43.6893 34.1177C43.3458 34.6597 43.001 35.2009 42.6564 35.7422C42.5218 35.9537 42.3872 36.1652 42.2526 36.3767C41.5669 37.4542 40.8812 38.5318 40.1955 39.6094C40.2945 39.6221 40.3936 39.6347 40.4956 39.6478C41.5138 39.7847 42.5058 39.9737 43.506 40.21C43.581 40.2277 43.6561 40.2453 43.7334 40.2635C47.7452 41.2137 53.2049 42.6379 55.547 46.4063C56.3685 47.8776 56.5797 49.2478 56.2991 50.9125C55.6042 53.2862 53.4892 54.7929 51.4365 55.951C47.6195 58.012 43.231 58.9098 38.9723 59.5093C38.891 59.5209 38.8097 59.5326 38.726 59.5446C35.9328 59.9388 33.135 60.0446 30.3176 60.0373C30.062 60.0366 29.8065 60.0364 29.5509 60.0361C27.0292 60.0324 24.5353 59.9689 22.0314 59.6485C21.8188 59.6231 21.8188 59.6231 21.6019 59.5971C16.6553 58.9999 10.8867 57.9036 6.79701 54.8438C6.63137 54.7212 6.63137 54.7212 6.46239 54.5961C5.11462 53.5495 3.99943 52.2166 3.63295 50.5078C3.45266 48.4466 3.89834 47.0091 5.2223 45.4175C8.67773 41.6616 14.6227 40.418 19.4533 39.6094C19.5693 39.6094 19.6853 39.6094 19.8048 39.6094C18.9317 38.2246 18.0555 36.8418 17.1759 35.4611C16.9004 35.0287 16.6255 34.596 16.351 34.1629C16.2157 33.9496 16.0803 33.7363 15.945 33.523C15.8779 33.4172 15.8109 33.3114 15.7419 33.2025C15.3881 32.6459 15.03 32.0927 14.6646 31.5436C11.555 26.8653 9.78388 21.5897 10.862 15.9229C10.9427 15.5344 11.0342 15.1499 11.1329 14.7656C11.1549 14.6767 11.1768 14.5878 11.1994 14.4963C11.5153 13.2405 11.9757 12.0628 12.5392 10.8985C12.5753 10.8238 12.6114 10.7492 12.6486 10.6723C14.9851 5.92186 19.1898 2.51998 24.1449 0.797731C24.5303 0.672196 24.9198 0.568131 25.3126 0.468771C25.4428 0.434555 25.4428 0.434555 25.5757 0.399649C28.4546 -0.326765 31.8213 -0.293466 34.6876 0.468771ZM26.2501 3.9844C26.1074 4.02408 26.1074 4.02408 25.9618 4.06456C21.7107 5.28897 18.2625 8.03471 16.0955 11.9013C15.2413 13.4799 14.7426 15.1167 14.4142 16.875C14.3936 16.9841 14.373 17.0931 14.3518 17.2055C14.0751 19.0881 14.1357 21.3702 14.6486 23.2031C14.6873 23.3437 14.6873 23.3437 14.7269 23.4872C15.3191 25.5664 16.269 27.3992 17.4904 29.1742C17.8757 29.7358 18.2392 30.311 18.6037 30.8863C18.6733 30.996 18.7429 31.1057 18.8146 31.2188C18.957 31.4434 19.0994 31.668 19.2417 31.8926C19.5801 32.4267 19.9195 32.9602 20.2589 33.4937C20.3595 33.6517 20.3595 33.6517 20.4621 33.813C20.9838 34.6327 21.5073 35.4513 22.0314 36.2696C22.826 37.5102 23.6178 38.7526 24.4082 39.9959C24.7486 40.5312 25.0892 41.0664 25.4298 41.6016C25.5665 41.8164 25.7033 42.0313 25.84 42.2461C25.9077 42.3525 25.9753 42.4588 26.0451 42.5684C26.2501 42.8906 26.4552 43.2129 26.6603 43.5352C26.7281 43.6417 26.7959 43.7482 26.8657 43.8579C27.0014 44.0711 27.137 44.2844 27.2727 44.4976C27.6303 45.0597 27.9881 45.6216 28.3462 46.1833C28.4208 46.3003 28.4953 46.4173 28.5721 46.5379C28.7149 46.7619 28.8577 46.9859 29.0006 47.2099C29.0973 47.3616 29.0973 47.3616 29.1958 47.5163C29.2523 47.6049 29.3087 47.6934 29.3669 47.7846C29.4878 47.9775 29.6025 48.1743 29.7135 48.373C29.7694 48.4588 29.8253 48.5445 29.883 48.6328C29.9603 48.6328 30.0376 48.6328 30.1173 48.6328C30.2877 48.4118 30.2877 48.4118 30.4588 48.1206C30.5277 48.0088 30.5966 47.897 30.6675 47.7819C30.7795 47.5976 30.7795 47.5976 30.8937 47.4097C31.0539 47.1496 31.2143 46.8896 31.3748 46.6297C31.4368 46.529 31.4368 46.529 31.5 46.4263C31.9272 45.7334 32.3654 45.0477 32.8053 44.3628C32.8828 44.242 32.9603 44.1212 33.0401 43.9967C33.1977 43.7512 33.3552 43.5057 33.5128 43.2603C33.9099 42.6418 34.3061 42.0228 34.7023 41.4038C34.7801 41.2823 34.8578 41.1608 34.938 41.0357C35.7162 39.8195 36.4912 38.6013 37.2658 37.3828C38.202 35.91 39.1401 34.4385 40.0815 32.9689C40.6705 32.0491 41.2579 31.1283 41.8421 30.2054C42.1474 29.7239 42.455 29.2447 42.7736 28.7718C44.6866 25.9229 45.7519 22.8991 45.7472 19.4458C45.7471 19.3667 45.7471 19.2876 45.747 19.2061C45.7318 15.0851 44.0861 11.4866 41.3673 8.43752C41.2561 8.31131 41.2561 8.31131 41.1426 8.18255C38.694 5.57181 34.8897 3.81329 31.3379 3.60863C30.9014 3.59736 30.466 3.59422 30.0294 3.59621C29.9524 3.5965 29.8754 3.5968 29.796 3.5971C28.5772 3.60421 27.4278 3.65632 26.2501 3.9844ZM7.77388 48.0931C7.34883 48.6039 7.17569 49.0967 7.20442 49.7553C7.43736 50.8331 8.40975 51.5647 9.28553 52.1357C13.2164 54.6058 18.0339 55.5097 22.5807 56.0449C22.6634 56.0547 22.7461 56.0644 22.8312 56.0745C24.5262 56.2715 26.2153 56.3848 27.9223 56.391C28.0756 56.3918 28.2289 56.3927 28.3868 56.3935C28.8782 56.3958 29.3696 56.3964 29.861 56.3965C29.9448 56.3966 30.0285 56.3966 30.1149 56.3967C32.6707 56.3975 35.1977 56.3607 37.7345 56.0156C37.8934 55.9947 38.0522 55.9738 38.2111 55.9528C40.3081 55.6723 42.3708 55.2789 44.4142 54.7266C44.5186 54.6987 44.623 54.6707 44.7306 54.642C47.3451 53.9321 50.29 52.9244 52.1486 50.8594C52.2031 50.7996 52.2576 50.7398 52.3138 50.6781C52.6968 50.213 52.8224 49.8452 52.7826 49.2412C52.5965 48.247 51.7492 47.5353 50.9726 46.9657C47.701 44.7313 41.9648 42.5765 37.9689 43.0078C37.7331 43.219 37.7331 43.219 37.5629 43.5187C37.4596 43.6799 37.4596 43.6799 37.3542 43.8444C37.2863 43.955 37.2185 44.0657 37.1486 44.1797C37.0216 44.3757 36.8945 44.5716 36.7673 44.7675C36.6377 44.9718 36.5085 45.1762 36.3795 45.3809C36.2353 45.6085 36.0911 45.8362 35.9469 46.0639C35.8741 46.179 35.8013 46.2942 35.7262 46.4129C35.3811 46.9583 35.0343 47.5025 34.6876 48.0469C34.2687 48.7048 33.8501 49.3629 33.4325 50.0217C33.0318 50.6533 32.6298 51.284 32.2267 51.9141C32.15 52.0344 32.15 52.0344 32.0717 52.1572C31.9437 52.3575 31.8143 52.557 31.6847 52.7564C31.5846 52.9111 31.5846 52.9111 31.4824 53.069C31.189 53.4507 30.9245 53.6372 30.4689 53.7891C29.792 53.8335 29.4258 53.7937 28.8283 53.4375C28.1288 52.6961 27.6272 51.7324 27.1023 50.8629C26.7379 50.2592 26.3642 49.663 25.9791 49.0723C25.4832 48.3114 24.9935 47.5468 24.507 46.7798C23.9471 45.8982 23.3836 45.0191 22.8151 44.1431C22.7498 44.0423 22.6844 43.9415 22.6172 43.8376C22.5572 43.7455 22.4973 43.6534 22.4356 43.5585C22.3564 43.4368 22.3564 43.4368 22.2757 43.3126C22.1598 43.1289 22.1598 43.1289 22.0314 43.0078C17.611 42.8181 10.8495 44.815 7.77388 48.0931Z" fill="#014339"/>
<path d="M35.2431 12.2222C35.6731 12.5738 36.0598 12.96 36.4453 13.3594C36.5317 13.4421 36.6181 13.5249 36.7072 13.6102C38.2239 15.1505 38.8268 17.3482 38.8477 19.4531C38.8245 21.7873 38.0834 23.9315 36.4105 25.5926C36.306 25.6935 36.2015 25.7945 36.0938 25.8984C36.011 25.9848 35.9282 26.0712 35.8429 26.1603C34.3026 27.677 32.1049 28.2799 30 28.3008C27.6658 28.2777 25.5216 27.5365 23.8605 25.8636C23.7596 25.7591 23.6587 25.6546 23.5547 25.5469C23.4683 25.4641 23.3819 25.3813 23.2928 25.296C21.7761 23.7558 21.1732 21.558 21.1523 19.4531C21.1755 17.1189 21.9166 14.9747 23.5895 13.3136C23.694 13.2127 23.7985 13.1118 23.9062 13.0078C23.989 12.9214 24.0718 12.835 24.1571 12.746C26.9925 9.9538 32.1219 9.89859 35.2431 12.2222ZM26.3672 15.7031C26.2926 15.7729 26.2179 15.8427 26.1411 15.9146C25.1464 16.9434 24.8043 18.2745 24.7986 19.6657C24.8235 21.0149 25.3319 22.1063 26.25 23.0859C26.3547 23.1979 26.3547 23.1979 26.4615 23.3121C27.4903 24.3067 28.8214 24.6488 30.2126 24.6545C31.5618 24.6297 32.6532 24.1212 33.6328 23.2031C33.7447 23.0984 33.7447 23.0984 33.8589 22.9916C34.8536 21.9629 35.1957 20.6318 35.2014 19.2405C35.1765 17.8913 34.6681 16.7999 33.75 15.8203C33.6453 15.7084 33.6453 15.7084 33.5385 15.5942C32.5097 14.5995 31.1786 14.2574 29.7874 14.2517C28.4382 14.2766 27.3468 14.785 26.3672 15.7031Z" fill="#014339"/>
</g>
</g>
<defs>
<clipPath id="clip0_318_587">
<rect width="60" height="60" fill="white"/>
</clipPath>
<clipPath id="clip1_318_587">
<rect width="60" height="60" fill="white"/>
</clipPath>
</defs>
</svg>
