<svg width="50" height="50" viewBox="0 0 50 50" fill="none" xmlns="http://www.w3.org/2000/svg">
<path fill-rule="evenodd" clip-rule="evenodd" d="M14.1835 44.8449L14.6433 45.6573C14.6437 45.6579 14.644 45.6585 14.6444 45.6592C15.1168 46.4996 14.8171 47.5719 13.9816 48.0437L12.1397 49.0878C12.1389 49.0882 12.1381 49.0886 12.1372 49.0891C11.2969 49.5616 10.2246 49.2618 9.75253 48.4259L4.33596 38.8549C3.8591 38.0137 4.1589 36.9403 4.99557 36.4678L6.83969 35.4238L6.84037 35.4234C7.67655 34.9511 8.74929 35.2478 9.22547 36.084L9.22645 36.0859L9.58665 36.7224L14.2955 33.9962C15.7792 33.138 17.2969 32.587 18.9265 33.1162C20.4734 33.6178 22.9984 34.6998 25.5757 35.1655C25.6102 35.1718 25.6444 35.1803 25.6778 35.1912C27.0488 35.6351 27.8794 37.0229 27.5051 38.415C27.4757 38.5244 27.4415 38.63 27.4024 38.7314C27.5781 38.6644 27.7515 38.5814 27.923 38.4816L34.4909 34.6563C36.9305 33.2351 38.5596 33.4107 39.4802 34.0283C40.2892 34.5711 40.6666 35.4965 40.6424 36.4062C40.618 37.3266 40.1755 38.2037 39.4537 38.6482L27.5361 45.9858C26.2505 46.7792 24.8423 46.966 23.3835 46.5768L23.3826 46.5766L15.0514 44.3437L14.1835 44.8449ZM13.2772 46.4282L7.86214 36.86L7.86155 36.8589C7.81116 36.772 7.69939 36.7398 7.61184 36.7892L5.76831 37.8328L5.76763 37.8332C5.68076 37.8824 5.65106 37.9941 5.70057 38.0814L5.70086 38.0819L11.1176 47.6533L11.118 47.6539C11.1674 47.7415 11.2801 47.7712 11.3681 47.722L13.2081 46.6791L13.2092 46.6785C13.2967 46.629 13.3265 46.5164 13.2772 46.4282ZM13.4109 43.4796L14.5483 42.8228C14.7285 42.7188 14.9426 42.6906 15.1436 42.7445L23.788 45.0612C24.815 45.3351 25.8071 45.2095 26.7122 44.6509L26.7129 44.6505L38.6312 37.3126C38.9288 37.1292 39.0643 36.7441 39.0744 36.3646C39.1046 35.2279 37.9591 34.4513 35.2805 36.0118L28.7127 39.8368C27.6322 40.4665 26.5 40.6415 25.2658 40.445C25.2649 40.4449 25.264 40.4447 25.2631 40.4446L24.449 40.3122C24.4487 40.3121 24.4484 40.3121 24.448 40.312C24.4374 40.3102 24.4268 40.3083 24.4164 40.3062C24.416 40.3061 24.4156 40.306 24.4153 40.3059C22.9306 40.0011 21.5534 39.5528 20.0255 39.1422C19.6074 39.0298 19.3592 38.5992 19.4715 38.1812C19.5839 37.7631 20.0145 37.5149 20.4325 37.6273C21.9178 38.0265 23.2567 38.4643 24.6984 38.7627C25.3538 38.8332 25.8391 38.5705 25.9901 38.008L25.9902 38.0077C26.1422 37.4424 25.7855 36.8975 25.2381 36.6984C22.6029 36.213 20.0245 35.1212 18.4425 34.6082L18.4421 34.6081C17.2518 34.2216 16.1646 34.7273 15.0809 35.354L10.3593 38.0876L13.4109 43.4796ZM7.28537 37.8016C7.70341 37.7393 8.09165 38.0279 8.1539 38.4461C8.21361 38.8641 7.92488 39.2548 7.50684 39.3145C7.0888 39.3767 6.70057 39.0856 6.63841 38.6676C6.57871 38.2494 6.86733 37.8613 7.28537 37.8016ZM16.9199 29.5217C16.5723 30.8482 15.3645 31.8282 13.9296 31.8282C12.2236 31.8282 10.8387 30.4432 10.8387 28.7374C10.8387 27.0315 12.2236 25.6465 13.9296 25.6465C15.3645 25.6465 16.5723 26.6264 16.9199 27.953H23.7765V26.8185C23.7765 26.3854 24.1276 26.0342 24.5609 26.0342H28.3345V22.9738H16.2353C15.8155 22.9738 15.413 22.8072 15.1162 22.5103C14.8194 22.2135 14.6526 21.811 14.6526 21.3913V14.6737C14.6526 14.254 14.8194 13.8515 15.1162 13.5546C15.413 13.2578 15.8155 13.0911 16.2353 13.0911H19.2559V10.569H16.2353C15.8155 10.569 15.413 10.4023 15.1162 10.1055C14.8194 9.80873 14.6526 9.40618 14.6526 8.98648V2.26883C14.6526 1.84912 14.8194 1.44657 15.1162 1.14981C15.413 0.853044 15.8155 0.686279 16.2353 0.686279H42.0023C42.422 0.686279 42.8246 0.853044 43.1214 1.14981C43.4182 1.44657 43.585 1.84912 43.585 2.26883V8.98648C43.585 9.40618 43.4182 9.80873 43.1214 10.1055C42.8246 10.4023 42.422 10.569 42.0023 10.569H38.9817V13.0911H42.0023C42.422 13.0911 42.8246 13.2578 43.1214 13.5546C43.4182 13.8515 43.585 14.254 43.585 14.6737V21.3913C43.585 21.811 43.4182 22.2135 43.1214 22.5103C42.8246 22.8072 42.422 22.9738 42.0023 22.9738H29.9031V26.0342H33.6767C34.11 26.0342 34.4611 26.3854 34.4611 26.8185V27.953H39.8103C40.1578 26.6264 41.3657 25.6465 42.8007 25.6465C44.5065 25.6465 45.8914 27.0315 45.8914 28.7374C45.8914 30.4432 44.5065 31.8282 42.8007 31.8282C41.3657 31.8282 40.1578 30.8482 39.8103 29.5217H34.4611V31.1524C34.4611 31.5855 34.11 31.9367 33.6767 31.9367H24.5609C24.1276 31.9367 23.7765 31.5855 23.7765 31.1524V29.5217H16.9199ZM20.8245 13.0911H37.4131V10.569H20.8245V13.0911ZM13.9296 27.2151C13.0894 27.2151 12.4073 27.8972 12.4073 28.7374C12.4073 29.5775 13.0894 30.2596 13.9296 30.2596C14.7697 30.2596 15.4517 29.5775 15.4517 28.7374C15.4517 27.8972 14.7697 27.2151 13.9296 27.2151ZM32.8924 27.6028H25.3452V30.368H32.8924V27.6028ZM42.0023 2.25491H16.2353C16.2315 2.25491 16.228 2.25638 16.2254 2.25902C16.2227 2.26157 16.2213 2.2652 16.2213 2.26883V8.98648C16.2213 8.9901 16.2227 8.99373 16.2254 8.99628C16.228 8.99893 16.2315 9.0004 16.2353 9.0004H42.0023C42.0061 9.0004 42.0096 8.99893 42.0122 8.99628C42.0149 8.99373 42.0163 8.9901 42.0163 8.98648V2.26883C42.0163 2.2652 42.0149 2.26157 42.0122 2.25902C42.0096 2.25638 42.0061 2.25491 42.0023 2.25491ZM26.2632 3.14148C27.6355 3.14148 28.7495 4.2555 28.7495 5.62765C28.7495 6.99981 27.6355 8.11383 26.2632 8.11383C24.8911 8.11383 23.777 6.99981 23.777 5.62765C23.777 4.2555 24.8911 3.14148 26.2632 3.14148ZM26.2632 4.7101C25.7568 4.7101 25.3457 5.12128 25.3457 5.62765C25.3457 6.13402 25.7568 6.5452 26.2632 6.5452C26.7697 6.5452 27.1809 6.13402 27.1809 5.62765C27.1809 5.12128 26.7697 4.7101 26.2632 4.7101ZM38.9532 4.41295C38.9532 3.9801 39.3047 3.62863 39.7375 3.62863C40.1704 3.62863 40.5218 3.9801 40.5218 4.41295V6.84236C40.5218 7.2752 40.1704 7.62667 39.7375 7.62667C39.3047 7.62667 38.9532 7.2752 38.9532 6.84236V4.41295ZM32.22 4.41295C32.22 3.9801 32.5714 3.62863 33.0043 3.62863C33.4371 3.62863 33.7886 3.9801 33.7886 4.41295V6.84236C33.7886 7.2752 33.4371 7.62667 33.0043 7.62667C32.5714 7.62667 32.22 7.2752 32.22 6.84236V4.41295ZM35.5865 4.41295C35.5865 3.9801 35.938 3.62863 36.3709 3.62863C36.8038 3.62863 37.1552 3.9801 37.1552 4.41295V6.84236C37.1552 7.2752 36.8038 7.62667 36.3709 7.62667C35.938 7.62667 35.5865 7.2752 35.5865 6.84236V4.41295ZM20.0054 3.14148C21.3775 3.14148 22.4915 4.2555 22.4915 5.62765C22.4915 6.99981 21.3775 8.11383 20.0054 8.11383C18.6332 8.11383 17.5192 6.99981 17.5192 5.62765C17.5192 4.2555 18.6332 3.14148 20.0054 3.14148ZM20.0054 4.7101C19.499 4.7101 19.0878 5.12128 19.0878 5.62765C19.0878 6.13402 19.499 6.5452 20.0054 6.5452C20.5117 6.5452 20.9229 6.13402 20.9229 5.62765C20.9229 5.12128 20.5117 4.7101 20.0054 4.7101ZM42.0023 14.6597H16.2353C16.2315 14.6597 16.228 14.6612 16.2254 14.6638C16.2227 14.6665 16.2213 14.67 16.2213 14.6737V21.3913C16.2213 21.395 16.2227 21.3985 16.2254 21.4012C16.228 21.4037 16.2315 21.4052 16.2353 21.4052H42.0023C42.0061 21.4052 42.0096 21.4037 42.0122 21.4012C42.0149 21.3985 42.0163 21.395 42.0163 21.3913V14.6737C42.0163 14.67 42.0149 14.6665 42.0122 14.6638C42.0096 14.6612 42.0061 14.6597 42.0023 14.6597ZM20.0054 15.5463C21.3775 15.5463 22.4915 16.6603 22.4915 18.0325C22.4915 19.4047 21.3775 20.5187 20.0054 20.5187C18.6332 20.5187 17.5192 19.4047 17.5192 18.0325C17.5192 16.6603 18.6332 15.5463 20.0054 15.5463ZM20.0054 17.1149C19.499 17.1149 19.0878 17.5261 19.0878 18.0325C19.0878 18.5389 19.499 18.9501 20.0054 18.9501C20.5117 18.9501 20.9229 18.5389 20.9229 18.0325C20.9229 17.5261 20.5117 17.1149 20.0054 17.1149ZM26.2632 15.5463C27.6355 15.5463 28.7495 16.6603 28.7495 18.0325C28.7495 19.4047 27.6355 20.5187 26.2632 20.5187C24.8911 20.5187 23.777 19.4047 23.777 18.0325C23.777 16.6603 24.8911 15.5463 26.2632 15.5463ZM26.2632 17.1149C25.7568 17.1149 25.3457 17.5261 25.3457 18.0325C25.3457 18.5389 25.7568 18.9501 26.2632 18.9501C26.7697 18.9501 27.1809 18.5389 27.1809 18.0325C27.1809 17.5261 26.7697 17.1149 26.2632 17.1149ZM38.9532 16.8178C38.9532 16.385 39.3047 16.0335 39.7375 16.0335C40.1704 16.0335 40.5218 16.385 40.5218 16.8178V19.2472C40.5218 19.68 40.1704 20.0315 39.7375 20.0315C39.3047 20.0315 38.9532 19.68 38.9532 19.2472V16.8178ZM32.22 16.8178C32.22 16.385 32.5714 16.0335 33.0043 16.0335C33.4371 16.0335 33.7886 16.385 33.7886 16.8178V19.2472C33.7886 19.68 33.4371 20.0315 33.0043 20.0315C32.5714 20.0315 32.22 19.68 32.22 19.2472V16.8178ZM35.5865 16.8178C35.5865 16.385 35.938 16.0335 36.3709 16.0335C36.8038 16.0335 37.1552 16.385 37.1552 16.8178V19.2472C37.1552 19.68 36.8038 20.0315 36.3709 20.0315C35.938 20.0315 35.5865 19.68 35.5865 19.2472V16.8178ZM42.8007 27.2151C41.9605 27.2151 41.2784 27.8972 41.2784 28.7374C41.2784 29.5775 41.9605 30.2596 42.8007 30.2596C43.6408 30.2596 44.3228 29.5775 44.3228 28.7374C44.3228 27.8972 43.6408 27.2151 42.8007 27.2151Z" fill="#014339"/>
</svg>
