<svg width="50" height="50" viewBox="0 0 50 50" fill="none" xmlns="http://www.w3.org/2000/svg">
<path fill-rule="evenodd" clip-rule="evenodd" d="M4.84589 31.4526C2.35589 29.9325 0.686279 27.1885 0.686279 24.075C0.686279 20.6677 2.68569 17.7051 5.56765 16.3003C5.56667 16.226 5.56608 16.1516 5.56608 16.0772C5.56608 8.71049 11.5363 2.73755 18.9029 2.73755C22.3322 2.73755 25.4617 4.03265 27.8252 6.16176C28.9715 5.80225 30.1904 5.60814 31.4555 5.60814C37.5255 5.60814 42.5493 10.0693 43.4338 15.8915C46.9124 17.0692 49.3137 20.3622 49.3137 24.075C49.3137 27.1885 47.6441 29.9325 45.1541 31.4526V43.6513C45.1541 44.3376 44.7172 45.0487 43.7888 45.6187C42.2326 46.5744 39.1033 47.2625 35.488 47.2625C31.8728 47.2625 28.7436 46.5744 27.1874 45.6187C26.259 45.0487 25.8221 44.3376 25.8221 43.6513V32.7126H24.1779V43.6513C24.1779 44.3376 23.741 45.0487 22.8127 45.6187C21.2564 46.5744 18.1272 47.2625 14.512 47.2625C10.8967 47.2625 7.76746 46.5744 6.21118 45.6187C5.28285 45.0487 4.84589 44.3376 4.84589 43.6513V31.4526ZM45.1541 29.5323C46.7332 28.2328 47.7451 26.2663 47.7451 24.075C47.7451 20.8904 45.5855 18.084 42.516 17.251C42.2043 17.1664 41.9764 16.8994 41.9417 16.5783C41.37 11.2915 36.8949 7.17676 31.4555 7.17676C30.2061 7.17676 29.0084 7.39392 27.8961 7.79226C27.6149 7.89304 27.3008 7.8252 27.0862 7.61745C24.968 5.56706 22.0814 4.30618 18.9029 4.30618C12.4027 4.30618 7.13471 9.57686 7.13471 16.0772C7.13471 16.3037 7.13991 16.5302 7.15285 16.7541C7.17236 17.0884 6.97736 17.3982 6.66755 17.5253C4.08785 18.5837 2.25491 21.125 2.25491 24.075C2.25491 26.2663 3.26677 28.2328 4.84589 29.5323V26.4164C4.84589 25.73 5.28285 25.0189 6.21118 24.4489C7.76746 23.4932 10.8967 22.8052 14.512 22.8052C18.1272 22.8052 21.2564 23.4932 22.8127 24.4489C23.741 25.0189 24.1779 25.73 24.1779 26.4164V31.144H25.8221V26.4164C25.8221 25.73 26.259 25.0189 27.1874 24.4489C28.7436 23.4932 31.8728 22.8052 35.488 22.8052C39.1033 22.8052 42.2326 23.4932 43.7888 24.4489C44.7172 25.0189 45.1541 25.73 45.1541 26.4164V29.5323ZM43.5855 32.1614V28.5023C41.9701 29.3958 38.9522 30.0275 35.488 30.0275C32.0239 30.0275 29.0061 29.3958 27.3907 28.5023V32.1614C27.3907 32.2824 27.4873 32.379 27.6012 32.4879C27.8402 32.7166 28.1939 32.9211 28.6324 33.1115C30.1776 33.7824 32.6741 34.2039 35.488 34.2039C38.3021 34.2039 40.7986 33.7824 42.3438 33.1115C42.7823 32.9211 43.1359 32.7166 43.375 32.4879C43.4889 32.379 43.5855 32.2824 43.5855 32.1614ZM43.5855 37.9063V34.2473C41.9701 35.1408 38.9522 35.7725 35.488 35.7725C32.0239 35.7725 29.0061 35.1408 27.3907 34.2473V37.9063C27.3907 38.0275 27.4873 38.124 27.6012 38.2329C27.8403 38.4615 28.1939 38.666 28.6324 38.8564C30.1776 39.5274 32.6741 39.9489 35.488 39.9489C38.3021 39.9489 40.7985 39.5274 42.3437 38.8564C42.7823 38.666 43.1359 38.4615 43.375 38.2329C43.4889 38.124 43.5855 38.0275 43.5855 37.9063ZM27.3907 39.9922V43.6513C27.3907 43.7724 27.4873 43.8689 27.6012 43.9779C27.8403 44.2065 28.1939 44.411 28.6324 44.6014C30.1776 45.2724 32.6741 45.6938 35.488 45.6938C38.3021 45.6938 40.7985 45.2724 42.3437 44.6014C42.7823 44.411 43.1359 44.2065 43.375 43.9779C43.4889 43.8689 43.5855 43.7724 43.5855 43.6513V39.9922C41.9701 40.8857 38.9522 41.5175 35.488 41.5175C32.0239 41.5175 29.0061 40.8857 27.3907 39.9922ZM22.6093 37.9063V34.2473C20.9939 35.1408 17.9761 35.7725 14.512 35.7725C11.0478 35.7725 8.02991 35.1408 6.41451 34.2473V37.9063C6.41451 38.0275 6.51108 38.124 6.625 38.2329C6.86412 38.4615 7.21775 38.666 7.65628 38.8564C9.20148 39.5274 11.6979 39.9489 14.512 39.9489C17.3259 39.9489 19.8225 39.5274 21.3677 38.8564C21.8061 38.666 22.1597 38.4615 22.3988 38.2329C22.5127 38.124 22.6093 38.0275 22.6093 37.9063ZM6.41451 39.9922V43.6513C6.41451 43.7724 6.51108 43.8689 6.625 43.9779C6.86412 44.2065 7.21775 44.411 7.65628 44.6014C9.20148 45.2724 11.6979 45.6938 14.512 45.6938C17.3259 45.6938 19.8225 45.2724 21.3677 44.6014C21.8061 44.411 22.1597 44.2065 22.3988 43.9779C22.5127 43.8689 22.6093 43.7724 22.6093 43.6513V39.9922C20.9939 40.8857 17.9761 41.5175 14.512 41.5175C11.0478 41.5175 8.02991 40.8857 6.41451 39.9922ZM6.41451 28.5023V32.1614C6.41451 32.2824 6.51108 32.379 6.625 32.4879C6.86412 32.7166 7.21775 32.9211 7.65618 33.1115C9.20138 33.7824 11.6979 34.2039 14.512 34.2039C17.3259 34.2039 19.8225 33.7824 21.3677 33.1115C21.8061 32.9211 22.1598 32.7166 22.3988 32.4879C22.5127 32.379 22.6093 32.2824 22.6093 32.1614V28.5023C20.9939 29.3958 17.9761 30.0275 14.512 30.0275C11.0478 30.0275 8.02991 29.3958 6.41451 28.5023ZM22.6093 26.4164C22.6093 26.2953 22.5127 26.1987 22.3988 26.0897C22.1597 25.8612 21.8061 25.6567 21.3677 25.4663C19.8225 24.7953 17.3259 24.3738 14.512 24.3738C11.6979 24.3738 9.20148 24.7953 7.65628 25.4663C7.21775 25.6567 6.86412 25.8612 6.625 26.0897C6.51108 26.1987 6.41451 26.2953 6.41451 26.4164C6.41451 26.5375 6.51108 26.634 6.625 26.743C6.86412 26.9716 7.21775 27.1761 7.65618 27.3665C9.20138 28.0374 11.6979 28.4589 14.512 28.4589C17.3259 28.4589 19.8225 28.0374 21.3677 27.3665C21.8061 27.1761 22.1598 26.9716 22.3988 26.743C22.5127 26.634 22.6093 26.5375 22.6093 26.4164ZM43.5855 26.4164C43.5855 26.2953 43.4889 26.1987 43.375 26.0897C43.1359 25.8612 42.7823 25.6567 42.3437 25.4663C40.7985 24.7953 38.3021 24.3738 35.488 24.3738C32.6741 24.3738 30.1776 24.7953 28.6324 25.4663C28.1939 25.6567 27.8403 25.8612 27.6012 26.0897C27.4873 26.1987 27.3907 26.2953 27.3907 26.4164C27.3907 26.5375 27.4873 26.634 27.6012 26.743C27.8402 26.9716 28.1939 27.1761 28.6324 27.3665C30.1776 28.0374 32.6741 28.4589 35.488 28.4589C38.3021 28.4589 40.7986 28.0374 42.3438 27.3665C42.7823 27.1761 43.1359 26.9716 43.375 26.743C43.4889 26.634 43.5855 26.5375 43.5855 26.4164ZM21.8008 17.0569C20.034 17.0569 15.2963 17.0569 15.2963 17.0569V21.0562C15.2963 21.4891 14.9448 21.8405 14.512 21.8405C14.079 21.8405 13.7277 21.4891 13.7277 21.0562V16.2725C13.7277 15.8394 14.0787 15.4882 14.512 15.4882H21.7242C22.0175 13.9466 23.3735 12.7795 25 12.7795C26.6265 12.7795 27.9826 13.9466 28.2758 15.4882H35.488C35.9213 15.4882 36.2724 15.8394 36.2724 16.2725V20.8649C36.2724 21.2977 35.921 21.6492 35.488 21.6492C35.0552 21.6492 34.7037 21.2977 34.7037 20.8649V17.0569H28.1992C27.7921 18.4388 26.513 19.4487 25 19.4487C23.487 19.4487 22.2079 18.4388 21.8008 17.0569ZM25 14.3481C24.0254 14.3481 23.234 15.1395 23.234 16.1141C23.234 17.0888 24.0254 17.8801 25 17.8801C25.9746 17.8801 26.766 17.0888 26.766 16.1141C26.766 15.1395 25.9746 14.3481 25 14.3481ZM34.5986 38.645C34.1658 38.645 33.8143 38.2936 33.8143 37.8608C33.8143 37.4278 34.1658 37.0765 34.5986 37.0765H36.3776C36.8104 37.0765 37.1619 37.4278 37.1619 37.8608C37.1619 38.2936 36.8104 38.645 36.3776 38.645H34.5986ZM13.6225 44.39C13.1896 44.39 12.8381 44.0386 12.8381 43.6057C12.8381 43.1728 13.1896 42.8214 13.6225 42.8214H15.4014C15.8342 42.8214 16.1857 43.1728 16.1857 43.6057C16.1857 44.0386 15.8342 44.39 15.4014 44.39H13.6225ZM34.5986 44.39C34.1658 44.39 33.8143 44.0386 33.8143 43.6057C33.8143 43.1728 34.1658 42.8214 34.5986 42.8214H36.3776C36.8104 42.8214 37.1619 43.1728 37.1619 43.6057C37.1619 44.0386 36.8104 44.39 36.3776 44.39H34.5986ZM34.5986 32.9001C34.1658 32.9001 33.8143 32.5486 33.8143 32.1158C33.8143 31.6828 34.1658 31.3315 34.5986 31.3315H36.3776C36.8104 31.3315 37.1619 31.6828 37.1619 32.1158C37.1619 32.5486 36.8104 32.9001 36.3776 32.9001H34.5986ZM13.6225 32.9001C13.1896 32.9001 12.8381 32.5486 12.8381 32.1158C12.8381 31.6828 13.1896 31.3315 13.6225 31.3315H15.4014C15.8342 31.3315 16.1857 31.6828 16.1857 32.1158C16.1857 32.5486 15.8342 32.9001 15.4014 32.9001H13.6225ZM13.6225 38.645C13.1896 38.645 12.8381 38.2936 12.8381 37.8608C12.8381 37.4278 13.1896 37.0765 13.6225 37.0765H15.4014C15.8342 37.0765 16.1857 37.4278 16.1857 37.8608C16.1857 38.2936 15.8342 38.645 15.4014 38.645H13.6225Z" fill="#014339"/>
</svg>
