<svg width="50" height="50" viewBox="0 0 50 50" fill="none" xmlns="http://www.w3.org/2000/svg">
<path d="M43.1185 4.63691C43.2267 4.63568 43.3349 4.63445 43.4464 4.63318C43.5628 4.63397 43.6792 4.63476 43.7991 4.63557C43.919 4.6352 44.0389 4.63483 44.1624 4.63444C44.4159 4.63418 44.6694 4.6349 44.9229 4.63653C45.3113 4.63862 45.6995 4.63655 46.0879 4.63405C46.3341 4.63431 46.5802 4.63481 46.8264 4.63557C46.9428 4.63478 47.0592 4.63399 47.1791 4.63318C47.3414 4.63503 47.3414 4.63503 47.5069 4.63691C47.6021 4.63722 47.6972 4.63753 47.7951 4.63785C48.1263 4.70305 48.24 4.80692 48.4377 5.07808C48.4873 5.33004 48.4873 5.33004 48.4883 5.61824C48.4895 5.72644 48.4907 5.83464 48.492 5.94611C48.4908 6.12069 48.4908 6.12069 48.4896 6.29878C48.49 6.41869 48.4904 6.53859 48.4907 6.66213C48.491 6.91562 48.4903 7.16911 48.4887 7.42259C48.4866 7.81099 48.4886 8.19921 48.4911 8.5876C48.4909 8.83378 48.4904 9.07995 48.4896 9.32613C48.4904 9.44251 48.4912 9.55889 48.492 9.6788C48.4902 9.84109 48.4902 9.84109 48.4883 10.0067C48.488 10.1018 48.4877 10.1969 48.4873 10.2949C48.4239 10.6173 48.2995 10.7339 48.0471 10.9375C47.8518 10.9893 47.8518 10.9893 47.6565 10.9863C47.5598 10.9878 47.5598 10.9878 47.4612 10.9893C47.1712 10.9123 47.0614 10.7805 46.8752 10.5468C46.8219 10.2335 46.8219 10.2335 46.8157 9.86781C46.8141 9.80334 46.8125 9.73886 46.8108 9.67244C46.8061 9.46747 46.804 9.26258 46.802 9.05757C46.7992 8.9182 46.7963 8.77884 46.7932 8.63948C46.786 8.29872 46.7812 7.95797 46.7776 7.61714C46.7209 7.67392 46.6642 7.73071 46.6058 7.78921C45.2279 9.16925 43.8497 10.549 42.4713 11.9285C41.8047 12.5956 41.1382 13.2628 40.4719 13.9302C39.8913 14.5117 39.3106 15.0931 38.7296 15.6743C38.4219 15.9822 38.1142 16.2901 37.8067 16.5983C37.5176 16.8881 37.2282 17.1777 36.9387 17.4671C36.8322 17.5736 36.7258 17.6802 36.6196 17.7868C36.4749 17.932 36.3299 18.0768 36.1848 18.2216C36.1036 18.3029 36.0225 18.3842 35.9388 18.4679C35.6287 18.759 35.4479 18.762 35.0319 18.761C34.8706 18.761 34.8706 18.761 34.7061 18.761C34.5896 18.7605 34.4731 18.76 34.3531 18.7595C34.2342 18.7594 34.1152 18.7592 33.9927 18.7591C33.6116 18.7585 33.2305 18.7573 32.8494 18.7561C32.5915 18.7556 32.3336 18.7551 32.0757 18.7547C31.4425 18.7536 30.8093 18.752 30.176 18.75C30.1559 18.9078 30.1559 18.9078 30.1354 19.0688C30.0724 19.4714 29.9447 19.8153 29.7793 20.1843C29.7489 20.2524 29.7184 20.3206 29.6871 20.3908C28.6505 22.6423 26.7456 24.3444 24.4631 25.2746C23.7806 25.5215 22.9846 25.8008 22.251 25.7733C21.6809 25.7695 21.3839 25.9158 20.9645 26.3008C20.7782 26.4879 20.5952 26.6763 20.4134 26.8676C20.3148 26.9682 20.2159 27.0685 20.1169 27.1687C19.8581 27.4313 19.6021 27.6965 19.3465 27.9623C19.0347 28.2857 18.7197 28.6062 18.4052 28.9271C18.1608 29.1765 17.9169 29.4263 17.6744 29.6776C17.5443 29.812 17.5443 29.812 17.4115 29.9491C17.335 30.0284 17.2586 30.1077 17.1799 30.1894C16.9924 30.371 16.9924 30.371 16.7971 30.4687C16.6376 30.4414 16.4793 30.4064 16.3221 30.3679C14.4129 29.9449 12.0409 29.6431 10.2922 30.7239C7.64865 32.5741 5.45776 35.2553 3.36815 37.6891C3.28518 37.7852 3.28518 37.7852 3.20053 37.8833C3.15265 37.9392 3.10478 37.9952 3.05546 38.0528C2.82639 38.2913 2.69835 38.2841 2.35619 38.3117C2.06765 38.306 1.96404 38.2876 1.70922 38.1347C1.54403 37.8594 1.48969 37.6391 1.50626 37.317C1.57602 37.0605 1.68256 36.9355 1.86205 36.7402C1.95531 36.6383 1.95531 36.6383 2.05046 36.5343C2.36043 36.2079 2.67443 35.8864 2.99317 35.5686C3.10001 35.4615 3.10001 35.4615 3.209 35.3523C3.44189 35.1189 3.67513 34.886 3.90839 34.653C4.07117 34.4902 4.23394 34.3273 4.39669 34.1645C4.73644 33.8246 5.07636 33.4849 5.41641 33.1453C5.85296 32.7093 6.28907 32.2728 6.72504 31.8363C7.06038 31.5006 7.39595 31.1651 7.7316 30.8297C7.89259 30.6688 8.05352 30.5078 8.21437 30.3467C8.43831 30.1225 8.66255 29.8987 8.88688 29.6749C8.95359 29.608 9.0203 29.5411 9.08904 29.4721C9.14994 29.4115 9.21085 29.3509 9.2736 29.2884C9.32655 29.2355 9.37949 29.1826 9.43404 29.1281C9.63405 28.9461 9.73292 28.9055 10.0063 28.9111C10.1077 28.9187 10.2092 28.9264 10.3137 28.9342C13.8901 29.319 13.8901 29.319 17.1008 28.1353C17.8892 27.4285 18.6644 26.5389 19.1409 25.5859C19.0266 25.5751 18.9123 25.5642 18.7945 25.5531C16.8352 25.3058 14.831 23.8119 13.643 22.2995C12.9851 21.415 12.4789 20.4716 12.1096 19.4335C12.0877 19.372 12.0658 19.3105 12.0432 19.2471C11.2752 16.9591 11.5823 14.3311 12.6063 12.1799C13.8111 9.77339 15.9134 8.15788 18.426 7.299C20.8294 6.57956 23.4901 6.94647 25.6838 8.10542C27.9225 9.39749 29.5524 11.455 30.2542 13.9469C30.4501 14.6911 30.4896 15.4004 30.4789 16.1682C30.4778 16.3159 30.4778 16.3159 30.4767 16.4667C30.4749 16.7069 30.4723 16.9472 30.469 17.1875C31.8875 17.5427 33.6059 17.745 34.9337 16.995C35.9032 16.3749 36.7273 15.5421 37.5353 14.7304C37.6232 14.6422 37.6232 14.6422 37.7128 14.5521C38.4433 13.8147 39.1544 13.0598 39.8597 12.2984C40.4694 11.6412 41.0915 10.9964 41.7148 10.3521C42.9932 9.03025 44.2558 7.69421 45.508 6.34761C45.4213 6.3467 45.3346 6.34579 45.2453 6.34485C44.9227 6.34054 44.6003 6.33452 44.2778 6.32735C44.1384 6.32459 43.999 6.32252 43.8595 6.32115C43.6587 6.31905 43.4581 6.31449 43.2574 6.30946C43.1367 6.30742 43.016 6.30537 42.8916 6.30327C42.5265 6.24112 42.4101 6.14961 42.1877 5.85933C42.1359 5.66402 42.1359 5.66402 42.1389 5.4687C42.1374 5.37203 42.1374 5.37203 42.1359 5.27339C42.2712 4.76388 42.6345 4.63849 43.1185 4.63691ZM15.4299 11.0351C13.8488 12.6777 13.3235 14.7626 13.3528 16.9822C13.4135 18.9343 14.4265 20.7863 15.7988 22.1431C17.3487 23.5099 19.3274 24.266 21.4022 24.2134C23.5852 24.0749 25.5826 23.1156 27.03 21.4778C28.531 19.6828 28.9914 17.5324 28.8088 15.2343C28.6421 13.8793 27.9387 12.4594 27.051 11.4257C27.0025 11.3634 26.9541 11.3011 26.9041 11.2369C25.7769 9.84342 24.0187 8.9646 22.2659 8.69136C22.1395 8.66908 22.1395 8.66908 22.0107 8.64635C19.576 8.31384 17.1508 9.3577 15.4299 11.0351Z" fill="#014339"/>
<path d="M43.1184 14.0119C43.2266 14.0107 43.3348 14.0094 43.4463 14.0082C43.5627 14.009 43.6791 14.0098 43.799 14.0106C43.9189 14.0102 44.0388 14.0098 44.1623 14.0094C44.4158 14.0092 44.6693 14.0099 44.9228 14.0115C45.3112 14.0136 45.6994 14.0115 46.0878 14.009C46.334 14.0093 46.5802 14.0098 46.8263 14.0106C46.9427 14.0098 47.0591 14.009 47.179 14.0082C47.3413 14.01 47.3413 14.01 47.5069 14.0119C47.602 14.0122 47.6971 14.0125 47.7951 14.0129C48.1252 14.0778 48.2272 14.1939 48.4377 14.4531C48.4866 14.6965 48.4866 14.6965 48.4868 14.9759C48.4878 15.0826 48.4888 15.1892 48.4899 15.2991C48.4886 15.4749 48.4886 15.4749 48.4873 15.6541C48.4879 15.7786 48.4885 15.9031 48.4891 16.0313C48.4907 16.3771 48.4899 16.7228 48.4887 17.0686C48.4878 17.4414 48.4892 17.8142 48.4903 18.187C48.492 18.9174 48.4916 19.6477 48.4905 20.3781C48.4896 20.9716 48.4895 21.5651 48.4899 22.1586C48.49 22.243 48.49 22.3274 48.4901 22.4143C48.4902 22.5858 48.4904 22.7572 48.4905 22.9287C48.4916 24.5371 48.4903 26.1455 48.4882 27.7539C48.4865 29.1347 48.4868 30.5154 48.4886 31.8962C48.4907 33.4987 48.4915 35.1013 48.4903 36.7039C48.4902 36.8747 48.49 37.0455 48.4899 37.2163C48.4899 37.3004 48.4898 37.3844 48.4897 37.471C48.4894 38.0639 48.49 38.6569 48.4909 39.2498C48.492 39.9721 48.4917 40.6945 48.4896 41.4169C48.4886 41.7856 48.4882 42.1543 48.4895 42.523C48.4908 42.9223 48.4892 43.3215 48.4873 43.7208C48.4881 43.8379 48.489 43.9551 48.4899 44.0758C48.4884 44.2358 48.4884 44.2358 48.4868 44.399C48.4867 44.4912 48.4867 44.5834 48.4866 44.6784C48.4227 44.996 48.2972 45.1131 48.047 45.3125C47.7951 45.3621 47.7951 45.3621 47.5069 45.363C47.3987 45.3642 47.2905 45.3655 47.179 45.3667C47.0626 45.3659 46.9462 45.3651 46.8263 45.3643C46.6465 45.3649 46.6465 45.3649 46.463 45.3655C46.2095 45.3657 45.956 45.365 45.7025 45.3634C45.3141 45.3613 44.9259 45.3634 44.5375 45.3659C44.2913 45.3656 44.0452 45.3651 43.799 45.3643C43.6826 45.3651 43.5662 45.3659 43.4463 45.3667C43.284 45.3649 43.284 45.3649 43.1184 45.363C43.0233 45.3627 42.9282 45.3624 42.8302 45.3621C42.5001 45.2971 42.3981 45.181 42.1877 44.9218C42.1387 44.6784 42.1387 44.6784 42.1385 44.399C42.1375 44.2923 42.1365 44.1857 42.1354 44.0758C42.1363 43.9586 42.1372 43.8415 42.1381 43.7208C42.1374 43.5963 42.1368 43.4718 42.1362 43.3436C42.1346 42.9978 42.1354 42.6521 42.1366 42.3063C42.1375 41.9335 42.1361 41.5607 42.135 41.1879C42.1333 40.4575 42.1337 39.7272 42.1348 38.9968C42.1357 38.4033 42.1358 37.8098 42.1354 37.2163C42.1353 37.1319 42.1353 37.0475 42.1352 36.9606C42.1351 36.7891 42.1349 36.6177 42.1348 36.4463C42.1337 34.8378 42.135 33.2294 42.1371 31.621C42.1388 30.2403 42.1385 28.8595 42.1367 27.4787C42.1346 25.8762 42.1338 24.2736 42.135 22.671C42.1351 22.5002 42.1353 22.3294 42.1354 22.1586C42.1354 22.0746 42.1355 21.9905 42.1356 21.9039C42.1359 21.311 42.1353 20.7181 42.1344 20.1251C42.1333 19.4028 42.1336 18.6804 42.1357 17.9581C42.1367 17.5893 42.1371 17.2206 42.1358 16.8519C42.1345 16.4526 42.1361 16.0534 42.1381 15.6541C42.1372 15.537 42.1363 15.4198 42.1354 15.2991C42.1364 15.1925 42.1374 15.0858 42.1385 14.9759C42.1386 14.8837 42.1386 14.7915 42.1387 14.6965C42.2483 14.1517 42.6069 14.0136 43.1184 14.0119ZM43.7502 15.625C43.7502 24.9062 43.7502 34.1875 43.7502 43.75C44.7814 43.75 45.8127 43.75 46.8752 43.75C46.8752 34.4687 46.8752 25.1875 46.8752 15.625C45.8439 15.625 44.8127 15.625 43.7502 15.625Z" fill="#014339"/>
<path d="M35.3059 20.2619C35.4141 20.2607 35.5223 20.2594 35.6337 20.2582C35.7501 20.259 35.8665 20.2598 35.9864 20.2606C36.1063 20.2602 36.2262 20.2598 36.3498 20.2594C36.6032 20.2592 36.8567 20.2599 37.1102 20.2615C37.4986 20.2636 37.8868 20.2615 38.2752 20.259C38.5214 20.2593 38.7676 20.2598 39.0137 20.2606C39.1301 20.2598 39.2465 20.259 39.3664 20.2582C39.5287 20.26 39.5287 20.26 39.6943 20.2619C39.7894 20.2622 39.8845 20.2625 39.9825 20.2629C40.3275 20.3308 40.4179 20.4167 40.6251 20.7031C40.6843 21.0238 40.6777 21.3415 40.6747 21.6669C40.6753 21.7658 40.6759 21.8648 40.6765 21.9667C40.6781 22.2993 40.6768 22.6318 40.6756 22.9644C40.6762 23.2025 40.6768 23.4405 40.6777 23.6785C40.6793 24.2585 40.6791 24.8385 40.6779 25.4185C40.677 25.8898 40.6769 26.3611 40.6773 26.8325C40.6774 26.8995 40.6775 26.9666 40.6775 27.0356C40.6777 27.1719 40.6778 27.3081 40.6779 27.4443C40.679 28.7218 40.6777 29.9994 40.6756 31.277C40.6739 32.3735 40.6742 33.4699 40.676 34.5665C40.6781 35.8394 40.6789 37.1124 40.6777 38.3853C40.6776 38.521 40.6775 38.6567 40.6773 38.7924C40.6773 38.8592 40.6772 38.926 40.6772 38.9948C40.6768 39.4656 40.6774 39.9364 40.6783 40.4073C40.6795 41.0408 40.6787 41.6743 40.6764 42.3079C40.6759 42.5408 40.676 42.7737 40.6769 43.0066C40.678 43.3238 40.6766 43.6409 40.6747 43.958C40.6756 44.0509 40.6764 44.1437 40.6773 44.2393C40.6699 44.8599 40.6699 44.8599 40.4424 45.1743C40.1771 45.3506 40.0119 45.362 39.6943 45.363C39.5861 45.3642 39.4779 45.3655 39.3664 45.3667C39.25 45.3659 39.1337 45.3651 39.0137 45.3643C38.8339 45.3649 38.8339 45.3649 38.6504 45.3655C38.3969 45.3657 38.1434 45.365 37.8899 45.3634C37.5015 45.3613 37.1133 45.3634 36.7249 45.3659C36.4788 45.3656 36.2326 45.3651 35.9864 45.3643C35.87 45.3651 35.7536 45.3659 35.6337 45.3667C35.4714 45.3649 35.4714 45.3649 35.3059 45.363C35.2108 45.3627 35.1157 45.3624 35.0177 45.3621C34.6726 45.2941 34.5823 45.2082 34.3751 44.9218C34.3158 44.6011 34.3224 44.2834 34.3255 43.958C34.3249 43.8591 34.3243 43.7601 34.3236 43.6582C34.3221 43.3256 34.3233 42.9931 34.3245 42.6605C34.324 42.4224 34.3233 42.1844 34.3225 41.9464C34.3209 41.3664 34.3211 40.7864 34.3222 40.2064C34.3231 39.7351 34.3232 39.2638 34.3228 38.7924C34.3227 38.7254 34.3227 38.6583 34.3226 38.5893C34.3225 38.4531 34.3224 38.3169 34.3222 38.1806C34.3211 36.9031 34.3224 35.6255 34.3245 34.348C34.3263 33.2514 34.326 32.155 34.3242 31.0585C34.3221 29.7855 34.3212 28.5125 34.3224 27.2396C34.3226 27.1039 34.3227 26.9682 34.3228 26.8325C34.3229 26.7657 34.3229 26.6989 34.323 26.6301C34.3233 26.1593 34.3228 25.6885 34.3218 25.2177C34.3206 24.5841 34.3215 23.9506 34.3237 23.317C34.3243 23.0841 34.3241 22.8512 34.3233 22.6183C34.3222 22.3011 34.3235 21.984 34.3255 21.6669C34.3246 21.574 34.3237 21.4812 34.3228 21.3856C34.3303 20.765 34.3303 20.765 34.5577 20.4506C34.8231 20.2743 34.9882 20.2629 35.3059 20.2619ZM35.9376 21.875C35.9376 29.0937 35.9376 36.3125 35.9376 43.75C36.9688 43.75 38.0001 43.75 39.0626 43.75C39.0626 36.5312 39.0626 29.3125 39.0626 21.875C38.0313 21.875 37.0001 21.875 35.9376 21.875Z" fill="#014339"/>
<path d="M27.4933 25.7307C27.6015 25.7294 27.7097 25.7282 27.8212 25.7269C27.9376 25.7277 28.054 25.7285 28.1739 25.7293C28.2938 25.729 28.4137 25.7286 28.5372 25.7282C28.7907 25.7279 29.0442 25.7286 29.2977 25.7303C29.6861 25.7324 30.0743 25.7303 30.4627 25.7278C30.7089 25.7281 30.955 25.7286 31.2012 25.7293C31.3176 25.7285 31.434 25.7277 31.5539 25.7269C31.7162 25.7288 31.7162 25.7288 31.8818 25.7307C31.9769 25.731 32.072 25.7313 32.17 25.7316C32.5073 25.798 32.6043 25.8989 32.8125 26.1718C32.8509 26.4371 32.8654 26.6629 32.8621 26.928C32.8628 27.0046 32.8634 27.0812 32.864 27.1602C32.8656 27.4172 32.8643 27.6741 32.8631 27.9312C32.8636 28.1153 32.8643 28.2995 32.8652 28.4836C32.8669 28.984 32.8662 29.4844 32.865 29.9847C32.864 30.508 32.8649 31.0312 32.8656 31.5545C32.8663 32.4332 32.8653 33.312 32.8635 34.1907C32.8613 35.2072 32.862 36.2236 32.8642 37.2401C32.866 38.1123 32.8662 38.9844 32.8652 39.8566C32.8646 40.3777 32.8645 40.8989 32.8658 41.42C32.8669 41.91 32.8661 42.3998 32.8639 42.8898C32.8634 43.0698 32.8635 43.2497 32.8644 43.4297C32.8654 43.6751 32.8641 43.9203 32.8621 44.1657C32.863 44.2372 32.8639 44.3088 32.8648 44.3825C32.8596 44.7163 32.8349 44.8925 32.6299 45.1613C32.3646 45.3541 32.2081 45.3619 31.8818 45.363C31.7736 45.3642 31.6654 45.3655 31.5539 45.3667C31.4375 45.3659 31.3211 45.3651 31.2012 45.3643C31.0214 45.3649 31.0214 45.3649 30.8379 45.3655C30.5844 45.3657 30.3309 45.365 30.0774 45.3634C29.689 45.3613 29.3008 45.3634 28.9124 45.3659C28.6662 45.3656 28.42 45.3651 28.1739 45.3643C28.0575 45.3651 27.9411 45.3659 27.8212 45.3667C27.6589 45.3649 27.6589 45.3649 27.4933 45.363C27.3507 45.3625 27.3507 45.3625 27.2051 45.3621C26.8678 45.2956 26.7707 45.1948 26.5625 44.9218C26.5242 44.6565 26.5097 44.4308 26.5129 44.1657C26.5123 44.089 26.5117 44.0124 26.5111 43.9335C26.5095 43.6764 26.5108 43.4195 26.512 43.1625C26.5115 42.9783 26.5108 42.7942 26.5099 42.61C26.5081 42.1097 26.5088 41.6093 26.5101 41.1089C26.5111 40.5857 26.5101 40.0624 26.5095 39.5392C26.5088 38.6604 26.5098 37.7817 26.5116 36.903C26.5137 35.8865 26.5131 34.87 26.5109 33.8535C26.5091 32.9814 26.5089 32.1092 26.5099 31.2371C26.5105 30.7159 26.5106 30.1948 26.5093 29.6736C26.5082 29.1837 26.509 28.6938 26.5112 28.2039C26.5117 28.0239 26.5116 27.8439 26.5107 27.6639C26.5097 27.4186 26.511 27.1733 26.5129 26.928C26.5121 26.8564 26.5112 26.7849 26.5103 26.7112C26.5155 26.3774 26.5402 26.2012 26.7452 25.9324C27.0105 25.7395 27.167 25.7317 27.4933 25.7307ZM28.125 27.3437C28.125 32.7578 28.125 38.1718 28.125 43.75C29.1563 43.75 30.1875 43.75 31.25 43.75C31.25 38.3359 31.25 32.9218 31.25 27.3437C30.2188 27.3437 29.1875 27.3437 28.125 27.3437Z" fill="#014339"/>
<path d="M19.6808 31.9807C19.789 31.9794 19.8972 31.9782 20.0086 31.9769C20.125 31.9777 20.2414 31.9785 20.3613 31.9793C20.4812 31.979 20.6011 31.9786 20.7247 31.9782C20.9781 31.9779 21.2316 31.9786 21.4851 31.9803C21.8735 31.9824 22.2617 31.9803 22.6501 31.9778C22.8963 31.9781 23.1425 31.9786 23.3887 31.9793C23.505 31.9785 23.6214 31.9777 23.7413 31.9769C23.9036 31.9788 23.9036 31.9788 24.0692 31.9807C24.1643 31.981 24.2594 31.9813 24.3574 31.9816C24.6874 32.0466 24.7895 32.1629 25 32.4218C25.0491 32.664 25.0491 32.664 25.0496 32.9407C25.0507 33.0459 25.0518 33.151 25.0529 33.2594C25.0521 33.3742 25.0513 33.4891 25.0505 33.6074C25.0512 33.7288 25.0519 33.8501 25.0526 33.9752C25.054 34.3077 25.0537 34.6402 25.0525 34.9727C25.0515 35.3208 25.0524 35.6688 25.053 36.0169C25.0537 36.6014 25.0528 37.1859 25.0509 37.7704C25.0488 38.4461 25.0495 39.1217 25.0516 39.7974C25.0534 40.3776 25.0536 40.9578 25.0526 41.5381C25.052 41.8845 25.0519 42.231 25.0532 42.5775C25.0546 42.9638 25.0527 43.35 25.0505 43.7362C25.0513 43.8511 25.0521 43.966 25.0529 44.0843C25.0513 44.242 25.0513 44.242 25.0496 44.4029C25.0494 44.4942 25.0493 44.5856 25.0491 44.6796C24.9849 44.9962 24.8586 45.1135 24.6094 45.3125C24.3574 45.3621 24.3574 45.3621 24.0692 45.363C23.961 45.3642 23.8528 45.3655 23.7413 45.3667C23.6249 45.3659 23.5086 45.3651 23.3887 45.3643C23.2088 45.3649 23.2088 45.3649 23.0253 45.3655C22.7718 45.3657 22.5183 45.365 22.2648 45.3634C21.8764 45.3613 21.4882 45.3634 21.0998 45.3659C20.8537 45.3656 20.6075 45.3651 20.3613 45.3643C20.2449 45.3651 20.1285 45.3659 20.0086 45.3667C19.8463 45.3649 19.8463 45.3649 19.6808 45.363C19.5381 45.3625 19.5381 45.3625 19.3926 45.3621C19.0626 45.2971 18.9605 45.1807 18.75 44.9218C18.7008 44.6796 18.7008 44.6796 18.7004 44.4029C18.6993 44.2978 18.6982 44.1926 18.697 44.0843C18.6978 43.9694 18.6986 43.8546 18.6994 43.7362C18.6988 43.6149 18.6981 43.4935 18.6974 43.3685C18.6959 43.036 18.6963 42.7035 18.6975 42.371C18.6985 42.0229 18.6976 41.6748 18.697 41.3268C18.6963 40.7422 18.6972 40.1578 18.6991 39.5732C18.7012 38.8976 18.7005 38.2219 18.6983 37.5463C18.6966 36.9661 18.6963 36.3858 18.6973 35.8056C18.6979 35.4591 18.698 35.1126 18.6967 34.7661C18.6954 34.3799 18.6973 33.9937 18.6994 33.6074C18.6986 33.4926 18.6979 33.3777 18.697 33.2594C18.6981 33.1542 18.6992 33.0491 18.7004 32.9407C18.7005 32.8494 18.7007 32.7581 18.7008 32.664C18.8112 32.1201 19.17 31.9823 19.6808 31.9807ZM20.3125 33.5937C20.3125 36.9453 20.3125 40.2968 20.3125 43.75C21.3437 43.75 22.375 43.75 23.4375 43.75C23.4375 40.3984 23.4375 37.0468 23.4375 33.5937C22.4062 33.5937 21.375 33.5937 20.3125 33.5937Z" fill="#014339"/>
<path d="M11.8681 35.1057C11.9763 35.1044 12.0845 35.1032 12.196 35.1019C12.3124 35.1027 12.4288 35.1035 12.5487 35.1043C12.6686 35.104 12.7885 35.1036 12.912 35.1032C13.1655 35.1029 13.419 35.1036 13.6725 35.1053C14.0609 35.1074 14.4491 35.1053 14.8375 35.1028C15.0837 35.1031 15.3298 35.1036 15.576 35.1043C15.6924 35.1035 15.8088 35.1027 15.9287 35.1019C16.091 35.1038 16.091 35.1038 16.2566 35.1057C16.3517 35.106 16.4468 35.1063 16.5448 35.1066C16.7967 35.1562 16.7967 35.1562 17.0226 35.2985C17.27 35.6714 17.2419 36.0071 17.2379 36.4456C17.2386 36.5364 17.2393 36.6273 17.24 36.7209C17.2417 37.0213 17.2405 37.3216 17.2392 37.622C17.2395 37.8307 17.2399 38.0394 17.2404 38.2481C17.2409 38.6855 17.2401 39.1229 17.2383 39.5603C17.236 40.1212 17.2373 40.682 17.2397 41.2429C17.2411 41.6739 17.2406 42.1048 17.2396 42.5358C17.2394 42.7426 17.2397 42.9494 17.2406 43.1563C17.2416 43.4452 17.2401 43.7341 17.2379 44.0231C17.2387 44.1087 17.2395 44.1944 17.2403 44.2826C17.2351 44.6502 17.2291 44.8589 17.0226 45.1702C16.7462 45.3443 16.5824 45.3619 16.2566 45.363C16.1484 45.3642 16.0402 45.3655 15.9287 45.3667C15.8123 45.3659 15.6959 45.3651 15.576 45.3643C15.3962 45.3649 15.3962 45.3649 15.2127 45.3655C14.9592 45.3657 14.7057 45.365 14.4522 45.3634C14.0638 45.3613 13.6756 45.3634 13.2872 45.3659C13.041 45.3656 12.7948 45.3651 12.5487 45.3643C12.3741 45.3655 12.3741 45.3655 12.196 45.3667C12.0878 45.3655 11.9796 45.3643 11.8681 45.363C11.773 45.3627 11.6779 45.3624 11.5799 45.3621C11.328 45.3125 11.328 45.3125 11.1021 45.1702C10.8547 44.7973 10.8827 44.4615 10.8868 44.0231C10.8861 43.9322 10.8854 43.8413 10.8847 43.7477C10.883 43.4473 10.8841 43.147 10.8855 42.8466C10.8852 42.6379 10.8848 42.4292 10.8843 42.2205C10.8838 41.7831 10.8846 41.3458 10.8864 40.9084C10.8886 40.3475 10.8874 39.7866 10.885 39.2257C10.8836 38.7948 10.8841 38.3638 10.8851 37.9329C10.8853 37.7261 10.885 37.5192 10.8841 37.3124C10.8831 37.0234 10.8846 36.7345 10.8868 36.4456C10.886 36.3599 10.8852 36.2743 10.8844 36.186C10.8895 35.8185 10.8956 35.6098 11.1021 35.2985C11.3785 35.1244 11.5423 35.1067 11.8681 35.1057ZM12.4998 36.7187C12.4998 39.039 12.4998 41.3593 12.4998 43.75C13.5311 43.75 14.5623 43.75 15.6248 43.75C15.6248 41.4296 15.6248 39.1093 15.6248 36.7187C14.5936 36.7187 13.5623 36.7187 12.4998 36.7187Z" fill="#014339"/>
<path d="M4.05586 39.0119C4.16406 39.0107 4.27226 39.0094 4.38374 39.0082C4.50012 39.009 4.6165 39.0098 4.7364 39.0106C4.85631 39.0102 4.97622 39.0098 5.09975 39.0094C5.35324 39.0092 5.60673 39.0099 5.86021 39.0115C6.24861 39.0136 6.63683 39.0115 7.02522 39.009C7.2714 39.0093 7.51757 39.0098 7.76375 39.0106C7.88013 39.0098 7.99651 39.009 8.11642 39.0082C8.27871 39.01 8.27871 39.01 8.44429 39.0119C8.5394 39.0122 8.6345 39.0125 8.73249 39.0129C9.06366 39.078 9.17738 39.1819 9.37508 39.4531C9.42468 39.705 9.42468 39.705 9.42562 39.9932C9.42685 40.1014 9.42808 40.2096 9.42935 40.3211C9.42856 40.4375 9.42777 40.5539 9.42696 40.6738C9.42752 40.8536 9.42752 40.8536 9.42809 41.0371C9.42835 41.2906 9.42763 41.5441 9.426 41.7976C9.42391 42.186 9.42598 42.5742 9.42848 42.9626C9.42822 43.2088 9.42772 43.455 9.42696 43.7011C9.42775 43.8175 9.42854 43.9339 9.42935 44.0538C9.42812 44.162 9.42689 44.2702 9.42562 44.3817C9.42531 44.4768 9.425 44.5719 9.42468 44.6699C9.35948 45.001 9.25561 45.1148 8.98445 45.3125C8.73249 45.3621 8.73249 45.3621 8.44429 45.363C8.33609 45.3642 8.22789 45.3655 8.11642 45.3667C8.00004 45.3659 7.88366 45.3651 7.76375 45.3643C7.58389 45.3649 7.58389 45.3649 7.4004 45.3655C7.14691 45.3657 6.89342 45.365 6.63994 45.3634C6.25154 45.3613 5.86332 45.3634 5.47493 45.3659C5.22875 45.3656 4.98258 45.3651 4.7364 45.3643C4.56183 45.3655 4.56183 45.3655 4.38374 45.3667C4.27554 45.3655 4.16734 45.3643 4.05586 45.363C3.96076 45.3627 3.86565 45.3624 3.76766 45.3621C3.4365 45.2969 3.32277 45.193 3.12508 44.9218C3.07547 44.6699 3.07547 44.6699 3.07453 44.3817C3.0733 44.2735 3.07207 44.1653 3.0708 44.0538C3.07159 43.9374 3.07238 43.821 3.0732 43.7011C3.07282 43.5812 3.07245 43.4613 3.07206 43.3378C3.0718 43.0843 3.07252 42.8308 3.07415 42.5773C3.07624 42.1889 3.07417 41.8007 3.07167 41.4123C3.07193 41.1661 3.07243 40.92 3.0732 40.6738C3.07241 40.5574 3.07162 40.441 3.0708 40.3211C3.07203 40.2129 3.07326 40.1047 3.07453 39.9932C3.07484 39.8981 3.07515 39.803 3.07547 39.705C3.18505 39.1484 3.52884 39.0136 4.05586 39.0119ZM4.68758 40.625C4.68758 41.6562 4.68758 42.6875 4.68758 43.75C5.71883 43.75 6.75008 43.75 7.81258 43.75C7.81258 42.7187 7.81258 41.6875 7.81258 40.625C6.78133 40.625 5.75008 40.625 4.68758 40.625Z" fill="#014339"/>
<path d="M21.0938 10.8887C21.1583 10.8877 21.2227 10.8867 21.2891 10.8856C21.5803 10.963 21.6958 11.0885 21.8751 11.3281C21.9132 11.6226 21.9132 11.6226 21.8995 11.9385C21.896 12.0437 21.8924 12.149 21.8888 12.2574C21.8843 12.3374 21.8797 12.4175 21.8751 12.5C21.9551 12.4955 22.0352 12.4909 22.1177 12.4863C22.2229 12.4827 22.3282 12.4792 22.4366 12.4756C22.5929 12.4688 22.5929 12.4688 22.7525 12.4619C23.0469 12.5 23.0469 12.5 23.2774 12.6724C23.4464 12.9026 23.4908 13.0005 23.4864 13.2812C23.4874 13.3457 23.4884 13.4102 23.4895 13.4766C23.4082 13.7824 23.3091 13.8814 23.0469 14.0625C22.724 14.1197 22.4039 14.1217 22.0765 14.1235C21.314 14.1123 21.314 14.1123 20.6055 14.3555C20.4689 14.6288 20.4832 14.8345 20.5079 15.1367C20.7426 15.4721 21.03 15.4981 21.4173 15.5701C22.2426 15.7485 22.7637 16.1036 23.2423 16.7969C23.557 17.4264 23.5476 18.2164 23.3773 18.8911C23.1469 19.4111 22.7332 19.8022 22.2657 20.1172C22.046 20.1847 22.046 20.1847 21.8751 20.2148C21.8796 20.302 21.8841 20.3891 21.8888 20.4788C21.8941 20.6503 21.8941 20.6503 21.8995 20.8252C21.904 20.9385 21.9085 21.0518 21.9132 21.1685C21.8751 21.4844 21.8751 21.4844 21.7026 21.7178C21.4727 21.8834 21.3727 21.9282 21.0938 21.9238C21.0294 21.9248 20.9649 21.9258 20.8985 21.9269C20.6073 21.8495 20.4919 21.724 20.3126 21.4844C20.2744 21.1899 20.2744 21.1899 20.2882 20.874C20.2917 20.7688 20.2952 20.6635 20.2988 20.5551C20.3034 20.4751 20.3079 20.395 20.3126 20.3125C20.2325 20.317 20.1524 20.3216 20.07 20.3262C19.9647 20.3298 19.8595 20.3333 19.751 20.3369C19.6468 20.3414 19.5426 20.346 19.4352 20.3506C19.1407 20.3125 19.1407 20.3125 18.9103 20.1401C18.7413 19.9099 18.6969 19.812 18.7012 19.5312C18.6997 19.4346 18.6997 19.4346 18.6982 19.3359C18.7794 19.0301 18.8785 18.9311 19.1407 18.75C19.4637 18.6928 19.7838 18.6908 20.1112 18.689C20.8736 18.7002 20.8736 18.7002 21.5821 18.457C21.7188 18.1837 21.7044 17.978 21.6798 17.6758C21.445 17.3404 21.1576 17.3144 20.7703 17.2424C19.945 17.064 19.4239 16.7089 18.9454 16.0156C18.6306 15.3861 18.64 14.5961 18.8103 13.9214C19.0408 13.4014 19.4545 13.0103 19.9219 12.6953C20.1417 12.6278 20.1417 12.6278 20.3126 12.5977C20.308 12.5105 20.3035 12.4234 20.2988 12.3337C20.2953 12.2194 20.2918 12.1051 20.2882 11.9873C20.2836 11.874 20.2791 11.7607 20.2744 11.644C20.3126 11.3281 20.3126 11.3281 20.485 11.0947C20.7149 10.9291 20.815 10.8843 21.0938 10.8887Z" fill="#014339"/>
</svg>
