<svg width="51" height="50" viewBox="0 0 51 50" fill="none" xmlns="http://www.w3.org/2000/svg">
<path fill-rule="evenodd" clip-rule="evenodd" d="M16.183 44.8449L16.6428 45.6573C16.6432 45.6579 16.6435 45.6585 16.6439 45.6592C17.1164 46.4996 16.8166 47.5719 15.9812 48.0437L14.1392 49.0878C14.1384 49.0882 14.1376 49.0886 14.1367 49.0891C13.2965 49.5616 12.2241 49.2618 11.752 48.4259L6.33547 38.8549C5.85861 38.0137 6.15841 36.9403 6.99508 36.4678L8.8392 35.4238L8.83988 35.4234C9.67606 34.9511 10.7488 35.2478 11.225 36.084L11.226 36.0859L11.5862 36.7224L16.295 33.9962C17.7787 33.138 19.2965 32.587 20.9261 33.1162C22.4729 33.6178 24.9979 34.6998 27.5752 35.1655C27.6097 35.1718 27.6439 35.1803 27.6773 35.1912C29.0483 35.6351 29.8789 37.0229 29.5046 38.415C29.4752 38.5244 29.441 38.63 29.4019 38.7314C29.5776 38.6644 29.7511 38.5814 29.9225 38.4816L36.4904 34.6563C38.93 33.2351 40.5591 33.4107 41.4797 34.0283C42.2887 34.5711 42.6662 35.4965 42.6419 36.4062C42.6175 37.3266 42.175 38.2037 41.4532 38.6482L29.5356 45.9858C28.25 46.7792 26.8418 46.966 25.383 46.5768L25.3821 46.5766L17.0509 44.3437L16.183 44.8449ZM15.2767 46.4282L9.86165 36.86L9.86106 36.8589C9.81067 36.772 9.6989 36.7398 9.61135 36.7892L7.76783 37.8328L7.76714 37.8332C7.68028 37.8824 7.65057 37.9941 7.70008 38.0814L7.70037 38.0819L13.1171 47.6533L13.1175 47.6539C13.1669 47.7415 13.2796 47.7712 13.3676 47.722L15.2076 46.6791L15.2087 46.6785C15.2963 46.629 15.3261 46.5164 15.2767 46.4282ZM15.4104 43.4796L16.5478 42.8228C16.728 42.7188 16.9421 42.6906 17.1431 42.7445L25.7875 45.0612C26.8145 45.3351 27.8066 45.2095 28.7117 44.6509L28.7124 44.6505L40.6307 37.3126C40.9283 37.1292 41.0638 36.7441 41.0739 36.3646C41.1041 35.2279 39.9586 34.4513 37.28 36.0118L30.7122 39.8368C29.6317 40.4665 28.4995 40.6415 27.2653 40.445C27.2644 40.4449 27.2635 40.4447 27.2626 40.4446L26.4485 40.3122C26.4482 40.3121 26.4479 40.3121 26.4475 40.312C26.4369 40.3102 26.4264 40.3083 26.4159 40.3062C26.4155 40.3061 26.4151 40.306 26.4148 40.3059C24.9301 40.0011 23.5529 39.5528 22.025 39.1422C21.6069 39.0298 21.3587 38.5992 21.4711 38.1812C21.5834 37.7631 22.014 37.5149 22.432 37.6273C23.9173 38.0265 25.2563 38.4643 26.6979 38.7627C27.3533 38.8332 27.8386 38.5705 27.9896 38.008L27.9897 38.0077C28.1417 37.4424 27.785 36.8975 27.2376 36.6984C24.6024 36.213 22.024 35.1212 20.442 34.6082L20.4416 34.6081C19.2514 34.2216 18.1641 34.7273 17.0804 35.354L12.3588 38.0876L15.4104 43.4796ZM9.28488 37.8016C9.70292 37.7393 10.0912 38.0279 10.1534 38.4461C10.2131 38.8641 9.92439 39.2548 9.50635 39.3145C9.08832 39.3767 8.70008 39.0856 8.63792 38.6676C8.57822 38.2494 8.86684 37.8613 9.28488 37.8016ZM18.9194 29.5217C18.5718 30.8482 17.364 31.8282 15.9291 31.8282C14.2231 31.8282 12.8382 30.4432 12.8382 28.7374C12.8382 27.0315 14.2231 25.6465 15.9291 25.6465C17.364 25.6465 18.5718 26.6264 18.9194 27.953H25.7761V26.8185C25.7761 26.3854 26.1271 26.0342 26.5604 26.0342H30.334V22.9738H18.2348C17.815 22.9738 17.4125 22.8072 17.1157 22.5103C16.8189 22.2135 16.6521 21.811 16.6521 21.3913V14.6737C16.6521 14.254 16.8189 13.8515 17.1157 13.5546C17.4125 13.2578 17.815 13.0911 18.2348 13.0911H21.2554V10.569H18.2348C17.815 10.569 17.4125 10.4023 17.1157 10.1055C16.8189 9.80873 16.6521 9.40618 16.6521 8.98648V2.26883C16.6521 1.84912 16.8189 1.44657 17.1157 1.14981C17.4125 0.853044 17.815 0.686279 18.2348 0.686279H44.0018C44.4216 0.686279 44.8241 0.853044 45.121 1.14981C45.4177 1.44657 45.5845 1.84912 45.5845 2.26883V8.98648C45.5845 9.40618 45.4177 9.80873 45.121 10.1055C44.8241 10.4023 44.4216 10.569 44.0018 10.569H40.9813V13.0911H44.0018C44.4216 13.0911 44.8241 13.2578 45.121 13.5546C45.4177 13.8515 45.5845 14.254 45.5845 14.6737V21.3913C45.5845 21.811 45.4177 22.2135 45.121 22.5103C44.8241 22.8072 44.4216 22.9738 44.0018 22.9738H31.9026V26.0342H35.6763C36.1095 26.0342 36.4606 26.3854 36.4606 26.8185V27.953H41.8098C42.1573 26.6264 43.3652 25.6465 44.8002 25.6465C46.5061 25.6465 47.891 27.0315 47.891 28.7374C47.891 30.4432 46.5061 31.8282 44.8002 31.8282C43.3652 31.8282 42.1573 30.8482 41.8098 29.5217H36.4606V31.1524C36.4606 31.5855 36.1095 31.9367 35.6763 31.9367H26.5604C26.1271 31.9367 25.7761 31.5855 25.7761 31.1524V29.5217H18.9194ZM22.824 13.0911H39.4126V10.569H22.824V13.0911ZM15.9291 27.2151C15.0889 27.2151 14.4068 27.8972 14.4068 28.7374C14.4068 29.5775 15.0889 30.2596 15.9291 30.2596C16.7692 30.2596 17.4513 29.5775 17.4513 28.7374C17.4513 27.8972 16.7692 27.2151 15.9291 27.2151ZM34.8919 27.6028H27.3447V30.368H34.8919V27.6028ZM44.0018 2.25491H18.2348C18.2311 2.25491 18.2275 2.25638 18.2249 2.25902C18.2222 2.26157 18.2208 2.2652 18.2208 2.26883V8.98648C18.2208 8.9901 18.2222 8.99373 18.2249 8.99628C18.2275 8.99893 18.2311 9.0004 18.2348 9.0004H44.0018C44.0056 9.0004 44.0091 8.99893 44.0117 8.99628C44.0144 8.99373 44.0159 8.9901 44.0159 8.98648V2.26883C44.0159 2.2652 44.0144 2.26157 44.0117 2.25902C44.0091 2.25638 44.0056 2.25491 44.0018 2.25491ZM28.2627 3.14148C29.635 3.14148 30.749 4.2555 30.749 5.62765C30.749 6.99981 29.635 8.11383 28.2627 8.11383C26.8906 8.11383 25.7766 6.99981 25.7766 5.62765C25.7766 4.2555 26.8906 3.14148 28.2627 3.14148ZM28.2627 4.7101C27.7564 4.7101 27.3452 5.12128 27.3452 5.62765C27.3452 6.13402 27.7564 6.5452 28.2627 6.5452C28.7692 6.5452 29.1804 6.13402 29.1804 5.62765C29.1804 5.12128 28.7692 4.7101 28.2627 4.7101ZM40.9527 4.41295C40.9527 3.9801 41.3042 3.62863 41.737 3.62863C42.1699 3.62863 42.5214 3.9801 42.5214 4.41295V6.84236C42.5214 7.2752 42.1699 7.62667 41.737 7.62667C41.3042 7.62667 40.9527 7.2752 40.9527 6.84236V4.41295ZM34.2195 4.41295C34.2195 3.9801 34.5709 3.62863 35.0038 3.62863C35.4366 3.62863 35.7881 3.9801 35.7881 4.41295V6.84236C35.7881 7.2752 35.4366 7.62667 35.0038 7.62667C34.5709 7.62667 34.2195 7.2752 34.2195 6.84236V4.41295ZM37.5861 4.41295C37.5861 3.9801 37.9375 3.62863 38.3704 3.62863C38.8033 3.62863 39.1547 3.9801 39.1547 4.41295V6.84236C39.1547 7.2752 38.8033 7.62667 38.3704 7.62667C37.9375 7.62667 37.5861 7.2752 37.5861 6.84236V4.41295ZM22.0049 3.14148C23.377 3.14148 24.4911 4.2555 24.4911 5.62765C24.4911 6.99981 23.377 8.11383 22.0049 8.11383C20.6327 8.11383 19.5187 6.99981 19.5187 5.62765C19.5187 4.2555 20.6327 3.14148 22.0049 3.14148ZM22.0049 4.7101C21.4985 4.7101 21.0873 5.12128 21.0873 5.62765C21.0873 6.13402 21.4985 6.5452 22.0049 6.5452C22.5113 6.5452 22.9224 6.13402 22.9224 5.62765C22.9224 5.12128 22.5113 4.7101 22.0049 4.7101ZM44.0018 14.6597H18.2348C18.2311 14.6597 18.2275 14.6612 18.2249 14.6638C18.2222 14.6665 18.2208 14.67 18.2208 14.6737V21.3913C18.2208 21.395 18.2222 21.3985 18.2249 21.4012C18.2275 21.4037 18.2311 21.4052 18.2348 21.4052H44.0018C44.0056 21.4052 44.0091 21.4037 44.0117 21.4012C44.0144 21.3985 44.0159 21.395 44.0159 21.3913V14.6737C44.0159 14.67 44.0144 14.6665 44.0117 14.6638C44.0091 14.6612 44.0056 14.6597 44.0018 14.6597ZM22.0049 15.5463C23.377 15.5463 24.4911 16.6603 24.4911 18.0325C24.4911 19.4047 23.377 20.5187 22.0049 20.5187C20.6327 20.5187 19.5187 19.4047 19.5187 18.0325C19.5187 16.6603 20.6327 15.5463 22.0049 15.5463ZM22.0049 17.1149C21.4985 17.1149 21.0873 17.5261 21.0873 18.0325C21.0873 18.5389 21.4985 18.9501 22.0049 18.9501C22.5113 18.9501 22.9224 18.5389 22.9224 18.0325C22.9224 17.5261 22.5113 17.1149 22.0049 17.1149ZM28.2627 15.5463C29.635 15.5463 30.749 16.6603 30.749 18.0325C30.749 19.4047 29.635 20.5187 28.2627 20.5187C26.8906 20.5187 25.7766 19.4047 25.7766 18.0325C25.7766 16.6603 26.8906 15.5463 28.2627 15.5463ZM28.2627 17.1149C27.7564 17.1149 27.3452 17.5261 27.3452 18.0325C27.3452 18.5389 27.7564 18.9501 28.2627 18.9501C28.7692 18.9501 29.1804 18.5389 29.1804 18.0325C29.1804 17.5261 28.7692 17.1149 28.2627 17.1149ZM40.9527 16.8178C40.9527 16.385 41.3042 16.0335 41.737 16.0335C42.1699 16.0335 42.5214 16.385 42.5214 16.8178V19.2472C42.5214 19.68 42.1699 20.0315 41.737 20.0315C41.3042 20.0315 40.9527 19.68 40.9527 19.2472V16.8178ZM34.2195 16.8178C34.2195 16.385 34.5709 16.0335 35.0038 16.0335C35.4366 16.0335 35.7881 16.385 35.7881 16.8178V19.2472C35.7881 19.68 35.4366 20.0315 35.0038 20.0315C34.5709 20.0315 34.2195 19.68 34.2195 19.2472V16.8178ZM37.5861 16.8178C37.5861 16.385 37.9375 16.0335 38.3704 16.0335C38.8033 16.0335 39.1547 16.385 39.1547 16.8178V19.2472C39.1547 19.68 38.8033 20.0315 38.3704 20.0315C37.9375 20.0315 37.5861 19.68 37.5861 19.2472V16.8178ZM44.8002 27.2151C43.96 27.2151 43.2779 27.8972 43.2779 28.7374C43.2779 29.5775 43.96 30.2596 44.8002 30.2596C45.6403 30.2596 46.3223 29.5775 46.3223 28.7374C46.3223 27.8972 45.6403 27.2151 44.8002 27.2151Z" fill="#014339"/>
</svg>
