<svg width="50" height="50" viewBox="0 0 50 50" fill="none" xmlns="http://www.w3.org/2000/svg">
<g clip-path="url(#clip0_218_273)">
<path d="M3.71111 16.8945C3.77556 16.9259 3.84001 16.9572 3.90642 16.9895C6.29772 18.4421 7.36362 24.6488 8.08122 27.24C8.102 27.3148 8.12278 27.3896 8.14419 27.4667C8.32971 28.1387 8.50618 28.7988 8.59392 29.4922C15.5525 28.3485 15.5525 28.3485 22.1565 25.9393C22.9784 25.5462 23.7032 25.3986 24.6 25.6725C25.2889 25.9844 25.6798 26.4257 26.0622 27.063C26.3131 27.7301 26.2759 28.5463 26.0072 29.1992C25.7861 29.6259 25.5078 29.9589 25.0829 30.1949C24.8722 30.3637 24.8722 30.3637 24.8686 30.6641C24.8752 30.7944 24.8848 30.9247 24.8964 31.0547C24.9021 31.1297 24.9077 31.2047 24.9136 31.2819C25.2272 34.9224 25.9937 38.5274 27.1486 41.9922C27.6022 41.8626 27.9364 41.6783 28.3205 41.4063C29.1171 40.842 29.7975 40.7289 30.7619 40.8203C31.4221 40.9861 31.9092 41.362 32.3244 41.8945C32.6778 42.5188 32.7982 43.2438 32.6601 43.9514C32.2189 45.3751 30.847 46.0575 29.6144 46.7144C26.3232 48.4075 22.7048 49.3591 19.0431 49.8047C18.9749 49.8132 18.9068 49.8217 18.8365 49.8305C17.305 50.0163 15.7786 50.0353 14.2372 50.0311C14.0356 50.0305 13.8339 50.0302 13.6323 50.03C11.6473 50.0263 9.68333 49.9896 7.71501 49.707C7.59313 49.6898 7.47124 49.6725 7.34566 49.6547C1.70491 48.8264 1.70491 48.8264 0.561693 47.3694C0.0575961 46.6878 0.0200212 46.0441 0.0978257 45.2149C0.260605 44.5657 0.627327 44.0403 1.17204 43.6524C1.97995 43.2448 2.69131 43.145 3.55661 43.4078C3.74481 43.4699 3.93261 43.5331 4.12004 43.5974C4.30854 43.6606 4.49711 43.7235 4.68576 43.7863C4.76824 43.8144 4.85072 43.8425 4.9357 43.8715C5.17702 43.9457 5.416 43.9978 5.66423 44.043C5.65268 43.9457 5.64113 43.8483 5.62923 43.7481C5.54776 43.0594 5.4672 42.3707 5.39025 41.6816C4.60652 34.6756 3.15953 27.5321 0.42701 21.0031C0.400239 20.9386 0.373468 20.8741 0.345885 20.8076C0.270659 20.6276 0.194027 20.4481 0.117304 20.2688C-0.144148 19.4945 -0.135295 18.668 0.195482 17.9138C0.595964 17.2366 1.18472 16.8626 1.93155 16.6474C2.57808 16.511 3.12475 16.6002 3.71111 16.8945ZM1.85564 18.6524C1.66171 19.0402 1.71558 19.3948 1.84019 19.7958C1.96254 20.1227 2.0913 20.4465 2.22185 20.7703C2.32195 21.0255 2.42067 21.2812 2.51901 21.537C2.54473 21.6039 2.57045 21.6707 2.59695 21.7396C3.55192 24.2387 4.30593 26.8075 4.98064 29.3945C5.01271 29.5174 5.04478 29.6403 5.07782 29.7669C6.22666 34.2272 6.90429 38.7776 7.32439 43.3594C7.33488 43.4736 7.34538 43.5879 7.35619 43.7056C7.37835 43.9482 7.40033 44.1909 7.42204 44.4336C7.4829 44.4486 7.54376 44.4636 7.60646 44.479C7.75162 44.5147 7.89678 44.5505 8.04193 44.5862C8.35853 44.6384 8.66414 44.6315 8.98454 44.6289C9.00022 43.6096 8.95932 42.6048 8.86858 41.5894C8.8622 41.5167 8.85582 41.444 8.84925 41.3691C8.20364 34.0916 6.54117 26.8365 3.75383 20.0745C3.70493 19.9558 3.65602 19.8371 3.60563 19.7148C3.3368 19.0455 3.3368 19.0455 2.92986 18.457C2.46938 18.3069 2.23673 18.3584 1.85564 18.6524ZM22.7236 27.6306C18.9149 29.5012 14.5234 30.3174 10.361 30.9752C10.2895 30.9866 10.218 30.9979 10.1444 31.0096C9.95132 31.0401 9.7582 31.07 9.56507 31.0999C9.28528 31.1371 9.28528 31.1371 9.0822 31.25C9.09351 31.4006 9.10595 31.5512 9.11882 31.7017C9.12902 31.8274 9.12902 31.8274 9.13942 31.9557C9.18442 32.2572 9.27604 32.5249 9.37517 32.8125C11.5067 32.4836 13.6204 32.1262 15.7228 31.6406C15.8525 31.6113 15.9821 31.5821 16.1118 31.5529C20.5896 30.6696 20.5896 30.6696 24.4142 28.418C24.4713 28.1375 24.4713 28.1375 24.4142 27.832C24.2189 27.5391 24.2189 27.5391 23.926 27.3438C23.442 27.2888 23.15 27.4096 22.7236 27.6306ZM22.656 31.3439C22.5414 31.3894 22.4267 31.435 22.3085 31.4819C22.1361 31.5495 22.1361 31.5495 21.9602 31.6185C21.6946 31.7114 21.6946 31.7114 21.5822 31.8359C21.5979 32.8417 21.7393 33.8405 21.8935 34.8328C21.9041 34.902 21.9147 34.9711 21.9257 35.0424C22.3686 37.906 23.0255 40.7343 24.0236 43.457C24.507 43.2959 24.9904 43.1348 25.4885 42.9688C25.3378 42.2426 25.1363 41.5376 24.9269 40.8264C24.1057 37.9837 23.5121 35.0987 23.2411 32.1497C23.2311 32.0457 23.221 31.9416 23.2107 31.8344C23.2026 31.7425 23.1944 31.6506 23.186 31.5559C23.1724 31.4872 23.1587 31.4185 23.1447 31.3477C22.9381 31.216 22.9381 31.216 22.656 31.3439ZM18.9672 32.544C18.8726 32.5708 18.7781 32.5976 18.6806 32.6252C18.5767 32.6548 18.4727 32.6844 18.3656 32.7149C15.5056 33.5026 12.5993 34.0305 9.66814 34.4727C9.69836 34.725 9.72892 34.9773 9.75969 35.2295C9.76819 35.3008 9.77669 35.372 9.78544 35.4454C9.82637 35.7789 9.8749 36.1012 9.96111 36.4258C11.1205 36.368 12.2582 36.208 13.4058 36.0409C13.6031 36.0125 13.8003 35.9842 13.9976 35.9559C14.5124 35.882 15.0271 35.8075 15.5417 35.7329C16.0687 35.6566 16.5958 35.5809 17.1228 35.5051C18.1536 35.3568 19.1843 35.2079 20.215 35.0586C20.1688 34.6557 20.1218 34.2529 20.0746 33.8501C20.0615 33.7353 20.0483 33.6205 20.0348 33.5022C20.0219 33.3927 20.009 33.2832 19.9957 33.1703C19.9839 33.0691 19.9721 32.9678 19.96 32.8635C19.9351 32.6184 19.9351 32.6184 19.8244 32.4219C19.4861 32.4219 19.2837 32.4519 18.9672 32.544ZM18.9208 36.9314C18.8329 36.9436 18.745 36.9559 18.6545 36.9685C18.3656 37.0087 18.0769 37.0497 17.7881 37.0907C17.5866 37.119 17.3852 37.1472 17.1837 37.1754C16.7622 37.2345 16.3408 37.2938 15.9194 37.3535C15.3795 37.4298 14.8395 37.5057 14.2995 37.5814C13.7839 37.6536 13.2683 37.7262 12.7527 37.7987C12.6545 37.8125 12.5562 37.8263 12.455 37.8405C12.1769 37.8796 11.8988 37.9189 11.6206 37.9583C11.5385 37.9698 11.4565 37.9814 11.3719 37.9932C10.9967 38.0466 10.6248 38.1036 10.2541 38.1836C10.301 38.9517 10.366 39.7149 10.4532 40.4793C10.4622 40.5595 10.4713 40.6398 10.4806 40.7225C10.5026 40.9179 10.5248 41.1132 10.547 41.3086C12.8759 41.0197 15.2015 40.7077 17.5262 40.3864C17.7433 40.3564 17.9605 40.3265 18.1777 40.2966C18.5236 40.249 18.8694 40.2012 19.2153 40.1531C19.4064 40.1266 19.5975 40.1003 19.7886 40.074C19.9034 40.058 20.0183 40.042 20.1367 40.0254C20.2371 40.0115 20.3375 39.9976 20.441 39.9832C20.6635 39.9478 20.8767 39.903 21.0939 39.8438C20.9395 38.8259 20.7247 37.8223 20.508 36.8164C19.9675 36.8028 19.4555 36.8547 18.9208 36.9314ZM19.9202 41.7255C19.8244 41.7387 19.7286 41.7519 19.6298 41.7655C19.3147 41.8089 18.9996 41.8531 18.6846 41.8972C18.4651 41.9277 18.2456 41.9581 18.0262 41.9885C17.5671 42.0521 17.1081 42.1161 16.6491 42.1803C16.0601 42.2627 15.4711 42.3445 14.882 42.426C14.4293 42.4887 13.9765 42.5516 13.5238 42.6147C13.3066 42.645 13.0893 42.6751 12.872 42.7052C12.569 42.7473 12.2661 42.7897 11.9632 42.8322C11.828 42.8508 11.828 42.8508 11.6901 42.8698C11.5665 42.8873 11.5665 42.8873 11.4404 42.9051C11.333 42.9201 11.333 42.9201 11.2235 42.9354C11.0149 42.9677 11.0149 42.9677 10.7424 43.0664C10.7424 43.6143 10.7424 44.1621 10.7424 44.7266C11.3482 44.9042 11.3482 44.9042 11.9368 44.9487C12.032 44.9496 12.1271 44.9505 12.2252 44.9515C12.3265 44.9514 12.4278 44.9513 12.5322 44.9513C12.639 44.9518 12.7459 44.9524 12.8559 44.9529C13.2012 44.9541 13.5465 44.9535 13.8918 44.9524C14.0092 44.9522 14.1266 44.952 14.2476 44.9519C15.9283 44.9475 17.5787 44.9179 19.2385 44.6289C19.3513 44.6096 19.4641 44.5902 19.5803 44.5703C20.993 44.3423 20.993 44.3423 22.3635 43.9453C22.2521 43.5729 22.14 43.2006 22.0278 42.8284C21.996 42.7221 21.9642 42.6158 21.9314 42.5062C21.9009 42.4052 21.8704 42.3042 21.8389 42.2001C21.8108 42.1065 21.7827 42.0129 21.7537 41.9165C21.6995 41.7045 21.6995 41.7045 21.5822 41.6016C21.0185 41.5743 20.4777 41.6467 19.9202 41.7255ZM29.0407 43.0603C25.004 45.459 20.1778 46.5825 15.4985 46.6019C15.3872 46.6026 15.2759 46.6032 15.1612 46.6039C14.8031 46.6056 14.4451 46.6063 14.0871 46.6065C13.9648 46.6066 13.8425 46.6067 13.7165 46.6068C11.8279 46.6057 9.97786 46.5504 8.10564 46.2891C8.00024 46.275 7.89484 46.2608 7.78625 46.2463C6.26048 46.0365 4.79681 45.6671 3.32322 45.2255C3.2274 45.1977 3.13158 45.1699 3.03285 45.1412C2.9456 45.1154 2.85835 45.0895 2.76845 45.0628C2.52354 44.9963 2.52354 44.9963 2.24016 45.1294C2.03312 45.3168 2.03312 45.3168 1.85564 45.6055C1.84052 45.9475 1.84052 45.9475 1.95329 46.2891C4.72709 48.4393 10.2235 48.2787 13.558 48.273C13.9324 48.2727 14.3068 48.275 14.6812 48.2775C19.8618 48.2908 25.322 47.2582 29.8036 44.5435C29.8767 44.4993 29.9498 44.4552 30.0251 44.4097C30.3661 44.1958 30.6581 44.0123 30.8595 43.6524C30.9247 43.3636 30.9247 43.3636 30.8595 43.0664C30.6505 42.7917 30.5087 42.6065 30.1626 42.535C29.73 42.6017 29.4091 42.8324 29.0407 43.0603Z" fill="#014339"/>
<path d="M22.2522 -0.037829C22.4232 -0.0386179 22.4232 -0.0386179 22.5976 -0.0394227C22.9118 -0.040573 23.226 -0.040422 23.5402 -0.0396994C23.8799 -0.0392358 24.2196 -0.0404603 24.5593 -0.0414589C25.2239 -0.0431347 25.8884 -0.04322 26.5529 -0.0427076C27.093 -0.0423124 27.633 -0.0424545 28.1731 -0.042976C28.2501 -0.0430491 28.327 -0.0431222 28.4063 -0.0431975C28.5627 -0.043347 28.719 -0.0434973 28.8754 -0.0436482C30.34 -0.0449874 31.8047 -0.0444581 33.2693 -0.0433371C34.6092 -0.0423663 35.9491 -0.0436325 37.289 -0.0459674C38.6656 -0.0483481 40.0421 -0.049288 41.4187 -0.048638C42.1913 -0.0482968 42.9638 -0.048516 43.7364 -0.050225C44.3937 -0.0516612 45.051 -0.0517268 45.7084 -0.0500228C46.0437 -0.0491904 46.379 -0.0489851 46.7143 -0.0504771C47.0778 -0.0517598 47.4412 -0.0506458 47.8047 -0.0489154C47.9107 -0.0498534 48.0167 -0.0507914 48.1259 -0.0517578C48.7176 -0.0459456 49.0617 -0.00482679 49.5118 0.390655C49.9414 0.878335 50.015 1.16705 50.0173 1.80274C50.018 1.87787 50.0186 1.953 50.0193 2.0304C50.0212 2.27969 50.0224 2.52898 50.0233 2.77827C50.0237 2.86343 50.0241 2.94859 50.0245 3.03633C50.0266 3.48732 50.028 3.9383 50.0289 4.38929C50.03 4.8545 50.0333 5.31966 50.0372 5.78485C50.0398 6.14301 50.0406 6.50116 50.0409 6.85932C50.0414 7.03075 50.0425 7.20218 50.0443 7.3736C50.0467 7.61413 50.0466 7.85454 50.046 8.09508C50.0478 8.20051 50.0478 8.20051 50.0497 8.30807C50.0443 8.84412 49.9061 9.13931 49.6094 9.57034C49.1594 9.91938 48.8218 10.0723 48.2561 10.0655C48.1094 10.0642 48.1094 10.0642 47.9597 10.0629C47.8524 10.0614 47.7451 10.06 47.6346 10.0585C47.4 10.0563 47.1655 10.0541 46.931 10.052C46.7438 10.0501 46.7438 10.0501 46.5528 10.0482C46.1613 10.0449 45.7698 10.043 45.3783 10.0419C45.279 10.0416 45.2789 10.0416 45.1776 10.0414C44.904 10.0407 44.6305 10.0401 44.357 10.0395C43.5839 10.0379 42.811 10.0342 42.038 10.0241C41.4231 10.0161 40.8085 10.0127 40.1936 10.0145C39.869 10.0153 39.545 10.0132 39.2205 10.007C37.5075 9.97537 36.3979 10.189 35.0489 11.2787C34.8028 11.4738 34.5458 11.6367 34.2782 11.8008C34.1588 11.8766 34.1588 11.8766 34.0371 11.954C33.9204 12.0279 33.9204 12.0279 33.8013 12.1033C33.6205 12.2181 33.4397 12.3329 33.2589 12.4478C33.169 12.5048 33.0792 12.5618 32.9866 12.6205C32.5377 12.9055 32.0892 13.1911 31.6407 13.4766C31.1071 13.8162 30.5734 14.1558 30.0397 14.4951C29.0651 15.1148 28.0911 15.7355 27.118 16.3575C27.0172 16.4218 26.9165 16.4861 26.8127 16.5523C26.6221 16.6743 26.4319 16.797 26.2424 16.9206C26.071 17.0298 25.8967 17.1345 25.7192 17.2335C25.3087 17.472 25.0649 17.6384 24.9291 18.1053C24.8968 18.2668 24.8677 18.4288 24.8414 18.5913C24.8052 18.7663 24.7679 18.941 24.7296 19.1155C24.7106 19.2021 24.6917 19.2886 24.6721 19.3778C24.1473 21.4795 22.6073 23.3578 20.8008 24.5117C19.909 25.0398 18.9775 25.4382 17.9688 25.6836C17.8796 25.7055 17.7903 25.7274 17.6983 25.75C15.3269 26.2342 12.7802 25.7581 10.7575 24.4389C9.0666 23.2314 7.80061 21.7268 7.09235 19.7571C7.06903 19.6923 7.04571 19.6274 7.02168 19.5606C6.20424 17.1387 6.55884 14.5794 7.65349 12.3215C8.79085 10.1146 10.7599 8.58658 13.086 7.81253C13.7884 7.60471 14.4801 7.48804 15.2108 7.4425C15.4462 7.42868 15.4462 7.42868 15.7227 7.32425C15.8656 7.10448 15.8656 7.10448 15.993 6.82665C16.0449 6.72032 16.0968 6.61399 16.1503 6.50444C16.2058 6.38838 16.2613 6.27233 16.3186 6.15276C16.3772 6.03256 16.436 5.91243 16.4949 5.79236C16.7447 5.2826 16.9922 4.7717 17.2386 4.26031C17.3896 3.94735 17.5421 3.63521 17.6956 3.32347C17.781 3.14872 17.8646 2.97309 17.9481 2.79743C18.5286 1.61888 19.3372 0.610738 20.5974 0.141228C21.1497 -0.0390115 21.6754 -0.0410425 22.2522 -0.037829ZM20.0816 2.70466C19.7963 3.10686 19.5777 3.53668 19.3604 3.97838C19.3113 4.07629 19.2622 4.1742 19.2116 4.27507C19.1089 4.48037 19.0069 4.68597 18.9054 4.89183C18.7493 5.20788 18.5909 5.5227 18.4323 5.83747C18.3326 6.03761 18.233 6.23782 18.1336 6.4381C18.0861 6.53239 18.0386 6.62669 17.9897 6.72385C17.9469 6.81124 17.9042 6.89863 17.8601 6.98868C17.822 7.06547 17.784 7.14227 17.7448 7.22139C17.6479 7.43705 17.6479 7.43705 17.7735 7.71487C18.0251 7.81268 18.2654 7.89245 18.5242 7.96512C18.663 8.00589 18.8017 8.04671 18.9404 8.08757C19.0072 8.10685 19.0739 8.12612 19.1427 8.14598C19.4047 8.22349 19.6634 8.31012 19.9219 8.39847C19.9704 8.33364 20.0189 8.26881 20.0688 8.20201C20.6083 7.50082 21.086 6.96042 21.9727 6.73831C22.3613 6.7135 22.7488 6.71825 23.1381 6.72191C23.369 6.72135 23.5998 6.72065 23.8307 6.71981C24.1931 6.7194 24.5554 6.72001 24.9178 6.72322C25.2686 6.72585 25.6193 6.72421 25.9701 6.72191C26.078 6.72391 26.1858 6.72592 26.297 6.72798C26.8641 6.72763 26.8641 6.72763 27.361 6.48691C27.5425 6.30614 27.5425 6.30614 27.6894 6.11447C27.8321 5.95706 27.8321 5.95706 28.1861 5.8472C28.5533 5.8608 28.7184 5.92562 29.004 6.15237C29.1632 6.47078 29.1473 6.67757 29.1016 7.03128C28.9739 7.2106 28.9739 7.2106 28.8041 7.39482C28.7419 7.46296 28.6797 7.53109 28.6156 7.60129C28.5504 7.671 28.4852 7.74071 28.418 7.81253C28.3569 7.87897 28.2957 7.9454 28.2326 8.01385C28.0433 8.21846 27.8525 8.42158 27.6612 8.6243C27.5932 8.69655 27.5251 8.7688 27.455 8.84324C26.9808 9.34495 26.4967 9.83432 26.0056 10.3195C25.8139 10.5139 25.6343 10.7113 25.4578 10.9192C25.0745 11.3694 24.6505 11.7778 24.2306 12.1934C23.8775 12.5442 23.5406 12.9006 23.2213 13.2828C23.0351 13.4897 22.8351 13.6779 22.6322 13.8682C21.936 14.5291 21.936 14.5291 21.6797 15.4297C21.8083 15.891 21.9912 16.2016 22.3633 16.5039C22.7602 16.6362 23.1226 16.6929 23.5206 16.5257C23.7224 16.4119 23.9155 16.2895 24.1089 16.1621C24.1837 16.1147 24.2584 16.0673 24.3354 16.0184C24.5007 15.9133 24.6656 15.8073 24.83 15.7008C25.1124 15.5179 25.396 15.3369 25.6798 15.1562C26.0948 14.8918 26.5091 14.6265 26.9231 14.3605C27.4916 13.9951 28.0613 13.6316 28.6317 13.2691C28.7191 13.2135 28.8066 13.1578 28.8967 13.1005C29.0724 12.9888 29.248 12.8771 29.4237 12.7654C29.8698 12.4818 30.3158 12.1979 30.7618 11.9141C30.9408 11.8002 31.1199 11.6862 31.2989 11.5723C31.3875 11.5159 31.4761 11.4595 31.5674 11.4014C31.836 11.2305 32.1046 11.0596 32.3731 10.8887C32.5063 10.804 32.5063 10.804 32.6421 10.7175C32.8196 10.6046 32.997 10.4917 33.1745 10.3788C33.6466 10.0785 34.1185 9.77784 34.5902 9.47688C34.689 9.41388 34.7878 9.35087 34.8897 9.28596C35.0802 9.16447 35.2707 9.04291 35.4611 8.92127C35.5463 8.86695 35.6316 8.81263 35.7194 8.75667C35.7947 8.7086 35.87 8.66054 35.9476 8.61102C36.2582 8.41845 36.4392 8.38564 36.804 8.38302C36.9045 8.38206 37.005 8.38111 37.1086 8.38012C37.2746 8.37928 37.2746 8.37928 37.444 8.37842C37.5603 8.37745 37.6765 8.37648 37.7963 8.37549C38.1154 8.37293 38.4346 8.37079 38.7538 8.36885C39.0872 8.36671 39.4206 8.36404 39.754 8.36142C40.3855 8.35654 41.017 8.35215 41.6486 8.34794C42.438 8.34265 43.2273 8.3367 44.0167 8.33076C45.4252 8.32015 46.8337 8.31053 48.2423 8.30081C48.2423 6.14163 48.2423 3.98245 48.2423 1.75784C44.8343 1.74923 41.4264 1.74202 38.0185 1.7379C37.6161 1.73741 37.2137 1.7369 36.8113 1.73639C36.7312 1.73628 36.6511 1.73618 36.5685 1.73607C35.2716 1.73438 33.9748 1.7313 32.6779 1.72771C31.347 1.72405 30.0162 1.72188 28.6853 1.72109C27.8642 1.72055 27.0431 1.71886 26.2219 1.71569C25.6588 1.71362 25.0956 1.713 24.5324 1.71351C24.2075 1.71376 23.8827 1.71316 23.5579 1.71128C23.2053 1.70934 22.8528 1.7098 22.5003 1.71087C22.398 1.70973 22.2958 1.70859 22.1905 1.70742C21.2651 1.71499 20.6666 1.98668 20.0816 2.70466ZM21.6797 8.88675C21.4996 9.14579 21.4996 9.14579 21.3868 9.37503C21.4505 9.43168 21.5142 9.48833 21.5798 9.54669C22.0493 9.96634 22.5098 10.3888 22.9493 10.8399C23.2327 10.7117 23.4344 10.5743 23.6531 10.3539C23.7101 10.2968 23.7671 10.2396 23.8259 10.1808C23.885 10.1203 23.9442 10.0599 24.0052 9.99759C24.0659 9.9362 24.1266 9.8748 24.1891 9.81155C24.9426 9.1712 24.9426 9.1712 25.3907 8.39847C24.9564 8.38634 24.5222 8.37751 24.0877 8.37165C23.9401 8.3692 23.7926 8.36587 23.645 8.36163C23.4322 8.35567 23.2194 8.35293 23.0065 8.35078C22.8786 8.34823 22.7508 8.34567 22.6191 8.34304C22.155 8.41583 22.0086 8.55758 21.6797 8.88675ZM15.1284 9.20375C13.0721 9.42786 11.2849 10.4322 9.961 12.0117C9.702 12.356 9.48173 12.707 9.2774 13.086C9.23259 13.1688 9.18777 13.2516 9.1416 13.337C8.25412 15.128 8.12596 17.1441 8.7227 19.0461C9.3947 20.9907 10.7937 22.4877 12.5977 23.4375C14.626 24.317 16.6583 24.3531 18.7195 23.5657C19.3926 23.2923 19.9504 22.9237 20.5079 22.461C20.6327 22.3616 20.6327 22.3616 20.76 22.2603C21.9545 21.2585 22.7701 19.8946 23.0469 18.3594C22.9785 18.3498 22.91 18.3403 22.8394 18.3304C21.8662 18.177 21.1811 17.9187 20.572 17.1112C20.0862 16.3995 19.9468 15.6861 20.0539 14.8327C20.2998 13.738 20.975 13.03 21.7774 12.3047C21.0057 10.8983 19.4631 9.9434 17.9688 9.47269C17.0254 9.23097 16.0979 9.12644 15.1284 9.20375Z" fill="#014339"/>
<path d="M16.1134 11.6211C16.4399 11.739 16.4989 11.8086 16.6994 12.1094C16.7108 12.1899 16.7223 12.2705 16.7341 12.3535C16.7752 12.6103 16.7752 12.6103 16.9851 12.7563C17.062 12.8007 17.1389 12.845 17.2182 12.8906C17.644 13.1533 17.9372 13.4132 18.1642 13.8672C18.2117 14.2864 18.2094 14.4844 17.9689 14.8376C17.6425 15.062 17.4706 15.1113 17.0831 15.0879C16.7651 15.0055 16.6073 14.799 16.4064 14.5508C16.2173 14.3191 16.2173 14.3191 15.8754 14.331C15.5173 14.3273 15.5173 14.3273 15.2345 14.5508C15.1133 15.0061 15.1133 15.0061 15.2418 15.443C15.5039 15.6966 15.7255 15.7093 16.0829 15.7654C16.9759 15.9366 17.5441 16.2458 18.0666 16.9922C18.464 17.6638 18.4857 18.4466 18.2955 19.1986C18.0818 19.7365 17.7467 20.1586 17.2853 20.5078C16.9496 20.6482 16.9496 20.6482 16.6994 20.7031C16.6913 20.8099 16.6833 20.9166 16.675 21.0266C16.6017 21.3867 16.6017 21.3867 16.4491 21.5759C16.1048 21.726 15.7992 21.7473 15.4299 21.6797C15.134 21.4772 15.0547 21.3495 14.966 21.0022C14.808 20.6152 14.6142 20.5401 14.2618 20.3396C13.8609 20.0884 13.6251 19.7841 13.4767 19.3298C13.4767 18.8916 13.6633 18.661 13.965 18.3594C14.2354 18.2717 14.4076 18.2509 14.6852 18.3166C14.9271 18.4491 15.0787 18.5807 15.2773 18.7683C15.5338 18.9969 15.5846 19.0414 15.9425 19.0552C16.2556 18.9271 16.3657 18.8641 16.5041 18.5547C16.5047 18.2011 16.5047 18.2011 16.4064 17.8711C16.0751 17.6502 15.8505 17.6195 15.4604 17.5537C14.5933 17.3733 14.1335 17.0665 13.6293 16.3452C13.2427 15.7448 13.2129 15.1558 13.2814 14.4531C13.4512 13.8606 13.78 13.2049 14.3331 12.8899C14.3929 12.8599 14.4527 12.8299 14.5143 12.7991C14.9192 12.5517 14.9713 12.3478 15.1369 11.9141C15.4378 11.5924 15.6833 11.5763 16.1134 11.6211Z" fill="#014339"/>
</g>
<defs>
<clipPath id="clip0_218_273">
<rect width="50" height="50" fill="white"/>
</clipPath>
</defs>
</svg>
