<svg width="60" height="60" viewBox="0 0 60 60" fill="none" xmlns="http://www.w3.org/2000/svg">
<path fill-rule="evenodd" clip-rule="evenodd" d="M17.0192 53.8146L17.571 54.7894C17.5715 54.7902 17.5718 54.7909 17.5723 54.7917C18.1392 55.8002 17.7796 57.0869 16.777 57.6532L14.5666 58.906C14.5657 58.9066 14.5648 58.907 14.5637 58.9076C13.5554 59.4746 12.2685 59.1148 11.7021 58.1117L5.20218 46.6266C4.62994 45.6172 4.98971 44.329 5.99371 43.762L8.20665 42.5093L8.20747 42.5088C9.21088 41.942 10.4982 42.2981 11.0696 43.3015L11.0708 43.3037L11.503 44.0675L17.1536 40.7961C18.9341 39.7663 20.7554 39.105 22.7109 39.7401C24.5671 40.342 27.5971 41.6405 30.6898 42.1993C30.7312 42.2068 30.7723 42.217 30.8124 42.2301C32.4576 42.7628 33.4543 44.4281 33.0051 46.0987C32.9698 46.23 32.9288 46.3567 32.8819 46.4783C33.0928 46.398 33.3009 46.2983 33.5066 46.1786L41.3881 41.5882C44.3156 39.8828 46.2705 40.0935 47.3752 40.8347C48.3461 41.486 48.799 42.5965 48.7699 43.6881C48.7407 44.7926 48.2096 45.8452 47.3435 46.3786L33.0423 55.1836C31.4996 56.1357 29.8098 56.3599 28.0592 55.8928L28.0582 55.8926L18.0606 53.2132L17.0192 53.8146ZM15.9317 55.7146L9.43359 44.2327L9.43288 44.2314C9.37241 44.127 9.23829 44.0885 9.13324 44.1477L6.921 45.4001L6.92018 45.4006C6.81594 45.4595 6.78029 45.5936 6.83971 45.6983L6.84006 45.6989L13.3402 57.1847L13.3406 57.1854C13.3999 57.2905 13.5351 57.3261 13.6408 57.267L15.8488 56.0156L15.8501 56.0149C15.9551 55.9555 15.9909 55.8203 15.9317 55.7146ZM16.0921 52.1762L17.457 51.3881C17.6732 51.2633 17.9302 51.2294 18.1714 51.2941L28.5446 54.0741C29.777 54.4028 30.9676 54.2521 32.0537 53.5817L32.0545 53.5813L46.3564 44.7757C46.7136 44.5557 46.8762 44.0936 46.8883 43.6382C46.9245 42.2742 45.5499 41.3422 42.3356 43.2148L34.4543 47.8048C33.1577 48.5605 31.799 48.7705 30.3179 48.5347C30.3169 48.5346 30.3158 48.5343 30.3148 48.5342L29.3378 48.3753C29.3375 48.3752 29.3371 48.3752 29.3366 48.375C29.3239 48.3729 29.3112 48.3707 29.2986 48.3681C29.2982 48.368 29.2977 48.3679 29.2974 48.3677C27.5157 48.002 25.8631 47.4641 24.0296 46.9713C23.5279 46.8365 23.2301 46.3197 23.3649 45.8181C23.4997 45.3165 24.0164 45.0186 24.5181 45.1534C26.3004 45.6325 27.9071 46.1579 29.6371 46.5159C30.4236 46.6006 31.0059 46.2853 31.1871 45.6103L31.1872 45.61C31.3697 44.9315 30.9416 44.2776 30.2848 44.0388C27.1225 43.4563 24.0284 42.1461 22.1301 41.5306L22.1296 41.5305C20.7012 41.0666 19.3965 41.6734 18.0961 42.4255L12.4302 45.7057L16.0921 52.1762ZM8.74147 45.3626C9.24312 45.2879 9.709 45.6342 9.78371 46.136C9.85535 46.6376 9.50888 47.1065 9.00724 47.1781C8.50559 47.2527 8.03971 46.9034 7.96512 46.4017C7.89347 45.9 8.23982 45.4342 8.74147 45.3626ZM20.3029 35.4267C19.8858 37.0186 18.4364 38.1946 16.7145 38.1946C14.6674 38.1946 13.0055 36.5326 13.0055 34.4855C13.0055 32.4385 14.6674 30.7765 16.7145 30.7765C18.4364 30.7765 19.8858 31.9523 20.3029 33.5443H28.5309V32.1829C28.5309 31.6632 28.9522 31.2417 29.4721 31.2417H34.0004V27.5693H19.4814C18.9776 27.5693 18.4946 27.3693 18.1384 27.013C17.7823 26.6569 17.5822 26.1739 17.5822 25.6702V17.6092C17.5822 17.1055 17.7823 16.6225 18.1384 16.2662C18.4946 15.9101 18.9776 15.71 19.4814 15.71H23.1061V12.6835H19.4814C18.9776 12.6835 18.4946 12.4834 18.1384 12.1273C17.7823 11.7712 17.5822 11.2881 17.5822 10.7845V2.72328C17.5822 2.21963 17.7823 1.73657 18.1384 1.38045C18.4946 1.02434 18.9776 0.824219 19.4814 0.824219H50.4018C50.9055 0.824219 51.3885 1.02434 51.7448 1.38045C52.1009 1.73657 52.301 2.21963 52.301 2.72328V10.7845C52.301 11.2881 52.1009 11.7712 51.7448 12.1273C51.3885 12.4834 50.9055 12.6835 50.4018 12.6835H46.7771V15.71H50.4018C50.9055 15.71 51.3885 15.9101 51.7448 16.2662C52.1009 16.6225 52.301 17.1055 52.301 17.6092V25.6702C52.301 26.1739 52.1009 26.6569 51.7448 27.013C51.3885 27.3693 50.9055 27.5693 50.4018 27.5693H35.8828V31.2417H40.4111C40.931 31.2417 41.3523 31.6632 41.3523 32.1829V33.5443H47.7714C48.1884 31.9523 49.6378 30.7765 51.3598 30.7765C53.4069 30.7765 55.0688 32.4385 55.0688 34.4855C55.0688 36.5326 53.4069 38.1946 51.3598 38.1946C49.6378 38.1946 48.1884 37.0186 47.7714 35.4267H41.3523V37.3835C41.3523 37.9033 40.931 38.3247 40.4111 38.3247H29.4721C28.9522 38.3247 28.5309 37.9033 28.5309 37.3835V35.4267H20.3029ZM24.9884 15.71H44.8948V12.6835H24.9884V15.71ZM16.7145 32.6588C15.7063 32.6588 14.8878 33.4773 14.8878 34.4855C14.8878 35.4936 15.7063 36.3122 16.7145 36.3122C17.7226 36.3122 18.5411 35.4936 18.5411 34.4855C18.5411 33.4773 17.7226 32.6588 16.7145 32.6588ZM39.4699 33.1241H30.4132V36.4423H39.4699V33.1241ZM50.4018 2.70657H19.4814C19.4769 2.70657 19.4726 2.70834 19.4695 2.71151C19.4663 2.71457 19.4645 2.71892 19.4645 2.72328V10.7845C19.4645 10.7888 19.4663 10.7932 19.4695 10.7962C19.4726 10.7994 19.4769 10.8012 19.4814 10.8012H50.4018C50.4063 10.8012 50.4105 10.7994 50.4137 10.7962C50.4169 10.7932 50.4186 10.7888 50.4186 10.7845V2.72328C50.4186 2.71892 50.4169 2.71457 50.4137 2.71151C50.4105 2.70834 50.4063 2.70657 50.4018 2.70657ZM31.5149 3.77045C33.1616 3.77045 34.4984 5.10728 34.4984 6.75387C34.4984 8.40045 33.1616 9.73728 31.5149 9.73728C29.8683 9.73728 28.5315 8.40045 28.5315 6.75387C28.5315 5.10728 29.8683 3.77045 31.5149 3.77045ZM31.5149 5.65281C30.9072 5.65281 30.4138 6.14622 30.4138 6.75387C30.4138 7.36151 30.9072 7.85492 31.5149 7.85492C32.1226 7.85492 32.6161 7.36151 32.6161 6.75387C32.6161 6.14622 32.1226 5.65281 31.5149 5.65281ZM46.7429 5.29622C46.7429 4.77681 47.1646 4.35504 47.6841 4.35504C48.2035 4.35504 48.6252 4.77681 48.6252 5.29622V8.21151C48.6252 8.73092 48.2035 9.15269 47.6841 9.15269C47.1646 9.15269 46.7429 8.73092 46.7429 8.21151V5.29622ZM38.663 5.29622C38.663 4.77681 39.0847 4.35504 39.6042 4.35504C40.1236 4.35504 40.5454 4.77681 40.5454 5.29622V8.21151C40.5454 8.73092 40.1236 9.15269 39.6042 9.15269C39.0847 9.15269 38.663 8.73092 38.663 8.21151V5.29622ZM42.7029 5.29622C42.7029 4.77681 43.1246 4.35504 43.6441 4.35504C44.1636 4.35504 44.5852 4.77681 44.5852 5.29622V8.21151C44.5852 8.73092 44.1636 9.15269 43.6441 9.15269C43.1246 9.15269 42.7029 8.73092 42.7029 8.21151V5.29622ZM24.0055 3.77045C25.6521 3.77045 26.9889 5.10728 26.9889 6.75387C26.9889 8.40045 25.6521 9.73728 24.0055 9.73728C22.3589 9.73728 21.0221 8.40045 21.0221 6.75387C21.0221 5.10728 22.3589 3.77045 24.0055 3.77045ZM24.0055 5.65281C23.3978 5.65281 22.9044 6.14622 22.9044 6.75387C22.9044 7.36151 23.3978 7.85492 24.0055 7.85492C24.6131 7.85492 25.1065 7.36151 25.1065 6.75387C25.1065 6.14622 24.6131 5.65281 24.0055 5.65281ZM50.4018 17.5923H19.4814C19.4769 17.5923 19.4726 17.5941 19.4695 17.5973C19.4663 17.6005 19.4645 17.6047 19.4645 17.6092V25.6702C19.4645 25.6747 19.4663 25.6789 19.4695 25.6821C19.4726 25.6852 19.4769 25.6869 19.4814 25.6869H50.4018C50.4063 25.6869 50.4105 25.6852 50.4137 25.6821C50.4169 25.6789 50.4186 25.6747 50.4186 25.6702V17.6092C50.4186 17.6047 50.4169 17.6005 50.4137 17.5973C50.4105 17.5941 50.4063 17.5923 50.4018 17.5923ZM24.0055 18.6562C25.6521 18.6562 26.9889 19.993 26.9889 21.6396C26.9889 23.2863 25.6521 24.6232 24.0055 24.6232C22.3589 24.6232 21.0221 23.2863 21.0221 21.6396C21.0221 19.993 22.3589 18.6562 24.0055 18.6562ZM24.0055 20.5386C23.3978 20.5386 22.9044 21.032 22.9044 21.6396C22.9044 22.2474 23.3978 22.7408 24.0055 22.7408C24.6131 22.7408 25.1065 22.2474 25.1065 21.6396C25.1065 21.032 24.6131 20.5386 24.0055 20.5386ZM31.5149 18.6562C33.1616 18.6562 34.4984 19.993 34.4984 21.6396C34.4984 23.2863 33.1616 24.6232 31.5149 24.6232C29.8683 24.6232 28.5315 23.2863 28.5315 21.6396C28.5315 19.993 29.8683 18.6562 31.5149 18.6562ZM31.5149 20.5386C30.9072 20.5386 30.4138 21.032 30.4138 21.6396C30.4138 22.2474 30.9072 22.7408 31.5149 22.7408C32.1226 22.7408 32.6161 22.2474 32.6161 21.6396C32.6161 21.032 32.1226 20.5386 31.5149 20.5386ZM46.7429 20.1821C46.7429 19.6627 47.1646 19.2409 47.6841 19.2409C48.2035 19.2409 48.6252 19.6627 48.6252 20.1821V23.0973C48.6252 23.6167 48.2035 24.0385 47.6841 24.0385C47.1646 24.0385 46.7429 23.6167 46.7429 23.0973V20.1821ZM38.663 20.1821C38.663 19.6627 39.0847 19.2409 39.6042 19.2409C40.1236 19.2409 40.5454 19.6627 40.5454 20.1821V23.0973C40.5454 23.6167 40.1236 24.0385 39.6042 24.0385C39.0847 24.0385 38.663 23.6167 38.663 23.0973V20.1821ZM42.7029 20.1821C42.7029 19.6627 43.1246 19.2409 43.6441 19.2409C44.1636 19.2409 44.5852 19.6627 44.5852 20.1821V23.0973C44.5852 23.6167 44.1636 24.0385 43.6441 24.0385C43.1246 24.0385 42.7029 23.6167 42.7029 23.0973V20.1821ZM51.3598 32.6588C50.3516 32.6588 49.5331 33.4773 49.5331 34.4855C49.5331 35.4936 50.3516 36.3122 51.3598 36.3122C52.3679 36.3122 53.1864 35.4936 53.1864 34.4855C53.1864 33.4773 52.3679 32.6588 51.3598 32.6588Z" fill="#014339"/>
</svg>
