<svg width="50" height="50" viewBox="0 0 50 50" fill="none" xmlns="http://www.w3.org/2000/svg">
<g clip-path="url(#clip0_1494_119)">
<path d="M23.945 -0.0241997C24.0206 -0.0251517 24.0962 -0.0261037 24.1741 -0.0270846C25.8201 -0.0435415 27.3984 -0.0308444 29.0014 0.389695C29.075 0.40798 29.1487 0.426265 29.2246 0.445103C33.3108 1.47219 37.027 4.19745 39.2007 7.80966C39.4255 8.19511 39.6366 8.58695 39.8412 8.98345C39.888 9.07404 39.888 9.07404 39.9358 9.16646C40.9491 11.1593 41.6053 13.4213 41.6189 15.6656C41.6195 15.7419 41.6202 15.8182 41.6209 15.8968C41.6431 19.0621 41.6431 19.0621 41.306 20.4092C41.2872 20.4884 41.2683 20.5675 41.2488 20.649C40.1998 24.9512 37.5316 28.5907 34.8195 32.0051C34.5694 32.3202 34.324 32.6387 34.0795 32.9581C33.5157 33.6935 32.9422 34.4212 32.3681 35.1486C32.2683 35.2751 32.1686 35.4015 32.0689 35.528C31.9751 35.6471 31.8812 35.766 31.7873 35.8849C31.5978 36.1253 31.4174 36.3653 31.2475 36.6202C31.6593 36.7466 32.0703 36.8477 32.4922 36.9353C34.5865 37.3703 36.5971 37.918 38.474 38.9639C38.5657 39.0129 38.6573 39.0619 38.7517 39.1123C39.9366 39.7761 41.1213 40.8435 41.5582 42.1629C41.7537 43.2116 41.6477 44.2145 41.0829 45.1227C40.9395 45.3268 40.786 45.5139 40.6225 45.7022C40.5377 45.8042 40.5377 45.8042 40.4512 45.9082C37.5633 49.0956 31.8548 49.7514 27.8295 49.9991C27.4083 50.0133 26.9875 50.0172 26.5661 50.0189C26.4497 50.0196 26.3334 50.0203 26.2136 50.021C25.8408 50.0227 25.4679 50.0233 25.0951 50.0235C24.9042 50.0236 24.9042 50.0236 24.7094 50.0237C22.8976 50.0222 21.1255 49.9928 19.3334 49.7061C19.2218 49.6893 19.1101 49.6726 18.9951 49.6553C15.4799 49.1204 11.3829 48.2149 9.03066 45.3055C8.40082 44.3793 8.2868 43.4772 8.39589 42.3819C8.55682 41.6948 8.91454 41.1516 9.37245 40.6241C9.45724 40.5221 9.45724 40.5221 9.54373 40.4181C11.7436 37.9901 15.5916 37.2737 18.6498 36.7178C18.6498 36.3138 18.486 36.2023 18.2225 35.8999C18.1316 35.7938 18.0408 35.6875 17.9502 35.581C17.9037 35.5265 17.8572 35.4719 17.8093 35.4157C17.5597 35.1173 17.3256 34.8072 17.0897 34.498C17.0486 34.4441 17.0076 34.3903 16.9652 34.3348C16.9224 34.2787 16.8796 34.2225 16.8355 34.1647C16.5714 33.82 16.3043 33.4777 16.0375 33.1351C15.9797 33.0607 15.9219 32.9864 15.8623 32.9098C15.57 32.5339 15.277 32.1586 14.9827 31.7843C11.8097 27.7414 8.42735 23.0786 8.37262 17.7199C8.37166 17.6422 8.37071 17.5646 8.36972 17.4846C8.35341 15.8182 8.3591 14.2188 8.78651 12.5967C8.80537 12.5184 8.82422 12.4401 8.84364 12.3594C9.44775 9.86851 10.7232 7.58723 12.3998 5.66313C12.5214 5.52189 12.5214 5.52189 12.6455 5.37779C15.408 2.22927 19.7188 0.0199298 23.945 -0.0241997ZM14.4506 6.44438C11.5614 9.38266 10.3864 13.2682 10.4105 17.3037C10.4421 19.8291 11.213 22.1101 12.3998 24.3155C12.4338 24.3795 12.4677 24.4435 12.5027 24.5095C13.9702 27.2625 16.0053 29.7165 17.9327 32.1571C18.156 32.44 18.3784 32.7235 18.601 33.0069C18.8704 33.35 19.14 33.693 19.4101 34.0357C19.9587 34.7322 20.5036 35.4314 21.0423 36.1357C21.1487 36.2747 21.2552 36.4137 21.3617 36.5527C22.5637 38.1213 23.7413 39.7067 24.8998 41.3077C25.276 41.1823 25.3894 40.9632 25.6017 40.6485C26.0369 40.021 26.4923 39.4113 26.9567 38.8052C27.0929 38.6273 27.2291 38.4494 27.3652 38.2715C27.429 38.1882 27.4929 38.1049 27.5586 38.0191C27.7689 37.7434 27.9765 37.4659 28.1835 37.1878C28.7113 36.4817 29.2555 35.7882 29.7979 35.0932C30.0345 34.7898 30.2705 34.4859 30.5066 34.182C30.9636 33.5938 31.4215 33.0063 31.8822 32.4209C32.0139 32.2534 32.1456 32.0859 32.2772 31.9183C32.3769 31.7914 32.4766 31.6645 32.5764 31.5377C35.3207 28.0445 38.1459 24.3966 39.2553 20.0186C39.2728 19.9513 39.2903 19.8841 39.3083 19.8148C40.1812 16.2939 39.4448 12.2375 37.6039 9.15463C37.0884 8.32581 36.5067 7.56473 35.8381 6.85294C35.642 6.6397 35.642 6.6397 35.4425 6.38793C33.5174 4.00562 29.9426 2.44842 26.9761 2.07999C26.871 2.07004 26.7659 2.0601 26.6576 2.04985C26.5958 2.04345 26.5339 2.03704 26.4702 2.03044C21.961 1.58497 17.6486 3.28969 14.4506 6.44438ZM11.2279 41.6983C10.676 42.2722 10.4076 42.5965 10.4203 43.405C10.46 43.7762 10.5934 43.9569 10.8373 44.2374C10.8851 44.2961 10.933 44.3549 10.9823 44.4155C13.4534 47.1983 18.815 47.6952 22.2631 47.9483C27.2603 48.2264 34.6123 48.3052 38.6388 44.7562C39.1247 44.2971 39.5558 43.8884 39.591 43.1998C39.5833 42.6099 39.3642 42.3067 38.9623 41.8936C38.8807 41.8081 38.8807 41.8081 38.7975 41.7208C36.7378 39.7543 33.3986 39.1313 30.6943 38.7079C30.5443 38.6836 30.3948 38.6557 30.2461 38.6239C30.0169 38.5748 30.0169 38.5748 29.685 38.5733C29.4421 38.7376 29.4421 38.7376 29.2699 39.0066C29.1596 39.1558 29.1596 39.1558 29.0471 39.308C29.0084 39.3629 28.9696 39.4177 28.9296 39.4742C28.8013 39.6541 28.6687 39.8299 28.5344 40.0053C27.9441 40.7787 27.3748 41.567 26.8069 42.3569C25.6137 44.0135 25.6137 44.0135 25.2771 44.0886C24.9188 44.1094 24.6299 44.126 24.3272 43.9154C24.141 43.7074 23.984 43.4907 23.8256 43.2608C23.756 43.1647 23.6863 43.0687 23.6146 42.9697C23.451 42.7437 23.2895 42.5163 23.129 42.288C22.7595 41.7647 22.3777 41.2504 21.9965 40.7356C21.7161 40.3568 21.4371 39.9772 21.1625 39.5941C21.1132 39.5257 21.064 39.4572 21.0132 39.3867C20.9207 39.2581 20.8287 39.1292 20.7372 38.9998C20.6321 38.8541 20.5205 38.7131 20.4076 38.5733C17.5274 38.5733 13.373 39.7045 11.2279 41.6983Z" fill="#01594D"/>
<path d="M29.0823 10.9693C29.4392 11.262 29.7611 11.5829 30.0813 11.9149C30.1461 11.9767 30.2109 12.0386 30.2777 12.1022C31.5476 13.3949 31.8878 15.1791 31.873 16.9164C31.8273 18.8428 31.0627 20.3573 29.6907 21.6806C29.6288 21.7454 29.567 21.8102 29.5034 21.877C28.2107 23.1469 26.4265 23.4871 24.6892 23.4723C22.7628 23.4266 21.2483 22.662 19.925 21.2899C19.8602 21.2281 19.7954 21.1663 19.7286 21.1026C18.4587 19.81 18.1185 18.0258 18.1333 16.2885C18.179 14.362 18.9436 12.8476 20.3157 11.5243C20.3775 11.4595 20.4393 11.3946 20.503 11.3279C22.6937 9.17577 26.6913 9.19104 29.0823 10.9693ZM22.9524 12.2079C22.8687 12.2505 22.7849 12.293 22.6987 12.3368C21.7417 12.8651 21.1014 13.5821 20.6086 14.5517C20.5681 14.6283 20.5276 14.705 20.4858 14.784C20.0423 15.7749 20.0289 17.1512 20.3767 18.1771C20.4488 18.3383 20.5261 18.4972 20.6086 18.6532C20.6724 18.7788 20.6724 18.7788 20.7376 18.9069C21.4133 20.1311 22.4479 20.8746 23.7622 21.314C25.0353 21.6685 26.2688 21.4292 27.4186 20.8066C28.6079 20.0598 29.3612 19.0356 29.7427 17.6882C29.9669 16.6716 29.877 15.4716 29.3977 14.5517C29.3551 14.4678 29.3126 14.384 29.2688 14.2976C28.7399 13.3409 28.0235 12.7007 27.0539 12.2079C26.9773 12.1674 26.9006 12.1268 26.8216 12.0851C25.6674 11.5685 24.0655 11.6193 22.9524 12.2079Z" fill="#01594D"/>
<path d="M29.3954 4.58871C32.4968 5.65483 35.0714 8.05502 36.5174 10.9764C37.2872 12.6241 37.7083 14.3645 37.745 16.1793C37.748 16.2716 37.751 16.3639 37.7541 16.4591C37.7542 16.9029 37.7433 17.1204 37.4795 17.4896C37.114 17.7386 36.8939 17.7448 36.4636 17.7223C36.1007 17.6478 35.9494 17.4859 35.7431 17.1864C35.6356 16.7985 35.6182 16.4001 35.5873 16.0004C35.3648 13.2102 34.3194 10.8455 32.3251 8.88558C32.2508 8.81144 32.1765 8.73729 32.1 8.6609C31.1458 7.76088 29.9497 7.17303 28.7683 6.62804C28.0867 6.30715 28.0867 6.30715 27.9306 5.95589C27.8786 5.48833 27.8597 5.28558 28.1137 4.88778C28.4984 4.51438 28.8822 4.5075 29.3954 4.58871Z" fill="#01594D"/>
<path d="M25.5859 3.90264C25.8911 4.08575 25.8911 4.08575 26.0742 4.39093C26.1708 4.88177 26.1501 5.24104 25.8911 5.67266C25.4612 5.93059 25.0985 5.95536 24.6094 5.85577C24.276 5.62442 24.1559 5.46759 24.0234 5.08673C24.0234 4.69336 24.1309 4.44242 24.3164 4.09796C24.7324 3.82066 25.098 3.83039 25.5859 3.90264Z" fill="#01594D"/>
</g>
<defs>
<clipPath id="clip0_1494_119">
<rect width="50" height="50" fill="white"/>
</clipPath>
</defs>
</svg>
