<svg width="50" height="50" viewBox="0 0 50 50" fill="none" xmlns="http://www.w3.org/2000/svg">
<g clip-path="url(#clip0_318_494)">
<path d="M32.8125 15.6299H17.1875C16.325 15.6299 15.625 16.3299 15.625 17.1924V48.4424C15.625 49.3049 16.325 50.0049 17.1875 50.0049H32.8125C33.675 50.0049 34.375 49.3049 34.375 48.4424V17.1924C34.375 16.3299 33.675 15.6299 32.8125 15.6299Z" fill="#FFC107"/>
<path d="M17.1875 31.2549H1.5625C0.7 31.2549 0 31.9549 0 32.8174V48.4424C0 49.3049 0.7 50.0049 1.5625 50.0049H17.1875C18.05 50.0049 18.75 49.3049 18.75 48.4424V32.8174C18.75 31.9549 18.05 31.2549 17.1875 31.2549Z" fill="#FFC107"/>
<path d="M48.4375 0.00488281H32.8125C31.95 0.00488281 31.25 0.704883 31.25 1.56738V48.4424C31.25 49.3049 31.95 50.0049 32.8125 50.0049H48.4375C49.3 50.0049 50 49.3049 50 48.4424V1.56738C50 0.704883 49.3 0.00488281 48.4375 0.00488281Z" fill="#FFA000"/>
</g>
<defs>
<clipPath id="clip0_318_494">
<rect width="50" height="50" fill="white" transform="translate(0 0.00488281)"/>
</clipPath>
</defs>
</svg>
