<svg width="166" height="46" viewBox="0 0 166 46" fill="none" xmlns="http://www.w3.org/2000/svg">
<path d="M57.584 32V14.12H69.824V17.36H61.304V21.896H68.624V25.136H61.304V32H57.584ZM71.4059 32V13.832H75.0059V32H71.4059ZM83.9523 32.288C82.5603 32.288 81.3523 31.984 80.3283 31.376C79.3043 30.752 78.5123 29.92 77.9523 28.88C77.3923 27.84 77.1123 26.688 77.1123 25.424C77.1123 24.112 77.4003 22.944 77.9763 21.92C78.5683 20.896 79.3603 20.088 80.3523 19.496C81.3443 18.904 82.4643 18.608 83.7123 18.608C84.7523 18.608 85.6723 18.776 86.4723 19.112C87.2723 19.432 87.9443 19.888 88.4883 20.48C89.0483 21.072 89.4723 21.76 89.7603 22.544C90.0483 23.312 90.1923 24.152 90.1923 25.064C90.1923 25.32 90.1763 25.576 90.1443 25.832C90.1283 26.072 90.0883 26.28 90.0243 26.456H80.2083V23.816H87.9843L86.2803 25.064C86.4403 24.376 86.4323 23.768 86.2563 23.24C86.0803 22.696 85.7683 22.272 85.3203 21.968C84.8883 21.648 84.3523 21.488 83.7123 21.488C83.0883 21.488 82.5523 21.64 82.1043 21.944C81.6563 22.248 81.3203 22.696 81.0963 23.288C80.8723 23.88 80.7843 24.6 80.8323 25.448C80.7683 26.184 80.8563 26.832 81.0963 27.392C81.3363 27.952 81.7043 28.392 82.2003 28.712C82.6963 29.016 83.2963 29.168 84.0003 29.168C84.6403 29.168 85.1843 29.04 85.6323 28.784C86.0963 28.528 86.4563 28.176 86.7123 27.728L89.5923 29.096C89.3363 29.736 88.9283 30.296 88.3683 30.776C87.8243 31.256 87.1763 31.632 86.4243 31.904C85.6723 32.16 84.8483 32.288 83.9523 32.288ZM91.0458 32L95.6298 25.424L91.0218 18.896H95.1978L98.6538 23.984H96.8298L100.286 18.896H104.462L99.8538 25.424L104.414 32H100.262L96.8778 26.912H98.6058L95.2218 32H91.0458ZM106.047 32V18.896H109.647V32H106.047ZM106.047 17.72V14.12H109.647V17.72H106.047ZM112.281 36.8V18.896H115.641V21.392L115.329 20.672C115.761 20.016 116.345 19.512 117.081 19.16C117.833 18.792 118.689 18.608 119.649 18.608C120.897 18.608 122.025 18.912 123.033 19.52C124.041 20.128 124.841 20.952 125.433 21.992C126.025 23.016 126.321 24.168 126.321 25.448C126.321 26.712 126.025 27.864 125.433 28.904C124.857 29.944 124.065 30.768 123.057 31.376C122.049 31.984 120.905 32.288 119.625 32.288C118.729 32.288 117.897 32.128 117.129 31.808C116.377 31.472 115.769 30.984 115.305 30.344L115.881 29.6V36.8H112.281ZM119.193 29.048C119.865 29.048 120.457 28.896 120.969 28.592C121.481 28.288 121.881 27.864 122.169 27.32C122.457 26.776 122.601 26.152 122.601 25.448C122.601 24.744 122.457 24.128 122.169 23.6C121.881 23.056 121.481 22.632 120.969 22.328C120.457 22.008 119.865 21.848 119.193 21.848C118.553 21.848 117.977 22 117.465 22.304C116.969 22.608 116.577 23.032 116.289 23.576C116.017 24.12 115.881 24.744 115.881 25.448C115.881 26.152 116.017 26.776 116.289 27.32C116.577 27.864 116.969 28.288 117.465 28.592C117.977 28.896 118.553 29.048 119.193 29.048ZM132.485 32.288C131.541 32.288 130.725 32.136 130.037 31.832C129.349 31.528 128.821 31.096 128.453 30.536C128.085 29.96 127.901 29.28 127.901 28.496C127.901 27.76 128.069 27.112 128.405 26.552C128.741 25.976 129.253 25.496 129.941 25.112C130.645 24.728 131.517 24.456 132.557 24.296L136.565 23.648V26.288L133.205 26.888C132.693 26.984 132.301 27.152 132.029 27.392C131.757 27.616 131.621 27.944 131.621 28.376C131.621 28.776 131.773 29.088 132.077 29.312C132.381 29.536 132.757 29.648 133.205 29.648C133.797 29.648 134.317 29.52 134.765 29.264C135.213 29.008 135.557 28.664 135.797 28.232C136.053 27.784 136.181 27.296 136.181 26.768V23.36C136.181 22.864 135.981 22.448 135.581 22.112C135.197 21.776 134.669 21.608 133.997 21.608C133.357 21.608 132.789 21.784 132.293 22.136C131.813 22.488 131.461 22.952 131.237 23.528L128.357 22.16C128.613 21.424 129.021 20.792 129.581 20.264C130.141 19.736 130.813 19.328 131.597 19.04C132.381 18.752 133.237 18.608 134.165 18.608C135.269 18.608 136.245 18.808 137.093 19.208C137.941 19.608 138.597 20.168 139.061 20.888C139.541 21.592 139.781 22.416 139.781 23.36V32H136.421V29.888L137.237 29.744C136.853 30.32 136.429 30.8 135.965 31.184C135.501 31.552 134.981 31.824 134.405 32C133.829 32.192 133.189 32.288 132.485 32.288ZM148.499 32.144C146.915 32.144 145.683 31.72 144.803 30.872C143.939 30.008 143.507 28.808 143.507 27.272V22.016H141.299V18.896H141.419C142.091 18.896 142.603 18.728 142.955 18.392C143.323 18.056 143.507 17.552 143.507 16.88V15.92H147.107V18.896H150.179V22.016H147.107V27.032C147.107 27.48 147.187 27.856 147.347 28.16C147.507 28.448 147.755 28.664 148.091 28.808C148.427 28.952 148.843 29.024 149.339 29.024C149.451 29.024 149.579 29.016 149.723 29C149.867 28.984 150.019 28.968 150.179 28.952V32C149.939 32.032 149.667 32.064 149.363 32.096C149.059 32.128 148.771 32.144 148.499 32.144ZM152.289 32V13.832H155.889V21.488L155.457 20.912C155.761 20.128 156.249 19.552 156.921 19.184C157.609 18.8 158.409 18.608 159.321 18.608C160.313 18.608 161.177 18.816 161.913 19.232C162.665 19.648 163.249 20.232 163.665 20.984C164.081 21.72 164.289 22.584 164.289 23.576V32H160.689V24.344C160.689 23.832 160.585 23.392 160.377 23.024C160.185 22.656 159.905 22.368 159.537 22.16C159.185 21.952 158.769 21.848 158.289 21.848C157.825 21.848 157.409 21.952 157.041 22.16C156.673 22.368 156.385 22.656 156.177 23.024C155.985 23.392 155.889 23.832 155.889 24.344V32H152.289Z" fill="#F1FFEE"/>
<path d="M38.3408 9.51071L34.7002 7.389L20.1016 42.4135C19.8794 42.3772 19.7038 42.3174 19.6014 42.2576L13.1691 38.5106L33.1416 6.47985L31.5359 5.54548L6.75742 34.7759L4.41851 33.4139C3.98218 33.1609 3.52041 32.3531 3.52041 31.8439V29.8704L30.1234 4.7225L23.1582 0.666363C22.4217 0.236309 21.4778 0 20.4994 0C19.522 0 18.5775 0.236309 17.8412 0.666363L2.65865 9.51071C1.14298 10.3928 0 12.3888 0 14.1557V31.8438C0 33.6104 1.14309 35.6081 2.65865 36.4894L17.8412 45.3354C18.5775 45.7637 19.5219 46 20.4994 46C21.4778 46 22.4217 45.7637 23.1582 45.3354L38.3409 36.4894C39.8575 35.6081 41 33.6103 41 31.8438V14.1557C41 12.3889 39.8575 10.3928 38.3408 9.51071ZM3.52041 14.1557C3.52041 13.647 3.98218 12.8401 4.41851 12.5853L19.6014 3.74244C19.7581 3.64979 20.0777 3.55194 20.4994 3.55194C20.9223 3.55194 21.2417 3.64979 21.3988 3.74244L25.1546 5.92915L3.52041 21.1178V14.1557ZM37.4796 31.8438C37.4796 32.353 37.0174 33.1609 36.581 33.4138L28.6719 38.0199L35.3884 11.8913L36.581 12.5853C37.0174 12.8401 37.4796 13.647 37.4796 14.1557V31.8438Z" fill="#9EFF8C"/>
</svg>
