<svg width="28" height="28" viewBox="0 0 28 28" fill="none" xmlns="http://www.w3.org/2000/svg">
<rect width="28" height="28" rx="6" fill="#6E7A8A"/>
<mask id="mask0_258_1155" style="mask-type:alpha" maskUnits="userSpaceOnUse" x="4" y="4" width="20" height="20">
<rect x="4" y="4" width="20" height="20" fill="#D9D9D9"/>
</mask>
<g mask="url(#mask0_258_1155)">
<path d="M17.3334 20.6666C17.0973 20.6666 16.8994 20.5868 16.7397 20.4271C16.5799 20.2673 16.5001 20.0694 16.5001 19.8333V15.6666C16.5001 15.4305 16.5799 15.2326 16.7397 15.0729C16.8994 14.9132 17.0973 14.8333 17.3334 14.8333H21.5001C21.7362 14.8333 21.9341 14.9132 22.0938 15.0729C22.2536 15.2326 22.3334 15.4305 22.3334 15.6666V19.8333C22.3334 20.0694 22.2536 20.2673 22.0938 20.4271C21.9341 20.5868 21.7362 20.6666 21.5001 20.6666H17.3334ZM14.0001 13.1666C13.764 13.1666 13.5661 13.0868 13.4063 12.9271C13.2466 12.7673 13.1667 12.5694 13.1667 12.3333V8.16665C13.1667 7.93054 13.2466 7.73262 13.4063 7.5729C13.5661 7.41317 13.764 7.33331 14.0001 7.33331H21.5001C21.7362 7.33331 21.9341 7.41317 22.0938 7.5729C22.2536 7.73262 22.3334 7.93054 22.3334 8.16665V12.3333C22.3334 12.5694 22.2536 12.7673 22.0938 12.9271C21.9341 13.0868 21.7362 13.1666 21.5001 13.1666H14.0001ZM6.50008 20.6666C6.26397 20.6666 6.06605 20.5868 5.90633 20.4271C5.74661 20.2673 5.66675 20.0694 5.66675 19.8333V15.6666C5.66675 15.4305 5.74661 15.2326 5.90633 15.0729C6.06605 14.9132 6.26397 14.8333 6.50008 14.8333H14.0001C14.2362 14.8333 14.4341 14.9132 14.5938 15.0729C14.7536 15.2326 14.8334 15.4305 14.8334 15.6666V19.8333C14.8334 20.0694 14.7536 20.2673 14.5938 20.4271C14.4341 20.5868 14.2362 20.6666 14.0001 20.6666H6.50008ZM6.50008 13.1666C6.26397 13.1666 6.06605 13.0868 5.90633 12.9271C5.74661 12.7673 5.66675 12.5694 5.66675 12.3333V8.16665C5.66675 7.93054 5.74661 7.73262 5.90633 7.5729C6.06605 7.41317 6.26397 7.33331 6.50008 7.33331H10.6667C10.9029 7.33331 11.1008 7.41317 11.2605 7.5729C11.4202 7.73262 11.5001 7.93054 11.5001 8.16665V12.3333C11.5001 12.5694 11.4202 12.7673 11.2605 12.9271C11.1008 13.0868 10.9029 13.1666 10.6667 13.1666H6.50008ZM14.8334 11.5H20.6667V8.99998H14.8334V11.5ZM7.33341 19H13.1667V16.5H7.33341V19ZM18.1667 19H20.6667V16.5H18.1667V19ZM7.33341 11.5H9.83341V8.99998H7.33341V11.5Z" fill="white"/>
</g>
</svg>
