<svg width="28" height="28" viewBox="0 0 28 28" fill="none" xmlns="http://www.w3.org/2000/svg">
<rect width="28" height="28" rx="6" fill="#6E7A8A"/>
<mask id="mask0_258_1137" style="mask-type:alpha" maskUnits="userSpaceOnUse" x="4" y="4" width="20" height="20">
<rect x="4" y="4" width="20" height="20" fill="#D9D9D9"/>
</mask>
<g mask="url(#mask0_258_1137)">
<path d="M8.16667 21.5C7.70833 21.5 7.31597 21.3368 6.98958 21.0104C6.66319 20.684 6.5 20.2917 6.5 19.8333V7.33333C6.5 7.09722 6.57986 6.89931 6.73958 6.73958C6.89931 6.57986 7.09722 6.5 7.33333 6.5C7.56944 6.5 7.76736 6.57986 7.92708 6.73958C8.08681 6.89931 8.16667 7.09722 8.16667 7.33333V19.8333H20.6667C20.9028 19.8333 21.1007 19.9132 21.2604 20.0729C21.4201 20.2326 21.5 20.4306 21.5 20.6667C21.5 20.9028 21.4201 21.1007 21.2604 21.2604C21.1007 21.4201 20.9028 21.5 20.6667 21.5H8.16667ZM9.83333 19C9.59722 19 9.39931 18.9201 9.23958 18.7604C9.07986 18.6007 9 18.4028 9 18.1667V12.3333C9 12.0972 9.07986 11.8993 9.23958 11.7396C9.39931 11.5799 9.59722 11.5 9.83333 11.5H11.5C11.7361 11.5 11.934 11.5799 12.0938 11.7396C12.2535 11.8993 12.3333 12.0972 12.3333 12.3333V18.1667C12.3333 18.4028 12.2535 18.6007 12.0938 18.7604C11.934 18.9201 11.7361 19 11.5 19H9.83333ZM14 19C13.7639 19 13.566 18.9201 13.4062 18.7604C13.2465 18.6007 13.1667 18.4028 13.1667 18.1667V8.16667C13.1667 7.93056 13.2465 7.73264 13.4062 7.57292C13.566 7.41319 13.7639 7.33333 14 7.33333H15.6667C15.9028 7.33333 16.1007 7.41319 16.2604 7.57292C16.4201 7.73264 16.5 7.93056 16.5 8.16667V18.1667C16.5 18.4028 16.4201 18.6007 16.2604 18.7604C16.1007 18.9201 15.9028 19 15.6667 19H14ZM18.1667 19C17.9306 19 17.7326 18.9201 17.5729 18.7604C17.4132 18.6007 17.3333 18.4028 17.3333 18.1667V15.6667C17.3333 15.4306 17.4132 15.2326 17.5729 15.0729C17.7326 14.9132 17.9306 14.8333 18.1667 14.8333H19.8333C20.0694 14.8333 20.2674 14.9132 20.4271 15.0729C20.5868 15.2326 20.6667 15.4306 20.6667 15.6667V18.1667C20.6667 18.4028 20.5868 18.6007 20.4271 18.7604C20.2674 18.9201 20.0694 19 19.8333 19H18.1667Z" fill="white"/>
</g>
</svg>
