<svg width="28" height="28" viewBox="0 0 28 28" fill="none" xmlns="http://www.w3.org/2000/svg">
<rect width="28" height="28" rx="6" fill="#6E7A8A"/>
<path d="M18.1892 15.1841L15.9392 14.0591C15.8507 14.0149 15.752 13.9949 15.6532 14.0011C15.5545 14.0073 15.4591 14.0394 15.3767 14.0942L14.3438 14.7833C13.8697 14.5226 13.4795 14.1324 13.2188 13.6583L13.9079 12.6254C13.9627 12.543 13.9948 12.4476 14.001 12.3489C14.0072 12.2501 13.9872 12.1515 13.943 12.0629L12.818 9.81289C12.7714 9.71872 12.6993 9.6395 12.61 9.5842C12.5206 9.5289 12.4176 9.49973 12.3125 9.5C11.5666 9.5 10.8512 9.79632 10.3238 10.3238C9.79632 10.8512 9.5 11.5666 9.5 12.3125C9.50186 13.953 10.1544 15.5257 11.3143 16.6857C12.4743 17.8456 14.047 18.4981 15.6875 18.5C16.0568 18.5 16.4226 18.4273 16.7638 18.2859C17.105 18.1446 17.4151 17.9374 17.6762 17.6762C17.9374 17.4151 18.1446 17.105 18.2859 16.7638C18.4273 16.4226 18.5 16.0568 18.5 15.6875C18.5001 15.583 18.471 15.4805 18.4161 15.3916C18.3613 15.3027 18.2827 15.2308 18.1892 15.1841ZM15.6875 17.375C14.3453 17.3735 13.0585 16.8397 12.1094 15.8906C11.1603 14.9415 10.6265 13.6547 10.625 12.3125C10.6249 11.9224 10.76 11.5442 11.0073 11.2424C11.2546 10.9407 11.5988 10.7339 11.9813 10.6573L12.7885 12.2745L12.1016 13.2969C12.0502 13.3739 12.0187 13.4624 12.0097 13.5545C12.0008 13.6466 12.0147 13.7395 12.0502 13.8249C12.4527 14.7814 13.2136 15.5424 14.1702 15.9448C14.2559 15.982 14.3495 15.9972 14.4425 15.9891C14.5356 15.981 14.6251 15.9498 14.7031 15.8984L15.7304 15.2136L17.3476 16.0208C17.2704 16.4038 17.0627 16.7482 16.76 16.9951C16.4573 17.2421 16.0782 17.3763 15.6875 17.375Z" fill="white"/>
<path d="M14.0018 5.875C12.599 5.87469 11.2201 6.23757 9.99916 6.9283C8.77825 7.61904 7.75697 8.6141 7.03472 9.81664C6.31247 11.0192 5.91387 12.3882 5.8777 13.7905C5.84153 15.1928 6.16904 16.5806 6.82834 17.8188L5.94162 20.4789C5.86817 20.6992 5.85751 20.9355 5.91083 21.1615C5.96416 21.3874 6.07936 21.5941 6.24353 21.7582C6.4077 21.9224 6.61435 22.0376 6.84031 22.0909C7.06627 22.1443 7.30262 22.1336 7.52287 22.0602L10.183 21.1734C11.2727 21.753 12.4801 22.0767 13.7135 22.12C14.947 22.1633 16.1741 21.925 17.3017 21.4232C18.4293 20.9215 19.4278 20.1694 20.2213 19.2241C21.0149 18.2789 21.5827 17.1652 21.8816 15.9678C22.1805 14.7703 22.2026 13.5205 21.9464 12.3132C21.6902 11.1058 21.1623 9.97276 20.4027 8.99993C19.6432 8.02711 18.672 7.24009 17.5629 6.69864C16.4539 6.15718 15.236 5.87551 14.0018 5.875ZM14.0018 20.875C12.7932 20.8758 11.6058 20.5575 10.5596 19.9523C10.483 19.9079 10.3978 19.8803 10.3097 19.8713C10.2217 19.8622 10.1327 19.872 10.0486 19.9L7.12677 20.875L8.10099 17.9531C8.12907 17.8692 8.139 17.7802 8.13011 17.6921C8.12122 17.604 8.09372 17.5188 8.04943 17.4422C7.29159 16.132 6.98733 14.6083 7.18383 13.1075C7.38033 11.6067 8.06661 10.2127 9.13622 9.14171C10.2058 8.07076 11.599 7.38271 13.0995 7.18431C14.6 6.98592 16.1241 7.28826 17.4353 8.04444C18.7465 8.80062 19.7715 9.96837 20.3513 11.3665C20.9311 12.7647 21.0332 14.3151 20.642 15.7773C20.2507 17.2394 19.3878 18.5316 18.1872 19.4533C16.9866 20.375 15.5154 20.8748 14.0018 20.875Z" fill="white"/>
</svg>
