<svg width="28" height="28" viewBox="0 0 28 28" fill="none" xmlns="http://www.w3.org/2000/svg">
<rect width="28" height="28" rx="6" fill="#6E7A8A"/>
<mask id="mask0_258_1119" style="mask-type:alpha" maskUnits="userSpaceOnUse" x="4" y="4" width="20" height="20">
<rect x="4" y="4" width="20" height="20" fill="#D9D9D9"/>
</mask>
<g mask="url(#mask0_258_1119)">
<path d="M13.1667 19C12.2917 19 11.4758 18.8472 10.7188 18.5417C9.96189 18.2361 9.29175 17.8194 8.70841 17.2917C8.54175 17.1389 8.46536 16.9549 8.47925 16.7396C8.49314 16.5243 8.59036 16.3403 8.77091 16.1875C8.95147 16.0347 9.1598 15.9618 9.39591 15.9688C9.63203 15.9757 9.84036 16.0556 10.0209 16.2083C10.4654 16.5694 10.948 16.8472 11.4688 17.0417C11.9897 17.2361 12.5556 17.3333 13.1667 17.3333C14.5556 17.3333 15.7362 16.8472 16.7084 15.875C17.6806 14.9028 18.1667 13.7222 18.1667 12.3333C18.1667 10.9444 17.6806 9.76389 16.7084 8.79167C15.7362 7.81945 14.5556 7.33334 13.1667 7.33334C12.014 7.33334 10.9966 7.68056 10.1147 8.37501C9.23272 9.06945 8.64591 9.95139 8.35425 11.0208C8.2848 11.2569 8.1598 11.4653 7.97925 11.6458C7.79869 11.8264 7.59036 11.9167 7.35425 11.9167C7.11814 11.9167 6.92716 11.8229 6.78133 11.6354C6.6355 11.4479 6.59036 11.2361 6.64591 11C6.96536 9.47223 7.72578 8.20139 8.92716 7.18751C10.1286 6.17362 11.5417 5.66667 13.1667 5.66667C15.0279 5.66667 16.6042 6.31251 17.8959 7.60417C19.1876 8.89584 19.8334 10.4722 19.8334 12.3333C19.8334 13.1111 19.7084 13.8438 19.4584 14.5313C19.2084 15.2188 18.8612 15.8472 18.4167 16.4167L21.7501 19.75C21.9029 19.9028 21.9792 20.0972 21.9792 20.3333C21.9792 20.5694 21.9029 20.7639 21.7501 20.9167C21.5973 21.0695 21.4029 21.1458 21.1667 21.1458C20.9306 21.1458 20.7362 21.0695 20.5834 20.9167L17.2501 17.5833C16.6806 18.0278 16.0522 18.375 15.3647 18.625C14.6772 18.875 13.9445 19 13.1667 19ZM12.8959 13.4583L13.6667 11.0625C13.7084 10.9514 13.7744 10.8576 13.8647 10.7813C13.9549 10.7049 14.0626 10.6667 14.1876 10.6667H14.6876C14.7987 10.6667 14.8959 10.6944 14.9792 10.75C15.0626 10.8056 15.132 10.8819 15.1876 10.9792L16.2917 13.1667C16.4723 13.1667 16.6216 13.2257 16.7397 13.3438C16.8577 13.4618 16.9167 13.6111 16.9167 13.7917C16.9167 13.9722 16.8577 14.1215 16.7397 14.2396C16.6216 14.3576 16.4723 14.4167 16.2917 14.4167H15.9167C15.8056 14.4167 15.698 14.3854 15.5938 14.3229C15.4897 14.2604 15.4098 14.1736 15.3542 14.0625L14.5417 12.4583L13.6251 15.2708C13.5834 15.3958 13.514 15.4931 13.4167 15.5625C13.3195 15.6319 13.2084 15.6667 13.0834 15.6667H12.7084C12.5834 15.6667 12.4688 15.6285 12.3647 15.5521C12.2605 15.4757 12.1876 15.375 12.1459 15.25L10.9584 11.3333L10.0209 14C9.97925 14.125 9.90633 14.2257 9.80216 14.3021C9.698 14.3785 9.57647 14.4167 9.43758 14.4167H6.29175C6.11119 14.4167 5.96189 14.3576 5.84383 14.2396C5.72578 14.1215 5.66675 13.9722 5.66675 13.7917C5.66675 13.6111 5.72578 13.4618 5.84383 13.3438C5.96189 13.2257 6.11119 13.1667 6.29175 13.1667H9.00008L10.2292 9.60417C10.2709 9.47917 10.3438 9.38195 10.448 9.31251C10.5522 9.24306 10.6667 9.20834 10.7917 9.20834H11.1876C11.3265 9.20834 11.4445 9.25001 11.5417 9.33334C11.639 9.41667 11.7084 9.52084 11.7501 9.64584L12.8959 13.4583Z" fill="white"/>
</g>
</svg>
