<svg width="28" height="28" viewBox="0 0 28 28" fill="none" xmlns="http://www.w3.org/2000/svg">
<rect width="28" height="28" rx="6" fill="#6E7A8A"/>
<path d="M11.2211 17.1137C11.4247 17.2579 11.6683 17.3349 11.9177 17.334V17.3307C12.153 17.3312 12.3832 17.2626 12.5798 17.1334C12.7763 17.0042 12.9307 16.8202 13.0236 16.604L13.5344 15.0507C13.6524 14.6988 13.8506 14.3792 14.1134 14.1171C14.3762 13.8551 14.6963 13.6577 15.0486 13.5407L16.5303 13.059C16.7689 12.9752 16.9751 12.8182 17.1193 12.6104C17.2637 12.4027 17.3388 12.1546 17.3339 11.9017C17.3291 11.6488 17.2447 11.4038 17.0926 11.2016C16.9405 10.9995 16.7286 10.8504 16.4869 10.7757L15.0244 10.3007C14.6707 10.183 14.3492 9.98437 14.0856 9.72066C13.822 9.45694 13.6236 9.13538 13.5061 8.78153L13.0244 7.3007C12.9404 7.06485 12.785 6.86101 12.5798 6.71752C12.3747 6.57404 12.1299 6.49802 11.8796 6.50004C11.6292 6.50206 11.3857 6.58201 11.1829 6.72877C10.98 6.87555 10.8279 7.08186 10.7477 7.31903L10.2619 8.81236C10.1448 9.15592 9.95113 9.46839 9.69562 9.72621C9.44011 9.98402 9.1294 10.1805 8.78691 10.3007L7.30608 10.7765C7.12993 10.8381 6.97053 10.9399 6.84046 11.0737C6.71039 11.2075 6.61323 11.3697 6.55665 11.5475C6.50007 11.7254 6.48562 11.9139 6.51444 12.0983C6.54328 12.2827 6.61458 12.4578 6.72274 12.6098C6.87015 12.8173 7.07923 12.9731 7.32024 13.0548L8.78191 13.529C9.1366 13.6477 9.45874 13.8474 9.72274 14.1123C9.79363 14.1827 9.85988 14.2576 9.92108 14.3365C10.0871 14.5513 10.2153 14.7928 10.3002 15.0507L10.7819 16.5298C10.864 16.7655 11.0175 16.9696 11.2211 17.1137ZM10.9094 13.5723C10.8165 13.4509 10.7154 13.3359 10.6069 13.2282H10.6094C10.207 12.8255 9.71623 12.5222 9.17608 12.3423L7.84274 11.919L9.18524 11.4824C9.71653 11.2984 10.1984 10.9948 10.5936 10.5949C10.9871 10.1924 11.2837 9.70569 11.4611 9.17153L11.8902 7.8532L12.3202 9.1757C12.4998 9.71483 12.8028 10.2045 13.2052 10.6058C13.6075 11.007 14.0981 11.3086 14.6378 11.4865L15.9869 11.9215L14.6628 12.3507C14.1241 12.5297 13.6347 12.832 13.2333 13.2335C12.832 13.6349 12.5299 14.1245 12.3511 14.6632L11.9219 15.9815L11.4927 14.6607C11.3617 14.2673 11.1644 13.8992 10.9094 13.5723ZM17.61 21.3198C17.4513 21.2067 17.3318 21.0467 17.2683 20.8623L16.995 20.0232C16.9418 19.8637 16.8526 19.7185 16.7342 19.599C16.6154 19.4799 16.4704 19.3903 16.3108 19.3373L15.485 19.0682C15.293 19.0037 15.1263 18.8801 15.0092 18.7148C14.8948 18.5547 14.8335 18.3626 14.8342 18.1657C14.8344 17.9676 14.8964 17.7744 15.0117 17.6132C15.126 17.4512 15.2888 17.3295 15.4767 17.2657L16.315 16.994C16.4708 16.9387 16.6119 16.8484 16.7275 16.7302C16.8431 16.6118 16.93 16.4687 16.9817 16.3115L17.2517 15.4848C17.3152 15.298 17.4352 15.1355 17.5951 15.0197C17.7549 14.9041 17.9468 14.8409 18.1442 14.839C18.3416 14.8371 18.5347 14.8965 18.6968 15.0091C18.8588 15.1217 18.982 15.2817 19.0492 15.4673L19.3233 16.3123C19.377 16.4707 19.4666 16.6146 19.5852 16.7326C19.7038 16.8506 19.848 16.9395 20.0067 16.9923L20.8333 17.2615C21.0239 17.3212 21.1908 17.4392 21.3106 17.599C21.4303 17.7588 21.4966 17.9522 21.5002 18.1519C21.5038 18.3515 21.4444 18.5472 21.3306 18.7112C21.2168 18.8752 21.0541 18.9992 20.8658 19.0657L20.0208 19.3398C19.8624 19.3938 19.7185 19.4833 19.6 19.6015C19.4814 19.7205 19.3921 19.8654 19.3392 20.0248L19.0708 20.849C19.0063 21.041 18.8822 21.2073 18.7167 21.324C18.5567 21.4391 18.3646 21.5009 18.1675 21.5007C17.9673 21.5007 17.7721 21.4374 17.61 21.3198ZM16.7512 18.1675C17.0786 18.2838 17.3758 18.4721 17.621 18.7185C17.8662 18.965 18.0529 19.2633 18.1675 19.5915C18.2833 19.2648 18.4705 18.9681 18.7156 18.723C18.9607 18.4779 19.2574 18.2906 19.5842 18.1748C19.2522 18.0587 18.9505 17.8693 18.7017 17.6207C18.4558 17.3758 18.2681 17.0787 18.1525 16.7515C18.0374 17.0765 17.8519 17.372 17.6093 17.6169C17.3673 17.8613 17.0742 18.0493 16.7512 18.1675Z" fill="white"/>
</svg>
