<svg width="28" height="28" viewBox="0 0 28 28" fill="none" xmlns="http://www.w3.org/2000/svg">
<rect width="28" height="28" rx="6" fill="#6E7A8A"/>
<mask id="mask0_258_1149" style="mask-type:alpha" maskUnits="userSpaceOnUse" x="4" y="4" width="20" height="20">
<rect x="4" y="4" width="20" height="20" fill="#D9D9D9"/>
</mask>
<g mask="url(#mask0_258_1149)">
<path d="M14.0001 17.75C15.0417 17.75 15.9272 17.3854 16.6563 16.6562C17.3855 15.9271 17.7501 15.0417 17.7501 14C17.7501 12.9583 17.3855 12.0729 16.6563 11.3437C15.9272 10.6146 15.0417 10.25 14.0001 10.25C12.9584 10.25 12.073 10.6146 11.3438 11.3437C10.6147 12.0729 10.2501 12.9583 10.2501 14C10.2501 15.0417 10.6147 15.9271 11.3438 16.6562C12.073 17.3854 12.9584 17.75 14.0001 17.75ZM14.0001 14.8333C13.764 14.8333 13.5661 14.7535 13.4063 14.5937C13.2466 14.434 13.1667 14.2361 13.1667 14C13.1667 13.7639 13.2466 13.566 13.4063 13.4062C13.5661 13.2465 13.764 13.1667 14.0001 13.1667C14.2362 13.1667 14.4341 13.2465 14.5938 13.4062C14.7536 13.566 14.8334 13.7639 14.8334 14C14.8334 14.2361 14.7536 14.434 14.5938 14.5937C14.4341 14.7535 14.2362 14.8333 14.0001 14.8333ZM14.0001 22.3333C12.8473 22.3333 11.764 22.1146 10.7501 21.6771C9.73619 21.2396 8.85425 20.6458 8.10425 19.8958C7.35425 19.1458 6.7605 18.2639 6.323 17.25C5.8855 16.2361 5.66675 15.1528 5.66675 14C5.66675 12.8472 5.8855 11.7639 6.323 10.75C6.7605 9.7361 7.35425 8.85416 8.10425 8.10416C8.85425 7.35416 9.73619 6.76041 10.7501 6.32291C11.764 5.88541 12.8473 5.66666 14.0001 5.66666C15.1529 5.66666 16.2362 5.88541 17.2501 6.32291C18.264 6.76041 19.1459 7.35416 19.8959 8.10416C20.6459 8.85416 21.2397 9.7361 21.6772 10.75C22.1147 11.7639 22.3334 12.8472 22.3334 14C22.3334 15.1528 22.1147 16.2361 21.6772 17.25C21.2397 18.2639 20.6459 19.1458 19.8959 19.8958C19.1459 20.6458 18.264 21.2396 17.2501 21.6771C16.2362 22.1146 15.1529 22.3333 14.0001 22.3333ZM14.0001 20.6667C15.8612 20.6667 17.4376 20.0208 18.7292 18.7292C20.0209 17.4375 20.6667 15.8611 20.6667 14C20.6667 12.1389 20.0209 10.5625 18.7292 9.27082C17.4376 7.97916 15.8612 7.33332 14.0001 7.33332C12.139 7.33332 10.5626 7.97916 9.27091 9.27082C7.97925 10.5625 7.33341 12.1389 7.33341 14C7.33341 15.8611 7.97925 17.4375 9.27091 18.7292C10.5626 20.0208 12.139 20.6667 14.0001 20.6667Z" fill="white"/>
</g>
</svg>
