<svg width="28" height="28" viewBox="0 0 28 28" fill="none" xmlns="http://www.w3.org/2000/svg">
<rect width="28" height="28" rx="6" fill="#6E7A8A"/>
<mask id="mask0_258_1125" style="mask-type:alpha" maskUnits="userSpaceOnUse" x="4" y="4" width="20" height="20">
<rect x="4" y="4" width="20" height="20" fill="#D9D9D9"/>
</mask>
<g mask="url(#mask0_258_1125)">
<path d="M12.8334 15.5L11.0417 13.7083C10.889 13.5555 10.6945 13.4792 10.4584 13.4792C10.2223 13.4792 10.0279 13.5555 9.87508 13.7083C9.7223 13.8611 9.64591 14.0555 9.64591 14.2917C9.64591 14.5278 9.7223 14.7222 9.87508 14.875L12.2501 17.25C12.4167 17.4167 12.6112 17.5 12.8334 17.5C13.0556 17.5 13.2501 17.4167 13.4167 17.25L18.1251 12.5417C18.2779 12.3889 18.3542 12.1944 18.3542 11.9583C18.3542 11.7222 18.2779 11.5278 18.1251 11.375C17.9723 11.2222 17.7779 11.1458 17.5417 11.1458C17.3056 11.1458 17.1112 11.2222 16.9584 11.375L12.8334 15.5ZM14.0001 22.3333C12.8473 22.3333 11.764 22.1146 10.7501 21.6771C9.73619 21.2396 8.85425 20.6458 8.10425 19.8958C7.35425 19.1458 6.7605 18.2639 6.323 17.25C5.8855 16.2361 5.66675 15.1528 5.66675 14C5.66675 12.8472 5.8855 11.7639 6.323 10.75C6.7605 9.7361 7.35425 8.85416 8.10425 8.10416C8.85425 7.35416 9.73619 6.76041 10.7501 6.32291C11.764 5.88541 12.8473 5.66666 14.0001 5.66666C15.1529 5.66666 16.2362 5.88541 17.2501 6.32291C18.264 6.76041 19.1459 7.35416 19.8959 8.10416C20.6459 8.85416 21.2397 9.7361 21.6772 10.75C22.1147 11.7639 22.3334 12.8472 22.3334 14C22.3334 15.1528 22.1147 16.2361 21.6772 17.25C21.2397 18.2639 20.6459 19.1458 19.8959 19.8958C19.1459 20.6458 18.264 21.2396 17.2501 21.6771C16.2362 22.1146 15.1529 22.3333 14.0001 22.3333ZM14.0001 20.6667C15.8612 20.6667 17.4376 20.0208 18.7292 18.7292C20.0209 17.4375 20.6667 15.8611 20.6667 14C20.6667 12.1389 20.0209 10.5625 18.7292 9.27082C17.4376 7.97916 15.8612 7.33332 14.0001 7.33332C12.139 7.33332 10.5626 7.97916 9.27091 9.27082C7.97925 10.5625 7.33341 12.1389 7.33341 14C7.33341 15.8611 7.97925 17.4375 9.27091 18.7292C10.5626 20.0208 12.139 20.6667 14.0001 20.6667Z" fill="white"/>
</g>
</svg>
