<svg width="28" height="28" viewBox="0 0 28 28" fill="none" xmlns="http://www.w3.org/2000/svg">
<rect width="28" height="28" rx="6" fill="#6E7A8A"/>
<mask id="mask0_258_1172" style="mask-type:alpha" maskUnits="userSpaceOnUse" x="4" y="4" width="20" height="20">
<rect x="4" y="4" width="20" height="20" fill="#D9D9D9"/>
</mask>
<g mask="url(#mask0_258_1172)">
<path d="M9.0013 16.416H14.0013V16.041C14.0013 15.8049 13.9353 15.5862 13.8034 15.3848C13.6714 15.1834 13.4874 15.0271 13.2513 14.916C12.9735 14.791 12.6923 14.6973 12.4076 14.6348C12.1228 14.5723 11.8207 14.541 11.5013 14.541C11.1819 14.541 10.8798 14.5723 10.5951 14.6348C10.3103 14.6973 10.0291 14.791 9.7513 14.916C9.51519 15.0271 9.33116 15.1834 9.19922 15.3848C9.06727 15.5862 9.0013 15.8049 9.0013 16.041V16.416ZM16.293 15.8848H18.3763C18.5569 15.8848 18.7062 15.8257 18.8242 15.7077C18.9423 15.5896 19.0013 15.4403 19.0013 15.2598C19.0013 15.0792 18.9423 14.9299 18.8242 14.8119C18.7062 14.6938 18.5569 14.6348 18.3763 14.6348H16.293C16.1124 14.6348 15.9631 14.6938 15.8451 14.8119C15.727 14.9299 15.668 15.0792 15.668 15.2598C15.668 15.4403 15.727 15.5896 15.8451 15.7077C15.9631 15.8257 16.1124 15.8848 16.293 15.8848ZM11.5013 13.916C11.8485 13.916 12.1437 13.7945 12.3867 13.5514C12.6298 13.3084 12.7513 13.0132 12.7513 12.666C12.7513 12.3188 12.6298 12.0237 12.3867 11.7806C12.1437 11.5375 11.8485 11.416 11.5013 11.416C11.1541 11.416 10.8589 11.5375 10.6159 11.7806C10.3728 12.0237 10.2513 12.3188 10.2513 12.666C10.2513 13.0132 10.3728 13.3084 10.6159 13.5514C10.8589 13.7945 11.1541 13.916 11.5013 13.916ZM16.293 13.3848H18.3763C18.5569 13.3848 18.7062 13.3257 18.8242 13.2077C18.9423 13.0896 19.0013 12.9403 19.0013 12.7598C19.0013 12.5792 18.9423 12.4299 18.8242 12.3119C18.7062 12.1938 18.5569 12.1348 18.3763 12.1348H16.293C16.1124 12.1348 15.9631 12.1938 15.8451 12.3119C15.727 12.4299 15.668 12.5792 15.668 12.7598C15.668 12.9403 15.727 13.0896 15.8451 13.2077C15.9631 13.3257 16.1124 13.3848 16.293 13.3848ZM7.33464 20.75C6.8763 20.75 6.48394 20.5868 6.15755 20.2604C5.83116 19.934 5.66797 19.5417 5.66797 19.0833V8.91667C5.66797 8.45833 5.83116 8.06597 6.15755 7.73958C6.48394 7.41319 6.8763 7.25 7.33464 7.25H11.5013H16.5013H20.668C21.1263 7.25 21.5187 7.41319 21.8451 7.73958C22.1714 8.06597 22.3346 8.45833 22.3346 8.91667V19.0833C22.3346 19.5417 22.1714 19.934 21.8451 20.2604C21.5187 20.5868 21.1263 20.75 20.668 20.75H7.33464ZM7.33464 19.0833H20.668V8.91667H16.5013H11.5013H7.33464V19.0833Z" fill="white"/>
</g>
</svg>
