<svg width="28" height="28" viewBox="0 0 28 28" fill="none" xmlns="http://www.w3.org/2000/svg">
<rect width="28" height="28" rx="6" fill="#6E7A8A"/>
<mask id="mask0_258_1143" style="mask-type:alpha" maskUnits="userSpaceOnUse" x="4" y="4" width="20" height="20">
<rect x="4" y="4" width="20" height="20" fill="#D9D9D9"/>
</mask>
<g mask="url(#mask0_258_1143)">
<path d="M8.16659 19.8333C7.93047 19.8333 7.73256 19.7535 7.57284 19.5937C7.41311 19.434 7.33325 19.2361 7.33325 19C7.33325 18.7639 7.41311 18.566 7.57284 18.4062C7.73256 18.2465 7.93047 18.1667 8.16659 18.1667H8.99992V12.3333C8.99992 11.1805 9.34714 10.1562 10.0416 9.26041C10.736 8.36457 11.6388 7.77777 12.7499 7.49999V6.91666C12.7499 6.56943 12.8714 6.2743 13.1145 6.03124C13.3576 5.78818 13.6527 5.66666 13.9999 5.66666C14.3471 5.66666 14.6423 5.78818 14.8853 6.03124C15.1284 6.2743 15.2499 6.56943 15.2499 6.91666V7.49999C16.361 7.77777 17.2638 8.36457 17.9583 9.26041C18.6527 10.1562 18.9999 11.1805 18.9999 12.3333V18.1667H19.8333C20.0694 18.1667 20.2673 18.2465 20.427 18.4062C20.5867 18.566 20.6666 18.7639 20.6666 19C20.6666 19.2361 20.5867 19.434 20.427 19.5937C20.2673 19.7535 20.0694 19.8333 19.8333 19.8333H8.16659ZM13.9999 22.3333C13.5416 22.3333 13.1492 22.1701 12.8228 21.8437C12.4964 21.5174 12.3333 21.125 12.3333 20.6667H15.6666C15.6666 21.125 15.5034 21.5174 15.177 21.8437C14.8506 22.1701 14.4583 22.3333 13.9999 22.3333ZM10.6666 18.1667H17.3333V12.3333C17.3333 11.4167 17.0069 10.6319 16.3541 9.97916C15.7013 9.32638 14.9166 8.99999 13.9999 8.99999C13.0833 8.99999 12.2985 9.32638 11.6458 9.97916C10.993 10.6319 10.6666 11.4167 10.6666 12.3333V18.1667ZM13.1666 14.8333V15.6667C13.1666 15.9028 13.2464 16.1007 13.4062 16.2604C13.5659 16.4201 13.7638 16.5 13.9999 16.5C14.236 16.5 14.4339 16.4201 14.5937 16.2604C14.7534 16.1007 14.8333 15.9028 14.8333 15.6667V14.8333H15.6666C15.9027 14.8333 16.1006 14.7535 16.2603 14.5937C16.4201 14.434 16.4999 14.2361 16.4999 14C16.4999 13.7639 16.4201 13.566 16.2603 13.4062C16.1006 13.2465 15.9027 13.1667 15.6666 13.1667H14.8333V12.3333C14.8333 12.0972 14.7534 11.8993 14.5937 11.7396C14.4339 11.5799 14.236 11.5 13.9999 11.5C13.7638 11.5 13.5659 11.5799 13.4062 11.7396C13.2464 11.8993 13.1666 12.0972 13.1666 12.3333V13.1667H12.3333C12.0971 13.1667 11.8992 13.2465 11.7395 13.4062C11.5798 13.566 11.4999 13.7639 11.4999 14C11.4999 14.2361 11.5798 14.434 11.7395 14.5937C11.8992 14.7535 12.0971 14.8333 12.3333 14.8333H13.1666Z" fill="white"/>
</g>
</svg>
