<svg width="28" height="28" viewBox="0 0 28 28" fill="none" xmlns="http://www.w3.org/2000/svg">
<rect width="28" height="28" rx="6" fill="#6E7A8A"/>
<mask id="mask0_258_1131" style="mask-type:alpha" maskUnits="userSpaceOnUse" x="4" y="4" width="20" height="20">
<rect x="4" y="4" width="20" height="20" fill="#D9D9D9"/>
</mask>
<g mask="url(#mask0_258_1131)">
<path d="M13.9999 23.1667C13.5416 23.1667 13.1492 23.0035 12.8228 22.6771C12.4964 22.3507 12.3333 21.9583 12.3333 21.5C12.3333 21.0417 12.4964 20.6493 12.8228 20.3229C13.1492 19.9965 13.5416 19.8333 13.9999 19.8333C14.4583 19.8333 14.8506 19.9965 15.177 20.3229C15.5034 20.6493 15.6666 21.0417 15.6666 21.5C15.6666 21.9583 15.5034 22.3507 15.177 22.6771C14.8506 23.0035 14.4583 23.1667 13.9999 23.1667ZM8.99992 8.16668C8.54159 8.16668 8.14922 8.00348 7.82284 7.67709C7.49645 7.3507 7.33325 6.95834 7.33325 6.50001C7.33325 6.04168 7.49645 5.64932 7.82284 5.32293C8.14922 4.99654 8.54159 4.83334 8.99992 4.83334C9.45825 4.83334 9.85061 4.99654 10.177 5.32293C10.5034 5.64932 10.6666 6.04168 10.6666 6.50001C10.6666 6.95834 10.5034 7.3507 10.177 7.67709C9.85061 8.00348 9.45825 8.16668 8.99992 8.16668ZM8.99992 13.1667C8.54159 13.1667 8.14922 13.0035 7.82284 12.6771C7.49645 12.3507 7.33325 11.9583 7.33325 11.5C7.33325 11.0417 7.49645 10.6493 7.82284 10.3229C8.14922 9.99654 8.54159 9.83334 8.99992 9.83334C9.45825 9.83334 9.85061 9.99654 10.177 10.3229C10.5034 10.6493 10.6666 11.0417 10.6666 11.5C10.6666 11.9583 10.5034 12.3507 10.177 12.6771C9.85061 13.0035 9.45825 13.1667 8.99992 13.1667ZM8.99992 18.1667C8.54159 18.1667 8.14922 18.0035 7.82284 17.6771C7.49645 17.3507 7.33325 16.9583 7.33325 16.5C7.33325 16.0417 7.49645 15.6493 7.82284 15.3229C8.14922 14.9965 8.54159 14.8333 8.99992 14.8333C9.45825 14.8333 9.85061 14.9965 10.177 15.3229C10.5034 15.6493 10.6666 16.0417 10.6666 16.5C10.6666 16.9583 10.5034 17.3507 10.177 17.6771C9.85061 18.0035 9.45825 18.1667 8.99992 18.1667ZM18.9999 8.16668C18.5416 8.16668 18.1492 8.00348 17.8228 7.67709C17.4964 7.3507 17.3333 6.95834 17.3333 6.50001C17.3333 6.04168 17.4964 5.64932 17.8228 5.32293C18.1492 4.99654 18.5416 4.83334 18.9999 4.83334C19.4583 4.83334 19.8506 4.99654 20.177 5.32293C20.5034 5.64932 20.6666 6.04168 20.6666 6.50001C20.6666 6.95834 20.5034 7.3507 20.177 7.67709C19.8506 8.00348 19.4583 8.16668 18.9999 8.16668ZM13.9999 18.1667C13.5416 18.1667 13.1492 18.0035 12.8228 17.6771C12.4964 17.3507 12.3333 16.9583 12.3333 16.5C12.3333 16.0417 12.4964 15.6493 12.8228 15.3229C13.1492 14.9965 13.5416 14.8333 13.9999 14.8333C14.4583 14.8333 14.8506 14.9965 15.177 15.3229C15.5034 15.6493 15.6666 16.0417 15.6666 16.5C15.6666 16.9583 15.5034 17.3507 15.177 17.6771C14.8506 18.0035 14.4583 18.1667 13.9999 18.1667ZM18.9999 18.1667C18.5416 18.1667 18.1492 18.0035 17.8228 17.6771C17.4964 17.3507 17.3333 16.9583 17.3333 16.5C17.3333 16.0417 17.4964 15.6493 17.8228 15.3229C18.1492 14.9965 18.5416 14.8333 18.9999 14.8333C19.4583 14.8333 19.8506 14.9965 20.177 15.3229C20.5034 15.6493 20.6666 16.0417 20.6666 16.5C20.6666 16.9583 20.5034 17.3507 20.177 17.6771C19.8506 18.0035 19.4583 18.1667 18.9999 18.1667ZM18.9999 13.1667C18.5416 13.1667 18.1492 13.0035 17.8228 12.6771C17.4964 12.3507 17.3333 11.9583 17.3333 11.5C17.3333 11.0417 17.4964 10.6493 17.8228 10.3229C18.1492 9.99654 18.5416 9.83334 18.9999 9.83334C19.4583 9.83334 19.8506 9.99654 20.177 10.3229C20.5034 10.6493 20.6666 11.0417 20.6666 11.5C20.6666 11.9583 20.5034 12.3507 20.177 12.6771C19.8506 13.0035 19.4583 13.1667 18.9999 13.1667ZM13.9999 13.1667C13.5416 13.1667 13.1492 13.0035 12.8228 12.6771C12.4964 12.3507 12.3333 11.9583 12.3333 11.5C12.3333 11.0417 12.4964 10.6493 12.8228 10.3229C13.1492 9.99654 13.5416 9.83334 13.9999 9.83334C14.4583 9.83334 14.8506 9.99654 15.177 10.3229C15.5034 10.6493 15.6666 11.0417 15.6666 11.5C15.6666 11.9583 15.5034 12.3507 15.177 12.6771C14.8506 13.0035 14.4583 13.1667 13.9999 13.1667ZM13.9999 8.16668C13.5416 8.16668 13.1492 8.00348 12.8228 7.67709C12.4964 7.3507 12.3333 6.95834 12.3333 6.50001C12.3333 6.04168 12.4964 5.64932 12.8228 5.32293C13.1492 4.99654 13.5416 4.83334 13.9999 4.83334C14.4583 4.83334 14.8506 4.99654 15.177 5.32293C15.5034 5.64932 15.6666 6.04168 15.6666 6.50001C15.6666 6.95834 15.5034 7.3507 15.177 7.67709C14.8506 8.00348 14.4583 8.16668 13.9999 8.16668Z" fill="white"/>
</g>
</svg>
