<svg width="28" height="28" viewBox="0 0 28 28" fill="none" xmlns="http://www.w3.org/2000/svg">
<rect width="28" height="28" rx="6" fill="#6E7A8A"/>
<mask id="mask0_258_1161" style="mask-type:alpha" maskUnits="userSpaceOnUse" x="4" y="4" width="20" height="20">
<rect x="4" y="4" width="20" height="20" fill="#D9D9D9"/>
</mask>
<g mask="url(#mask0_258_1161)">
<path d="M13.1672 21.4998V18.1665C13.1672 17.3887 13.0492 16.8123 12.8131 16.4373C12.577 16.0623 12.2645 15.6943 11.8756 15.3332L13.0631 14.1457C13.2297 14.2984 13.3895 14.4616 13.5422 14.6352C13.695 14.8089 13.8478 14.9929 14.0006 15.1873C14.195 14.9234 14.3929 14.6908 14.5943 14.4894C14.7957 14.288 15.0006 14.0901 15.2089 13.8957C15.7367 13.4095 16.2158 12.847 16.6464 12.2082C17.077 11.5693 17.3061 10.4512 17.3339 8.85399L16.6047 9.58316C16.452 9.73594 16.261 9.81233 16.0318 9.81233C15.8027 9.81233 15.6047 9.73594 15.4381 9.58316C15.2714 9.41649 15.1881 9.21858 15.1881 8.98941C15.1881 8.76024 15.2714 8.56233 15.4381 8.39566L17.5839 6.24983C17.6672 6.16649 17.7575 6.10747 17.8547 6.07274C17.952 6.03802 18.0561 6.02066 18.1672 6.02066C18.2783 6.02066 18.3825 6.03802 18.4797 6.07274C18.577 6.10747 18.6672 6.16649 18.7506 6.24983L20.9172 8.41649C21.07 8.56927 21.1499 8.76024 21.1568 8.98941C21.1638 9.21858 21.0839 9.41649 20.9172 9.58316C20.7645 9.73594 20.57 9.81233 20.3339 9.81233C20.0978 9.81233 19.9033 9.73594 19.7506 9.58316L19.0006 8.85399C18.9728 10.8401 18.6672 12.2533 18.0839 13.0936C17.5006 13.9339 16.9172 14.6179 16.3339 15.1457C15.8895 15.5484 15.5283 15.9408 15.2506 16.3227C14.9728 16.7047 14.8339 17.3193 14.8339 18.1665V21.4998C14.8339 21.7359 14.754 21.9339 14.5943 22.0936C14.4346 22.2533 14.2367 22.3332 14.0006 22.3332C13.7645 22.3332 13.5665 22.2533 13.4068 22.0936C13.2471 21.9339 13.1672 21.7359 13.1672 21.4998ZM9.16724 10.8123C9.11168 10.5345 9.07349 10.229 9.05265 9.89566C9.03182 9.56233 9.01446 9.2151 9.00057 8.85399L8.25057 9.60399C8.09779 9.75677 7.90682 9.83316 7.67765 9.83316C7.44849 9.83316 7.25057 9.74983 7.0839 9.58316C6.93113 9.43038 6.85474 9.23594 6.85474 8.99983C6.85474 8.76372 6.93113 8.56927 7.0839 8.41649L9.25057 6.24983C9.3339 6.16649 9.42418 6.10747 9.5214 6.07274C9.61863 6.03802 9.72279 6.02066 9.8339 6.02066C9.94501 6.02066 10.0492 6.03802 10.1464 6.07274C10.2436 6.10747 10.3339 6.16649 10.4172 6.24983L12.5839 8.41649C12.7506 8.58316 12.8304 8.7776 12.8235 8.99983C12.8165 9.22205 12.7297 9.41649 12.5631 9.58316C12.3964 9.73594 12.202 9.81233 11.9797 9.81233C11.7575 9.81233 11.5631 9.73594 11.3964 9.58316L10.6672 8.87483C10.6672 9.16649 10.6811 9.4408 10.7089 9.69774C10.7367 9.95469 10.7645 10.1943 10.7922 10.4165L9.16724 10.8123ZM10.9589 14.479C10.6811 14.1873 10.4138 13.847 10.1568 13.4582C9.89988 13.0693 9.67418 12.5901 9.47974 12.0207L11.0839 11.6248C11.2228 11.9998 11.3825 12.3193 11.5631 12.5832C11.7436 12.847 11.9381 13.0832 12.1464 13.2915L10.9589 14.479Z" fill="white"/>
</g>
</svg>
