<svg width="40" height="40" viewBox="0 0 40 40" fill="none" xmlns="http://www.w3.org/2000/svg">
<g clip-path="url(#clip0_24_1716)">
<path d="M39.9448 21.5H32.8002C26.5593 21.5 21.5002 26.5592 21.5002 32.8V39.9446C31.3501 39.2142 39.2144 31.3499 39.9448 21.5Z" fill="#01594D"/>
<path d="M18.5003 39.9446V32.8C18.5003 26.5592 13.4411 21.5 7.20026 21.5H0.0556641C0.785998 31.3499 8.65036 39.2142 18.5003 39.9446Z" fill="#01594D"/>
<path d="M39.9448 18.4998C39.2144 8.64987 31.3501 0.78551 21.5002 0.0551758V7.19977C21.5002 13.4406 26.5593 18.4998 32.8002 18.4998H39.9448Z" fill="#01594D"/>
<path d="M18.5003 0.0551758C8.65036 0.78551 0.785998 8.64987 0.0556641 18.4998H7.20026C13.4411 18.4998 18.5003 13.4406 18.5003 7.19977V0.0551758Z" fill="#01594D"/>
<path d="M13.583 19.9998C16.3555 18.6145 18.615 16.355 20.0002 13.5825C21.3855 16.355 23.6449 18.6145 26.4175 19.9998C23.6449 21.385 21.3855 23.6445 20.0002 26.417C18.615 23.6445 16.3555 21.385 13.583 19.9998Z" fill="#01594D"/>
</g>
<defs>
<clipPath id="clip0_24_1716">
<rect width="40" height="40" fill="white"/>
</clipPath>
</defs>
</svg>
