<svg width="199" height="55" viewBox="0 0 199 55" fill="none" xmlns="http://www.w3.org/2000/svg">
<path d="M68.5405 33.5654V15.6854H80.7805V18.9254H72.2605V23.4614H79.5805V26.7014H72.2605V33.5654H68.5405ZM82.3625 33.5654V15.3974H85.9625V33.5654H82.3625ZM94.9089 33.8534C93.5169 33.8534 92.3089 33.5494 91.2849 32.9414C90.2609 32.3174 89.4689 31.4854 88.9089 30.4454C88.3489 29.4054 88.0689 28.2534 88.0689 26.9894C88.0689 25.6774 88.3569 24.5094 88.9329 23.4854C89.5249 22.4614 90.3169 21.6534 91.3089 21.0614C92.3009 20.4694 93.4209 20.1734 94.6689 20.1734C95.7089 20.1734 96.6289 20.3414 97.4289 20.6774C98.2289 20.9974 98.9009 21.4534 99.4449 22.0454C100.005 22.6374 100.429 23.3254 100.717 24.1094C101.005 24.8774 101.149 25.7174 101.149 26.6294C101.149 26.8854 101.133 27.1414 101.101 27.3974C101.085 27.6374 101.045 27.8454 100.981 28.0214H91.1649V25.3814H98.9409L97.2369 26.6294C97.3969 25.9414 97.3889 25.3334 97.2129 24.8054C97.0369 24.2614 96.7249 23.8374 96.2769 23.5334C95.8449 23.2134 95.3089 23.0534 94.6689 23.0534C94.0449 23.0534 93.5089 23.2054 93.0609 23.5094C92.6129 23.8134 92.2769 24.2614 92.0529 24.8534C91.8289 25.4454 91.7409 26.1654 91.7889 27.0134C91.7249 27.7494 91.8129 28.3974 92.0529 28.9574C92.2929 29.5174 92.6609 29.9574 93.1569 30.2774C93.6529 30.5814 94.2529 30.7334 94.9569 30.7334C95.5969 30.7334 96.1409 30.6054 96.5889 30.3494C97.0529 30.0934 97.4129 29.7414 97.6689 29.2934L100.549 30.6614C100.293 31.3014 99.8849 31.8614 99.3249 32.3414C98.7809 32.8214 98.1329 33.1974 97.3809 33.4694C96.6289 33.7254 95.8049 33.8534 94.9089 33.8534ZM102.002 33.5654L106.586 26.9894L101.978 20.4614H106.154L109.61 25.5494H107.786L111.242 20.4614H115.418L110.81 26.9894L115.37 33.5654H111.218L107.834 28.4774H109.562L106.178 33.5654H102.002ZM117.003 33.5654V20.4614H120.603V33.5654H117.003ZM117.003 19.2854V15.6854H120.603V19.2854H117.003ZM123.237 38.3654V20.4614H126.597V22.9574L126.285 22.2374C126.717 21.5814 127.301 21.0774 128.037 20.7254C128.789 20.3574 129.645 20.1734 130.605 20.1734C131.853 20.1734 132.981 20.4774 133.989 21.0854C134.997 21.6934 135.797 22.5174 136.389 23.5574C136.981 24.5814 137.277 25.7334 137.277 27.0134C137.277 28.2774 136.981 29.4294 136.389 30.4694C135.813 31.5094 135.021 32.3334 134.013 32.9414C133.005 33.5494 131.861 33.8534 130.581 33.8534C129.685 33.8534 128.853 33.6934 128.085 33.3734C127.333 33.0374 126.725 32.5494 126.261 31.9094L126.837 31.1654V38.3654H123.237ZM130.149 30.6134C130.821 30.6134 131.413 30.4614 131.925 30.1574C132.437 29.8534 132.837 29.4294 133.125 28.8854C133.413 28.3414 133.557 27.7174 133.557 27.0134C133.557 26.3094 133.413 25.6934 133.125 25.1654C132.837 24.6214 132.437 24.1974 131.925 23.8934C131.413 23.5734 130.821 23.4134 130.149 23.4134C129.509 23.4134 128.933 23.5654 128.421 23.8694C127.925 24.1734 127.533 24.5974 127.245 25.1414C126.973 25.6854 126.837 26.3094 126.837 27.0134C126.837 27.7174 126.973 28.3414 127.245 28.8854C127.533 29.4294 127.925 29.8534 128.421 30.1574C128.933 30.4614 129.509 30.6134 130.149 30.6134ZM143.442 33.8534C142.498 33.8534 141.682 33.7014 140.994 33.3974C140.306 33.0934 139.778 32.6614 139.41 32.1014C139.042 31.5254 138.858 30.8454 138.858 30.0614C138.858 29.3254 139.026 28.6774 139.362 28.1174C139.698 27.5414 140.21 27.0614 140.898 26.6774C141.602 26.2934 142.474 26.0214 143.514 25.8614L147.522 25.2134V27.8534L144.162 28.4534C143.65 28.5494 143.258 28.7174 142.986 28.9574C142.714 29.1814 142.578 29.5094 142.578 29.9414C142.578 30.3414 142.73 30.6534 143.034 30.8774C143.338 31.1014 143.714 31.2134 144.162 31.2134C144.754 31.2134 145.274 31.0854 145.722 30.8294C146.17 30.5734 146.514 30.2294 146.754 29.7974C147.01 29.3494 147.138 28.8614 147.138 28.3334V24.9254C147.138 24.4294 146.938 24.0134 146.538 23.6774C146.154 23.3414 145.626 23.1734 144.954 23.1734C144.314 23.1734 143.746 23.3494 143.25 23.7014C142.77 24.0534 142.418 24.5174 142.194 25.0934L139.314 23.7254C139.57 22.9894 139.978 22.3574 140.538 21.8294C141.098 21.3014 141.77 20.8934 142.554 20.6054C143.338 20.3174 144.194 20.1734 145.122 20.1734C146.226 20.1734 147.202 20.3734 148.05 20.7734C148.898 21.1734 149.554 21.7334 150.018 22.4534C150.498 23.1574 150.738 23.9814 150.738 24.9254V33.5654H147.378V31.4534L148.194 31.3094C147.81 31.8854 147.386 32.3654 146.922 32.7494C146.458 33.1174 145.938 33.3894 145.362 33.5654C144.786 33.7574 144.146 33.8534 143.442 33.8534ZM159.456 33.7094C157.872 33.7094 156.64 33.2854 155.76 32.4374C154.896 31.5734 154.464 30.3734 154.464 28.8374V23.5814H152.256V20.4614H152.376C153.048 20.4614 153.56 20.2934 153.912 19.9574C154.28 19.6214 154.464 19.1174 154.464 18.4454V17.4854H158.064V20.4614H161.136V23.5814H158.064V28.5974C158.064 29.0454 158.144 29.4214 158.304 29.7254C158.464 30.0134 158.712 30.2294 159.048 30.3734C159.384 30.5174 159.8 30.5894 160.296 30.5894C160.408 30.5894 160.536 30.5814 160.68 30.5654C160.824 30.5494 160.976 30.5334 161.136 30.5174V33.5654C160.896 33.5974 160.624 33.6294 160.32 33.6614C160.016 33.6934 159.728 33.7094 159.456 33.7094ZM163.245 33.5654V15.3974H166.845V23.0534L166.413 22.4774C166.717 21.6934 167.205 21.1174 167.877 20.7494C168.565 20.3654 169.365 20.1734 170.277 20.1734C171.269 20.1734 172.133 20.3814 172.869 20.7974C173.621 21.2134 174.205 21.7974 174.621 22.5494C175.037 23.2854 175.245 24.1494 175.245 25.1414V33.5654H171.645V25.9094C171.645 25.3974 171.541 24.9574 171.333 24.5894C171.141 24.2214 170.861 23.9334 170.493 23.7254C170.141 23.5174 169.725 23.4134 169.245 23.4134C168.781 23.4134 168.365 23.5174 167.997 23.7254C167.629 23.9334 167.341 24.2214 167.133 24.5894C166.941 24.9574 166.845 25.3974 166.845 25.9094V33.5654H163.245Z" fill="#F1FFEE"/>
<path d="M45.8422 11.3715L41.4894 8.83468L24.0345 50.7118C23.7688 50.6683 23.5588 50.5968 23.4364 50.5253L15.7456 46.0453L39.6258 7.74765L37.706 6.63047L8.07953 41.5799L5.283 39.9514C4.7613 39.6489 4.20918 38.6831 4.20918 38.0743V35.7146L36.0171 5.64646L27.6892 0.796739C26.8085 0.282543 25.68 0 24.5101 0C23.3416 0 22.2123 0.282543 21.3318 0.796739L3.17882 11.3715C1.36661 12.4262 0 14.8127 0 16.9253V38.0741C0 40.1864 1.36674 42.5749 3.17882 43.6286L21.3318 54.2053C22.2123 54.7175 23.3414 55 24.5101 55C25.68 55 26.8085 54.7175 27.6892 54.2053L45.8424 43.6286C47.6557 42.5749 49.0217 40.1862 49.0217 38.0741V16.9253C49.0217 14.8128 47.6557 12.4262 45.8422 11.3715ZM4.20918 16.9253C4.20918 16.3171 4.7613 15.3523 5.283 15.0476L23.4364 4.47466C23.6238 4.36388 24.006 4.24688 24.5101 4.24688C25.0158 4.24688 25.3976 4.36388 25.5856 4.47466L30.0762 7.0892L4.20918 25.2495V16.9253ZM44.8126 38.0741C44.8126 38.6829 44.2599 39.6489 43.7382 39.9513L34.2816 45.4586L42.3122 14.2178L43.7382 15.0476C44.2599 15.3523 44.8126 16.3171 44.8126 16.9253V38.0741Z" fill="#9EFF8C"/>
</svg>
