<svg width="30" height="30" viewBox="0 0 30 30" fill="none" xmlns="http://www.w3.org/2000/svg">
<g clip-path="url(#clip0_302_3340)">
<path d="M7.63526 0.402859C7.8843 0.574576 8.10901 0.764051 8.329 0.970944C8.3842 1.02271 8.3842 1.02271 8.44051 1.07551C9.0481 1.65006 9.63844 2.24273 10.2301 2.83353C10.4085 3.01157 10.5874 3.18906 10.7665 3.36643C10.9068 3.50569 11.0468 3.64536 11.1866 3.78513C11.2523 3.85067 11.3182 3.91607 11.3842 3.9813C11.733 4.3262 12.063 4.6784 12.3678 5.06312C12.3942 5.09637 12.4207 5.12961 12.448 5.16386C12.9302 5.78766 13.1157 6.51649 13.0332 7.29495C12.9196 7.9946 12.6564 8.49899 12.1873 9.02346C12.1443 9.07279 12.1013 9.12211 12.057 9.17292C11.6913 9.58267 11.3041 9.97116 10.9165 10.3601C10.8643 10.4126 10.8121 10.4651 10.7583 10.5192C10.4629 10.8138 10.1622 11.0978 9.84351 11.3672C10.3514 12.5253 11.0219 13.5637 11.8357 14.5313C11.861 14.5615 11.8864 14.5917 11.9125 14.6229C12.5319 15.36 13.1829 16.0594 13.8608 16.7432C13.9114 16.7945 13.9619 16.8458 14.014 16.8986C14.3633 17.2484 14.7311 17.5626 15.1169 17.8711C15.1901 17.9325 15.263 17.9942 15.3355 18.0563C16.1662 18.7581 17.0755 19.3783 18.032 19.8963C18.0721 19.9183 18.1122 19.9403 18.1535 19.963C18.3524 20.0697 18.3524 20.0697 18.5721 20.0859C18.7215 20.0272 18.7999 19.9503 18.9119 19.8355C18.9544 19.7924 18.9969 19.7494 19.0407 19.705C19.1089 19.6346 19.1089 19.6346 19.1785 19.5628C19.226 19.5146 19.2736 19.4663 19.3226 19.4166C19.526 19.2104 19.7283 19.0032 19.9307 18.796C20.0787 18.6447 20.2273 18.494 20.376 18.3433C20.4206 18.2972 20.4653 18.2511 20.5112 18.2036C20.9232 17.7862 21.3823 17.3847 21.9358 17.1717C21.9918 17.1494 22.0479 17.1271 22.1056 17.1041C22.8088 16.8694 23.5842 16.9391 24.2576 17.2266C24.9211 17.583 25.4252 18.1256 25.9506 18.6541C26.0445 18.7478 26.1384 18.8415 26.2323 18.9352C26.4282 19.1307 26.6236 19.3266 26.8187 19.5228C27.0676 19.773 27.3175 20.0221 27.5677 20.2709C27.7615 20.4639 27.9548 20.6574 28.1478 20.8511C28.2397 20.9432 28.3318 21.035 28.424 21.1267C29.3411 22.0396 29.3411 22.0396 29.6482 22.6172C29.6726 22.6614 29.6971 22.7055 29.7223 22.751C30.0855 23.4325 30.0442 24.2443 29.8297 24.9621C29.4893 25.8864 28.7127 26.5627 28.0259 27.2351C27.896 27.363 27.7662 27.4909 27.6366 27.6191C27.5567 27.698 27.4766 27.7767 27.3963 27.8552C27.1694 28.0786 26.9557 28.3091 26.7489 28.5512C26.0332 29.3642 24.9181 29.8919 23.8474 30C22.3178 30.0738 20.9112 29.8635 19.4529 29.4141C19.4059 29.3997 19.3588 29.3853 19.3104 29.3705C16.9524 28.6336 14.6722 27.3649 12.656 25.9571C12.6228 25.9339 12.5896 25.9108 12.5554 25.887C12.3135 25.7178 12.074 25.5454 11.8357 25.3711C11.7978 25.3435 11.76 25.3158 11.721 25.2873C11.2351 24.9311 10.7644 24.5632 10.3081 24.1697C10.161 24.0443 10.0113 23.9253 9.85816 23.8074C9.28989 23.358 8.7728 22.8365 8.26148 22.3242C8.16418 22.2282 8.06683 22.1322 7.96943 22.0363C7.88547 21.9532 7.80151 21.87 7.7176 21.7868C7.66079 21.7306 7.60388 21.6745 7.54685 21.6185C7.19459 21.2723 6.86558 20.9163 6.55711 20.5301C6.43062 20.3727 6.29805 20.2261 6.15943 20.0794C5.85587 19.7483 5.57854 19.4018 5.30593 19.0453C5.24265 18.9625 5.17916 18.8799 5.1155 18.7974C4.50495 18.0056 3.94174 17.1868 3.3982 16.3477C3.37369 16.3099 3.34918 16.2721 3.32393 16.2332C3.18704 16.0205 3.05687 15.8043 2.92945 15.586C2.90255 15.5402 2.87565 15.4945 2.84794 15.4474C1.21312 12.6561 -0.68055 8.78192 0.188246 5.4474C0.435393 4.56496 0.865788 3.89733 1.48246 3.23115C1.52746 3.18252 1.52746 3.18252 1.57337 3.1329C1.93768 2.74176 2.31287 2.36141 2.69027 1.98294C2.81253 1.86011 2.93416 1.73665 3.05579 1.61319C4.1473 0.512876 4.1473 0.512876 4.86304 0.205105C4.92468 0.177914 4.98631 0.150723 5.04981 0.122708C5.88562 -0.202328 6.87967 -0.0334842 7.63526 0.402859ZM3.68074 3.27763C3.53384 3.42396 3.38632 3.56966 3.23878 3.71535C3.14395 3.8098 3.04915 3.90429 2.9544 3.99882C2.91093 4.04156 2.86746 4.08431 2.82268 4.12835C2.02513 4.92928 1.59618 5.82445 1.58071 6.96582C1.59727 8.85623 2.27369 10.6625 3.04664 12.3633C3.07199 12.4196 3.09734 12.4759 3.12346 12.5339C3.7209 13.8515 4.44321 15.1038 5.2732 16.2891C5.29624 16.3221 5.31927 16.3551 5.34301 16.3892C5.89513 17.1787 6.46989 17.9535 7.08961 18.6914C7.11459 18.7214 7.13957 18.7513 7.16531 18.7822C7.49328 19.1755 7.82733 19.5612 8.1745 19.9377C8.28731 20.0617 8.39697 20.1871 8.50615 20.3142C8.76216 20.6076 9.03668 20.8814 9.3125 21.156C9.36262 21.2064 9.41273 21.2567 9.46437 21.3086C9.72464 21.5685 9.98857 21.8199 10.2676 22.0596C10.4101 22.1823 10.5477 22.3101 10.6858 22.4378C10.9814 22.7068 11.2861 22.9576 11.6013 23.2032C11.6801 23.2654 11.7588 23.3276 11.8375 23.3899C12.4287 23.8558 13.0297 24.3033 13.6521 24.7266C13.6903 24.7526 13.7285 24.7786 13.7679 24.8054C16.399 26.5819 20.3139 28.9388 23.6476 28.4455C24.3323 28.3087 24.8383 28.1087 25.3709 27.6563C25.4615 27.5856 25.4615 27.5856 25.554 27.5135C25.6799 27.4012 25.7767 27.302 25.8829 27.1743C26.0926 26.9322 26.3169 26.7075 26.5448 26.4828C26.5826 26.4455 26.6204 26.4081 26.6594 26.3696C26.8177 26.2134 26.9763 26.0573 27.1354 25.9018C28.0166 25.0992 28.0166 25.0992 28.3848 24.0125C28.3871 23.9621 28.3895 23.9117 28.3919 23.8598C28.3048 23.3599 28.0056 22.9821 27.6521 22.6359C27.5914 22.5746 27.5914 22.5746 27.5293 22.5121C27.3966 22.3787 27.2629 22.2464 27.1291 22.1141C27.0359 22.021 26.9427 21.9278 26.8496 21.8346C26.6549 21.64 26.4597 21.4459 26.2642 21.2522C26.014 21.0044 25.7649 20.7555 25.5161 20.5063C25.324 20.314 25.1315 20.1222 24.9388 19.9305C24.8468 19.8389 24.7549 19.7472 24.6631 19.6554C24.5347 19.5271 24.4057 19.3994 24.2766 19.2718C24.2391 19.2341 24.2016 19.1964 24.1629 19.1576C23.8169 18.8181 23.492 18.5998 22.9971 18.5683C22.3391 18.5952 21.889 19.1116 21.46 19.5502C21.405 19.6058 21.35 19.6614 21.2949 19.717C21.0626 19.9516 20.831 20.1871 20.5996 20.4227C20.4575 20.5673 20.3149 20.7115 20.1721 20.8554C20.0921 20.9364 20.0126 21.0178 19.9331 21.0992C19.6712 21.3632 19.4367 21.5756 19.1013 21.7383C19.0627 21.7576 19.024 21.777 18.9841 21.7969C18.384 21.8976 17.9724 21.679 17.467 21.396C17.3451 21.329 17.2218 21.2662 17.0972 21.2043C16.4722 20.8913 15.9121 20.5135 15.3513 20.0977C15.286 20.0498 15.2206 20.002 15.1552 19.9542C14.761 19.6627 14.3793 19.358 14.0037 19.043C13.9739 19.0186 13.9442 18.9943 13.9136 18.9692C13.3664 18.5203 12.863 18.0306 12.363 17.5305C12.3313 17.4988 12.2995 17.4671 12.2667 17.4344C11.9151 17.0827 11.572 16.7269 11.2498 16.3477C11.1956 16.2862 11.1412 16.2249 11.0868 16.1637C10.0854 15.0243 9.19514 13.7874 8.54758 12.4124C8.47215 12.2554 8.39173 12.1009 8.31126 11.9463C8.15253 11.5944 8.12612 11.1707 8.25667 10.8074C8.41442 10.5178 8.61579 10.3057 8.86138 10.088C9.2771 9.71395 9.67463 9.32247 10.0706 8.92766C10.1923 8.80655 10.3146 8.68607 10.4369 8.56559C10.5155 8.48731 10.5942 8.40899 10.6727 8.33064C10.7088 8.29535 10.7448 8.26006 10.7819 8.2237C11.1411 7.86261 11.4281 7.4895 11.4475 6.96536C11.4377 6.42802 11.1726 6.1256 10.817 5.74459C10.7861 5.7114 10.7553 5.67821 10.7235 5.64401C10.3776 5.27352 10.0214 4.91331 9.66361 4.55432C9.62879 4.51933 9.59396 4.48434 9.55808 4.44829C9.37444 4.26378 9.19064 4.07943 9.00669 3.89522C8.81851 3.70672 8.63087 3.51767 8.44336 3.32849C8.29717 3.18121 8.15058 3.03432 8.00389 2.88753C7.93455 2.81803 7.86536 2.74837 7.79633 2.67857C7.05058 1.88095 7.05058 1.88095 6.05323 1.56375C5.06429 1.57799 4.33027 2.62963 3.68074 3.27763Z" fill="#9EFF8C"/>
</g>
<defs>
<clipPath id="clip0_302_3340">
<rect width="30" height="30" fill="white"/>
</clipPath>
</defs>
</svg>
