<svg width="50" height="50" viewBox="0 0 50 50" fill="none" xmlns="http://www.w3.org/2000/svg">
<g clip-path="url(#clip0_318_565)">
<path d="M25 50.0049C38.8071 50.0049 50 38.812 50 25.0049C50 11.1978 38.8071 0.00488281 25 0.00488281C11.1929 0.00488281 0 11.1978 0 25.0049C0 38.812 11.1929 50.0049 25 50.0049Z" fill="#FFE01B"/>
<g clip-path="url(#clip1_318_565)">
<path d="M33.0797 24.0715C33.3278 24.0418 33.5656 24.0406 33.784 24.0715C33.9105 23.7815 33.9323 23.2816 33.8185 22.7372C33.6495 21.9281 33.4207 21.4384 32.9478 21.5146C32.475 21.5908 32.4575 22.177 32.6266 22.9862C32.7217 23.4413 32.891 23.8304 33.0797 24.0715Z" fill="black"/>
<path d="M29.0205 24.7123C29.3588 24.8607 29.5667 24.9591 29.6481 24.8731C29.7004 24.8194 29.6848 24.7171 29.6039 24.5852C29.4371 24.3127 29.0936 24.0362 28.7292 23.881C27.984 23.5603 27.0953 23.6669 26.4097 24.1596C26.1834 24.3254 25.9687 24.5551 25.9995 24.6946C26.0095 24.7397 26.0433 24.7737 26.1228 24.7848C26.3094 24.8062 26.9616 24.4765 27.7126 24.4305C28.2429 24.398 28.6822 24.5638 29.0205 24.7123Z" fill="black"/>
<path d="M28.3398 25.1004C27.8993 25.17 27.6562 25.3152 27.5002 25.4503C27.367 25.5667 27.2847 25.6953 27.2854 25.7858C27.2857 25.8288 27.3044 25.8536 27.3191 25.8661C27.3391 25.8838 27.363 25.8937 27.3915 25.8937C27.4911 25.8937 27.7139 25.8043 27.7139 25.8043C28.3271 25.5848 28.7316 25.6113 29.1325 25.657C29.354 25.6819 29.4586 25.6957 29.5072 25.6197C29.5215 25.598 29.539 25.5507 29.4946 25.4789C29.3915 25.3113 28.9466 25.0284 28.3398 25.1004Z" fill="black"/>
<path d="M31.7089 26.5257C32.0081 26.6728 32.3375 26.615 32.4447 26.3968C32.5519 26.1786 32.3963 25.8827 32.0971 25.7356C31.7979 25.5887 31.4685 25.6463 31.3613 25.8645C31.2541 26.0827 31.4097 26.3787 31.7089 26.5257Z" fill="black"/>
<path d="M33.6323 24.8448C33.3893 24.8407 33.1877 25.1075 33.182 25.4408C33.1764 25.7741 33.3688 26.0477 33.6119 26.0518C33.8549 26.0559 34.0565 25.789 34.0622 25.4558C34.0678 25.1224 33.8754 24.8489 33.6323 24.8448Z" fill="black"/>
<path d="M17.3073 30.8545C17.2468 30.7788 17.1474 30.8019 17.0513 30.8243C16.9841 30.8399 16.908 30.8576 16.8246 30.8561C16.6459 30.8527 16.4944 30.7763 16.4094 30.6457C16.2987 30.4757 16.3051 30.2222 16.4274 29.9319C16.4438 29.8928 16.4632 29.8493 16.4843 29.8019C16.6793 29.3647 17.0056 28.6327 16.6393 27.9352C16.3636 27.4102 15.914 27.0833 15.3734 27.0147C14.8543 26.9489 14.32 27.1414 13.9793 27.5174C13.4416 28.1106 13.3576 28.9177 13.4615 29.2029C13.4997 29.3073 13.5592 29.3362 13.6025 29.3421C13.694 29.3545 13.8292 29.2879 13.914 29.06C13.9201 29.0435 13.9282 29.0181 13.9383 28.9858C13.9761 28.8653 14.0464 28.6409 14.1615 28.461C14.3004 28.244 14.5167 28.0946 14.7705 28.0402C15.0291 27.9849 15.2935 28.0342 15.5148 28.1791C15.8913 28.4256 16.0364 28.8871 15.8756 29.3275C15.7925 29.5552 15.6575 29.9907 15.6872 30.3485C15.7474 31.0728 16.1928 31.3636 16.5931 31.3945C16.9822 31.4092 17.2541 31.1908 17.323 31.031C17.3636 30.9367 17.3294 30.8792 17.3073 30.8545Z" fill="black"/>
<path d="M39.765 29.5302C39.7501 29.4778 39.6538 29.1251 39.5212 28.7001C39.3886 28.2751 39.2514 27.9759 39.2514 27.9759C39.7831 27.1798 39.7926 26.4678 39.7219 26.0647C39.6464 25.5648 39.4383 25.1388 39.0189 24.6985C38.5995 24.2582 37.7417 23.8073 36.5361 23.4688C36.3982 23.4301 35.9436 23.3054 35.9036 23.2932C35.9005 23.267 35.8704 21.8019 35.8429 21.173C35.8229 20.7184 35.7839 20.0086 35.5636 19.3094C35.3011 18.3631 34.8439 17.5351 34.273 17.0053C35.8483 15.3724 36.8316 13.5737 36.8293 12.0305C36.8247 9.06289 33.1802 8.16494 28.6889 10.0247C28.6841 10.0267 27.7441 10.4253 27.7373 10.4287C27.7331 10.4246 26.0169 8.74075 25.9911 8.71824C20.8704 4.25182 4.86004 22.0478 9.97883 26.3699L11.0976 27.3176C10.8074 28.0694 10.6934 28.9306 10.7865 29.8567C10.9061 31.0462 11.5197 32.1865 12.5142 33.0676C13.4583 33.904 14.6995 34.4334 15.9041 34.4324C17.896 39.0228 22.4473 41.8389 27.7839 41.9973C33.5083 42.1674 38.3136 39.4813 40.3271 34.6562C40.4588 34.3175 41.0177 32.7917 41.0177 31.4448C41.0176 30.0912 40.2524 29.5302 39.765 29.5302ZM16.3441 33.1431C16.1703 33.1727 15.9928 33.1845 15.8139 33.1802C14.085 33.1338 12.2174 31.5773 12.0318 29.7314C11.8267 27.691 12.8692 26.1207 14.7151 25.7485C14.9358 25.704 15.2024 25.6783 15.49 25.6932C16.5242 25.7498 18.0483 26.544 18.3964 28.797C18.7047 30.7925 18.215 32.824 16.3441 33.1431ZM14.4133 24.528C13.2642 24.7514 12.2514 25.4026 11.6321 26.3023C11.2619 25.9936 10.5724 25.3959 10.4506 25.163C9.46186 23.2856 11.5297 19.6354 12.9741 17.574C16.544 12.4796 22.1352 8.62361 24.7236 9.32313C25.1443 9.4422 26.5379 11.0581 26.5379 11.0581C26.5379 11.0581 23.9506 12.4936 21.5513 14.4946C18.3184 16.984 15.8763 20.6019 14.4133 24.528ZM21.0066 17.5532C22.2757 16.0866 23.8381 14.8115 25.2377 14.0956C25.2861 14.0708 25.3375 14.1234 25.3112 14.171C25.2001 14.3723 24.9861 14.8031 24.9182 15.13C24.9077 15.181 24.9632 15.2193 25.0061 15.19C25.8768 14.5965 27.3914 13.9605 28.7199 13.8788C28.777 13.8753 28.8046 13.9485 28.7592 13.9833C28.5572 14.1383 28.3362 14.3527 28.1748 14.5697C28.1474 14.6066 28.1731 14.6597 28.2192 14.6601C29.152 14.6666 30.4672 14.9932 31.3243 15.4739C31.3823 15.5064 31.341 15.6188 31.2761 15.6039C29.9793 15.3066 27.8563 15.0812 25.6511 15.619C23.6824 16.0992 22.1798 16.8406 21.0836 17.6379C21.0284 17.6782 20.9618 17.605 21.0066 17.5532ZM39.8235 31.9009C39.575 33.407 38.9347 34.6293 37.8589 35.7537C37.2041 36.4587 36.4089 37.0716 35.4993 37.5173C35.0162 37.771 34.5017 37.9906 33.9583 38.1681C29.9025 39.4928 25.7509 38.0364 24.4126 34.909C24.3058 34.6739 24.2155 34.4278 24.1443 34.1704C23.5739 32.1094 24.0581 29.6369 25.5716 28.0806C25.5717 28.0804 25.5714 28.08 25.5715 28.0798C25.6648 27.9806 25.76 27.864 25.76 27.7171C25.76 27.5942 25.6819 27.4647 25.6142 27.3728C25.0848 26.6048 23.2506 25.2961 23.6188 22.7634C23.8832 20.944 25.4744 19.6626 26.958 19.7386C27.0833 19.745 27.2088 19.7528 27.3339 19.7601C27.9768 19.7982 28.5377 19.8806 29.067 19.9028C29.9527 19.941 30.7493 19.8123 31.6927 19.0261C32.011 18.7609 32.2661 18.531 32.6979 18.4578C32.7432 18.4501 32.856 18.4096 33.0817 18.4203C33.312 18.4326 33.5313 18.4959 33.7283 18.627C34.4847 19.1303 34.5919 20.3492 34.6312 21.2409C34.6534 21.7499 34.715 22.9814 34.7361 23.3349C34.7842 24.1433 34.9967 24.2573 35.4266 24.3988C35.6684 24.4784 35.8928 24.5377 36.2235 24.6306C37.2247 24.9117 37.8183 25.1968 38.1925 25.5632C38.4156 25.7921 38.5193 26.0353 38.5514 26.2674C38.6695 27.1286 37.8828 28.1925 35.8002 29.1591C33.5236 30.2157 30.7619 30.4833 28.8537 30.2707C28.7074 30.2544 28.187 30.1954 28.1852 30.1952C26.6589 29.9896 25.7882 31.9622 26.7042 33.3137C27.2947 34.1846 28.9028 34.7515 30.5117 34.7517C34.2007 34.7523 37.0363 33.1769 38.091 31.8163C38.1225 31.7756 38.1256 31.7712 38.1754 31.6961C38.2273 31.6178 38.1845 31.5747 38.1198 31.619C37.2581 32.2086 33.4304 34.5495 29.3362 33.8452C29.3362 33.8452 28.8387 33.7635 28.3846 33.5867C28.0237 33.4464 27.2684 33.099 27.1766 32.324C30.4808 33.3459 32.5611 32.3799 32.5611 32.3799C32.5987 32.364 32.6246 32.3211 32.6203 32.2784C32.615 32.2261 32.5682 32.1879 32.5158 32.1932C32.5158 32.1932 29.8074 32.5942 27.2488 31.6575C27.5274 30.7517 28.2685 31.0788 29.3886 31.1692C31.4075 31.2895 33.2169 30.9946 34.5541 30.6108C35.7129 30.2782 37.2349 29.6225 38.417 28.6896C38.8157 29.5654 38.9565 30.5293 38.9565 30.5293C38.9565 30.5293 39.2652 30.4741 39.5231 30.6328C39.7668 30.783 39.9456 31.0949 39.8235 31.9009Z" fill="black"/>
</g>
</g>
<defs>
<clipPath id="clip0_318_565">
<rect width="50" height="50" fill="white" transform="translate(0 0.00488281)"/>
</clipPath>
<clipPath id="clip1_318_565">
<rect width="34" height="34" fill="white" transform="translate(8 8.00488)"/>
</clipPath>
</defs>
</svg>
