<svg width="50" height="50" viewBox="0 0 50 50" fill="none" xmlns="http://www.w3.org/2000/svg">
<g clip-path="url(#clip0_318_528)">
<path d="M23.2012 28.1425L10.3864 19.8786C9.9705 19.6104 9.42951 19.6388 9.04403 19.949L0.428474 26.8822C-0.181723 27.3733 -0.132197 28.3176 0.526075 28.7421L13.3409 37.0061C13.7568 37.2743 14.2978 37.2459 14.6833 36.9356L23.2988 30.0025C23.909 29.5114 23.8595 28.567 23.2012 28.1425Z" fill="#1587EA"/>
<path d="M26.7009 30.0024L35.3164 36.9355C35.702 37.2458 36.2429 37.2742 36.6588 37.0059L49.4736 28.742C50.1319 28.3175 50.1814 27.3731 49.5712 26.8821L40.9557 19.949C40.5701 19.6388 40.0292 19.6104 39.6133 19.8786L26.7985 28.1425C26.1403 28.567 26.0907 29.5114 26.7009 30.0024Z" fill="#1587EA"/>
<path d="M23.2988 8.30009L14.6833 1.367C14.2977 1.05676 13.7568 1.02836 13.3409 1.29656L0.526075 9.56051C-0.132197 9.98501 -0.181723 10.9294 0.428474 11.4204L9.04403 18.3535C9.42962 18.6637 9.9705 18.6921 10.3864 18.4239L23.2012 10.16C23.8595 9.73547 23.909 8.79111 23.2988 8.30009Z" fill="#1587EA"/>
<path d="M49.4742 9.56051L36.6593 1.29656C36.2435 1.02836 35.7025 1.05676 35.317 1.367L26.7014 8.30009C26.0912 8.79111 26.1408 9.73547 26.799 10.16L39.614 18.4239C40.0299 18.6921 40.5708 18.6637 40.9563 18.3535L49.5719 11.4204C50.182 10.9293 50.1324 9.9849 49.4742 9.56051Z" fill="#1587EA"/>
<path d="M24.3723 31.2195L14.724 38.9159C14.3743 39.1948 13.8857 39.2194 13.5098 38.977L11.1317 37.4434C10.4385 36.9963 9.52539 37.494 9.52539 38.3189V39.148C9.52539 39.5122 9.71567 39.8501 10.0271 40.0389L24.3912 48.7462C24.7231 48.9475 25.1393 48.9475 25.4713 48.7462L39.8353 40.0389C40.1467 39.8501 40.337 39.5123 40.337 39.148V38.408C40.337 37.5831 39.4239 37.0854 38.7307 37.5325L36.492 38.9761C36.1155 39.219 35.6258 39.1938 35.2761 38.9136L25.6734 31.2209C25.2933 30.9165 24.7529 30.9159 24.3723 31.2195Z" fill="#1587EA"/>
</g>
<defs>
<clipPath id="clip0_318_528">
<rect width="50" height="50" fill="white" transform="translate(0 0.00488281)"/>
</clipPath>
</defs>
</svg>
