<svg width="22" height="22" viewBox="0 0 22 22" fill="none" xmlns="http://www.w3.org/2000/svg">
<path d="M4.1535 1.42415L2.41457 3.16308C0.991156 4.58649 0.600005 6.74355 1.43299 8.57613C3.84875 13.8908 8.10822 18.1503 13.4229 20.566C15.2555 21.399 17.4125 21.0079 18.8359 19.5845L20.5749 17.8455C21.1417 17.2787 21.1417 16.3597 20.5749 15.7928L18.2356 13.4536C17.7938 13.0118 17.119 12.9023 16.5602 13.1817L15.2619 13.8308C14.1443 14.3896 12.7946 14.1706 11.911 13.287L8.71199 10.088C7.82846 9.20445 7.60942 7.85467 8.16822 6.73708L8.81733 5.43886C9.09673 4.88007 8.98721 4.20518 8.54544 3.76341L6.20617 1.42415C5.63934 0.857316 4.72033 0.857316 4.1535 1.42415Z" stroke="white" stroke-linejoin="round"/>
</svg>
