<svg width="101" height="101" viewBox="0 0 101 101" fill="none" xmlns="http://www.w3.org/2000/svg">
<circle cx="50.5" cy="50.5" r="50.5" fill="#14D556"/>
<path d="M66.1631 55.5452C65.2917 55.5452 64.597 56.1834 64.597 56.9682V60.6804C64.597 61.218 64.1807 61.654 63.6436 61.654C63.1065 61.654 62.6902 61.2181 62.6902 60.6804V55.0096C62.6902 54.0267 61.7864 53.2269 60.7039 53.2269C59.8326 53.2269 59.1008 53.8651 59.1008 54.6499V59.426C59.1008 59.9636 58.6844 60.3996 58.1474 60.3996C57.6103 60.3996 57.1939 59.9637 57.1939 59.426V53.2599C57.1939 52.4757 56.4943 51.8378 55.6236 51.8378C54.7528 51.8378 54.0532 52.4758 54.0532 53.2599V58.7862C54.0532 59.3238 53.5808 59.7597 53.0437 59.7597C52.5066 59.7597 52.0342 59.3238 52.0342 58.7862V45.1575C52.0342 44.2332 51.2864 43.4809 50.3527 43.4805C49.4577 43.4805 48.6691 44.2547 48.6691 45.1575V60.0323C48.6691 60.4681 48.3773 60.851 47.9582 60.9692C47.5389 61.0874 47.0914 60.9128 46.8637 60.5411L45.516 58.3406C45.0375 57.5593 43.9609 57.3537 43.2235 57.8925C42.5441 58.389 42.3782 59.3227 42.8459 60.0183L49.4177 69.8174C49.5258 69.978 49.5666 70.1672 49.5666 70.3609V71.8034C49.5666 72.3231 50.0795 72.7601 50.6686 72.7601H65.4417C66.0309 72.7601 66.5102 72.3114 66.5102 71.7506H66.5039V70.0021C66.5039 69.8561 66.5364 69.7121 66.5997 69.5804L67.9621 66.7424V57.1868C67.9621 56.2816 67.1629 55.5452 66.1631 55.5452Z" fill="white"/>
<path d="M49.5659 74.667H66.5033V77.2469H49.5659V74.667Z" fill="white"/>
<path d="M69.4277 41.6651C68.3527 41.6651 67.4322 42.3624 67.0478 43.2597H58.0688C58.0701 41.5772 58.0711 39.9448 58.0717 38.9235L65.2457 31.7658C65.5518 31.8942 65.8881 31.9646 66.2411 31.9646C67.6616 31.9646 68.8133 30.8156 68.8133 29.3985C68.8133 27.9815 67.6617 26.8326 66.2411 26.8326C64.8206 26.8326 63.669 27.9813 63.669 29.3983C63.669 29.7498 63.74 30.0848 63.8683 30.3899L57.484 36.7346C57.2974 36.6204 57.0788 36.5295 56.8441 36.5295H56.4084V31.2751C56.4084 27.6782 53.6154 24.752 50.1831 24.752C46.7507 24.752 43.9578 27.6782 43.9578 31.2751V36.5296H43.6128C43.378 36.5296 43.159 36.6208 42.9721 36.7352L36.5873 30.378C36.7156 30.0729 36.7866 29.7439 36.7866 29.3924C36.7866 27.9753 35.6351 26.8295 34.2145 26.8295C32.7939 26.8295 31.6424 27.9797 31.6424 29.3968C31.6424 30.8139 32.794 31.9634 34.2146 31.9634C34.5675 31.9634 34.905 31.8927 35.2112 31.7644L42.3874 38.9222V43.2597H33.4305C33.0461 42.3624 32.1256 41.6651 31.0506 41.6651C29.63 41.6651 28.4785 42.8127 28.4785 44.2298C28.4785 45.6468 29.63 46.7771 31.0506 46.7771C32.1256 46.7771 33.0461 46.1761 33.4305 45.1666H42.3874V50.6567C42.3874 51.3313 42.9357 51.8967 43.6128 51.8967H46.762V45.1573C46.762 43.1762 48.4426 41.5331 50.4096 41.5331C52.4151 41.5341 54.0529 43.1599 54.0529 45.1573V50.2458C55.2868 49.6196 57.0236 49.843 58.0826 50.8439C58.0877 50.8135 58.0642 48.0829 58.0671 45.1665H67.0478C67.4322 46.176 68.3528 46.7764 69.4277 46.7764C70.8482 46.7764 71.9998 45.6378 71.9998 44.2208C71.9998 42.8039 70.8483 41.6651 69.4277 41.6651ZM45.9768 36.5296V31.2751C45.9768 28.7519 47.8794 26.6991 50.2392 26.6991C52.599 26.6991 54.5016 28.7519 54.5016 31.2751V36.5296H45.9768Z" fill="white"/>
</svg>
