<svg width="101" height="101" viewBox="0 0 101 101" fill="none" xmlns="http://www.w3.org/2000/svg">
<circle cx="50.5" cy="50.5" r="50.5" fill="#FB9D39"/>
<path d="M71.6491 57.7659V54.0247C71.6491 53.3757 71.1231 52.8496 70.474 52.8496H64.5994V48.1496H70.474C71.1231 48.1496 71.6491 47.6236 71.6491 46.9749V43.2333C73.4847 42.5847 74.4464 40.5705 73.7974 38.7352C73.1483 36.8996 71.1345 35.9378 69.2993 36.5869C67.4638 37.2359 66.502 39.2498 67.1511 41.085C67.5057 42.0891 68.2953 42.8787 69.2993 43.2333V45.7998H64.5994V42.2748C64.5994 41.6258 64.0734 41.1001 63.4243 41.1001H59.8995V36.3997C59.8995 31.2084 55.6912 27 50.5 27C45.3088 27 41.1005 31.2084 41.1005 36.3997V41.0997H37.5757C36.9266 41.0997 36.4006 41.6258 36.4006 42.2748V45.7998H31.701V43.2333C33.5362 42.5843 34.498 40.5705 33.8493 38.7348C33.2003 36.8996 31.1861 35.9378 29.3509 36.5865C27.5153 37.2356 26.5536 39.2494 27.2026 41.085C27.5576 42.0887 28.3472 42.8783 29.3509 43.2333V46.9745C29.3509 47.6236 29.8769 48.1496 30.526 48.1496H36.4006V52.8493H30.526C29.8769 52.8493 29.3509 53.3753 29.3509 54.0244V57.7655C27.5153 58.4146 26.5536 60.4288 27.2026 62.2641C27.8517 64.0997 29.8654 65.0614 31.701 64.4124C33.5362 63.7633 34.498 61.7495 33.8493 59.9139C33.4943 58.9102 32.7047 58.1206 31.701 57.7655V55.1995H36.4006V61.0743C36.4006 61.7233 36.9266 62.249 37.5757 62.249H45.8004V69.2992H43.2341C42.585 67.4636 40.5712 66.5019 38.7357 67.1509C36.9005 67.7996 35.9384 69.8138 36.5874 71.6491C37.2364 73.4847 39.2502 74.4464 41.0858 73.7974C42.0895 73.4427 42.8791 72.6531 43.2341 71.6491H46.9751C47.6242 71.6491 48.1502 71.123 48.1502 70.4743V62.2494H52.8498V70.4743C52.8498 71.123 53.3758 71.6491 54.0249 71.6491H57.7659C58.415 73.4847 60.4291 74.4464 62.2643 73.7974C64.0999 73.1483 65.0616 71.1345 64.4126 69.2992C63.7636 67.4636 61.7498 66.5019 59.9142 67.1509C58.9105 67.5056 58.1209 68.2952 57.7659 69.2992H55.1999V62.249H63.4243C64.0734 62.249 64.5994 61.7229 64.5994 61.0743V55.1995H69.2993V57.7655C67.4638 58.4146 66.502 60.4288 67.1511 62.2641C67.7997 64.0997 69.8139 65.0614 71.6491 64.4124C73.4847 63.7633 74.4464 61.7495 73.7974 59.9139C73.4427 58.9105 72.6531 58.1209 71.6491 57.7659ZM43.4503 36.3997C43.4503 32.5065 46.6065 29.3498 50.5 29.3498C54.3938 29.3498 57.5501 32.5061 57.5501 36.3997V41.0997H43.4503V36.3997ZM51.6751 54.0244C51.6751 54.6734 51.149 55.1995 50.5 55.1995C49.8513 55.1995 49.3249 54.6734 49.3249 54.0244V49.3247C49.3249 48.6757 49.8513 48.1496 50.5 48.1496C51.149 48.1496 51.6751 48.6757 51.6751 49.3247V54.0244Z" fill="white"/>
</svg>
