<svg width="101" height="101" viewBox="0 0 101 101" fill="none" xmlns="http://www.w3.org/2000/svg">
<circle cx="50.5" cy="50.5" r="50.5" fill="#14D556"/>
<path d="M79.6034 64.0391C76.4023 60.846 71.2188 60.846 68.0175 64.0391C64.8192 67.2323 64.8192 72.4103 68.0175 75.6036C71.2187 78.7968 76.4021 78.7968 79.6034 75.6036C82.7989 72.4104 82.7989 67.2324 79.6034 64.0391ZM28.1914 61.6457C23.6676 61.6457 20 65.3049 20 69.8217C20 74.3382 23.668 78 28.1914 78C32.7122 78 36.3805 74.3379 36.3805 69.8217C36.3805 65.3024 32.7125 61.6457 28.1914 61.6457ZM28.9117 57.88C28.9117 58.8265 27.4711 58.8265 27.4711 57.88V47.5638C27.4711 45.8033 28.9146 44.3591 30.6867 44.3591H40.0686C41.0195 44.3591 41.0195 45.7946 40.0686 45.7946H30.6867C29.7128 45.7946 28.9147 46.5943 28.9147 47.5637L28.9089 57.8799L28.9117 57.88ZM74.5297 57.88C74.5297 58.8265 73.089 58.8265 73.089 57.88V47.5638C73.089 46.5915 72.2938 45.7947 71.317 45.7947H61.9351C60.9871 45.7947 60.9871 44.3592 61.9351 44.3592H71.317C73.0862 44.3592 74.5326 45.8004 74.5326 47.5639L74.5297 57.88ZM56.7919 34.9116C53.5936 31.7185 48.4073 31.7185 45.2089 34.9116C42.0106 38.1048 42.0106 43.2828 45.2089 46.4761C48.4072 49.6721 53.5936 49.6721 56.7919 46.4761C59.9902 43.2829 59.9902 38.1049 56.7919 34.9116ZM60.6241 40.3659H64.0126C68.3059 40.3659 71.7806 36.8908 71.7806 32.6104C71.7806 27.9673 67.7294 24.3739 63.1135 24.9064C62.8196 24.9409 62.5314 24.9869 62.249 25.056C61.8485 25.1595 61.4422 24.9006 61.3616 24.4979C60.3992 19.593 56.0714 16 50.9972 16C45.926 16 41.6123 19.5787 40.6327 24.489C40.5549 24.8889 40.166 25.1507 39.7626 25.0558C34.9046 23.9223 30.2139 27.5931 30.2139 32.6103C30.2139 36.8909 33.6947 40.3658 37.9819 40.3658H41.3704C41.5462 35.202 45.7962 31.0799 50.9943 31.0799C56.2038 31.0799 60.4537 35.1996 60.6241 40.3659ZM54.7173 43.3808C53.7665 43.3808 53.7665 41.9424 54.7173 41.9424L55.6105 41.9396C56.5585 41.9396 56.5585 43.3779 55.6105 43.3779L54.7173 43.3808ZM46.3902 43.3808C45.4422 43.3808 45.4422 41.9424 46.3902 41.9424H52.0319C52.9799 41.9424 52.9799 43.3808 52.0319 43.3808H46.3902ZM46.3902 39.4483C45.4422 39.4483 45.4422 38.0099 46.3902 38.0099L55.6106 38.0071C56.5586 38.0071 56.5586 39.4454 55.6106 39.4454L46.3902 39.4483ZM31.9024 72.5053C30.9544 72.5053 30.9544 71.0698 31.9024 71.0698H32.8015C33.7495 71.0698 33.7495 72.5053 32.8015 72.5053H31.9024ZM23.5812 72.5053C22.6332 72.5053 22.6332 71.0698 23.5812 71.0698H29.2229C30.1709 71.0698 30.1709 72.5053 29.2229 72.5053H23.5812ZM23.5812 68.5757C22.6332 68.5757 22.6332 67.1373 23.5812 67.1373H32.8046C33.7526 67.1373 33.7526 68.5757 32.8046 68.5757H23.5812ZM77.5263 72.5053C76.5783 72.5053 76.5783 71.0698 77.5263 71.0698H78.4195C79.3704 71.0698 79.3704 72.5053 78.4195 72.5053H77.5263ZM69.2022 72.5053C68.2513 72.5053 68.2513 71.0698 69.2022 71.0698H74.8439C75.7919 71.0698 75.7919 72.5053 74.8439 72.5053H69.2022ZM69.2022 68.5757C68.2513 68.5757 68.2513 67.1373 69.2022 67.1373H78.4196C79.3705 67.1373 79.3705 68.5757 78.4196 68.5757H69.2022ZM56.1063 59.6057C58.8062 62.3013 58.8062 66.7228 56.1063 69.4211C53.4064 72.1167 48.9778 72.1167 46.2752 69.4211C43.5753 66.7256 43.5753 62.304 46.2752 59.6057C48.975 56.9102 53.4037 56.9131 56.1063 59.6057ZM53.5764 54.6175C53.248 54.5542 53.0002 54.2607 53.0002 53.9127V52.9518C53.0002 52.8655 52.9253 52.7907 52.8388 52.7907H49.5396C49.4503 52.7907 49.3783 52.8655 49.3783 52.9518V53.9127C49.3783 54.2406 49.1535 54.5369 48.8221 54.6146C47.7935 54.8591 46.8052 55.2647 45.8976 55.8113C45.6152 56.0184 45.2147 55.9954 44.964 55.7365L44.2812 55.0547C44.2178 54.9914 44.1083 54.9914 44.0478 55.0547L41.7138 57.3849C41.6504 57.4482 41.6504 57.5575 41.7138 57.6179L42.3967 58.2997C42.6272 58.5299 42.6791 58.8952 42.5004 59.1857C41.9415 60.0948 41.5266 61.0959 41.2758 62.1315C41.2124 62.4624 40.9185 62.7126 40.5699 62.7126H39.6075C39.5182 62.7126 39.4462 62.7874 39.4462 62.8737V66.1677C39.4462 66.2597 39.5211 66.3288 39.6075 66.3288H40.5699C40.8984 66.3288 41.1952 66.5531 41.2729 66.884C41.5179 67.9109 41.9241 68.8977 42.4716 69.8038C42.6791 70.0858 42.656 70.4828 42.3967 70.7359L41.7138 71.4177C41.6504 71.481 41.6504 71.5845 41.7138 71.6478L44.0477 73.978C44.1111 74.0413 44.2149 74.0413 44.2811 73.978L44.964 73.2962C45.1945 73.0661 45.5605 73.0143 45.8515 73.1927C46.762 73.7508 47.7647 74.165 48.802 74.4153C49.1333 74.4786 49.384 74.772 49.384 75.1173V76.0838C49.384 76.173 49.4532 76.2449 49.5454 76.2449H52.8446C52.9339 76.2449 53.0059 76.1701 53.0059 76.0838V75.1173C53.0059 74.7893 53.2307 74.4988 53.562 74.4211C54.5906 74.1766 55.579 73.7709 56.4837 73.2244C56.7661 73.0172 57.1666 73.0402 57.423 73.2934L58.1059 73.9781C58.1693 74.0414 58.273 74.0414 58.3364 73.9781L60.6703 71.6479C60.7337 71.5846 60.7337 71.481 60.6703 71.4177L59.9874 70.7359C59.7569 70.5029 59.7051 70.1405 59.8837 69.8499C60.4427 68.9408 60.8576 67.9397 61.1083 66.9041C61.1717 66.5762 61.4656 66.3288 61.8114 66.3288H62.7795C62.8688 66.3288 62.9409 66.2597 62.9409 66.1677V62.8738C62.9409 62.7875 62.866 62.7127 62.7795 62.7127L61.8056 62.7098C61.4772 62.7098 61.1861 62.4854 61.1083 62.1546C60.8634 61.1276 60.4572 60.1408 59.9097 59.2347C59.7022 58.9528 59.7253 58.5529 59.9788 58.3026L60.6646 57.6209C60.728 57.5576 60.728 57.4482 60.6646 57.3878L58.3307 55.0576C58.2673 54.9944 58.1636 54.9944 58.1002 55.0576L57.4144 55.7394C57.1839 55.9696 56.8208 56.0213 56.5327 55.843C55.6193 55.2791 54.6194 54.8649 53.5764 54.6175Z" fill="white"/>
</svg>
