<svg width="101" height="101" viewBox="0 0 101 101" fill="none" xmlns="http://www.w3.org/2000/svg">
<circle cx="50.5" cy="50.5" r="50.5" fill="#264FF9"/>
<path d="M58.5 43C54.3648 43 51 46.3648 51 50.5C51 54.6352 54.3648 58 58.5 58C62.6352 58 66 54.6352 66 50.5C66 46.3648 62.6352 43 58.5 43ZM57.3003 55.3208L53.2397 51.2602L55.3608 49.1391L57.3003 51.0786L61.6391 46.7398L63.7602 48.8609L57.3003 55.3208Z" fill="white"/>
<path d="M42 28V73H75V28H42ZM58.5 61C52.7109 61 48 56.2891 48 50.5C48 44.7109 52.7109 40 58.5 40C64.2891 40 69 44.7109 69 50.5C69 56.2891 64.2891 61 58.5 61Z" fill="white"/>
<path d="M27 37H30V64H27V37Z" fill="white"/>
<path d="M33 31H39V70H33V31Z" fill="white"/>
</svg>
