<svg width="104" height="101" viewBox="0 0 104 101" fill="none" xmlns="http://www.w3.org/2000/svg">
<circle cx="53.5" cy="50.5" r="50.5" fill="#B74FEC"/>
<path d="M63.5 45.5C63.5 44.9316 63.1792 44.4131 62.6709 44.1582L53.6709 39.6582C53.249 39.4473 52.751 39.4473 52.3291 39.6582L43.3291 44.1582C42.8208 44.4131 42.5 44.9316 42.5 45.5C42.5 51.667 45.2173 57.4663 49.9531 61.4141L52.0391 63.1528C52.3174 63.3843 52.6587 63.5 53 63.5C53.3413 63.5 53.6826 63.3843 53.9609 63.1528L56.0454 61.4141C60.7827 57.4663 63.5 51.667 63.5 45.5ZM54.1993 53.8994C53.9386 54.248 53.5402 54.4648 53.1066 54.4956C53.0699 54.4985 53.0348 54.5 52.9996 54.5C52.6027 54.5 52.2218 54.3433 51.9391 54.0605L48.9391 51.0605C48.3531 50.4746 48.3531 49.5254 48.9391 48.9395C49.525 48.3535 50.4742 48.3535 51.0602 48.9395L52.837 50.7163L56.2999 46.1006C56.798 45.437 57.7369 45.3052 58.399 45.8003C59.0626 46.2969 59.1974 47.2373 58.6993 47.8994L54.1993 53.8994Z" fill="white"/>
<path d="M42.2447 52.8254C41.4336 50.4996 41 48.03 41 45.5C41 44.3574 41.6343 43.3291 42.6567 42.8179L51.6582 38.3164C52.0728 38.1099 52.5371 38 53 38C53.4629 38 53.9272 38.1099 54.3418 38.3164L63.3418 42.8164C64.3657 43.3291 65 44.3574 65 45.5C65 48.03 64.5665 50.4996 63.7553 52.8254C67.8803 52.0064 71 48.3621 71 44C71 39.0371 66.9629 35 62 35C61.8265 35 61.666 35.0445 61.5111 35.0985C60.3001 31.557 56.9467 29 53 29C49.0533 29 45.6999 31.557 44.4889 35.0985C44.334 35.0445 44.1735 35 44 35C39.0371 35 35 39.0371 35 44C35 48.3621 38.1197 52.0064 42.2447 52.8254Z" fill="white"/>
<path d="M45.5 58.8965V64.9999H40.7236C40.1024 63.2577 38.4529 61.9999 36.5 61.9999C34.0186 61.9999 32 64.0185 32 66.4999C32 68.9814 34.0186 70.9999 36.5 70.9999C38.4529 70.9999 40.1024 69.7422 40.7236 67.9999H47C47.8291 67.9999 48.5 67.329 48.5 66.4999V62.1084C47.3905 61.1252 46.3791 60.0571 45.5 58.8965Z" fill="white"/>
<path d="M69.5 62.0007C67.5471 62.0007 65.8976 63.2584 65.2764 65.0007H60.5V58.8965C59.6209 60.0569 58.6095 61.1248 57.5 62.1079V66.5007C57.5 67.3298 58.1709 68.0007 59 68.0007H65.2765C65.8977 69.7429 67.5471 71.0007 69.5 71.0007C71.9814 71.0007 74 68.9821 74 66.5007C74 64.0192 71.9814 62.0007 69.5 62.0007Z" fill="white"/>
</svg>
