<svg id="Component_11_1" data-name="Component 11 – 1" xmlns="http://www.w3.org/2000/svg" xmlns:xlink="http://www.w3.org/1999/xlink" width="100" height="100" viewBox="0 0 100 100">
  <defs>
    <clipPath id="clip-path">
      <rect id="Rectangle_109" data-name="Rectangle 109" width="72" height="72" transform="translate(281.327 3742.327)" fill="none" stroke="#f05936" stroke-width="3"/>
    </clipPath>
    <clipPath id="clip-path-2">
      <rect id="Rectangle_110" data-name="Rectangle 110" width="50.568" height="56.674" fill="none" stroke="#f05936" stroke-width="3"/>
    </clipPath>
  </defs>
  <rect id="Rectangle_72" data-name="Rectangle 72" width="100" height="100" rx="20" fill="#fff"/>
  <g id="Mask_Group_12" data-name="Mask Group 12" transform="translate(-267.327 -3728.347)" clip-path="url(#clip-path)">
    <g id="Group_434" data-name="Group 434" transform="translate(292.043 3749.99)">
      <g id="Group_433" data-name="Group 433" transform="translate(0 0)" clip-path="url(#clip-path-2)">
        <path id="Path_3406" data-name="Path 3406" d="M25.676.9A18.89,18.89,0,0,0,4.936,19.7V29.51a17.343,17.343,0,0,1-3.807,10.84,2.838,2.838,0,0,0,2.216,4.612h40.95a2.838,2.838,0,0,0,2.216-4.612,17.339,17.339,0,0,1-3.8-10.84v-9" transform="translate(1.464 2.377)" fill="none" stroke="#f05936" stroke-linecap="round" stroke-linejoin="round" stroke-width="3"/>
        <path id="Path_3407" data-name="Path 3407" d="M17.8,12.268a6.512,6.512,0,0,1-13.024,0" transform="translate(13.994 35.931)" fill="none" stroke="#f05936" stroke-width="3"/>
        <circle id="Ellipse_14" data-name="Ellipse 14" cx="7.976" cy="7.976" r="7.976" transform="translate(30.786 1.964)" fill="none" stroke="#f05936" stroke-linecap="round" stroke-linejoin="round" stroke-width="3"/>
      </g>
    </g>
  </g>
</svg>
