<svg id="Component_6_1" data-name="Component 6 – 1" xmlns="http://www.w3.org/2000/svg" xmlns:xlink="http://www.w3.org/1999/xlink" width="100" height="100" viewBox="0 0 100 100">
  <defs>
    <clipPath id="clip-path">
      <rect id="Rectangle_95" data-name="Rectangle 95" width="72" height="72" transform="translate(281.327 3742.327)" fill="none" stroke="#f05936" stroke-width="3"/>
    </clipPath>
    <clipPath id="clip-path-2">
      <rect id="Rectangle_94" data-name="Rectangle 94" width="56.285" height="56.768" fill="none" stroke="#f05936" stroke-width="3"/>
    </clipPath>
  </defs>
  <rect id="Rectangle_3" data-name="Rectangle 3" width="100" height="100" rx="20" fill="#fff"/>
  <g id="Mask_Group_7" data-name="Mask Group 7" transform="translate(-267.327 -3728.327)" clip-path="url(#clip-path)">
    <g id="Group_424" data-name="Group 424" transform="translate(289.475 3750.475)">
      <g id="Group_423" data-name="Group 423" transform="translate(0 0)" clip-path="url(#clip-path-2)">
        <path id="Path_3387" data-name="Path 3387" d="M7.777.624h0a6.1,6.1,0,0,1,4.609,2.1l7.049,8.13a6.1,6.1,0,0,1-.3,8.31l-2.381,2.381a3.135,3.135,0,0,0-.6,3.588,17.222,17.222,0,0,0,5.155,6.2,15.6,15.6,0,0,0,5.063,2.454,2.814,2.814,0,0,0,.759.1,3.081,3.081,0,0,0,2.305-1.07l.977-1.113A6.1,6.1,0,0,1,39.29,31.4l7.167,7.089a6.1,6.1,0,0,1-.384,9.022L43.389,49.75a6.094,6.094,0,0,1-2.951,1.367,28.453,28.453,0,0,1-4.406.349A28.909,28.909,0,0,1,20.855,47a48.483,48.483,0,0,1-9.834-8.224A43.662,43.662,0,0,1,.161,20.267a30.733,30.733,0,0,1-.944-11.9A5.927,5.927,0,0,1,.94,4.936L3.464,2.411A6.061,6.061,0,0,1,7.777.624ZM27.133,36.891a5.807,5.807,0,0,1-1.564-.214,18.583,18.583,0,0,1-6.03-2.923A20.191,20.191,0,0,1,13.482,26.5a5.99,5.99,0,0,1-.562-3.728,6.136,6.136,0,0,1,1.715-3.339l2.383-2.383a3.11,3.11,0,0,0,.152-4.223L10.12,4.693A3.1,3.1,0,0,0,7.778,3.624h0a3.08,3.08,0,0,0-2.192.909L3.061,7.057a2.956,2.956,0,0,0-.87,1.7,27.674,27.674,0,0,0,.866,10.724A40.709,40.709,0,0,0,13.2,36.716a45.608,45.608,0,0,0,9.215,7.723,28.693,28.693,0,0,0,6.268,2.887,24.394,24.394,0,0,0,7.348,1.141,25.438,25.438,0,0,0,3.939-.312,3.143,3.143,0,0,0,1.494-.705l2.687-2.241a3.1,3.1,0,0,0,.195-4.586l-7.168-7.089a3.1,3.1,0,0,0-4.51.155L31.694,34.8A6.081,6.081,0,0,1,27.133,36.891Z" transform="translate(1.201 5.101)" fill="#f05936"/>
        <path id="Path_3388" data-name="Path 3388" d="M20.726,24.7a12.852,12.852,0,0,1-9.091-21.94A12.853,12.853,0,1,1,29.814,20.94,12.768,12.768,0,0,1,20.726,24.7Zm0-22.7a9.852,9.852,0,0,0-6.97,16.819A9.853,9.853,0,1,0,20.726,2Z" transform="translate(22.506 1.201)" fill="#f05936"/>
        <path id="Ellipse_10" data-name="Ellipse 10" d="M3.1-1.5A4.6,4.6,0,1,1-1.5,3.1,4.608,4.608,0,0,1,3.1-1.5Zm0,6.205A1.6,1.6,0,1,0,1.5,3.1,1.6,1.6,0,0,0,3.1,4.705Z" transform="translate(40.127 9.952)" fill="#f05936"/>
      </g>
    </g>
  </g>
</svg>
