<svg width="101" height="101" viewBox="0 0 101 101" fill="none" xmlns="http://www.w3.org/2000/svg">
<circle cx="50.5" cy="50.5" r="50.5" fill="#FB9D39"/>
<path fill-rule="evenodd" clip-rule="evenodd" d="M54.7638 44.5596C53.5501 43.6209 52.0853 43.0632 50.5547 42.9571C49.0241 42.8509 47.4963 43.201 46.1646 43.9631C44.833 44.7252 43.7572 45.8651 43.0734 47.2386C42.3895 48.6121 42.1283 50.1576 42.3228 51.6795C42.5173 53.2014 43.1588 54.6315 44.166 55.7889C45.1733 56.9463 46.5011 57.779 47.9817 58.1818C49.4622 58.5845 51.0289 58.5392 52.4837 58.0515C53.9384 57.5638 55.2159 56.6557 56.1545 55.442C56.7779 54.6362 57.2364 53.7154 57.5039 52.7324C57.7714 51.7494 57.8426 50.7233 57.7135 49.7127C57.5843 48.7021 57.2574 47.7269 56.7513 46.8427C56.2451 45.9585 55.5698 45.1827 54.7638 44.5596ZM45.6275 50.9502C45.4982 50.8495 45.4139 50.7017 45.393 50.5392C45.372 50.3766 45.416 50.2123 45.5155 50.082C45.615 49.9517 45.7619 49.866 45.9242 49.8434C46.0866 49.8208 46.2513 49.8632 46.3826 49.9614L48.5525 51.6162L53.3897 48.2079C53.5247 48.1142 53.6914 48.0777 53.8533 48.1064C54.0151 48.1351 54.159 48.2267 54.2536 48.3612C54.3482 48.4957 54.3857 48.6621 54.358 48.8241C54.3303 48.9861 54.2396 49.1306 54.1057 49.226L48.8963 52.8966C48.788 52.9727 48.6583 53.0123 48.5259 53.0097C48.3935 53.0071 48.2654 52.9623 48.1602 52.882L45.6275 50.9502Z" fill="white"/>
<path fill-rule="evenodd" clip-rule="evenodd" d="M59.0088 62.8209L62.1431 59.6867V59.6174L60.9951 58.4682C60.8947 58.3677 60.8317 58.236 60.8165 58.0948C60.8012 57.9536 60.8347 57.8115 60.9114 57.6919C61.7415 56.4035 62.3344 54.977 62.6623 53.4798C62.6871 53.3347 62.7624 53.2031 62.8749 53.1083C62.9874 53.0134 63.1298 52.9613 63.277 52.9613H64.9008L64.9497 52.9125V48.4795L64.9008 48.4307H63.277C63.1346 48.4306 62.9966 48.3818 62.8858 48.2924C62.775 48.203 62.6982 48.0784 62.6681 47.9392C62.3442 46.4454 61.7565 45.0212 60.9326 43.7337C60.8444 43.6136 60.8022 43.4659 60.8135 43.3173C60.8248 43.1687 60.8889 43.0291 60.9942 42.9237L62.1431 41.7748V41.7055L59.0088 38.5707H58.9395L57.7901 39.7182C57.6897 39.8186 57.558 39.8816 57.4168 39.8968C57.2756 39.912 57.1335 39.8784 57.014 39.8017C55.7255 38.9716 54.2989 38.3786 52.8016 38.0507C52.6566 38.0258 52.525 37.9505 52.4301 37.838C52.3352 37.7255 52.2831 37.5831 52.2831 37.4359V35.8136L52.2343 35.7646H47.8017L47.7528 35.8136V37.4364C47.7528 37.5787 47.704 37.7168 47.6146 37.8275C47.5252 37.9383 47.4005 38.0152 47.2614 38.0453C45.7674 38.3692 44.3432 38.9569 43.0556 39.7809C42.9355 39.8692 42.7878 39.9114 42.6392 39.9001C42.4906 39.8888 42.351 39.8247 42.2456 39.7194L41.0964 38.5707H41.0271L37.8929 41.705V41.7743L39.0414 42.9235C39.1417 43.0239 39.2047 43.1556 39.2199 43.2968C39.2351 43.438 39.2016 43.5801 39.125 43.6996C38.2948 44.988 37.7019 46.4145 37.3741 47.9117C37.3493 48.0568 37.274 48.1884 37.1615 48.2833C37.049 48.3782 36.9066 48.4302 36.7595 48.4303H35.1357L35.0869 48.4791V52.9117L35.1357 52.9605H36.7595C36.9018 52.9606 37.0399 53.0094 37.1506 53.0988C37.2614 53.1882 37.3382 53.3129 37.3683 53.452C37.6921 54.9459 38.2798 56.3701 39.1038 57.6576C39.1919 57.7777 39.2342 57.9254 39.2229 58.074C39.2116 58.2226 39.1475 58.3622 39.0422 58.4676L37.8929 59.6174V59.6867L41.0271 62.8209H41.0964L42.2458 61.6735C42.3463 61.5731 42.478 61.5102 42.6192 61.495C42.7603 61.4798 42.9025 61.5133 43.022 61.5899C44.3105 62.42 45.7371 63.0131 47.2343 63.3411C47.3794 63.3659 47.511 63.4412 47.6059 63.5537C47.7007 63.6662 47.7528 63.8086 47.7528 63.9557V65.5781L47.8017 65.627H52.2343L52.2831 65.5781V63.9553C52.2832 63.8129 52.332 63.6749 52.4214 63.5641C52.5108 63.4533 52.6354 63.3765 52.7746 63.3464C54.2685 63.0225 55.6928 62.4348 56.9803 61.6107C57.1004 61.5225 57.2481 61.4802 57.3967 61.4915C57.5453 61.5028 57.6849 61.567 57.7903 61.6723L58.939 62.8209H59.0088ZM48.8775 41.7681C50.6432 41.5425 52.4362 41.8456 54.0297 42.639C55.6232 43.4325 56.9457 44.6806 57.8298 46.2256C58.7139 47.7706 59.1201 49.5431 58.9968 51.319C58.8736 53.0948 58.2265 54.7942 57.1375 56.2023C56.0484 57.6104 54.5662 58.6639 52.8784 59.2296C51.1906 59.7954 49.3729 59.8479 47.6552 59.3806C45.9376 58.9132 44.397 57.947 43.2285 56.6042C42.0599 55.2613 41.3158 53.6021 41.0903 51.8363C40.9403 50.6639 41.0227 49.4734 41.3329 48.3329C41.6431 47.1923 42.175 46.124 42.8981 45.189C43.6213 44.2541 44.5215 43.4707 45.5475 42.8838C46.5734 42.2968 47.705 41.9177 48.8775 41.7681Z" fill="white"/>
<path fill-rule="evenodd" clip-rule="evenodd" d="M36.9008 32.9197C40.2804 30.1289 44.4288 28.4318 48.7954 28.0536C53.162 27.6754 57.5405 28.634 61.3496 30.8022C65.1587 32.9703 68.2185 36.2456 70.1229 40.1932C72.0272 44.1409 72.6861 48.5743 72.0122 52.9051C71.9992 53.0293 71.9491 53.1467 71.8684 53.2421C71.7877 53.3374 71.6802 53.4062 71.5599 53.4395C70.8222 53.6464 70.1728 54.0899 69.7117 54.7017C69.2505 55.3136 69.0031 56.06 69.0075 56.8261C69.0118 57.5923 69.2677 58.3358 69.7358 58.9424C70.2039 59.5489 70.8583 59.9849 71.5984 60.1834C72.3384 60.3818 73.1231 60.3317 73.8319 60.0407C74.5406 59.7497 75.1342 59.2339 75.5213 58.5727C75.9084 57.9115 76.0676 57.1415 75.9744 56.381C75.8813 55.6205 75.5409 54.9117 75.0056 54.3635C74.926 54.2929 74.8657 54.2031 74.8307 54.1027C74.7956 54.0023 74.7868 53.8945 74.8051 53.7897C75.6708 48.8235 74.984 43.7111 72.8382 39.1494C70.6925 34.5877 67.1922 30.7987 62.8145 28.2989C58.4369 25.799 53.3948 24.7099 48.3757 25.1801C43.3565 25.6502 38.6044 27.6567 34.7671 30.9261C34.6498 31.0405 34.492 31.1041 34.3281 31.1031C34.1642 31.1021 34.0072 31.0365 33.8913 30.9206L32.9826 30.0119L31.2222 36.582L37.7923 34.8216L36.8318 33.8611C36.7684 33.7977 36.7194 33.7215 36.6882 33.6375C36.6569 33.5535 36.6441 33.4638 36.6506 33.3744C36.6572 33.285 36.6829 33.1981 36.7261 33.1196C36.7692 33.0411 36.8288 32.9727 36.9008 32.9193V32.9197ZM71.979 54.8536C73.7033 54.3916 75.1546 56.2544 74.2523 57.8165C73.3469 59.3848 71.0096 59.0531 70.548 57.3304C70.4104 56.8122 70.4838 56.2607 70.752 55.7965C71.0202 55.3323 71.4614 54.9933 71.979 54.8536Z" fill="white"/>
<path fill-rule="evenodd" clip-rule="evenodd" d="M63.1352 68.4718C59.7556 71.2626 55.6072 72.9597 51.2406 73.3379C46.8739 73.7161 42.4955 72.7575 38.6864 70.5894C34.8772 68.4212 31.8175 65.146 29.9131 61.1983C28.0087 57.2507 27.3498 52.8173 28.0238 48.4864C28.0368 48.3621 28.087 48.2447 28.1678 48.1494C28.2486 48.054 28.3562 47.9852 28.4766 47.952C29.2144 47.7451 29.8637 47.3017 30.3249 46.6898C30.786 46.078 31.0334 45.3316 31.029 44.5654C31.0247 43.7992 30.7688 43.0557 30.3007 42.4492C29.8326 41.8426 29.1782 41.4066 28.4382 41.2082C27.6981 41.0097 26.9134 41.0599 26.2046 41.3509C25.4959 41.6419 24.9023 42.1576 24.5152 42.8188C24.1281 43.48 23.9689 44.2501 24.0621 45.0106C24.1553 45.771 24.4956 46.4799 25.0309 47.0281C25.1106 47.0986 25.1708 47.1884 25.2059 47.2888C25.241 47.3892 25.2498 47.497 25.2314 47.6018C24.3658 52.568 25.0527 57.6803 27.1984 62.2418C29.3441 66.8034 32.8443 70.5923 37.2219 73.0922C41.5994 75.592 46.6414 76.6811 51.6604 76.2111C56.6795 75.741 61.4315 73.7347 65.2688 70.4655C65.3862 70.3511 65.544 70.2876 65.7079 70.2886C65.8718 70.2897 66.0287 70.3553 66.1447 70.4712L67.0533 71.3798L68.8138 64.8098L62.2437 66.5699L63.2042 67.5304C63.2676 67.5938 63.3166 67.6701 63.3478 67.754C63.3791 67.838 63.3919 67.9278 63.3853 68.0171C63.3788 68.1065 63.3531 68.1934 63.3099 68.2719C63.2667 68.3505 63.2072 68.4188 63.1352 68.4722V68.4718ZM28.0569 46.5379C26.3327 46.9999 24.8813 45.1372 25.7837 43.575C26.6891 42.0068 29.0264 42.3386 29.488 44.0611C29.6256 44.5793 29.5522 45.1309 29.284 45.5951C29.0158 46.0593 28.5746 46.3983 28.0569 46.5379Z" fill="white"/>
<path fill-rule="evenodd" clip-rule="evenodd" d="M27.1434 45.2586C27.2766 45.3356 27.4296 45.3714 27.5831 45.3614C27.7367 45.3515 27.8838 45.2963 28.006 45.2027C28.1281 45.1092 28.2198 44.9816 28.2694 44.8359C28.3191 44.6903 28.3244 44.5332 28.2849 44.3846C28.2453 44.2359 28.1625 44.1023 28.047 44.0007C27.9315 43.899 27.7885 43.8339 27.636 43.8135C27.4835 43.7931 27.3284 43.8184 27.1902 43.8861C27.0521 43.9539 26.9371 44.061 26.8599 44.1941C26.8086 44.2826 26.7752 44.3803 26.7617 44.4817C26.7482 44.5831 26.7548 44.6862 26.7811 44.7851C26.8074 44.8839 26.853 44.9766 26.9151 45.0579C26.9773 45.1391 27.0549 45.2073 27.1434 45.2586Z" fill="white"/>
<path fill-rule="evenodd" clip-rule="evenodd" d="M72.8928 56.1338C72.7596 56.0568 72.6065 56.021 72.453 56.0309C72.2995 56.0409 72.1524 56.0961 72.0302 56.1896C71.908 56.2832 71.8164 56.4108 71.7667 56.5564C71.7171 56.702 71.7117 56.8591 71.7513 57.0078C71.7909 57.1565 71.8737 57.29 71.9892 57.3917C72.1047 57.4933 72.2477 57.5585 72.4002 57.5789C72.5527 57.5992 72.7078 57.574 72.8459 57.5062C72.9841 57.4385 73.099 57.3313 73.1763 57.1983C73.2276 57.1098 73.2609 57.012 73.2745 56.9106C73.288 56.8092 73.2814 56.7062 73.255 56.6073C73.2287 56.5084 73.1832 56.4157 73.121 56.3345C73.0589 56.2532 72.9813 56.185 72.8928 56.1338Z" fill="white"/>
</svg>
