<svg width="101" height="101" viewBox="0 0 101 101" fill="none" xmlns="http://www.w3.org/2000/svg">
<circle cx="50.5" cy="50.5" r="50.5" fill="#14D556"/>
<path d="M73.5141 67.5633C73.5141 69.1426 72.8867 70.6569 71.7617 71.7603C70.5935 72.9285 69.0791 73.491 67.5648 73.491C66.0504 73.491 64.5144 72.9068 63.3678 71.7603L60.5554 68.9479C64.0168 66.871 66.8941 63.9937 68.971 60.5323L71.7834 63.3447C72.9083 64.4697 73.5357 65.9624 73.5357 67.5417L73.5141 67.5633ZM69.1873 48.0929C69.1873 59.7319 59.7333 69.1858 48.0944 69.1858C36.4554 69.1858 27.0015 59.7319 27.0015 48.0929C27.0015 36.454 36.4554 27 48.0944 27C59.7333 27 69.1873 36.454 69.1873 48.0929ZM40.2846 48.0929L44.5464 43.8311C45.1738 43.2037 45.1738 42.1653 44.5464 41.5379C43.9191 40.9105 42.8806 40.9105 42.2533 41.5379L36.8448 46.9463C36.2174 47.5737 36.2174 48.6121 36.8448 49.2395L42.2533 54.6479C42.5778 54.9725 42.9888 55.1239 43.3999 55.1239C43.8109 55.1239 44.2219 54.9725 44.5464 54.6479C45.1738 54.0206 45.1738 52.9822 44.5464 52.3548L40.2846 48.0929ZM59.3223 46.9463L53.9139 41.5379C53.2865 40.9105 52.2481 40.9105 51.6207 41.5379C50.9933 42.1653 50.9933 43.2037 51.6207 43.8311L55.8825 48.0929L51.6207 52.3548C50.9933 52.9822 50.9933 54.0206 51.6207 54.6479C51.9452 54.9725 52.3562 55.1239 52.7673 55.1239C53.1783 55.1239 53.5894 54.9725 53.9139 54.6479L59.3223 49.2395C59.9497 48.6121 59.9497 47.5737 59.3223 46.9463Z" fill="white"/>
</svg>
