<svg width="101" height="101" viewBox="0 0 101 101" fill="none" xmlns="http://www.w3.org/2000/svg">
<circle cx="50.5" cy="50.5" r="50.5" fill="#264FF9"/>
<path d="M42.0946 35.7793C41.8453 35.7793 41.6499 35.9747 41.6499 36.2242C41.6499 36.4695 41.8495 36.6691 42.0946 36.6691C42.3399 36.6691 42.5395 36.4695 42.5395 36.2242C42.5395 35.9788 42.3399 35.7793 42.0946 35.7793Z" fill="white"/>
<path d="M45.0356 50.5732V55.0094L49.6091 57.8379V53.4016L47.4236 52.0499L45.0356 50.5732Z" fill="white"/>
<path d="M49.9997 47.0215L45.3877 49.8736L48.5141 51.807L49.9997 52.7257L54.6118 49.8735L49.9997 47.0215Z" fill="white"/>
<path d="M34.7206 35.7793C34.4712 35.7793 34.2759 35.9747 34.2759 36.2242C34.2759 36.4695 34.4754 36.6691 34.7206 36.6691C34.9659 36.6691 35.1655 36.4695 35.1655 36.2242C35.1655 35.9788 34.9659 35.7793 34.7206 35.7793Z" fill="white"/>
<path d="M38.4071 35.7793C38.1578 35.7793 37.9624 35.9747 37.9624 36.2242C37.9624 36.4695 38.162 36.6691 38.4071 36.6691C38.6522 36.6691 38.8518 36.4695 38.8518 36.2242C38.8518 35.9788 38.6522 35.7793 38.4071 35.7793Z" fill="white"/>
<path d="M31.6304 38.9816V34.1367C31.6304 33.9207 31.8053 33.7459 32.0211 33.7459H67.9771C68.1928 33.7459 68.3678 33.9207 68.3678 34.1367V64.6534H70.2467V33.7551C70.2467 32.7142 69.3999 31.8672 68.3588 31.8672H31.6396C30.5985 31.8672 29.7515 32.7142 29.7515 33.7551V64.6534H31.6304V38.9816Z" fill="white"/>
<path d="M50.3901 53.4034V57.8397L54.9636 55.0113V50.5752L51.7484 52.5634L50.3901 53.4034Z" fill="white"/>
<path d="M67.5866 34.5273H32.4121V38.5909H67.5866V34.5273ZM34.7203 37.4512C34.0442 37.4512 33.4942 36.901 33.4942 36.2249C33.4942 35.5488 34.0442 34.9986 34.7203 34.9986C35.3964 34.9986 35.9466 35.5487 35.9466 36.2249C35.9466 36.901 35.3964 37.4512 34.7203 37.4512ZM38.4076 37.4512C37.7315 37.4512 37.1815 36.901 37.1815 36.2249C37.1815 35.5488 37.7315 34.9986 38.4076 34.9986C39.0837 34.9986 39.6337 35.5487 39.6337 36.2249C39.6337 36.901 39.0837 37.4512 38.4076 37.4512ZM42.0947 37.4512C41.4186 37.4512 40.8686 36.901 40.8686 36.2249C40.8686 35.5488 41.4186 34.9986 42.0947 34.9986C42.7708 34.9986 43.321 35.5487 43.321 36.2249C43.321 36.901 42.7708 37.4512 42.0947 37.4512Z" fill="white"/>
<path d="M32.4121 64.654H44.7822C44.9378 64.654 45.0786 64.7463 45.1404 64.889L45.6149 65.9814H54.3854L54.8598 64.889C54.9217 64.7463 55.0624 64.654 55.2181 64.654H67.5866V39.3721H32.4121V64.654ZM43.6125 60.223V61.0044H41.9366C41.7208 61.0044 41.5458 60.8297 41.5458 60.6137V58.938H42.3273V59.6706L44.2157 57.7822L44.7682 58.3347L42.8798 60.223H43.6125ZM50.2765 64.2301C50.2002 64.3064 50.1002 64.3445 50.0002 64.3445C49.9003 64.3445 49.8003 64.3064 49.724 64.2301L48.5387 63.045L49.0912 62.4925L49.6095 63.0107V60.3398H50.3909V63.0106L50.9091 62.4925L51.4616 63.045L50.2765 64.2301ZM50.2055 58.8716C50.2028 58.8732 50.1997 58.8737 50.197 58.8753C50.1945 58.8767 50.1927 58.879 50.1902 58.8803C50.1731 58.89 50.1546 58.8951 50.1364 58.902C50.1247 58.9064 50.1136 58.9127 50.1015 58.916C50.0682 58.925 50.0342 58.9299 50 58.9299C49.9659 58.9299 49.9318 58.925 49.8985 58.916C49.8864 58.9127 49.8754 58.9064 49.8636 58.902C49.8455 58.8951 49.827 58.89 49.8098 58.8803C49.8074 58.879 49.8055 58.8767 49.8031 58.8753C49.8004 58.8737 49.7972 58.8732 49.7946 58.8716L44.4397 55.5601C44.3245 55.4887 44.2545 55.3632 44.2545 55.2278V49.8727C44.2545 49.838 44.2593 49.8041 44.2681 49.7714C44.2709 49.761 44.2764 49.7519 44.28 49.7418C44.2878 49.7202 44.2952 49.6986 44.3066 49.6788C44.3132 49.6672 44.3225 49.6576 44.3302 49.6467C44.342 49.6303 44.3531 49.6136 44.3674 49.5991C44.3772 49.5892 44.3891 49.5815 44.4 49.5726C44.4132 49.5618 44.4249 49.5495 44.4397 49.5404L49.7946 46.2289C49.9205 46.1511 50.0796 46.1511 50.2055 46.2289L55.5606 49.5404C55.5761 49.55 55.5886 49.5629 55.6024 49.5744C55.6124 49.5826 55.6233 49.5896 55.6323 49.5987C55.6481 49.6146 55.6605 49.6328 55.6732 49.6511C55.6797 49.6603 55.6876 49.6684 55.6932 49.6782C55.7065 49.7012 55.7158 49.7261 55.7242 49.7515C55.7263 49.7581 55.73 49.7639 55.7319 49.7707C55.7408 49.8036 55.7458 49.8377 55.7458 49.8727C55.7458 49.8732 55.7456 49.8737 55.7456 49.8742V55.2278C55.7456 55.3632 55.6756 55.4888 55.5604 55.5601L50.2055 58.8716ZM58.3402 60.89C58.2669 60.9632 58.1675 61.0044 58.0639 61.0044H56.3878V60.223H57.1206L55.232 58.3347L55.7845 57.7822L57.6731 59.6706L57.673 58.938H58.4544L58.4546 60.6137C58.4546 60.7171 58.4134 60.8167 58.3402 60.89ZM60.495 51.0887L61.6802 52.2738C61.7535 52.3471 61.7947 52.4463 61.7947 52.5501C61.7947 52.6538 61.7535 52.753 61.6802 52.8263L60.495 54.0114L59.9425 53.4589L60.4606 52.9408H57.79V52.1593H60.4606L59.9425 51.6412L60.495 51.0887ZM56.3878 44.8771V44.0957H58.0639C58.1675 44.0957 58.2669 44.1369 58.3402 44.2101C58.4134 44.2834 58.4546 44.383 58.4546 44.4864L58.4544 46.1625H57.673L57.6731 45.4296L55.7845 47.3182L55.2321 46.7657L57.1207 44.8771H56.3878ZM49.724 40.87C49.8766 40.7174 50.1239 40.7174 50.2765 40.87L51.4616 42.0551L50.9091 42.6076L50.3909 42.0895V44.7603H49.6095V42.0894L49.0912 42.6076L48.5387 42.0551L49.724 40.87ZM41.5458 44.4864C41.5458 44.2704 41.7208 44.0957 41.9366 44.0957H43.6125V44.8771H42.8797L44.7682 46.7657L44.2157 47.3182L42.3273 45.4296V46.1625H41.5458V44.4864ZM38.3202 52.2738L39.5053 51.0887L40.0578 51.6412L39.5397 52.1593H42.2105V52.9407H39.5397L40.0578 53.4589L39.5053 54.0114L38.3202 52.8263C38.1676 52.6737 38.1676 52.4264 38.3202 52.2738Z" fill="white"/>
<path d="M55.4741 65.4365L54.9996 66.5289C54.9378 66.6716 54.797 66.7639 54.6413 66.7639H45.3584C45.2027 66.7639 45.0619 66.6716 45.0001 66.5289L44.5257 65.4365H25.9619V67.1161C25.9619 68.1554 26.8074 69.001 27.8466 69.001H72.1531C73.1923 69.001 74.0378 68.1555 74.0378 67.1161V65.4365H55.4741Z" fill="white"/>
</svg>
