<svg width="101" height="101" viewBox="0 0 101 101" fill="none" xmlns="http://www.w3.org/2000/svg">
<circle cx="50.5" cy="50.5" r="50.5" fill="#264FF9"/>
<path fill-rule="evenodd" clip-rule="evenodd" d="M64.7673 50.5788C70.971 50.5788 76 55.8218 76 62.2894C76 68.757 70.971 74 64.7673 74C58.5637 74 53.5347 68.757 53.5347 62.2894C53.5347 55.8218 58.5637 50.5788 64.7673 50.5788ZM65.3746 45.3324C64.5106 46.0209 63.3019 46.6229 61.8266 47.1124C58.9596 48.0637 55.02 48.6521 50.6874 48.6521C46.3548 48.6521 42.4152 48.0638 39.5482 47.1124C38.0728 46.6229 36.8642 46.0208 36.0002 45.3324V53.1595C36.0002 54.196 37.528 55.2214 39.9981 56.041C42.7176 56.9434 46.4957 57.5015 50.6875 57.5015C51.4441 57.5015 52.1872 57.4832 52.9131 57.4481C54.7685 52.5136 59.3765 49.0194 64.7674 49.0194C64.971 49.0194 65.1735 49.0249 65.3748 49.0348V45.3324H65.3746ZM65.3746 34.9238V42.7508C65.3746 43.7874 63.8468 44.8127 61.3766 45.6323C58.6571 46.5347 54.8791 47.0928 50.6873 47.0928C46.4955 47.0928 42.7175 46.5347 39.998 45.6323C37.5278 44.8127 36 43.7874 36 42.7508V34.9238C36.864 35.6122 38.0727 36.2142 39.548 36.7037C42.415 37.655 46.3546 38.2435 50.6872 38.2435C55.0198 38.2435 58.9595 37.6551 61.8264 36.7037C63.302 36.2142 64.5106 35.6121 65.3746 34.9238ZM36.0001 32.342C36.0001 33.3787 37.5279 34.4039 39.998 35.2236C42.7176 36.1259 46.4956 36.6841 50.6874 36.6841C54.8792 36.6841 58.6572 36.1259 61.3767 35.2236C63.8469 34.4039 65.3747 33.3786 65.3747 32.342C65.3747 31.3054 63.8469 30.2801 61.3767 29.4605C58.6572 28.5581 54.8792 28 50.6874 28C46.4956 28 42.7175 28.5581 39.998 29.4605C37.5279 30.2802 36.0001 31.3055 36.0001 32.342ZM52.4267 59.0289C52.1738 60.072 52.039 61.1642 52.039 62.2894C52.039 64.272 52.4568 66.1526 53.2043 67.8418C52.3864 67.8868 51.5455 67.9103 50.6874 67.9103C46.4956 67.9103 42.7176 67.3521 39.998 66.4498C37.5279 65.6301 36.0001 64.6048 36.0001 63.5682V55.7412C36.8641 56.4297 38.0728 57.0317 39.5481 57.5212C42.4151 58.4725 46.3547 59.0609 50.6873 59.0609C51.2749 59.0608 51.8552 59.0499 52.4267 59.0289ZM71.6558 65.1234C71.8697 64.5597 72.0217 63.9594 72.1034 63.3328C72.1818 62.7315 72.193 62.1118 72.1296 61.4837C71.9156 59.3631 70.898 57.5344 69.4261 56.2921C67.9527 55.0486 66.0256 54.3909 63.9945 54.6138C63.2612 54.6943 62.5652 54.8832 61.9198 55.1635L62.0983 54.7383C62.2628 54.3446 62.0903 53.8865 61.7127 53.715C61.3352 53.5434 60.8957 53.7234 60.7312 54.117L59.6142 56.7773C59.4496 57.1709 59.6223 57.6291 59.9998 57.8006C60.0562 57.8262 60.1142 57.8441 60.1723 57.8544L60.1722 57.8554L62.9172 58.3484C63.3237 58.4207 63.7096 58.1357 63.779 57.7119C63.8483 57.2881 63.575 56.8858 63.1685 56.8134L62.3465 56.6658C62.3781 56.651 62.4099 56.6365 62.4418 56.6222C62.9725 56.3857 63.5447 56.2269 64.1465 56.1609C65.7715 55.9825 67.3108 56.5066 68.4856 57.4981C69.662 58.4909 70.475 59.9506 70.6457 61.6419C70.6969 62.148 70.688 62.6451 70.6254 63.1256C70.5616 63.614 70.4394 64.0922 70.2654 64.5506C70.1138 64.9509 70.3021 65.4037 70.686 65.5617C71.0699 65.72 71.5041 65.5236 71.6558 65.1234ZM68.8034 70.4035L69.9204 67.7433C70.085 67.3497 69.9124 66.8915 69.5348 66.72C69.4784 66.6944 69.4204 66.6766 69.3623 66.6662L69.3625 66.6652L66.6174 66.1722C66.2109 66.0999 65.825 66.3849 65.7556 66.8087C65.6863 67.2325 65.9596 67.6348 66.3661 67.7072L67.2787 67.8711C67.2115 67.904 67.1436 67.9356 67.0751 67.9658C66.5516 68.1969 65.9856 68.3524 65.3881 68.4179C63.763 68.5963 62.2239 68.0721 61.049 67.0807C59.8726 66.0879 59.0596 64.6282 58.8889 62.9369C58.8366 62.4195 58.8475 61.9094 58.9151 61.4152C58.985 60.9047 59.1141 60.4149 59.2953 59.9546C59.4518 59.5577 59.27 59.1036 58.8892 58.9405C58.5085 58.7773 58.073 58.9669 57.9165 59.3638C57.6864 59.9478 57.5236 60.5624 57.4369 61.1959C57.3528 61.811 57.3394 62.4476 57.4048 63.0952C57.6188 65.2158 58.6364 67.0444 60.1083 68.2866C61.5818 69.5302 63.5087 70.1879 65.54 69.9651C66.2599 69.886 66.946 69.7011 67.5854 69.4268L67.4361 69.7822C67.2716 70.1759 67.4442 70.634 67.8217 70.8055C68.1995 70.9771 68.6389 70.7971 68.8034 70.4035Z" fill="white"/>
</svg>
