<svg width="104" height="101" viewBox="0 0 104 101" fill="none" xmlns="http://www.w3.org/2000/svg">
<circle cx="53.5" cy="50.5" r="50.5" fill="#B74FEC"/>
<path d="M38.4828 25C33.2586 25 29 29.2586 29 34.4828C29 39.7068 33.2586 43.9655 38.4828 43.9655C43.7069 43.9655 47.9655 39.7068 47.9655 34.4828C47.9655 29.2586 43.7069 25 38.4828 25ZM42.5344 35.0862L40.8103 36.8103C40.6552 36.9828 40.431 37.069 40.2069 37.069C39.9827 37.069 39.7586 36.9828 39.6035 36.8103C39.2586 36.4827 39.2586 35.931 39.6035 35.6034L39.8448 35.3448H35.0345C34.5517 35.3448 34.1724 34.9655 34.1724 34.4828C34.1724 33.9999 34.5517 33.6207 35.0345 33.6207H39.8448L39.6035 33.362C39.2586 33.0344 39.2586 32.4827 39.6035 32.1551C39.9311 31.8104 40.4827 31.8104 40.8103 32.1551L42.5344 33.8792C42.8793 34.2068 42.8793 34.7586 42.5344 35.0862Z" fill="white"/>
<path d="M69.5174 56.0342C64.2932 56.0342 60.0347 60.2927 60.0347 65.5169C60.0347 70.741 64.2932 74.9997 69.5174 74.9997C74.7416 74.9997 79.0002 70.741 79.0002 65.5169C79.0002 60.2927 74.7416 56.0342 69.5174 56.0342ZM72.707 64.3962L69.2588 67.8445C69.1037 68.017 68.8795 68.1031 68.6554 68.1031C68.4312 68.1031 68.2071 68.017 68.052 67.8445L66.3278 66.1203C65.983 65.7928 65.983 65.241 66.3278 64.9134C66.6554 64.5687 67.207 64.5687 67.5346 64.9134L68.6554 66.0169L71.5002 63.1893C71.8278 62.8445 72.3794 62.8445 72.707 63.1893C73.0519 63.5169 73.0519 64.0686 72.707 64.3962Z" fill="white"/>
<path d="M74.6897 37.9314C74.5862 37.9314 74.4828 37.9487 74.3793 37.9658C72.8621 35.3107 70.0172 33.6211 66.931 33.6211H50.5517C50.0689 33.6211 49.6897 34.0004 49.6897 34.4832C49.6897 34.9659 50.0689 35.3452 50.5517 35.3452H66.931C69.2586 35.3452 71.431 36.5349 72.6724 38.4487C71.3276 39.1728 70.3793 40.5866 70.3793 42.2418C70.3793 43.8797 71.3103 45.3107 72.6724 46.0349C72.431 46.4142 72.138 46.7935 71.7931 47.121C70.5173 48.4141 68.7931 49.1383 66.931 49.1383H58.2242C57.8275 47.1728 56.0862 45.6901 54 45.6901C51.9138 45.6901 50.1725 47.1728 49.7758 49.1383H41.069C37.9828 49.1383 35.1379 50.828 33.6207 53.4831C33.5172 53.4659 33.4138 53.4487 33.3103 53.4487C30.931 53.4487 29 55.3797 29 57.759C29 60.1383 30.931 62.0694 33.3103 62.0694C33.4138 62.0694 33.5172 62.0521 33.6207 62.0349C34 62.69 34.4311 63.328 34.9656 63.8452C36.5862 65.4831 38.7586 66.3797 41.069 66.3797H57.4483C57.9311 66.3797 58.3103 66.0003 58.3103 65.5176C58.3103 65.0348 57.9311 64.6556 57.4483 64.6556H41.069C39.2069 64.6556 37.4827 63.9314 36.1896 62.6211C35.862 62.2935 35.569 61.9314 35.3276 61.5521C36.6897 60.8279 37.6207 59.397 37.6207 57.759C37.6207 56.1038 36.6724 54.69 35.3276 53.9659C36.569 52.0521 38.7414 50.8625 41.069 50.8625H49.7758C50.1725 52.828 51.9138 54.3107 54 54.3107C56.0862 54.3107 57.8275 52.828 58.2242 50.8625H66.931C69.2414 50.8625 71.4138 49.9659 73.0173 48.3452C73.5689 47.8107 74 47.1728 74.3793 46.5176C74.4828 46.5349 74.5862 46.5521 74.6897 46.5521C77.069 46.5521 79 44.6211 79 42.2418C79 39.8625 77.069 37.9314 74.6897 37.9314ZM35.8966 57.759C35.8966 59.19 34.7414 60.3452 33.3103 60.3452C31.8793 60.3452 30.7241 59.19 30.7241 57.759C30.7241 56.328 31.8793 55.1728 33.3103 55.1728C34.7414 55.1728 35.8966 56.328 35.8966 57.759ZM74.6897 44.828C73.2586 44.828 72.1034 43.6727 72.1034 42.2418C72.1034 40.8107 73.2586 39.6556 74.6897 39.6556C76.1207 39.6556 77.2759 40.8107 77.2759 42.2418C77.2759 43.6727 76.1207 44.828 74.6897 44.828Z" fill="white"/>
</svg>
