<svg width="101" height="101" viewBox="0 0 101 101" fill="none" xmlns="http://www.w3.org/2000/svg">
<circle cx="50.5" cy="50.5" r="50.5" fill="#FB9D39"/>
<path fill-rule="evenodd" clip-rule="evenodd" d="M54.908 67.7658L59.0317 76.7628C59.1695 77.0635 59.5826 77.0825 59.7466 76.7957L62.8671 71.3411L68.9853 72.4269C69.3075 72.4841 69.5588 72.1511 69.4207 71.8501L64.5417 61.2055C63.5366 61.733 62.3203 64.0293 61.6659 65.0459C60.1865 67.3434 57.5053 68.4085 54.908 67.7658ZM51.0723 45.9549L67.7372 26.4636C68.6229 25.5551 70.0677 25.5525 70.9596 26.4534C71.8514 27.3542 71.8542 28.8177 70.9695 29.7246C67.9355 32.8348 55.7391 47.7815 52.691 50.8776C51.8 51.7828 50.3545 51.7826 49.4635 50.8776L43.1365 44.4509C42.2455 43.5459 42.2455 42.0777 43.1365 41.1725C44.0276 40.2673 45.4731 40.2673 46.3641 41.1725L51.0723 45.9549ZM53.2171 23.9325C57.2067 26.966 56.6175 26.8188 61.8192 27.1128C62.7104 27.1632 63.5285 27.4611 64.2061 27.9493L59.1719 33.8023C56.81 31.8386 53.7909 30.66 50.5006 30.66C42.9342 30.66 36.8004 36.8904 36.8004 44.576C36.8004 52.2618 42.9342 58.4922 50.5006 58.4922C58.067 58.4922 64.2008 52.2618 64.2008 44.576C64.2008 43.3083 64.033 42.0804 63.7203 40.9133C65.0881 39.3054 66.4547 37.6966 67.8258 36.0917L70.5581 38.7126C72.0432 40.1372 72.423 42.2956 71.5015 44.1473C69.1024 48.9684 69.2808 47.9406 69.912 53.3044C70.1544 55.3646 69.0732 57.2668 67.1955 58.0836C62.3067 60.2103 63.0939 59.5395 60.183 64.0605C59.0649 65.7969 57.033 66.5482 55.0776 65.9479C49.9868 64.3852 51.0144 64.3852 45.9236 65.9479C43.9682 66.5481 41.9363 65.7969 40.8182 64.0605C37.9074 59.5395 38.6945 60.2103 33.8057 58.0836C31.928 57.2668 30.8468 55.3646 31.0892 53.3044L31.4941 49.8636C31.6048 48.9226 31.4596 48.0857 31.0386 47.2399L29.4996 44.1473C28.5781 42.2956 28.9535 40.1324 30.443 38.7126C34.3207 35.0157 33.807 35.9196 35.02 30.66C35.486 28.6397 37.1424 27.2279 39.1819 27.1127C44.4918 26.8126 43.5264 27.1696 47.784 23.9324C49.4194 22.6892 51.5818 22.6892 53.2171 23.9325ZM46.0932 67.7656C43.4958 68.4084 40.8146 67.3434 39.3351 65.0456C38.6807 64.0292 37.4644 61.7326 36.4593 61.2052L31.5803 71.8498C31.4423 72.1509 31.6936 72.484 32.0157 72.4267L38.134 71.3409L41.2545 76.7955C41.4186 77.0822 41.8316 77.0633 41.9694 76.7626L46.0932 67.7656Z" fill="white"/>
</svg>
