<svg width="104" height="101" viewBox="0 0 104 101" fill="none" xmlns="http://www.w3.org/2000/svg">
<circle cx="53.5" cy="50.5" r="50.5" fill="#B74FEC"/>
<path d="M31 70.4284C31 71.2962 31.7035 71.9999 32.5714 71.9999H43.5714V62.5713H31V70.4284Z" fill="white"/>
<path d="M46.7144 62.5713H59.2858V71.9999H46.7144V62.5713Z" fill="white"/>
<path d="M62.4287 71.9999H73.4287C74.2966 71.9999 75.0001 71.2962 75.0001 70.4284V62.5713H62.4287V71.9999Z" fill="white"/>
<path d="M70.2856 50H74.9999V59.4286H70.2856V50Z" fill="white"/>
<path d="M31 50H35.7143V59.4286H31V50Z" fill="white"/>
<path d="M43.5616 50H38.8569V59.4286H51.4284V57.431C51.2903 57.3512 51.156 57.2642 51.0309 57.1635L48.4812 55.1148C46.5453 53.5597 44.9259 51.8371 43.5616 50Z" fill="white"/>
<path d="M54.9695 57.1635C54.8442 57.2643 54.7096 57.3514 54.5713 57.4312V59.4286H67.1427V50H62.4374C61.0729 51.837 59.4532 53.5596 57.517 55.1148L54.9695 57.1635Z" fill="white"/>
<path d="M38.9448 37.4287H32.5714C31.7035 37.4287 31 38.1322 31 39.0001V46.8573H41.5611C40.0291 43.9504 39.1565 40.784 38.9448 37.4287Z" fill="white"/>
<path d="M73.4283 37.4287H67.0551C66.8433 40.7844 65.9706 43.9507 64.4385 46.8573H74.9998V39.0001C74.9998 38.1322 74.2963 37.4287 73.4283 37.4287Z" fill="white"/>
<path d="M49.466 53.8902L52.0149 55.9389C52.3034 56.1706 52.6518 56.2857 53.0001 56.2857C53.3485 56.2857 53.6968 56.1706 53.9854 55.9389L56.5328 53.8902C62.4456 49.1406 65.5716 42.904 65.5716 35.8571C65.5716 35.2939 65.2693 34.7722 64.7797 34.4929L53.7797 28.2072C53.2979 27.9309 52.7024 27.9309 52.2206 28.2072L41.2206 34.4929C40.731 34.7722 40.4287 35.2939 40.4287 35.8571C40.4287 42.904 43.5547 49.1406 49.466 53.8902ZM48.7458 39.4604C49.3597 38.8465 50.3541 38.8465 50.9679 39.4604L52.8294 41.3218L56.4572 36.4856C56.979 35.7919 57.9626 35.6492 58.6563 36.1717C59.3515 36.692 59.4926 37.6772 58.9709 38.3716L54.2566 44.6573C53.9834 45.0218 53.566 45.2497 53.1118 45.2819C53.0734 45.2842 53.0366 45.2857 52.9998 45.2857C52.5839 45.2857 52.1849 45.1215 51.8887 44.8253L48.7458 41.6825C48.132 41.0686 48.132 40.0742 48.7458 39.4604Z" fill="white"/>
</svg>
