<svg width="1941" height="1224" viewBox="0 0 1941 1224" fill="none" xmlns="http://www.w3.org/2000/svg">
<path opacity="0.2" d="M1723.07 1208.44C1652.27 1173.08 1623.57 1087.08 1658.96 1016.35C1694.36 945.618 1780.44 916.945 1851.24 952.304C1922.04 987.663 1950.74 1073.67 1915.35 1144.39C1879.96 1215.12 1793.87 1243.8 1723.07 1208.44ZM1832.02 990.724C1782.46 965.973 1722.2 986.044 1697.42 1035.55C1672.64 1085.06 1692.74 1145.27 1742.3 1170.02C1791.85 1194.77 1852.12 1174.7 1876.89 1125.19C1901.67 1075.68 1881.58 1015.48 1832.02 990.724Z" fill="white" fill-opacity="0.14"/>
<path d="M1940.25 0.429971L1900.7 20.4169L1900.7 24.01L1940.25 4.02416L1940.25 0.429971Z" fill="white" fill-opacity="0.14"/>
<path d="M1940.25 10.4534L1900.7 30.4403L1900.7 34.0335L1940.25 14.0466L1940.25 10.4534Z" fill="white" fill-opacity="0.14"/>
<path d="M1940.25 20.4768L1900.7 40.4637L1900.7 44.0569L1940.25 24.07L1940.25 20.4768Z" fill="white" fill-opacity="0.14"/>
<path d="M1940.25 30.5003L1900.7 50.4861L1900.7 54.0793L1940.25 34.0935L1940.25 30.5003Z" fill="white" fill-opacity="0.14"/>
<path d="M1940.25 40.5238L1900.7 60.5106L1900.7 64.1038L1940.25 44.1169L1940.25 40.5238Z" fill="white" fill-opacity="0.14"/>
<path d="M1940.25 50.5472L1900.7 70.5331L1900.7 74.1262L1940.25 54.1403L1940.25 50.5472Z" fill="white" fill-opacity="0.14"/>
<path d="M1940.25 60.5706L1900.7 80.5575L1900.7 84.1507L1940.25 64.1638L1940.25 60.5706Z" fill="white" fill-opacity="0.14"/>
<path d="M1940.25 70.6018L1900.7 90.5887L1900.7 94.1819L1940.25 74.195L1940.25 70.6018Z" fill="white" fill-opacity="0.14"/>
<path d="M1940.25 80.6253L1900.7 100.611L1900.7 104.205L1940.25 84.2185L1940.25 80.6253Z" fill="white" fill-opacity="0.14"/>
<path d="M1940.25 90.6487L1900.7 110.636L1900.7 114.229L1940.25 94.2419L1940.25 90.6487Z" fill="white" fill-opacity="0.14"/>
<path d="M1940.25 100.672L1900.7 120.658L1900.7 124.251L1940.25 104.265L1940.25 100.672Z" fill="white" fill-opacity="0.14"/>
<path d="M1940.25 110.696L1900.7 130.682L1900.7 134.277L1940.25 114.289L1940.25 110.696Z" fill="white" fill-opacity="0.14"/>
<path d="M1940.25 120.719L1900.7 140.706L1900.7 144.299L1940.25 124.312L1940.25 120.719Z" fill="white" fill-opacity="0.14"/>
<path d="M1940.25 130.743L1900.7 150.728L1900.7 154.323L1940.25 134.336L1940.25 130.743Z" fill="white" fill-opacity="0.14"/>
<path d="M1940.25 140.766L1900.7 160.753L1900.7 164.346L1940.25 144.359L1940.25 140.766Z" fill="white" fill-opacity="0.14"/>
<path d="M1940.25 150.789L1900.7 170.775L1900.7 174.368L1940.25 154.383L1940.25 150.789Z" fill="white" fill-opacity="0.14"/>
<path d="M1940.25 160.813L1900.7 180.799L1900.7 184.392L1940.25 164.406L1940.25 160.813Z" fill="white" fill-opacity="0.14"/>
<path d="M1940.25 170.836L1900.7 190.823L1900.7 194.416L1940.25 174.429L1940.25 170.836Z" fill="white" fill-opacity="0.14"/>
<path d="M1940.25 180.86L1900.7 200.847L1900.7 204.439L1940.25 184.453L1940.25 180.86Z" fill="white" fill-opacity="0.14"/>
<path d="M1940.25 190.891L1900.7 210.878L1900.7 214.471L1940.25 194.484L1940.25 190.891Z" fill="white" fill-opacity="0.14"/>
<path d="M1940.25 200.914L1900.7 220.9L1900.7 224.493L1940.25 204.508L1940.25 200.914Z" fill="white" fill-opacity="0.14"/>
<path d="M1940.25 210.937L1900.7 230.924L1900.7 234.517L1940.25 214.531L1940.25 210.937Z" fill="white" fill-opacity="0.14"/>
<path d="M1940.25 220.961L1900.7 240.947L1900.7 244.54L1940.25 224.554L1940.25 220.961Z" fill="white" fill-opacity="0.14"/>
<path d="M1940.25 230.985L1900.7 250.972L1900.7 254.565L1940.25 234.578L1940.25 230.985Z" fill="white" fill-opacity="0.14"/>
<path d="M1940.25 241.008L1900.7 260.995L1900.7 264.588L1940.25 244.601L1940.25 241.008Z" fill="white" fill-opacity="0.14"/>
<path d="M1940.25 251.032L1900.7 271.017L1900.7 274.611L1940.25 254.625L1940.25 251.032Z" fill="white" fill-opacity="0.14"/>
<path d="M1940.25 261.054L1900.7 281.042L1900.7 284.635L1940.25 264.648L1940.25 261.054Z" fill="white" fill-opacity="0.14"/>
<path d="M1940.25 271.078L1900.7 291.065L1900.7 294.658L1940.25 274.673L1940.25 271.078Z" fill="white" fill-opacity="0.14"/>
<path d="M1940.25 281.102L1900.7 301.089L1900.7 304.682L1940.25 284.695L1940.25 281.102Z" fill="white" fill-opacity="0.14"/>
<path d="M1940.25 291.125L1900.7 311.112L1900.7 314.705L1940.25 294.718L1940.25 291.125Z" fill="white" fill-opacity="0.14"/>
<path d="M1940.25 301.149L1900.7 321.135L1900.7 324.728L1940.25 304.742L1940.25 301.149Z" fill="white" fill-opacity="0.14"/>
<path d="M1940.25 311.18L1900.7 331.166L1900.7 334.759L1940.25 314.773L1940.25 311.18Z" fill="white" fill-opacity="0.14"/>
<path d="M1940.25 321.196L1900.7 341.182L1900.7 344.776L1940.25 324.79L1940.25 321.196Z" fill="white" fill-opacity="0.14"/>
<path d="M1940.25 331.227L1900.7 351.214L1900.7 354.807L1940.25 334.82L1940.25 331.227Z" fill="white" fill-opacity="0.14"/>
<path d="M1940.25 341.25L1900.7 361.237L1900.7 364.83L1940.25 344.843L1940.25 341.25Z" fill="white" fill-opacity="0.14"/>
<path d="M1940.25 351.274L1900.7 371.26L1900.7 374.853L1940.25 354.867L1940.25 351.274Z" fill="white" fill-opacity="0.14"/>
<path d="M1940.25 361.297L1900.7 381.284L1900.7 384.877L1940.25 364.89L1940.25 361.297Z" fill="white" fill-opacity="0.14"/>
<path d="M1940.25 371.321L1900.7 391.307L1900.7 394.901L1940.25 374.915L1940.25 371.321Z" fill="white" fill-opacity="0.14"/>
<path d="M1940.25 381.344L1900.7 401.331L1900.7 404.924L1940.25 384.937L1940.25 381.344Z" fill="white" fill-opacity="0.14"/>
<path d="M1940.25 391.367L1900.7 411.354L1900.7 414.948L1940.25 394.961L1940.25 391.367Z" fill="white" fill-opacity="0.14"/>
<path d="M1940.25 401.391L1900.7 421.377L1900.7 424.97L1940.25 404.984L1940.25 401.391Z" fill="white" fill-opacity="0.14"/>
<path d="M1940.25 411.414L1900.7 431.4L1900.7 434.994L1940.25 415.008L1940.25 411.414Z" fill="white" fill-opacity="0.14"/>
<path d="M1940.25 421.438L1900.7 441.425L1900.7 445.018L1940.25 425.032L1940.25 421.438Z" fill="white" fill-opacity="0.14"/>
<path d="M1940.25 431.461L1900.7 451.448L1900.7 455.041L1940.25 435.054L1940.25 431.461Z" fill="white" fill-opacity="0.14"/>
<path d="M1940.25 441.492L1900.7 461.479L1900.7 465.073L1940.25 445.086L1940.25 441.492Z" fill="white" fill-opacity="0.14"/>
<path d="M1940.25 451.516L1900.7 471.502L1900.7 475.095L1940.25 455.109L1940.25 451.516Z" fill="white" fill-opacity="0.14"/>
<path d="M1940.25 461.539L1900.7 481.526L1900.7 485.119L1940.25 465.133L1940.25 461.539Z" fill="white" fill-opacity="0.14"/>
<path d="M1940.25 471.563L1900.7 491.549L1900.7 495.142L1940.25 475.156L1940.25 471.563Z" fill="white" fill-opacity="0.14"/>
<path d="M1940.25 481.586L1900.7 501.573L1900.7 505.166L1940.25 485.179L1940.25 481.586Z" fill="white" fill-opacity="0.14"/>
<path d="M1940.25 491.61L1900.7 511.597L1900.7 515.19L1940.25 495.203L1940.25 491.61Z" fill="white" fill-opacity="0.14"/>
<path d="M1940.25 501.633L1900.7 521.619L1900.7 525.212L1940.25 505.226L1940.25 501.633Z" fill="white" fill-opacity="0.14"/>
<path d="M40.2479 1099.57L0.701446 1079.58L0.701454 1075.99L40.2469 1095.98L40.2479 1099.57Z" fill="white" fill-opacity="0.14"/>
<path d="M40.2479 1089.55L0.703479 1069.56L0.703487 1065.97L40.2479 1085.95L40.2479 1089.55Z" fill="white" fill-opacity="0.14"/>
<path d="M40.2479 1079.52L0.701457 1059.54L0.701462 1055.94L40.2479 1075.93L40.2479 1079.52Z" fill="white" fill-opacity="0.14"/>
<path d="M40.2479 1069.5L0.702462 1049.51L0.702471 1045.92L40.2479 1065.91L40.2479 1069.5Z" fill="white" fill-opacity="0.14"/>
<path d="M40.248 1059.48L0.701486 1039.49L0.701462 1035.9L40.2479 1055.88L40.248 1059.48Z" fill="white" fill-opacity="0.14"/>
<path d="M40.248 1049.45L0.702492 1029.47L0.70247 1025.87L40.2479 1045.86L40.248 1049.45Z" fill="white" fill-opacity="0.14"/>
<path d="M40.248 1039.43L0.703479 1019.44L0.703487 1015.85L40.2479 1035.84L40.248 1039.43Z" fill="white" fill-opacity="0.14"/>
<path d="M40.2479 1029.4L0.701457 1009.41L0.701462 1005.82L40.2479 1025.8L40.2479 1029.4Z" fill="white" fill-opacity="0.14"/>
<path d="M40.2479 1019.37L0.702462 999.389L0.703488 995.795L40.2479 1015.78L40.2479 1019.37Z" fill="white" fill-opacity="0.14"/>
<path d="M40.2479 1009.35L0.701457 989.364L0.701462 985.771L40.2479 1005.76L40.2479 1009.35Z" fill="white" fill-opacity="0.14"/>
<path d="M40.2479 999.328L0.702462 979.342L0.702471 975.749L40.2479 995.735L40.2479 999.328Z" fill="white" fill-opacity="0.14"/>
<path d="M40.2479 989.304L0.703481 969.318L0.702479 965.723L40.2479 985.711L40.2479 989.304Z" fill="white" fill-opacity="0.14"/>
<path d="M40.248 979.281L0.701486 959.294L0.701493 955.701L40.2479 975.688L40.248 979.281Z" fill="white" fill-opacity="0.14"/>
<path d="M40.248 969.257L0.702495 949.272L0.703493 945.677L40.2479 965.664L40.248 969.257Z" fill="white" fill-opacity="0.14"/>
<path d="M40.2479 959.234L0.701451 939.247L0.70146 935.654L40.2479 955.641L40.2479 959.234Z" fill="white" fill-opacity="0.14"/>
<path d="M40.2479 949.211L0.702462 929.225L0.702471 925.632L40.2479 945.617L40.2479 949.211Z" fill="white" fill-opacity="0.14"/>
<path d="M40.2479 939.187L0.702462 919.201L0.702471 915.608L40.2479 935.594L40.2479 939.187Z" fill="white" fill-opacity="0.14"/>
<path d="M40.2479 929.164L0.701457 909.177L0.701462 905.584L40.2479 925.571L40.2479 929.164Z" fill="white" fill-opacity="0.14"/>
<path d="M40.2479 919.14L0.703479 899.153L0.70247 895.561L40.2479 915.547L40.2479 919.14Z" fill="white" fill-opacity="0.14"/>
<path d="M40.2479 909.109L0.701457 889.122L0.701462 885.529L40.2479 905.516L40.2479 909.109Z" fill="white" fill-opacity="0.14"/>
<path d="M40.2479 899.086L0.702465 879.1L0.702474 875.507L40.2479 895.492L40.2479 899.086Z" fill="white" fill-opacity="0.14"/>
<path d="M40.2469 889.063L0.702477 869.076L0.702455 865.483L40.2479 885.469L40.2469 889.063Z" fill="white" fill-opacity="0.14"/>
<path d="M40.2479 879.039L0.702477 859.053L0.702455 855.46L40.2479 875.446L40.2479 879.039Z" fill="white" fill-opacity="0.14"/>
<path d="M40.2479 869.015L0.703479 849.028L0.703487 845.435L40.2479 865.422L40.2479 869.015Z" fill="white" fill-opacity="0.14"/>
<path d="M40.2479 858.992L0.701471 839.005L0.701462 835.412L40.2479 855.399L40.2479 858.992Z" fill="white" fill-opacity="0.14"/>
<path d="M40.2479 848.968L0.702477 828.983L0.702471 825.389L40.2479 845.375L40.2479 848.968Z" fill="white" fill-opacity="0.14"/>
<path d="M40.2469 838.946L0.701471 818.958L0.701478 815.365L40.2479 835.352L40.2469 838.946Z" fill="white" fill-opacity="0.14"/>
<path d="M40.2479 828.922L0.701466 808.935L0.701475 805.342L40.2469 825.327L40.2479 828.922Z" fill="white" fill-opacity="0.14"/>
<path d="M40.2479 818.898L0.703495 798.911L0.703491 795.318L40.2479 815.305L40.2479 818.898Z" fill="white" fill-opacity="0.14"/>
<path d="M40.2479 808.875L0.701454 788.888L0.701465 785.295L40.2479 805.282L40.2479 808.875Z" fill="white" fill-opacity="0.14"/>
<path d="M40.2479 798.851L0.702465 778.865L0.702474 775.272L40.2479 795.258L40.2479 798.851Z" fill="white" fill-opacity="0.14"/>
<path d="M40.2479 788.82L0.702477 768.834L0.702471 765.241L40.2479 785.227L40.2479 788.82Z" fill="white" fill-opacity="0.14"/>
<path d="M40.2479 778.804L0.701471 758.818L0.701462 755.224L40.2469 775.21L40.2479 778.804Z" fill="white" fill-opacity="0.14"/>
<path d="M40.2479 768.773L0.703479 748.786L0.703487 745.193L40.2479 765.18L40.2479 768.773Z" fill="white" fill-opacity="0.14"/>
<path d="M40.2479 758.75L0.701457 738.763L0.701465 735.17L40.2479 755.157L40.2479 758.75Z" fill="white" fill-opacity="0.14"/>
<path d="M40.2479 748.726L0.70247 728.74L0.702476 725.147L40.2479 745.133L40.2479 748.726Z" fill="white" fill-opacity="0.14"/>
<path d="M40.2479 738.703L0.701471 718.716L0.701465 715.123L40.2479 735.11L40.2479 738.703Z" fill="white" fill-opacity="0.14"/>
<path d="M40.2479 728.679L0.701471 708.693L0.701462 705.099L40.2469 725.085L40.2479 728.679Z" fill="white" fill-opacity="0.14"/>
<path d="M40.2479 718.656L0.703479 698.669L0.703487 695.076L40.2479 715.063L40.2479 718.656Z" fill="white" fill-opacity="0.14"/>
<path d="M40.2479 708.633L0.701471 688.646L0.701478 685.052L40.2479 705.039L40.2479 708.633Z" fill="white" fill-opacity="0.14"/>
<path d="M40.2479 698.609L0.702477 678.623L0.702486 675.03L40.2479 695.016L40.2479 698.609Z" fill="white" fill-opacity="0.14"/>
<path d="M40.2479 688.586L0.70248 668.6L0.701462 665.006L40.2479 684.992L40.2479 688.586Z" fill="white" fill-opacity="0.14"/>
<path d="M40.2479 678.562L0.701471 658.575L0.701462 654.982L40.2469 674.968L40.2479 678.562Z" fill="white" fill-opacity="0.14"/>
<path d="M40.2479 668.539L0.703479 648.552L0.703472 644.959L40.2479 664.946L40.2479 668.539Z" fill="white" fill-opacity="0.14"/>
<path d="M40.2479 658.508L0.701471 638.521L0.701462 634.927L40.2479 654.914L40.2479 658.508Z" fill="white" fill-opacity="0.14"/>
<path d="M40.2479 648.484L0.702477 628.498L0.702471 624.905L40.2479 644.891L40.2479 648.484Z" fill="white" fill-opacity="0.14"/>
<path d="M40.2479 638.461L0.701457 618.474L0.701462 614.881L40.2479 634.867L40.2479 638.461Z" fill="white" fill-opacity="0.14"/>
<path d="M40.2479 628.437L0.702477 608.451L0.702478 604.858L40.2479 624.844L40.2479 628.437Z" fill="white" fill-opacity="0.14"/>
<path d="M40.2479 618.414L0.703489 598.427L0.703475 594.834L40.2479 614.821L40.2479 618.414Z" fill="white" fill-opacity="0.14"/>
<path d="M40.2479 608.39L0.701463 588.403L0.701471 584.81L40.2479 604.797L40.2479 608.39Z" fill="white" fill-opacity="0.14"/>
<path d="M40.2479 598.367L0.702472 578.381L0.702471 574.788L40.2479 594.774L40.2479 598.367Z" fill="white" fill-opacity="0.14"/>
</svg>
