<svg width="44" height="34" viewBox="0 0 44 34" fill="none" xmlns="http://www.w3.org/2000/svg">
<path d="M4.3589 30.6028C1.94219 27.9445 0.492188 25.0445 0.492188 20.2111C0.492188 11.7528 6.5339 4.26113 14.9922 0.394531L17.1672 3.53613C9.1922 7.88613 7.5005 13.4445 7.0172 17.0695C8.2255 16.3445 9.9172 16.1028 11.6089 16.3445C15.9589 16.8278 19.3422 20.2111 19.3422 24.8028C19.3422 26.9778 18.3755 29.1528 16.9255 30.8445C15.2339 32.5361 13.3005 33.2611 10.8839 33.2611C8.2255 33.2611 5.8089 32.0528 4.3589 30.6028ZM28.5255 30.6028C26.1089 27.9445 24.6589 25.0445 24.6589 20.2111C24.6589 11.7528 30.7005 4.26113 39.1589 0.394531L41.3339 3.53613C33.3589 7.88613 31.6672 13.4445 31.1839 17.0695C32.3922 16.3445 34.0839 16.1028 35.7755 16.3445C40.1255 16.8278 43.5089 20.2111 43.5089 24.8028C43.5089 26.9778 42.5422 29.1528 41.0922 30.8445C39.6422 32.5361 37.4672 33.2611 35.0505 33.2611C32.3922 33.2611 29.9755 32.0528 28.5255 30.6028Z" fill="#F1FFEE"/>
</svg>
