<svg width="30" height="30" viewBox="0 0 30 30" fill="none" xmlns="http://www.w3.org/2000/svg">
<path fill-rule="evenodd" clip-rule="evenodd" d="M9.21463 27.0467L9.4608 27.4817C9.46104 27.4821 9.46121 27.4826 9.46145 27.4829C9.73574 27.9708 9.56169 28.5933 9.07669 28.8673L8.03633 29.4569C8.03586 29.4572 8.03539 29.4574 8.03492 29.4577C7.54704 29.732 6.92457 29.5579 6.65045 29.0726L3.59127 23.6671C3.31445 23.1787 3.48857 22.5556 3.97421 22.2813L5.01574 21.6916L5.01616 21.6914C5.50163 21.4172 6.12439 21.5894 6.40086 22.0749L6.40145 22.076L6.59116 22.4111L9.22645 20.8854C10.0715 20.3967 10.9363 20.0847 11.8644 20.386C12.7372 20.6691 14.1619 21.2798 15.6161 21.5426C15.6369 21.5463 15.6573 21.5515 15.6774 21.558C16.4658 21.8133 16.9428 22.6116 16.7276 23.4122C16.7163 23.4542 16.7037 23.4951 16.69 23.5351C16.7685 23.5023 16.8461 23.4636 16.923 23.4187L20.6325 21.2583C22.0243 20.4474 22.9544 20.5522 23.4796 20.9046C23.9447 21.2166 24.1622 21.7483 24.1483 22.2713C24.1342 22.8006 23.8789 23.3046 23.4637 23.5603L16.7329 27.7044C16.0001 28.1567 15.1975 28.2632 14.366 28.0414L14.3655 28.0412L9.6711 26.7832L9.21463 27.0467ZM8.64116 27.9443L5.58286 22.5404L5.58239 22.5396C5.56133 22.5039 5.51527 22.4904 5.4791 22.5109L4.43792 23.1003L4.43751 23.1005C4.40163 23.1208 4.38963 23.167 4.4101 23.203L4.41022 23.2033L7.46957 28.6091L7.46974 28.6094C7.49027 28.6457 7.53698 28.6577 7.57345 28.6374L8.61257 28.0484L8.61321 28.0481C8.64951 28.0276 8.66151 27.9809 8.64116 27.9443ZM8.75104 26.2276L9.36933 25.8706C9.47739 25.8082 9.60586 25.7913 9.72645 25.8236L14.6087 27.132C15.1811 27.2847 15.7341 27.2148 16.2386 26.9035L16.239 26.9032L22.9702 22.7589C23.1309 22.6599 23.202 22.4511 23.2075 22.2463C23.2242 21.6173 22.5885 21.208 21.1062 22.0716L17.3969 24.2319C16.7809 24.5909 16.1355 24.6909 15.4319 24.5789C15.4313 24.5787 15.4308 24.5787 15.4303 24.5786L14.9705 24.5038C14.9703 24.5037 14.9701 24.5037 14.9699 24.5037C14.9635 24.5026 14.9572 24.5014 14.9509 24.5002C14.9506 24.5002 14.9504 24.5001 14.9502 24.5C14.1112 24.3278 13.3329 24.0744 12.4693 23.8424C12.2185 23.775 12.0696 23.5166 12.137 23.2658C12.2044 23.015 12.4628 22.8661 12.7136 22.9334C13.5514 23.1586 14.3068 23.4057 15.12 23.5741C15.4738 23.6117 15.737 23.4719 15.8186 23.168L15.8186 23.1679C15.9006 22.8632 15.7077 22.5704 15.4132 22.4623C13.9244 22.1877 12.4678 21.5711 11.574 21.2813L11.5737 21.2812C10.9092 21.0654 10.3027 21.3502 9.69769 21.7002L7.05474 23.2303L8.75104 26.2276ZM5.2811 23.0586C5.51722 23.0234 5.73651 23.1864 5.77163 23.4226C5.80533 23.6587 5.64233 23.8793 5.40621 23.913C5.1701 23.9482 4.95086 23.7837 4.91569 23.5476C4.88198 23.3116 5.04504 23.0923 5.2811 23.0586ZM8.42186 13.8132V1.63027C8.42186 0.96015 8.97039 0.411621 9.64051 0.411621H25.3232C25.9935 0.411621 26.5409 0.959974 26.5409 1.63027V13.8132C26.5409 14.482 25.9936 15.0309 25.3232 15.0309H23.5828V15.5032C23.5828 15.6979 23.4629 15.8725 23.2813 15.9424C23.2813 15.9424 22.5729 16.215 22.573 16.215C22.4639 16.5916 22.3129 16.9545 22.1238 17.298L22.4317 17.9931C22.5105 18.1709 22.4717 18.3789 22.3342 18.5164L21.2571 19.5935C21.1196 19.731 20.9116 19.7698 20.7337 19.691L20.0395 19.3834C19.6963 19.5732 19.3326 19.7236 18.9556 19.8324L18.6831 20.5406C18.6132 20.7223 18.4386 20.8421 18.2439 20.8421H16.7203C16.5257 20.8421 16.3511 20.7223 16.2812 20.5406C16.2812 20.5406 16.0086 19.8324 16.0087 19.8325C15.631 19.7234 15.2677 19.5723 14.924 19.3831L14.229 19.691C14.0512 19.7698 13.8432 19.731 13.7056 19.5935L12.6286 18.5164C12.4909 18.3787 12.4522 18.1704 12.5313 17.9924C12.5313 17.9924 12.8399 17.2984 12.8399 17.2984C12.6503 16.9555 12.4998 16.592 12.3903 16.2152L11.6815 15.9424C11.4997 15.8725 11.3799 15.6979 11.3799 15.5032V15.0309H9.64051C8.97022 15.0309 8.42186 14.4819 8.42186 13.8132ZM25.5997 3.08086V1.63027C25.5997 1.47786 25.4756 1.3528 25.3232 1.3528H9.64051C9.48792 1.3528 9.36304 1.47768 9.36304 1.63027V3.08086H25.5997ZM23.5828 14.0897H25.3232C25.4754 14.0897 25.5997 13.965 25.5997 13.8132V4.02203H9.36304V13.8132C9.36304 13.9652 9.4881 14.0897 9.64051 14.0897H11.3799V13.9797C11.3799 13.785 11.4997 13.6104 11.6815 13.5405C11.6815 13.5405 12.3902 13.2677 12.3901 13.2678C12.4997 12.8902 12.6503 12.5269 12.84 12.1833L12.5313 11.4889C12.4522 11.311 12.4909 11.1027 12.6286 10.965L13.7056 9.88792C13.8433 9.75021 14.0516 9.7115 14.2296 9.79062L14.9239 10.0994C15.2676 9.90962 15.6306 9.75921 16.0073 9.65044L16.2813 8.94039C16.3513 8.75891 16.5258 8.63921 16.7203 8.63921H18.2439C18.4387 8.63921 18.6133 8.75921 18.6832 8.94103L18.9558 9.65056C19.3324 9.75933 19.6953 9.90974 20.0388 10.0994L20.7332 9.79062C20.9111 9.7115 21.1194 9.75021 21.2571 9.88792L22.3342 10.965C22.4717 11.1025 22.5105 11.3105 22.4317 11.4883C22.4317 11.4883 22.124 12.1829 22.124 12.1829C22.3139 12.5267 22.4644 12.8902 22.5732 13.268L23.2813 13.5405C23.4629 13.6104 23.5828 13.785 23.5828 13.9797V14.0897ZM18.1636 10.213L17.9206 9.58039H17.0432L16.7988 10.2136C16.743 10.3583 16.6195 10.4662 16.4686 10.502C16.0203 10.6086 15.5927 10.7857 15.1997 11.0279C15.0675 11.1093 14.9036 11.1203 14.7616 11.0572L14.1426 10.782L13.5226 11.4019L13.7979 12.021C13.861 12.1629 13.85 12.3268 13.7685 12.459C13.5262 12.8524 13.349 13.2803 13.2409 13.7304C13.2048 13.881 13.0969 14.0042 12.9524 14.0599L12.3211 14.3028V15.1801L12.9524 15.4231C13.0968 15.4787 13.2046 15.6017 13.2409 15.7521C13.3489 16.2007 13.5259 16.6299 13.7682 17.0217C13.85 17.154 13.8611 17.3183 13.7979 17.4604L13.5226 18.0794L14.1429 18.6997L14.7622 18.4254C14.9036 18.3628 15.0668 18.3736 15.1987 18.4544C15.5919 18.6954 16.0197 18.8741 16.4698 18.9808C16.621 19.0166 16.7447 19.1247 16.8005 19.2697L17.0435 19.901H17.9208L18.1637 19.2697C18.2195 19.1248 18.3431 19.0167 18.4941 18.9809C18.9422 18.8744 19.371 18.6974 19.7624 18.4554C19.8945 18.3737 20.0585 18.3625 20.2005 18.4254L20.8198 18.6997L21.4404 18.0791L21.1661 17.4598C21.1035 17.3184 21.1143 17.1553 21.1951 17.0234C21.436 16.63 21.6149 16.2022 21.7215 15.7534C21.7575 15.6024 21.8655 15.4789 22.0103 15.4231L22.6416 15.1801V14.3028L22.0103 14.0599C21.8654 14.004 21.7573 13.8803 21.7215 13.7291C21.6149 13.2795 21.4378 12.852 21.1957 12.459C21.1143 12.327 21.1033 12.1634 21.1661 12.0216L21.4404 11.4023L20.8202 10.782L20.201 11.0572C20.0592 11.1203 19.8952 11.1093 19.763 11.0279C19.37 10.7857 18.9424 10.6086 18.4941 10.502C18.343 10.4662 18.2193 10.358 18.1636 10.213ZM17.4813 11.6127C19.2096 11.6127 20.6109 13.0124 20.6109 14.7407C20.6109 16.4689 19.2096 17.8702 17.4813 17.8702C15.7531 17.8702 14.3533 16.469 14.3533 14.7407C14.3533 13.0123 15.753 11.6127 17.4813 11.6127ZM17.4813 12.5539C16.273 12.5539 15.2945 13.5324 15.2945 14.7407C15.2945 15.9491 16.273 16.929 17.4813 16.929C18.6898 16.929 19.6697 15.9492 19.6697 14.7407C19.6697 13.5323 18.6897 12.5539 17.4813 12.5539ZM14.278 2.65321C14.0376 2.65321 13.8412 2.45786 13.8412 2.21733C13.8412 1.9768 14.0376 1.78044 14.278 1.78044C14.5186 1.78044 14.7149 1.9768 14.7149 2.21733C14.7149 2.45786 14.5186 2.65321 14.278 2.65321ZM10.9256 2.65321C10.685 2.65321 10.4887 2.45786 10.4887 2.21733C10.4887 1.9768 10.685 1.78044 10.9256 1.78044C11.166 1.78044 11.3624 1.9768 11.3624 2.21733C11.3624 2.45786 11.166 2.65321 10.9256 2.65321ZM12.6023 2.65321C12.3618 2.65321 12.1655 2.45786 12.1655 2.21733C12.1655 1.9768 12.3618 1.78044 12.6023 1.78044C12.8428 1.78044 13.0382 1.9768 13.0382 2.21733C13.0382 2.45786 12.8428 2.65321 12.6023 2.65321Z" fill="#9EFF8C"/>
</svg>
