<svg width="50" height="50" viewBox="0 0 50 50" fill="none" xmlns="http://www.w3.org/2000/svg">
<g clip-path="url(#clip0_218_285)">
<path d="M4.6361 -0.0147144C4.7675 -0.0159094 4.7675 -0.0159094 4.90155 -0.0171286C4.9974 -0.0175103 5.09325 -0.017892 5.19201 -0.0182852C5.3452 -0.0194439 5.3452 -0.0194439 5.5015 -0.020626C5.84484 -0.0230798 6.18819 -0.0248248 6.53153 -0.0265539C6.77727 -0.0281245 7.02301 -0.0297241 7.26875 -0.0313505C9.51156 -0.0454723 11.7544 -0.0528305 13.9973 -0.0585887C14.2973 -0.0593727 14.5974 -0.0601704 14.8975 -0.0609815C14.9721 -0.0611824 15.0467 -0.0613834 15.1235 -0.0615904C16.3312 -0.0649506 17.5389 -0.072045 18.7466 -0.0806014C19.9872 -0.089318 21.2277 -0.094325 22.4684 -0.0958252C23.1647 -0.0967672 23.8609 -0.0993705 24.5572 -0.106207C25.2124 -0.112638 25.8674 -0.114098 26.5227 -0.112213C26.7629 -0.112326 27.0032 -0.114107 27.2434 -0.117696C29.1524 -0.144747 29.1524 -0.144747 29.6503 0.212326C29.8971 0.45477 30.0844 0.687883 30.273 0.976592C30.3771 1.09816 30.4825 1.21855 30.5904 1.3367C30.6435 1.39876 30.6966 1.46082 30.7514 1.52476C31.0368 1.84892 31.3326 2.16304 31.628 2.47806C32.0846 2.96521 32.5364 3.45579 32.9815 3.95358C33.2935 4.3001 33.6103 4.6422 33.9269 4.98453C34.3466 5.43819 34.7645 5.89336 35.1818 6.34921C35.3655 6.54994 35.5497 6.7503 35.7341 6.95041C35.7814 7.00176 35.8287 7.05311 35.8774 7.10602C36.0077 7.24762 36.1381 7.38913 36.2686 7.53062C36.3525 7.62365 36.4365 7.71668 36.523 7.81253C36.5977 7.88064 36.5977 7.88064 36.6738 7.95013C37.0126 8.28346 37.1487 8.53228 37.1779 9.01031C37.1789 9.21315 37.1768 9.41602 37.172 9.61881C37.1718 9.73006 37.1716 9.84131 37.1714 9.95594C37.1706 10.1969 37.1684 10.4379 37.1651 10.6788C37.16 11.0612 37.1587 11.4434 37.1585 11.8258C37.1575 12.7759 37.1506 13.726 37.1418 14.6761C37.1346 15.4786 37.1304 16.281 37.1307 17.0835C37.1296 17.4584 37.124 17.8331 37.1182 18.208C37.1109 19.5493 37.1979 20.3915 37.9879 21.4844C39.2571 24.0166 39.4335 27.1309 38.6002 29.8199C38.3681 30.5075 38.0783 31.1692 37.7925 31.836C38.3404 32.3838 38.8883 32.9317 39.4527 33.4961C39.5494 33.4317 39.6461 33.3672 39.7457 33.3008C40.0673 33.2387 40.2195 33.2175 40.5269 33.3008C40.733 33.4505 40.733 33.4505 40.9537 33.6571C41.0395 33.7373 41.1253 33.8175 41.2137 33.9001C41.3105 33.9931 41.4071 34.0863 41.5035 34.1797C41.5809 34.2547 41.5809 34.2547 41.6599 34.3312C42.0834 34.7433 42.5023 35.1598 42.9206 35.577C42.9868 35.6429 43.0529 35.7087 43.121 35.7766C43.4703 36.1244 43.8194 36.4726 44.1682 36.8209C44.526 37.1783 44.8848 37.5347 45.2438 37.8909C45.5222 38.1675 45.7999 38.4447 46.0775 38.7221C46.2094 38.8538 46.3416 38.9851 46.474 39.1163C47.66 40.2915 48.7225 41.4055 48.7545 43.1702C48.7371 44.3486 48.3665 45.3233 47.5696 46.1979C46.6587 47.0517 45.5521 47.4153 44.3187 47.3877C42.0208 47.1846 40.5055 45.1095 38.9888 43.5852C38.8154 43.4113 38.642 43.2374 38.4685 43.0636C38.0476 42.6416 37.627 42.2194 37.2066 41.7969C37.2064 41.8939 37.2064 41.8939 37.2062 41.9929C37.2043 42.6711 37.1989 43.3492 37.1917 44.0273C37.1895 44.2798 37.188 44.5323 37.1875 44.7848C37.1866 45.1495 37.1826 45.514 37.178 45.8786C37.1784 45.9901 37.1788 46.1015 37.1792 46.2163C37.1596 47.3128 36.8243 48.2288 36.0588 49.0261C35.1377 49.835 34.2661 50.0293 33.0711 50.0261C32.9485 50.0266 32.8259 50.027 32.6995 50.0275C32.3598 50.0287 32.0201 50.0287 31.6803 50.0284C31.3137 50.0284 30.947 50.0295 30.5803 50.0304C29.8622 50.032 29.144 50.0326 28.4258 50.0327C27.842 50.0328 27.2581 50.0331 26.6742 50.0338C25.0182 50.0355 23.3621 50.0364 21.7061 50.0362C21.6168 50.0362 21.5276 50.0362 21.4356 50.0362C21.3462 50.0362 21.2569 50.0362 21.1648 50.0362C19.7168 50.0361 18.2689 50.038 16.8209 50.0407C15.3336 50.0435 13.8462 50.0449 12.3589 50.0447C11.5241 50.0447 10.6893 50.0452 9.85449 50.0473C9.14366 50.0491 8.43284 50.0495 7.72201 50.0482C7.35954 50.0475 6.9971 50.0475 6.63463 50.0492C6.24112 50.051 5.84768 50.0498 5.45417 50.0483C5.34039 50.0493 5.2266 50.0503 5.10936 50.0514C3.98543 50.0419 3.11866 49.6744 2.2884 48.9136C1.52314 48.1229 1.23757 47.0826 1.24399 46.0046C1.24364 45.9305 1.2433 45.8565 1.24295 45.7802C1.24204 45.5329 1.24252 45.2857 1.243 45.0385C1.24263 44.859 1.24218 44.6796 1.24165 44.5002C1.24046 44.0078 1.24049 43.5154 1.24072 43.0231C1.24076 42.4918 1.23968 41.9605 1.23875 41.4292C1.23713 40.3885 1.23659 39.3478 1.23648 38.3071C1.23639 37.461 1.23599 36.615 1.23537 35.769C1.23365 33.3698 1.23275 30.9707 1.2329 28.5715C1.2329 28.5069 1.2329 28.4422 1.23291 28.3756C1.23292 28.2449 1.23292 28.1142 1.23293 27.9835C1.23305 25.9504 1.23159 23.9172 1.22891 21.8841C1.22591 19.5987 1.22424 17.3134 1.22441 15.028C1.22448 13.8184 1.22394 12.6088 1.22184 11.3992C1.22006 10.3692 1.21964 9.33932 1.22096 8.30937C1.2216 7.7841 1.22161 7.25884 1.21992 6.73357C1.21838 6.25218 1.21866 5.77083 1.22036 5.28945C1.22066 5.11582 1.22031 4.9422 1.21922 4.76857C1.21151 3.45483 1.28815 2.17355 2.24567 1.1719C2.91781 0.494193 3.65719 -0.00833692 4.6361 -0.0147144ZM3.41755 2.34378C2.98841 2.91803 2.91467 3.43986 2.91616 4.13744C2.91593 4.21048 2.9157 4.28352 2.91546 4.35876C2.91481 4.60487 2.91486 4.85097 2.9149 5.09708C2.91457 5.27476 2.91421 5.45245 2.91381 5.63013C2.91283 6.1195 2.91247 6.60887 2.91221 7.09824C2.91183 7.62561 2.91089 8.15299 2.91004 8.68036C2.90811 9.95449 2.90712 11.2286 2.90626 12.5027C2.90583 13.1026 2.9053 13.7024 2.90479 14.3022C2.90313 16.2959 2.90171 18.2895 2.90101 20.2832C2.90082 20.8006 2.90063 21.3181 2.90044 21.8355C2.9004 21.9641 2.90035 22.0927 2.9003 22.2252C2.89949 24.3091 2.89701 26.393 2.89384 28.4769C2.89061 30.6158 2.88885 32.7546 2.88854 34.8935C2.88833 36.0947 2.88747 37.2958 2.88498 38.4969C2.88286 39.5198 2.88207 40.5426 2.88303 41.5655C2.88347 42.0873 2.88328 42.6092 2.88139 43.1311C2.87967 43.609 2.87976 44.0869 2.88128 44.5649C2.88151 44.7376 2.88109 44.9103 2.87993 45.083C2.84751 46.5131 2.84751 46.5131 3.48987 47.7461C4.27682 48.4791 5.20144 48.452 6.22045 48.4512C6.33631 48.4515 6.45217 48.4518 6.57154 48.4521C6.89234 48.4528 7.21313 48.4531 7.53394 48.4532C7.88024 48.4533 8.22654 48.4541 8.57284 48.4547C9.32969 48.4561 10.0865 48.4566 10.8434 48.4571C11.3162 48.4573 11.789 48.4578 12.2618 48.4582C13.5715 48.4594 14.8812 48.4604 16.191 48.4607C16.2747 48.4608 16.3585 48.4608 16.4448 48.4608C16.5708 48.4608 16.5708 48.4608 16.6993 48.4609C16.8694 48.4609 17.0396 48.4609 17.2097 48.461C17.2941 48.461 17.3785 48.461 17.4655 48.4611C18.8329 48.4614 20.2004 48.4631 21.5678 48.4654C22.9726 48.4677 24.3774 48.469 25.7822 48.4691C26.5707 48.4692 27.359 48.4697 28.1474 48.4715C28.8188 48.473 29.4901 48.4735 30.1614 48.4727C30.5037 48.4723 30.846 48.4724 31.1883 48.4738C31.56 48.475 31.9316 48.4744 32.3033 48.4734C32.4107 48.4742 32.518 48.475 32.6286 48.4758C33.3892 48.4709 34.0803 48.371 34.7469 47.9859C35.3843 47.2938 35.5526 46.5833 35.5684 45.6597C35.5706 45.5368 35.5728 45.4139 35.5751 45.2873C35.5825 44.729 35.5876 44.1706 35.5914 43.6122C35.5936 43.3176 35.5976 43.0232 35.6034 42.7288C35.6103 42.3716 35.6139 42.0145 35.6151 41.6573C35.6161 41.5218 35.6183 41.3864 35.6217 41.2509C35.6581 40.4928 35.6581 40.4928 35.3929 39.8066C35.2245 39.6392 35.0516 39.4988 34.8629 39.3555C34.7102 39.0501 34.7262 38.7129 34.7652 38.3789C34.8297 38.2823 34.8941 38.1856 34.9605 38.086C34.3804 37.5059 33.8004 36.9258 33.2027 36.3282C32.9167 36.449 32.6307 36.5699 32.336 36.6944C29.4045 37.8939 26.1767 37.9397 23.2418 36.7188C22.2069 36.2543 21.2885 35.678 20.4097 34.961C20.3462 34.9122 20.2826 34.8635 20.2171 34.8133C19.6778 34.3846 19.2661 33.8437 18.8472 33.3008C18.7877 33.2244 18.7281 33.148 18.6668 33.0693C17.9471 32.0971 17.4405 30.9999 17.0528 29.8584C17.0179 29.7566 17.0179 29.7566 16.9822 29.6526C16.0466 26.75 16.5368 23.5914 17.9012 20.929C19.3236 18.3806 21.6264 16.4923 24.424 15.6616C27.3968 14.8364 30.6132 15.0594 33.3248 16.5833C33.9723 16.9686 34.5639 17.4065 35.1558 17.8711C35.2847 17.9678 35.4136 18.0645 35.5465 18.1641C35.5465 15.3926 35.5465 12.6211 35.5465 9.76565C33.2822 9.74128 33.2822 9.74128 31.0179 9.71897C30.5796 9.71366 30.5796 9.71366 30.3742 9.71092C30.2311 9.7092 30.088 9.70785 29.9448 9.7068C29.7278 9.70513 29.5107 9.70227 29.2937 9.69914C29.1714 9.69783 29.0491 9.69653 28.9231 9.69519C28.6302 9.66952 28.4632 9.63634 28.2222 9.47269C28.0747 9.17753 28.1071 8.87097 28.1045 8.547C28.1036 8.47173 28.1026 8.39645 28.1016 8.31889C28.0985 8.06949 28.0961 7.82009 28.0937 7.57068C28.0917 7.39799 28.0896 7.2253 28.0875 7.05261C28.0821 6.59763 28.0773 6.14264 28.0726 5.68765C28.0677 5.22356 28.0623 4.75947 28.0569 4.29538C28.0464 3.38443 28.0365 2.47348 28.0269 1.56253C25.1183 1.55807 22.2097 1.55462 19.301 1.55256C18.9574 1.55231 18.6138 1.55206 18.2702 1.5518C18.2018 1.55175 18.1334 1.5517 18.063 1.55165C16.9562 1.5508 15.8495 1.54926 14.7428 1.54746C13.6067 1.54563 12.4706 1.54456 11.3345 1.54415C10.6966 1.5439 10.0587 1.5433 9.42073 1.54188C8.82014 1.54055 8.21954 1.54014 7.61895 1.54044C7.39869 1.54038 7.17843 1.54 6.95818 1.53925C6.65699 1.53827 6.35583 1.53851 6.05464 1.53904C5.92454 1.53819 5.92454 1.53819 5.79181 1.53732C4.86217 1.54174 4.09534 1.67059 3.41755 2.34378ZM29.6871 3.02737C29.6871 4.70315 29.6871 6.37894 29.6871 8.1055C31.234 8.1055 32.7808 8.1055 34.3746 8.1055C33.8693 7.43044 33.8693 7.43044 33.3065 6.83597C32.9652 6.50179 32.6441 6.16209 32.3337 5.79951C31.9904 5.40961 31.6326 5.03316 31.277 4.65441C30.8589 4.20829 30.4491 3.75622 30.0457 3.29669C29.8926 3.11632 29.8926 3.11632 29.6871 3.02737ZM25.0972 17.0899C25.0067 17.1182 25.0067 17.1182 24.9143 17.1471C23.3287 17.6522 22.0758 18.4655 20.898 19.6289C20.8353 19.6846 20.7726 19.7402 20.708 19.7975C19.2316 21.1366 18.2662 23.4235 18.1464 25.3799C18.108 27.263 18.2123 28.8499 19.0425 30.5664C19.0845 30.6542 19.1264 30.7419 19.1696 30.8323C20.3687 33.1799 22.4822 34.8731 24.9752 35.6812C25.1778 35.7371 25.3813 35.7902 25.5855 35.8399C25.6748 35.8618 25.764 35.8837 25.856 35.9062C28.2051 36.3859 30.8 35.9278 32.8243 34.6497C35.1062 33.1367 36.6711 31.0209 37.2512 28.3203C37.7289 25.6813 37.2116 23.1368 35.7418 20.8985C35.4661 20.5233 35.1738 20.1706 34.8629 19.8242C34.8031 19.7564 34.7433 19.6885 34.6817 19.6186C33.2271 18.0649 30.9528 16.8985 28.8143 16.7812C26.9314 16.7299 26.9314 16.7299 25.0972 17.0899ZM36.5169 33.5778C36.4361 33.6596 36.3553 33.7414 36.272 33.8257C36.1845 33.9138 36.097 34.0019 36.0069 34.0927C35.9144 34.1868 35.822 34.2809 35.7296 34.375C35.6364 34.4692 35.5432 34.5633 35.4499 34.6573C35.2213 34.8883 34.993 35.1198 34.7652 35.3516C34.8904 35.6269 35.0201 35.8255 35.2359 36.0367C35.3143 36.1141 35.3143 36.1141 35.3942 36.1931C35.4485 36.2457 35.5028 36.2984 35.5587 36.3526C35.6137 36.4067 35.6687 36.4608 35.7254 36.5166C35.8606 36.6495 35.9964 36.7819 36.1324 36.9141C36.6453 36.4859 37.1219 36.0344 37.5911 35.5591C37.6579 35.4919 37.7247 35.4247 37.7935 35.3554C37.9562 35.1916 38.1186 35.0276 38.2808 34.8633C37.9572 34.4806 37.6327 34.1027 37.2799 33.7464C37.2149 33.68 37.1499 33.6137 37.083 33.5453C36.8283 33.3244 36.7665 33.3556 36.5169 33.5778ZM38.7722 36.5496C38.6325 36.6861 38.4917 36.8216 38.3499 36.9559C38.1452 37.1499 37.9438 37.347 37.743 37.545C37.6795 37.6041 37.616 37.6631 37.5506 37.724C37.2491 38.0284 37.0552 38.2994 36.9896 38.729C37.0499 39.5357 37.8381 40.1131 38.3846 40.6426C38.5165 40.7736 38.6481 40.9048 38.7796 41.0363C39.0554 41.3108 39.3326 41.5836 39.6112 41.8552C39.967 42.2022 40.3199 42.5522 40.6717 42.9033C40.9435 43.1742 41.2164 43.4441 41.4896 43.7136C41.62 43.8422 41.7502 43.9711 41.8802 44.1002C42.0626 44.2809 42.2463 44.4602 42.4305 44.6392C42.4833 44.692 42.5362 44.7447 42.5907 44.7991C43.1586 45.3453 43.7809 45.6646 44.572 45.7119C45.3159 45.686 45.8798 45.4298 46.4164 44.9192C46.8866 44.3709 47.1082 43.7309 47.0966 43.0142C46.9479 41.6734 45.5702 40.6719 44.6754 39.7766C44.5477 39.6486 44.4199 39.5205 44.2922 39.3925C44.026 39.1257 43.7597 38.8591 43.4932 38.5927C43.151 38.2506 42.8096 37.9078 42.4683 37.5648C42.2055 37.3009 41.9422 37.0375 41.6789 36.7742C41.5527 36.6479 41.4266 36.5214 41.3008 36.3948C41.1257 36.2187 40.95 36.0433 40.7742 35.8681C40.7221 35.8155 40.67 35.7628 40.6163 35.7086C39.8968 34.9952 39.343 35.9886 38.7722 36.5496Z" fill="#014339"/>
<path d="M32.8002 19.9646C32.9686 20.1113 33.1356 20.2598 33.3007 20.4102C33.3697 20.4701 33.4387 20.53 33.5098 20.5917C34.9103 21.882 35.7795 23.8742 35.8775 25.7584C35.9502 28.2647 35.2623 30.3829 33.5265 32.2388C31.8411 33.8452 29.761 34.5406 27.4628 34.5184C25.5851 34.464 23.7503 33.8154 22.3632 32.5195C22.2824 32.4475 22.2016 32.3755 22.1183 32.3013C20.525 30.8104 19.7803 28.8638 19.6014 26.722C19.5329 24.4355 20.4131 22.2676 21.9726 20.6055C24.8821 17.8354 29.5936 17.3957 32.8002 19.9646ZM22.8515 22.168C21.8018 23.4126 21.1995 25.0395 21.2623 26.6743C21.4452 28.5844 22.2287 30.208 23.6999 31.4697C25.2679 32.6536 27.0761 33.0534 29.0142 32.7839C30.3499 32.5287 31.4783 31.8129 32.4218 30.8594C32.4827 30.8017 32.5437 30.7441 32.6064 30.6847C33.7742 29.4906 34.2313 27.795 34.2136 26.1715C34.1608 24.4283 33.3653 22.773 32.1059 21.5687C29.2761 19.1411 25.3867 19.5738 22.8515 22.168Z" fill="#014339"/>
<path d="M7.292 44.3723C7.39821 44.3716 7.50443 44.3709 7.61387 44.3702C7.97046 44.3684 8.32695 44.3702 8.68354 44.372C8.9389 44.3715 9.19426 44.3708 9.44962 44.3699C10.0716 44.3681 10.6935 44.3689 11.3155 44.3706C11.8209 44.372 12.3263 44.3724 12.8317 44.3721C12.9036 44.372 12.9755 44.372 13.0496 44.3719C13.1957 44.3718 13.3418 44.3717 13.4879 44.3716C14.7798 44.3708 16.0716 44.3724 17.3635 44.3753C18.6174 44.3781 19.8713 44.3788 21.1253 44.3773C22.4905 44.3757 23.8557 44.3753 25.2209 44.377C25.3664 44.3772 25.5119 44.3774 25.6574 44.3775C25.7648 44.3777 25.7648 44.3777 25.8744 44.3778C26.3793 44.3784 26.8842 44.378 27.3892 44.3774C28.0685 44.3765 28.7478 44.3778 29.4271 44.3805C29.6769 44.3812 29.9266 44.3812 30.1764 44.3805C30.5164 44.3796 30.8564 44.3812 31.1964 44.3833C31.3458 44.3821 31.3458 44.3821 31.4983 44.3809C32.1633 44.3888 32.1633 44.3888 32.4803 44.6141C32.6598 44.8902 32.7079 45.0807 32.7146 45.4102C32.5531 45.7841 32.4042 45.9435 32.031 46.0938C31.8182 46.1182 31.8182 46.1182 31.5829 46.1183C31.4929 46.1189 31.4029 46.1194 31.3102 46.1199C31.2116 46.1195 31.1131 46.119 31.0116 46.1186C30.9067 46.1189 30.8017 46.1192 30.6936 46.1195C30.3408 46.1203 29.988 46.1197 29.6352 46.119C29.3827 46.1193 29.1302 46.1196 28.8778 46.1201C28.2625 46.1209 27.6473 46.1208 27.0321 46.1202C26.5321 46.1197 26.0321 46.1197 25.5322 46.1199C25.4255 46.1199 25.4255 46.1199 25.3167 46.12C25.1722 46.1201 25.0278 46.1201 24.8833 46.1202C23.5282 46.1207 22.1731 46.1201 20.818 46.119C19.6549 46.1182 18.4917 46.1183 17.3286 46.1192C15.9784 46.1203 14.6282 46.1207 13.278 46.1201C13.1341 46.12 12.9901 46.12 12.8462 46.1199C12.7399 46.1199 12.7399 46.1199 12.6316 46.1198C12.1321 46.1196 11.6327 46.1199 11.1332 46.1204C10.4612 46.121 9.78922 46.1206 9.1172 46.1194C8.87013 46.1192 8.62305 46.1192 8.37598 46.1197C8.03957 46.1202 7.70319 46.1195 7.36679 46.1186C7.26826 46.119 7.16973 46.1194 7.06821 46.1199C6.97821 46.1194 6.88821 46.1189 6.79548 46.1183C6.71782 46.1183 6.64015 46.1183 6.56014 46.1182C6.31583 46.0901 6.16384 46.0304 5.95677 45.8985C5.71259 45.5322 5.70911 45.3556 5.76145 44.9219C6.17579 44.3234 6.62421 44.3645 7.292 44.3723Z" fill="#014339"/>
<path d="M7.02491 39.8307C7.09539 39.8305 7.16586 39.8303 7.23847 39.83C7.47583 39.8294 7.71318 39.8295 7.95054 39.8296C8.12023 39.8293 8.28992 39.829 8.45961 39.8286C8.92146 39.8277 9.3833 39.8275 9.84515 39.8274C10.2303 39.8273 10.6155 39.827 11.0006 39.8266C11.9091 39.8258 12.8176 39.8256 13.7261 39.8257C14.6642 39.8257 15.6022 39.8247 16.5402 39.8232C17.3448 39.8219 18.1493 39.8214 18.9539 39.8214C19.4348 39.8214 19.9157 39.8212 20.3965 39.8201C20.8488 39.8192 21.301 39.8192 21.7532 39.8199C21.9194 39.82 22.0855 39.8198 22.2516 39.8192C22.4781 39.8184 22.7046 39.8189 22.9311 39.8196C23.058 39.8196 23.1848 39.8195 23.3155 39.8195C23.6165 39.8425 23.779 39.868 24.0236 40.0391C24.2678 40.4053 24.2713 40.5819 24.2189 41.0156C23.9626 41.3489 23.8168 41.488 23.3989 41.5654C23.2711 41.5656 23.1433 41.5657 23.0116 41.5659C22.9401 41.5667 22.8687 41.5675 22.7951 41.5682C22.5561 41.5702 22.3173 41.5686 22.0783 41.5671C21.9068 41.5678 21.7353 41.5686 21.5638 41.5697C21.0983 41.5719 20.6329 41.5711 20.1674 41.5695C19.6803 41.5683 19.1932 41.5694 18.7061 41.5702C17.8881 41.5711 17.0702 41.5699 16.2522 41.5676C15.3064 41.5649 14.3607 41.5658 13.4149 41.5685C12.603 41.5707 11.791 41.571 10.9791 41.5697C10.4941 41.569 10.0092 41.5689 9.5242 41.5705C9.06825 41.5719 8.61237 41.5709 8.15643 41.5681C7.98908 41.5674 7.82172 41.5676 7.65438 41.5687C7.42592 41.57 7.19768 41.5684 6.96924 41.5659C6.84142 41.5657 6.7136 41.5656 6.5819 41.5654C6.16407 41.488 6.01899 41.3481 5.7619 41.0156C5.70697 40.6677 5.70697 40.6677 5.7619 40.3321C6.14423 39.8478 6.42747 39.8315 7.02491 39.8307Z" fill="#014339"/>
<path d="M8.07495 7.19607C8.18567 7.19324 8.29638 7.19041 8.41045 7.18749C9.16332 7.18185 9.93061 7.23725 10.5159 7.76554C10.9659 8.28942 10.9705 8.68277 10.9653 9.35443C10.9273 9.78258 10.8397 9.94479 10.5469 10.2539C10.3271 10.437 10.3271 10.437 10.1562 10.5469C10.2507 10.7374 10.3459 10.9271 10.4466 11.1144C10.7069 11.6067 10.8699 12.0968 11.0107 12.6343C11.0323 12.713 11.0538 12.7917 11.076 12.8727C11.2305 13.4456 11.2305 13.4456 11.2305 13.6719C10.7148 13.6719 10.1992 13.6719 9.66797 13.6719C9.41611 13.0842 9.24633 12.5391 9.08813 11.9248C8.97035 11.5601 8.97035 11.5601 8.69141 11.3282C8.43359 11.2637 8.17578 11.1992 7.91016 11.1328C7.91016 11.9707 7.91016 12.8086 7.91016 13.6719C7.39453 13.6719 6.87891 13.6719 6.34766 13.6719C6.34766 11.5772 6.34766 9.48245 6.34766 7.32425C6.93069 7.20764 7.48213 7.20105 8.07495 7.19607ZM7.91016 8.39847C7.91016 8.94632 7.91016 9.49417 7.91016 10.0586C8.67153 10.0764 8.67153 10.0764 9.27734 9.76565C9.48038 9.4611 9.50016 9.42021 9.46045 9.08206C9.45415 9.01559 9.44786 8.94913 9.44138 8.88064C9.34734 8.61258 9.2319 8.53398 8.98438 8.39847C8.70915 8.36321 8.70915 8.36321 8.42285 8.38016C8.25366 8.3862 8.08447 8.39224 7.91016 8.39847Z" fill="#014339"/>
<path d="M19.6289 7.22655C20.1445 7.22655 20.6602 7.22655 21.1914 7.22655C21.2236 8.03221 21.2559 8.83787 21.2891 9.66795C21.4361 9.44639 21.5831 9.22484 21.7346 8.99657C21.8264 8.86238 21.9182 8.72822 22.01 8.59412C22.1677 8.36034 22.2942 8.14391 22.4174 7.8884C22.572 7.58505 22.667 7.42078 22.9492 7.22655C23.5613 7.1106 24.1887 7.17116 24.8047 7.22655C24.6771 7.49708 24.5352 7.73152 24.3546 7.96965C24.2802 8.06822 24.2802 8.06822 24.2043 8.16878C24.1526 8.2365 24.101 8.30423 24.0479 8.37401C23.9727 8.47333 23.9727 8.47333 23.896 8.57466C23.795 8.7082 23.6938 8.84165 23.5926 8.97501C23.3443 9.30269 23.0979 9.63179 22.8516 9.96092C23.3177 10.8437 23.8292 11.6967 24.345 12.5511C24.3911 12.6276 24.4373 12.7041 24.4848 12.7829C24.5856 12.9491 24.6882 13.1142 24.7913 13.2789C24.9023 13.4765 24.9023 13.4765 24.9023 13.6719C24.3223 13.6719 23.7422 13.6719 23.1445 13.6719C23.0645 13.5295 22.9844 13.3871 22.9019 13.2404C22.7956 13.0526 22.6893 12.8648 22.583 12.677C22.5041 12.5364 22.5041 12.5364 22.4236 12.393C22.1698 11.9459 21.9239 11.5203 21.582 11.1328C21.3168 11.4354 21.2507 11.6316 21.2391 12.0315C21.2356 12.1272 21.2322 12.2229 21.2286 12.3215C21.2264 12.4207 21.2242 12.5199 21.2219 12.6221C21.2186 12.7228 21.2153 12.8235 21.2118 12.9272C21.2038 13.1754 21.1974 13.4236 21.1914 13.6719C20.6758 13.6719 20.1602 13.6719 19.6289 13.6719C19.6289 11.5449 19.6289 9.41795 19.6289 7.22655Z" fill="#014339"/>
<path d="M7.38418 17.1258C7.49888 17.1251 7.61357 17.1244 7.73174 17.1237C8.04552 17.1224 8.35919 17.1232 8.67296 17.1251C9.00161 17.1267 9.33025 17.1258 9.65891 17.1253C10.2107 17.1249 10.7624 17.1265 11.3141 17.1292C11.9518 17.1323 12.5894 17.1323 13.2271 17.1306C13.841 17.1291 14.4548 17.1297 15.0687 17.1314C15.3298 17.1321 15.5908 17.132 15.8519 17.1312C16.2164 17.1307 16.5808 17.1327 16.9453 17.1354C17.0537 17.1347 17.162 17.1341 17.2736 17.1334C17.3728 17.1347 17.4721 17.1359 17.5744 17.1372C17.6605 17.1375 17.7466 17.1378 17.8354 17.138C18.1454 17.2043 18.2614 17.3335 18.4573 17.5781C18.5549 17.9138 18.5549 17.9138 18.5549 18.2617C18.3824 18.5353 18.259 18.7026 17.969 18.8476C17.8154 18.8573 17.6615 18.8608 17.5076 18.8613C17.3616 18.8622 17.3616 18.8622 17.2126 18.863C17.1054 18.8631 16.9982 18.8633 16.8878 18.8634C16.7189 18.8641 16.7189 18.8641 16.5466 18.8648C16.1727 18.8663 15.7988 18.8669 15.425 18.8675C15.2313 18.8679 15.0377 18.8683 14.844 18.8687C14.3043 18.8699 13.7645 18.8706 13.2248 18.871C12.5268 18.8714 11.8288 18.8731 11.1309 18.8759C10.5914 18.8781 10.0519 18.879 9.51235 18.8792C9.19013 18.8793 8.86794 18.88 8.54573 18.8816C8.18614 18.8833 7.8266 18.8831 7.46701 18.8824C7.3604 18.8833 7.2538 18.8842 7.14397 18.8852C6.23454 18.8801 6.23454 18.8801 5.85961 18.5547C5.70635 18.2481 5.72758 18.0138 5.76196 17.6758C6.18028 17.0496 6.6989 17.1186 7.38418 17.1258Z" fill="#014339"/>
<path d="M7.38368 35.2899C7.49837 35.2892 7.61307 35.2885 7.73124 35.2878C8.04502 35.2864 8.35869 35.2873 8.67246 35.2892C9.00111 35.2908 9.32975 35.2899 9.6584 35.2894C10.2102 35.289 10.7619 35.2905 11.3136 35.2933C11.9513 35.2964 12.5889 35.2964 13.2266 35.2947C13.8405 35.2932 14.4543 35.2938 15.0682 35.2955C15.3293 35.2962 15.5903 35.2961 15.8514 35.2953C16.2159 35.2948 16.5803 35.2968 16.9448 35.2995C17.0532 35.2988 17.1615 35.2982 17.2731 35.2975C17.3723 35.2988 17.4716 35.3 17.5739 35.3013C17.66 35.3016 17.7461 35.3018 17.8349 35.3021C18.1449 35.3684 18.2609 35.4976 18.4568 35.7422C18.5544 36.0779 18.5544 36.0779 18.5544 36.4258C18.3507 36.7605 18.2444 36.8872 17.8708 37.0117C17.7143 37.0209 17.5575 37.0245 17.4008 37.0248C17.304 37.0252 17.2072 37.0256 17.1074 37.026C17.0013 37.026 16.8953 37.0259 16.786 37.0259C16.6182 37.0264 16.6182 37.0264 16.4471 37.0269C16.0765 37.0278 15.7058 37.028 15.3352 37.0281C15.0782 37.0284 14.8212 37.0288 14.5642 37.0291C14.0251 37.0297 13.486 37.0299 12.9468 37.0298C12.3237 37.0297 11.7006 37.0308 11.0775 37.0323C10.478 37.0338 9.87853 37.0341 9.27905 37.034C9.02398 37.0342 8.7689 37.0346 8.51383 37.0353C8.15751 37.0363 7.80122 37.036 7.4449 37.0354C7.28607 37.0363 7.28607 37.0363 7.12403 37.0371C7.02696 37.0367 6.92988 37.0363 6.82987 37.0359C6.70351 37.0359 6.70351 37.0359 6.5746 37.036C6.32213 37.009 6.16965 36.9538 5.95677 36.8164C5.71259 36.4501 5.70911 36.2736 5.76145 35.8398C6.18101 35.2141 6.69771 35.2827 7.38368 35.2899Z" fill="#014339"/>
<path d="M18.5548 7.42189C18.4581 7.84084 18.3614 8.25978 18.2618 8.69143C18.1148 8.6592 17.9677 8.62697 17.8162 8.59377C17.2029 8.47249 16.6912 8.41127 16.1134 8.69143C16.1134 8.88478 16.1134 9.07814 16.1134 9.27736C16.1725 9.30695 16.2317 9.33653 16.2927 9.36701C16.4653 9.45332 16.6377 9.54008 16.8099 9.62717C16.9889 9.71568 17.1694 9.8012 17.3516 9.88276C17.9777 10.1692 18.4365 10.5056 18.7501 11.1328C18.799 11.7618 18.8457 12.3641 18.4571 12.8906C17.922 13.4926 17.3067 13.7199 16.515 13.797C15.7921 13.8197 15.1437 13.6822 14.4532 13.4766C14.331 13.1302 14.3826 12.9177 14.4959 12.5733C14.524 12.4861 14.5521 12.399 14.581 12.3093C14.6033 12.2433 14.6256 12.1774 14.6485 12.1094C14.724 12.1305 14.7996 12.1517 14.8774 12.1735C15.8833 12.4535 15.8833 12.4535 16.8946 12.2986C17.1294 12.1126 17.1294 12.1126 17.1204 11.7493C17.1104 11.6425 17.1003 11.5358 17.0899 11.4258C16.8361 11.3232 16.582 11.2233 16.3251 11.1286C15.6129 10.8551 14.9535 10.5395 14.5322 9.87513C14.3389 9.36824 14.3943 8.77732 14.557 8.27028C15.5644 6.8729 17.0533 7.00287 18.5548 7.42189Z" fill="#014339"/>
<path d="M7.19603 30.746C7.32777 30.7453 7.32777 30.7453 7.46217 30.7445C7.75361 30.7431 8.04505 30.7424 8.3365 30.7419C8.53867 30.7413 8.74085 30.7408 8.94302 30.7402C9.36737 30.7392 9.79172 30.7386 10.2161 30.7383C10.7599 30.7377 11.3037 30.7354 11.8475 30.7326C12.2653 30.7308 12.6831 30.7303 13.1009 30.7301C13.3014 30.7298 13.5018 30.729 13.7023 30.7278C13.9829 30.7261 14.2633 30.7263 14.5439 30.7269C14.6682 30.7256 14.6682 30.7256 14.795 30.7242C15.2493 30.7274 15.5496 30.7586 15.9182 31.0547C16.071 31.3603 16.0839 31.7003 16.0159 32.0312C15.8546 32.2639 15.725 32.402 15.441 32.4585C15.2026 32.4736 14.9669 32.4757 14.7281 32.474C14.592 32.4752 14.592 32.4752 14.4532 32.4765C14.1532 32.4787 13.8534 32.4781 13.5535 32.4772C13.345 32.4777 13.1366 32.4783 12.9281 32.479C12.4911 32.48 12.0542 32.4796 11.6172 32.4782C11.0571 32.4765 10.4972 32.4788 9.93715 32.4822C9.50662 32.4844 9.07611 32.4842 8.64557 32.4834C8.43909 32.4833 8.23261 32.484 8.02614 32.4854C7.73739 32.4871 7.44882 32.4857 7.16007 32.4835C7.07478 32.4846 6.98949 32.4858 6.90161 32.487C6.47647 32.4803 6.30139 32.4608 5.95267 32.1956C5.76196 31.9336 5.76196 31.9336 5.70703 31.5857C5.76965 31.203 5.84936 31.0913 6.15259 30.8594C6.47676 30.6973 6.83956 30.7464 7.19603 30.746Z" fill="#014339"/>
<path d="M7.19603 21.664C7.32777 21.6632 7.32777 21.6632 7.46217 21.6625C7.75361 21.6611 8.04505 21.6604 8.3365 21.6599C8.53867 21.6593 8.74085 21.6587 8.94302 21.6582C9.36737 21.6571 9.79172 21.6566 10.2161 21.6562C10.7599 21.6557 11.3037 21.6533 11.8475 21.6506C12.2653 21.6487 12.6831 21.6482 13.1009 21.6481C13.3014 21.6478 13.5018 21.647 13.7023 21.6457C13.9829 21.6441 14.2633 21.6442 14.5439 21.6449C14.6682 21.6435 14.6682 21.6435 14.795 21.6422C15.2493 21.6454 15.5496 21.6766 15.9182 21.9727C16.071 22.2783 16.0839 22.6182 16.0159 22.9492C15.8546 23.1819 15.725 23.32 15.441 23.3765C15.2026 23.3916 14.9669 23.3937 14.7281 23.3919C14.592 23.3932 14.592 23.3932 14.4532 23.3945C14.1532 23.3967 13.8534 23.396 13.5535 23.3952C13.345 23.3957 13.1366 23.3963 12.9281 23.397C12.4911 23.398 12.0542 23.3976 11.6172 23.3961C11.0571 23.3945 10.4972 23.3967 9.93715 23.4002C9.50662 23.4023 9.07611 23.4022 8.64557 23.4014C8.43909 23.4013 8.23261 23.402 8.02614 23.4034C7.73739 23.4051 7.44882 23.4037 7.16007 23.4015C7.07478 23.4026 6.98949 23.4038 6.90161 23.4049C6.47647 23.3983 6.30139 23.3787 5.95267 23.1136C5.76196 22.8516 5.76196 22.8516 5.70703 22.5037C5.76965 22.121 5.84936 22.0092 6.15259 21.7773C6.47676 21.6153 6.83956 21.6644 7.19603 21.664Z" fill="#014339"/>
<path d="M26.3891 39.8265C26.5773 39.8246 26.5773 39.8246 26.7694 39.8227C26.9065 39.8219 27.0437 39.8212 27.1809 39.8205C27.2846 39.8199 27.2846 39.8199 27.3904 39.8193C27.7564 39.8173 28.1223 39.8159 28.4882 39.8149C28.8657 39.8139 29.2432 39.8105 29.6207 39.8066C29.9114 39.8041 30.2021 39.8033 30.4929 39.8029C30.632 39.8024 30.7712 39.8013 30.9103 39.7995C31.1052 39.7971 31.3002 39.7974 31.4951 39.7979C31.6059 39.7973 31.7167 39.7967 31.8308 39.7961C32.1973 39.8548 32.3581 39.9722 32.6168 40.2344C32.7307 40.6258 32.7567 40.8255 32.5863 41.1988C32.4215 41.4063 32.4215 41.4063 32.2262 41.5039C32.0179 41.5149 31.8092 41.5195 31.6006 41.5212C31.5365 41.5219 31.4723 41.5225 31.4062 41.5232C31.1935 41.5251 30.9809 41.5262 30.7682 41.5272C30.6593 41.5278 30.6593 41.5278 30.5482 41.5284C30.1641 41.5304 29.7799 41.5318 29.3957 41.5328C28.9988 41.5338 28.6019 41.5372 28.205 41.5411C27.8999 41.5436 27.5948 41.5444 27.2897 41.5448C27.1434 41.5453 26.997 41.5464 26.8507 41.5482C26.6459 41.5506 26.4412 41.5505 26.2364 41.5498C26.1199 41.5504 26.0034 41.551 25.8833 41.5516C25.5264 41.4945 25.4127 41.396 25.195 41.1133C25.1043 40.7477 25.1458 40.4234 25.3231 40.094C25.6411 39.7996 25.9769 39.8301 26.3891 39.8265Z" fill="#014339"/>
<path d="M11.9141 7.22656C12.4297 7.22656 12.9453 7.22656 13.4766 7.22656C13.4766 9.35352 13.4766 11.4805 13.4766 13.6719C12.9609 13.6719 12.4453 13.6719 11.9141 13.6719C11.9141 11.5449 11.9141 9.41797 11.9141 7.22656Z" fill="#014339"/>
<path d="M12.6162 26.2047C12.7305 26.204 12.7305 26.204 12.8471 26.2032C13.0076 26.2029 13.1682 26.2038 13.3287 26.2058C13.5738 26.2085 13.8184 26.2059 14.0635 26.2027C14.2199 26.2031 14.3763 26.2037 14.5327 26.2047C14.6056 26.2037 14.6784 26.2027 14.7535 26.2017C15.1403 26.2103 15.3163 26.2569 15.6237 26.499C15.8205 26.7578 15.8205 26.7578 15.8633 27.0569C15.8218 27.3355 15.7882 27.5061 15.6252 27.7343C15.2704 27.9762 14.9013 27.9596 14.4873 27.959C14.3793 27.9597 14.3793 27.9597 14.2692 27.9603C14.1172 27.9609 13.9653 27.9609 13.8134 27.9605C13.5817 27.9602 13.3501 27.9625 13.1184 27.9649C12.9705 27.9652 12.8225 27.9652 12.6746 27.9651C12.6057 27.966 12.5368 27.9669 12.4658 27.9679C12.0378 27.9639 11.7665 27.8995 11.426 27.6367C11.2728 27.3302 11.294 27.0958 11.3284 26.7578C11.6979 26.2639 12.0279 26.1967 12.6162 26.2047Z" fill="#014339"/>
<path d="M6.94299 26.2081C7.00833 26.2079 7.07368 26.2076 7.141 26.2074C7.27857 26.2075 7.41613 26.2088 7.55367 26.2112C7.76337 26.2146 7.97267 26.2133 8.18238 26.2114C8.31653 26.212 8.45068 26.213 8.58483 26.2142C8.706 26.2153 8.82716 26.2163 8.952 26.2174C9.33182 26.2782 9.49609 26.3909 9.76586 26.6602C9.87313 27.0215 9.81396 27.3521 9.63769 27.6794C9.20703 28.0782 8.523 27.9515 7.97467 27.9531C7.77747 27.9541 7.58038 27.9571 7.3832 27.9602C7.19589 27.961 7.19589 27.961 7.00478 27.9617C6.83345 27.9631 6.83345 27.9631 6.65865 27.9645C6.31607 27.9261 6.13372 27.842 5.85961 27.6367C5.70635 27.3302 5.72758 27.0958 5.76196 26.7578C6.12098 26.2933 6.36431 26.2078 6.94299 26.2081Z" fill="#014339"/>
</g>
<defs>
<clipPath id="clip0_218_285">
<rect width="50" height="50" fill="white"/>
</clipPath>
</defs>
</svg>
