<svg width="50" height="50" viewBox="0 0 50 50" fill="none" xmlns="http://www.w3.org/2000/svg">
<g clip-path="url(#clip0_318_512)">
<path d="M18.304 26.4697C15.4194 26.4697 13.0728 28.8164 13.0728 31.701V44.7735C13.0728 47.6581 15.4194 50.0048 18.304 50.0048C21.1886 50.0049 23.5353 47.6582 23.5353 44.7736V31.701C23.5353 28.8164 21.1886 26.4697 18.304 26.4697Z" fill="#FF4340"/>
<path d="M10.1431 26.4697H5.07861C2.28603 26.4697 0.0141602 28.7417 0.0141602 31.5342C0.0141602 34.3268 2.28613 36.5986 5.07861 36.5986C7.87109 36.5986 10.1431 34.3267 10.1431 31.5342V26.4697Z" fill="#FF4340"/>
<path d="M0 18.3084C0 21.193 2.34668 23.5396 5.23125 23.5396H18.3038C21.1885 23.5396 23.5352 21.193 23.5352 18.3084C23.5352 15.4238 21.1885 13.0771 18.3039 13.0771H5.23125C2.34668 13.0771 0 15.4238 0 18.3084Z" fill="#36C6FF"/>
<path d="M18.4707 10.1475H23.5352V5.08301C23.5352 2.29043 21.2632 0.0185547 18.4707 0.0185547C15.6781 0.0185547 13.4062 2.29053 13.4062 5.08301C13.4062 7.87549 15.6781 10.1475 18.4707 10.1475Z" fill="#36C6FF"/>
<path d="M31.6961 23.54C34.5807 23.54 36.9273 21.1934 36.9273 18.3088V5.23613C36.9274 2.35156 34.5807 0.00488281 31.6961 0.00488281C28.8115 0.00488281 26.4648 2.35156 26.4648 5.23613V18.3087C26.4648 21.1934 28.8115 23.54 31.6961 23.54Z" fill="#0DC46E"/>
<path d="M39.8569 23.54H44.9214C47.714 23.54 49.9858 21.2681 49.9858 18.4756C49.9858 15.683 47.7139 13.4111 44.9214 13.4111C42.1289 13.4111 39.8569 15.6831 39.8569 18.4756V23.54Z" fill="#0DC46E"/>
<path d="M50 31.701C50 28.8164 47.6533 26.4697 44.7688 26.4697H31.6961C28.8115 26.4697 26.4648 28.8164 26.4648 31.701C26.4648 34.5855 28.8115 36.9322 31.6961 36.9322H44.7687C47.6533 36.9323 50 34.5855 50 31.701Z" fill="#FDCB02"/>
<path d="M31.5293 39.8623H26.4648V44.9268C26.4648 47.7193 28.7368 49.9912 31.5293 49.9912C34.3219 49.9912 36.5938 47.7192 36.5938 44.9268C36.5938 42.1343 34.3219 39.8623 31.5293 39.8623Z" fill="#FDCB02"/>
</g>
<defs>
<clipPath id="clip0_318_512">
<rect width="50" height="50" fill="white" transform="translate(0 0.00488281)"/>
</clipPath>
</defs>
</svg>
