<svg width="50" height="50" viewBox="0 0 50 50" fill="none" xmlns="http://www.w3.org/2000/svg">
<g clip-path="url(#clip0_218_279)">
<path d="M31.0514 5.70634C33.7504 8.10937 35.7721 11.1376 36.7188 14.6484C36.7777 14.6521 36.8366 14.6557 36.8973 14.6595C37.6988 14.7254 37.6988 14.7254 37.9883 15.039C38.0975 15.3666 38.0977 15.6117 38.0971 15.9569C38.0971 16.0198 38.0971 16.0827 38.0971 16.1476C38.097 16.3552 38.0963 16.5629 38.0955 16.7705C38.0953 16.9146 38.0952 17.0587 38.0951 17.2028C38.0947 17.5818 38.0938 17.9609 38.0927 18.3399C38.0917 18.7268 38.0912 19.1137 38.0907 19.5005C38.0897 20.2595 38.088 21.0184 38.086 21.7773C38.1793 21.7762 38.2727 21.7752 38.3688 21.774C39.2482 21.7641 40.1276 21.7568 41.007 21.752C41.4592 21.7495 41.9112 21.746 42.3634 21.7405C42.7996 21.7352 43.2359 21.7323 43.6722 21.731C43.8387 21.7301 44.0051 21.7283 44.1716 21.7257C44.4048 21.7222 44.6377 21.7217 44.8709 21.7219C44.9743 21.7193 44.9743 21.7193 45.0797 21.7166C45.4106 21.7201 45.5816 21.7586 45.844 21.9643C46.0605 22.393 46.0478 22.7614 46.0405 23.2354C46.0405 23.3326 46.0406 23.4299 46.0407 23.53C46.0404 23.8508 46.0373 24.1715 46.0343 24.4922C46.0336 24.7149 46.033 24.9375 46.0326 25.1601C46.0311 25.7457 46.0273 26.3311 46.023 26.9166C46.019 27.5143 46.0172 28.1119 46.0152 28.7096C46.011 29.8819 46.0044 31.0542 45.9961 32.2265C46.1098 32.2255 46.2235 32.2244 46.3406 32.2233C46.4914 32.2225 46.6422 32.2216 46.793 32.2208C46.8678 32.2201 46.9425 32.2193 47.0195 32.2185C48.0357 32.2144 48.6266 32.45 49.392 33.1306C49.9929 33.8707 50.0573 34.5979 50.0521 35.527C50.053 35.6494 50.0538 35.7718 50.0547 35.8979C50.0565 36.2312 50.0566 36.5645 50.0557 36.8978C50.0552 37.1771 50.0559 37.4564 50.0567 37.7358C50.0583 38.3952 50.058 39.0546 50.0563 39.714C50.0547 40.3921 50.0562 41.0701 50.0594 41.7481C50.062 42.3324 50.0627 42.9167 50.0619 43.501C50.0614 43.8491 50.0616 44.1971 50.0636 44.5451C50.0657 44.9336 50.0639 45.3219 50.0617 45.7103C50.0628 45.8242 50.064 45.938 50.0651 46.0552C50.0556 46.8778 49.8855 47.5399 49.3203 48.1588C48.5144 48.938 47.6395 48.978 46.5766 48.9747C46.3614 48.9746 46.1465 48.9787 45.9313 48.983C45.7937 48.9835 45.6561 48.9838 45.5185 48.9837C45.3327 48.9848 45.3327 48.9848 45.1431 48.9858C44.8243 48.9258 44.8243 48.9258 44.5877 48.691C44.4293 48.4304 44.3852 48.3306 44.4275 48.0346C44.4345 47.9699 44.4414 47.9052 44.4485 47.8386C44.5737 47.5627 44.7517 47.4962 45.0196 47.3633C45.3078 47.3272 45.3078 47.3272 45.6234 47.327C45.7382 47.3253 45.8529 47.3236 45.9711 47.3219C46.2112 47.321 46.4513 47.3205 46.6914 47.3203C47.5469 47.3161 47.5469 47.3161 48.2422 46.875C48.3633 46.6328 48.353 46.4707 48.3543 46.1997C48.355 46.0983 48.3557 45.9968 48.3564 45.8923C48.3566 45.7806 48.3569 45.6688 48.3572 45.5536C48.3578 45.4363 48.3585 45.3189 48.3591 45.198C48.3607 44.8756 48.3618 44.5532 48.3627 44.2307C48.3632 44.0293 48.3637 43.8278 48.3644 43.6264C48.3662 42.9961 48.3676 42.3659 48.3684 41.7357C48.3694 41.0081 48.372 40.2806 48.3759 39.553C48.3788 38.9907 48.3803 38.4284 48.3806 37.8661C48.3808 37.5302 48.3817 37.1944 48.3842 36.8586C48.3869 36.4838 48.3865 36.109 48.3858 35.7342C48.387 35.6231 48.3883 35.5119 48.3896 35.3974C48.3871 34.8063 48.3871 34.8063 48.1722 34.2656C47.7938 33.954 47.445 33.8623 46.9602 33.8618C46.861 33.8613 46.7617 33.8607 46.6595 33.8601C46.4969 33.8607 46.4969 33.8607 46.3311 33.8612C46.2154 33.8609 46.0998 33.8605 45.9806 33.8601C45.6599 33.8593 45.3393 33.8593 45.0186 33.8597C44.6726 33.86 44.3267 33.8591 43.9807 33.8584C43.3031 33.8571 42.6255 33.8569 41.9478 33.8572C41.3971 33.8573 40.8463 33.8572 40.2956 33.8568C40.1781 33.8567 40.178 33.8567 40.0581 33.8566C39.8989 33.8565 39.7397 33.8563 39.5806 33.8562C38.0874 33.8552 36.5943 33.8554 35.1012 33.856C33.7351 33.8565 32.369 33.8554 31.0028 33.8535C29.6002 33.8516 28.1976 33.8508 26.795 33.8512C26.0075 33.8514 25.22 33.8511 24.4325 33.8498C23.7621 33.8486 23.0917 33.8485 22.4214 33.8496C22.0793 33.8502 21.7373 33.8503 21.3952 33.8491C21.0245 33.8481 20.6538 33.8489 20.283 33.8502C20.1208 33.8491 20.1208 33.8491 19.9553 33.848C19.3174 33.8525 18.8452 33.8866 18.3739 34.3621C18.2373 34.6157 18.2249 34.7825 18.2246 35.07C18.2233 35.2213 18.2233 35.2213 18.2221 35.3758C18.2229 35.541 18.2229 35.541 18.2239 35.7095C18.2233 35.826 18.2228 35.9424 18.2223 36.0623C18.2212 36.3814 18.2215 36.7003 18.2224 37.0193C18.2232 37.3534 18.2225 37.6875 18.222 38.0216C18.2215 38.5827 18.2222 39.1438 18.2236 39.7049C18.2252 40.3532 18.2246 41.0014 18.223 41.6496C18.2217 42.2066 18.2215 42.7635 18.2223 43.3204C18.2227 43.6529 18.2228 43.9853 18.2218 44.3178C18.2211 44.6886 18.2222 45.0593 18.2239 45.4301C18.223 45.5951 18.223 45.5951 18.2221 45.7633C18.2229 45.8645 18.2237 45.9657 18.2246 46.0699C18.2247 46.1575 18.2248 46.2452 18.2249 46.3354C18.2709 46.643 18.3684 46.8223 18.5547 47.0703C18.8259 47.2354 19.029 47.2901 19.3446 47.2906C19.4633 47.2915 19.4633 47.2915 19.5844 47.2925C19.6708 47.2921 19.7571 47.2918 19.8461 47.2915C19.9383 47.2919 20.0305 47.2923 20.1254 47.2928C20.4351 47.294 20.7447 47.2938 21.0543 47.2936C21.276 47.2942 21.4977 47.2949 21.7193 47.2957C22.197 47.2971 22.6748 47.298 23.1525 47.2984C23.9074 47.299 24.6623 47.3012 25.4173 47.3035C26.4753 47.3067 27.5334 47.3093 28.5914 47.3113C28.6586 47.3115 28.7257 47.3116 28.7949 47.3117C29.2715 47.3127 29.7481 47.3135 30.2247 47.3144C30.7691 47.3154 31.3135 47.3165 31.8579 47.3175C31.9249 47.3177 31.992 47.3178 32.0611 47.3179C33.1787 47.3201 34.2964 47.3231 35.4141 47.3266C36.165 47.3288 36.9159 47.3302 37.6668 47.3308C38.1334 47.3314 38.6 47.3328 39.0666 47.3344C39.2835 47.3349 39.5003 47.3352 39.7172 47.3351C40.0125 47.3349 40.3078 47.336 40.6032 47.3374C40.6896 47.3371 40.7759 47.3367 40.8649 47.3364C40.9836 47.3373 40.9836 47.3373 41.1047 47.3382C41.1728 47.3384 41.241 47.3385 41.3112 47.3386C41.6181 47.3779 41.8325 47.4787 42.0227 47.7234C42.121 48.0539 42.0708 48.3004 41.9922 48.6328C41.8431 48.827 41.7583 48.9139 41.5161 48.9626C41.4467 48.9627 41.3773 48.9628 41.3057 48.9629C41.1852 48.9641 41.1852 48.9641 41.0623 48.9654C40.9741 48.9648 40.8859 48.9642 40.795 48.9636C40.7013 48.9641 40.6075 48.9647 40.5109 48.9652C40.1954 48.9666 39.8799 48.9659 39.5643 48.9652C39.3386 48.9658 39.113 48.9665 38.8873 48.9673C38.2731 48.969 37.6589 48.9689 37.0447 48.9683C36.5321 48.968 36.0196 48.9686 35.5071 48.9692C34.2284 48.9707 32.9498 48.9703 31.6711 48.9691C30.5615 48.9682 29.452 48.9694 28.3424 48.9718C27.2028 48.9741 26.0632 48.975 24.9235 48.9744C24.2839 48.9741 23.6442 48.9743 23.0045 48.976C22.4026 48.9775 21.8006 48.9771 21.1987 48.9753C20.9779 48.9749 20.7572 48.9753 20.5365 48.9763C20.2346 48.9776 19.9329 48.9764 19.6311 48.9747C19.5441 48.9756 19.4572 48.9766 19.3677 48.9776C18.5518 48.968 17.8387 48.6879 17.242 48.1221C16.4341 47.2039 16.5378 46.147 16.5539 44.9974C16.5548 44.8061 16.5555 44.6148 16.556 44.4236C16.5579 43.923 16.5627 43.4224 16.5681 42.9218C16.5731 42.4099 16.5753 41.898 16.5778 41.386C16.583 40.3836 16.5913 39.3813 16.6016 38.3789C16.4729 38.3699 16.4729 38.3699 16.3416 38.3608C16.2283 38.3525 16.115 38.3443 15.9983 38.3358C15.8304 38.3238 15.8304 38.3238 15.659 38.3116C15.2113 38.27 14.785 38.1824 14.3494 38.0737C14.219 38.0417 14.219 38.0417 14.086 38.009C10.7157 37.1517 7.86901 35.4992 5.37113 33.1054C5.29774 33.0361 5.22435 32.9667 5.14874 32.8953C2.60159 30.4288 1.05375 27.1504 0.29301 23.7304C0.275496 23.6557 0.257982 23.5809 0.239938 23.5039C-0.324305 21.0066 -0.215315 17.9997 0.390666 15.5273C0.411594 15.4403 0.432523 15.3533 0.454085 15.2637C1.54352 10.8623 4.13591 6.74735 8.00139 4.27366C8.41664 4.02625 8.694 3.92141 9.17973 4.00389C9.46524 4.2528 9.55562 4.41357 9.62529 4.78514C9.5146 5.37547 8.91343 5.71033 8.45341 6.05467C8.03502 6.37007 7.62695 6.69308 7.2266 7.03123C7.37388 7.37628 7.57383 7.59788 7.83839 7.86182C7.92557 7.94927 8.01276 8.03673 8.10259 8.12683C8.19983 8.22338 8.29708 8.31991 8.39433 8.41644C8.49804 8.52009 8.6017 8.62378 8.70533 8.72752C8.98289 9.00512 9.26103 9.28213 9.5393 9.55903C9.80036 9.81896 10.0609 10.0794 10.3214 10.3399C11.0837 11.1011 11.8469 11.8615 12.6099 12.6221C14.3139 14.322 16.0179 16.022 17.7735 17.7734C17.8057 12.7783 17.8379 7.78318 17.8711 2.6367C15.6127 2.95057 15.6127 2.95057 13.448 3.47975C13.1375 3.57102 12.827 3.66078 12.5134 3.74067C12.445 3.75853 12.3766 3.77639 12.3061 3.79479C12.055 3.81239 11.9296 3.74609 11.7188 3.61326C11.514 3.34999 11.524 3.21356 11.5418 2.87474C11.6413 2.45355 11.6413 2.45355 11.9141 2.24608C12.1626 2.14007 12.4028 2.04921 12.6587 1.96531C12.7343 1.9403 12.8099 1.91529 12.8878 1.88952C19.209 -0.10695 26.0692 1.3642 31.0514 5.70634ZM19.4336 2.6367C19.4335 2.72575 19.4333 2.81479 19.4332 2.90654C19.4296 5.07292 19.4238 7.23928 19.4157 9.40565C19.4118 10.4533 19.4086 11.5009 19.4072 12.5486C19.4059 13.4617 19.4033 14.3747 19.399 15.2878C19.3968 15.7713 19.3953 16.2548 19.3954 16.7383C19.3954 17.1935 19.3937 17.6486 19.3906 18.1037C19.3897 18.2707 19.3896 18.4377 19.3901 18.6047C19.3907 18.8329 19.389 19.0609 19.3867 19.2891C19.3861 19.4806 19.3861 19.4806 19.3856 19.6759C19.2944 20.3073 18.8874 20.6878 18.4498 21.1245C18.4012 21.1733 18.3526 21.222 18.3025 21.2722C18.1409 21.4342 17.9786 21.5954 17.8163 21.7567C17.6998 21.8731 17.5833 21.9896 17.4669 22.1062C17.1516 22.4215 16.8357 22.7363 16.5197 23.0509C16.1892 23.3802 15.8593 23.71 15.5293 24.0398C14.9047 24.6637 14.2796 25.2872 13.6544 25.9105C12.9424 26.6202 12.231 27.3306 11.5197 28.041C10.0567 29.5019 8.59306 30.9621 7.12895 32.4219C7.20555 32.515 7.28216 32.6082 7.36109 32.7043C7.42572 32.7829 7.42572 32.7829 7.49167 32.8631C7.64399 33.0386 7.80679 33.1751 7.9945 33.3118C8.0642 33.3627 8.1339 33.4136 8.20572 33.4661C8.31624 33.5444 8.31624 33.5444 8.429 33.6242C8.50639 33.6795 8.58379 33.7347 8.66353 33.7916C9.3926 34.3035 10.1455 34.7497 10.9375 35.1562C10.997 35.1872 11.0564 35.2181 11.1177 35.2499C12.7242 36.0756 14.7751 36.8501 16.6016 36.8164C16.602 36.7446 16.6024 36.6728 16.6028 36.5988C16.6061 36.2684 16.613 35.9382 16.6199 35.6079C16.6208 35.4385 16.6208 35.4385 16.6216 35.2657C16.6459 34.3114 16.8615 33.5985 17.5476 32.9162C18.2347 32.3755 18.9637 32.3109 19.8094 32.2685C19.8861 32.2643 19.9628 32.2602 20.0419 32.2559C20.2298 32.2458 20.4176 32.2361 20.6055 32.2265C20.6061 32.1481 20.6067 32.0697 20.6072 31.9888C20.6129 31.2489 20.6199 30.5089 20.6285 29.7689C20.6329 29.3885 20.6367 29.0082 20.6393 28.6277C20.6419 28.2605 20.6458 27.8932 20.6507 27.526C20.6524 27.386 20.6535 27.246 20.6541 27.1061C20.655 26.9097 20.658 26.7134 20.6609 26.517C20.662 26.4053 20.6631 26.2937 20.6642 26.1786C20.7094 25.8306 20.7591 25.6517 20.9961 25.3906C21.2571 25.3398 21.4581 25.323 21.7197 25.3262C21.793 25.3252 21.8664 25.3242 21.942 25.3231C22.1846 25.3203 22.4271 25.3209 22.6696 25.3216C22.8378 25.3203 23.006 25.3188 23.1742 25.3171C23.6168 25.3132 24.0594 25.3122 24.502 25.3118C24.9537 25.3109 25.4054 25.3072 25.857 25.3038C26.7432 25.2975 27.6294 25.2943 28.5157 25.2929C28.5169 25.1092 28.5169 25.1092 28.5181 24.9218C28.5256 23.7679 28.5342 22.6141 28.5437 21.4602C28.5486 20.867 28.5532 20.2738 28.5569 19.6806C28.5605 19.1081 28.565 18.5357 28.5702 17.9633C28.572 17.7449 28.5735 17.5264 28.5746 17.3079C28.5762 17.0021 28.5791 16.6963 28.5822 16.3905C28.5825 16.2548 28.5825 16.2548 28.5828 16.1164C28.5932 15.3211 28.5932 15.3211 28.8086 14.9414C29.0734 14.809 29.2855 14.8279 29.5819 14.8237C29.7031 14.8217 29.8243 14.8198 29.9492 14.8178C30.082 14.8161 30.2147 14.8145 30.3475 14.8128C30.483 14.8108 30.6184 14.8088 30.7539 14.8067C31.1106 14.8013 31.4673 14.7965 31.8241 14.7918C32.188 14.7869 32.552 14.7814 32.9159 14.776C33.6302 14.7655 34.3444 14.7556 35.0586 14.7461C34.9989 14.5461 34.9387 14.3463 34.8783 14.1465C34.828 13.9796 34.828 13.9796 34.7768 13.8093C34.613 13.3084 34.3979 12.839 34.1675 12.3657C34.0973 12.2205 34.0973 12.2205 34.0257 12.0724C33.2135 10.4289 32.1044 9.05418 30.8594 7.71482C30.7997 7.64987 30.7401 7.58491 30.6786 7.51799C29.2808 6.05479 27.5071 4.9481 25.6836 4.10154C25.5201 4.02337 25.5201 4.02337 25.3533 3.94362C23.6684 3.17488 21.7194 2.63077 19.8577 2.6356C19.7783 2.63576 19.699 2.63592 19.6172 2.63608C19.5264 2.63639 19.5264 2.63639 19.4336 2.6367ZM5.68585 8.45945C2.70464 11.7372 1.32115 16.1405 1.4832 20.5322C1.68367 24.4933 3.09937 28.3566 5.85942 31.25C6.21976 31.0988 6.44874 30.8801 6.72337 30.6048C6.76956 30.5588 6.81575 30.5128 6.86335 30.4654C7.0178 30.3112 7.17155 30.1564 7.32531 30.0016C7.43597 29.8909 7.54667 29.7802 7.65741 29.6696C7.95785 29.3692 8.25768 29.0682 8.55741 28.7671C8.87077 28.4525 9.18469 28.1385 9.49855 27.8244C10.0928 27.2296 10.6865 26.6342 11.28 26.0387C11.9558 25.3608 12.6321 24.6834 13.3085 24.0061C14.6998 22.6127 16.0904 21.2187 17.4805 19.8242C16.9678 19.2032 16.4051 18.6366 15.8361 18.0679C15.7295 17.9611 15.6229 17.8542 15.5164 17.7472C15.2287 17.4587 14.9408 17.1705 14.6527 16.8824C14.4727 16.7024 14.2928 16.5223 14.113 16.3421C13.4855 15.7138 12.8578 15.0856 12.2298 14.4578C11.6441 13.8721 11.059 13.2859 10.4741 12.6995C9.97159 12.1957 9.46872 11.6923 8.96555 11.1892C8.66513 10.8888 8.36486 10.5883 8.06497 10.2874C7.78356 10.005 7.5017 9.72315 7.21948 9.44163C7.11577 9.33803 7.01223 9.23425 6.90886 9.1303C6.76829 8.98898 6.62706 8.84831 6.4858 8.70768C6.4068 8.62864 6.3278 8.54959 6.24641 8.46814C5.99557 8.24911 5.93323 8.23328 5.68585 8.45945ZM30.0782 16.3086C30.0782 16.9531 30.0782 17.5976 30.0782 18.2617C32.2051 18.2617 34.3321 18.2617 36.5235 18.2617C36.5235 17.6172 36.5235 16.9726 36.5235 16.3086C34.3965 16.3086 32.2696 16.3086 30.0782 16.3086ZM30.0782 19.8242C30.0782 20.4687 30.0782 21.1133 30.0782 21.7773C32.2051 21.7773 34.3321 21.7773 36.5235 21.7773C36.5235 21.1328 36.5235 20.4883 36.5235 19.8242C34.3965 19.8242 32.2696 19.8242 30.0782 19.8242ZM30.0782 23.3398C30.0782 23.9844 30.0782 24.6289 30.0782 25.2929C32.2051 25.2929 34.3321 25.2929 36.5235 25.2929C36.5235 24.6484 36.5235 24.0039 36.5235 23.3398C34.3965 23.3398 32.2696 23.3398 30.0782 23.3398ZM38.086 23.3398C38.086 23.9844 38.086 24.6289 38.086 25.2929C40.1807 25.2929 42.2754 25.2929 44.4336 25.2929C44.4336 24.6484 44.4336 24.0039 44.4336 23.3398C42.3389 23.3398 40.2442 23.3398 38.086 23.3398ZM22.168 26.7578C22.168 27.4023 22.168 28.0469 22.168 28.7109C24.2627 28.7109 26.3575 28.7109 28.5157 28.7109C28.5157 28.0664 28.5157 27.4219 28.5157 26.7578C26.4209 26.7578 24.3262 26.7578 22.168 26.7578ZM30.0782 26.7578C30.0782 27.4023 30.0782 28.0469 30.0782 28.7109C32.2051 28.7109 34.3321 28.7109 36.5235 28.7109C36.5235 28.0664 36.5235 27.4219 36.5235 26.7578C34.3965 26.7578 32.2696 26.7578 30.0782 26.7578ZM38.086 26.7578C38.086 27.4023 38.086 28.0469 38.086 28.7109C40.1807 28.7109 42.2754 28.7109 44.4336 28.7109C44.4336 28.0664 44.4336 27.4219 44.4336 26.7578C42.3389 26.7578 40.2442 26.7578 38.086 26.7578ZM22.168 30.2734C22.168 30.9179 22.168 31.5625 22.168 32.2265C24.2627 32.2265 26.3575 32.2265 28.5157 32.2265C28.5157 31.582 28.5157 30.9375 28.5157 30.2734C26.4209 30.2734 24.3262 30.2734 22.168 30.2734ZM30.0782 30.2734C30.0782 30.9179 30.0782 31.5625 30.0782 32.2265C32.2051 32.2265 34.3321 32.2265 36.5235 32.2265C36.5235 31.582 36.5235 30.9375 36.5235 30.2734C34.3965 30.2734 32.2696 30.2734 30.0782 30.2734ZM38.086 30.2734C38.086 30.9179 38.086 31.5625 38.086 32.2265C40.1807 32.2265 42.2754 32.2265 44.4336 32.2265C44.4336 31.582 44.4336 30.9375 44.4336 30.2734C42.3389 30.2734 40.2442 30.2734 38.086 30.2734Z" fill="#014339"/>
<path d="M35.398 36.0809C35.5198 36.0804 35.6416 36.0799 35.7671 36.0794C35.957 36.0817 35.957 36.0817 36.1507 36.084C36.3377 36.0817 36.3377 36.0817 36.5285 36.0794C37.4028 36.083 38.123 36.1781 38.8297 36.7195C39.4 37.3842 39.6964 37.9969 39.6358 38.8855C39.5761 39.3102 39.4486 39.6565 39.2574 40.0391C39.3033 40.0864 39.3493 40.1337 39.3966 40.1825C40.0966 40.9361 40.2938 41.5198 40.2686 42.5529C40.1962 43.2172 39.943 43.8714 39.4527 44.3359C38.7266 44.8313 38.2159 45.0336 37.3382 45.0428C37.2662 45.0436 37.1942 45.0444 37.1201 45.0452C36.9681 45.0465 36.8162 45.0476 36.6643 45.0484C36.5092 45.0495 36.3542 45.0515 36.1991 45.0544C35.9746 45.0585 35.7501 45.0601 35.5255 45.0611C35.4221 45.0637 35.4221 45.0637 35.3167 45.0663C34.9947 45.0649 34.7841 45.0303 34.5029 44.8702C34.1981 44.5448 34.208 44.2708 34.2137 43.8467C34.2129 43.7682 34.212 43.6897 34.2111 43.6089C34.209 43.3497 34.2104 43.0906 34.2121 42.8314C34.2117 42.6512 34.2112 42.471 34.2106 42.2907C34.2099 41.9131 34.211 41.5355 34.2132 41.1579C34.216 40.6738 34.2144 40.1898 34.2115 39.7057C34.2097 39.3336 34.2103 38.9615 34.2116 38.5893C34.2119 38.4109 34.2115 38.2324 34.2103 38.0539C34.2091 37.8044 34.211 37.5551 34.2137 37.3056C34.2127 37.2319 34.2117 37.1581 34.2107 37.0821C34.2182 36.7118 34.247 36.5549 34.5062 36.2824C34.8244 36.0986 35.0318 36.0824 35.398 36.0809ZM35.8394 37.6953C35.8394 38.3076 35.8394 38.9199 35.8394 39.5508C36.864 39.6155 36.864 39.6155 37.7925 39.2578C38.0316 38.8992 38.0576 38.6005 37.9878 38.1836C37.7723 37.8937 37.6474 37.8097 37.3042 37.6953C37.0528 37.6884 36.8048 37.6862 36.5535 37.6892C36.3179 37.6912 36.0822 37.6932 35.8394 37.6953ZM35.8394 41.1133C35.8394 41.8867 35.8394 42.6602 35.8394 43.457C36.3077 43.4661 36.3077 43.4661 36.7854 43.4753C36.883 43.478 36.9805 43.4807 37.081 43.4834C37.713 43.4893 38.0398 43.392 38.5066 42.9504C38.72 42.5948 38.7497 42.2943 38.6714 41.8945C38.4666 41.4996 38.3038 41.2749 37.8902 41.1133C37.6543 41.0866 37.6543 41.0866 37.4034 41.0942C37.3211 41.0947 37.2388 41.0952 37.154 41.0957C37.0505 41.0975 36.947 41.0992 36.8404 41.1011C36.5101 41.1051 36.1797 41.1091 35.8394 41.1133Z" fill="#014339"/>
<path d="M21.6778 36.3022C21.8484 36.3018 21.8484 36.3018 22.0224 36.3014C22.141 36.3021 22.2595 36.3029 22.3816 36.3037C22.4982 36.3029 22.6149 36.3022 22.735 36.3014C23.8631 36.3039 24.8329 36.4248 25.7 37.2013C26.7542 38.307 27.0127 39.6125 26.9775 41.0907C26.9248 42.2669 26.4893 43.2846 25.6996 44.1543C24.785 44.9402 23.8141 45.0417 22.6661 45.0483C22.5293 45.0495 22.3925 45.0515 22.2558 45.0543C22.0576 45.0585 21.8596 45.0601 21.6614 45.0611C21.4841 45.0632 21.4841 45.0632 21.3032 45.0654C20.9379 45.0108 20.8292 44.9158 20.6055 44.6289C20.4607 44.3393 20.4934 44.0448 20.4936 43.7273C20.4933 43.6546 20.493 43.5818 20.4926 43.5069C20.4917 43.2657 20.4915 43.0245 20.4914 42.7833C20.4911 42.616 20.4908 42.4486 20.4904 42.2812C20.4898 41.93 20.4897 41.5788 20.4897 41.2276C20.4897 40.7775 20.4884 40.3274 20.4867 39.8773C20.4856 39.5314 20.4854 39.1856 20.4855 38.8398C20.4854 38.6738 20.4849 38.5079 20.4842 38.3419C20.4832 38.1098 20.4835 37.8777 20.4841 37.6455C20.4835 37.5769 20.483 37.5083 20.4824 37.4377C20.4847 37.0851 20.502 36.8192 20.7031 36.5234C21.017 36.3023 21.301 36.303 21.6778 36.3022ZM22.0703 37.8906C22.0703 39.7275 22.0703 41.5644 22.0703 43.457C23.3986 43.5685 23.3986 43.5685 24.5117 43.0664C25.1898 42.3742 25.4034 41.6384 25.4333 40.686C25.4126 39.7473 25.1936 38.9464 24.5117 38.2812C23.7584 37.7351 23.0135 37.8906 22.0703 37.8906Z" fill="#014339"/>
<path d="M29.5285 36.2106C29.6502 36.2098 29.6502 36.2098 29.7744 36.2089C29.9463 36.208 30.1182 36.2074 30.2901 36.207C30.5529 36.2061 30.8156 36.203 31.0784 36.1999C31.2453 36.1993 31.4123 36.1988 31.5793 36.1984C31.6578 36.1972 31.7363 36.196 31.8173 36.1948C32.138 36.196 32.3783 36.2073 32.665 36.358C32.8996 36.6204 32.8985 36.8635 32.9106 37.207C32.834 37.4648 32.7744 37.5597 32.549 37.7044C32.2644 37.8167 32.0368 37.815 31.7311 37.812C31.5611 37.8111 31.5611 37.8111 31.3878 37.8101C31.2699 37.8085 31.1521 37.8069 31.0307 37.8052C30.8517 37.8038 30.8517 37.8038 30.6691 37.8025C30.3746 37.8002 30.0801 37.7967 29.7856 37.793C29.7856 38.4697 29.7856 39.1465 29.7856 39.8437C30.0431 39.8369 30.0431 39.8369 30.3059 39.83C30.5312 39.8263 30.7565 39.8228 30.9819 39.8193C31.095 39.8161 31.2082 39.8128 31.3248 39.8094C31.4337 39.8082 31.5426 39.8069 31.6548 39.8056C31.755 39.8035 31.8553 39.8015 31.9585 39.7994C32.2961 39.8552 32.4077 39.9703 32.6176 40.2344C32.6729 40.4297 32.6729 40.4297 32.6725 40.625C32.6747 40.6894 32.6768 40.7539 32.679 40.8203C32.5736 41.1557 32.4389 41.2373 32.1293 41.4062C31.7274 41.4537 31.3309 41.4429 30.9269 41.4307C30.8174 41.4289 30.7078 41.4271 30.5949 41.4253C30.3251 41.4207 30.0553 41.4137 29.7856 41.4062C29.7856 42.083 29.7856 42.7598 29.7856 43.457C29.9643 43.4548 30.1431 43.4525 30.3273 43.4502C30.5617 43.4483 30.7962 43.4465 31.0307 43.4448C31.1485 43.4432 31.2664 43.4415 31.3878 43.4399C31.5011 43.4392 31.6143 43.4386 31.7311 43.4379C31.8354 43.4369 31.9397 43.4359 32.0472 43.4348C32.3257 43.4571 32.4822 43.5026 32.7153 43.6523C32.9186 43.9137 32.9102 44.0544 32.8984 44.3909C32.8129 44.7266 32.8129 44.7266 32.6645 44.8914C32.3137 45.077 31.9737 45.0633 31.5861 45.0619C31.5052 45.0624 31.4243 45.0629 31.341 45.0634C31.1703 45.064 30.9995 45.0639 30.8288 45.0631C30.5677 45.0623 30.3068 45.0651 30.0457 45.0682C29.8797 45.0683 29.7136 45.0683 29.5475 45.068C29.4696 45.0691 29.3917 45.0702 29.3114 45.0713C28.9576 45.0669 28.7544 45.0527 28.4699 44.8334C28.1989 44.4618 28.208 44.1659 28.2073 43.7199C28.2069 43.6464 28.2064 43.5728 28.2059 43.4971C28.2044 43.2532 28.2038 43.0093 28.2032 42.7654C28.2027 42.5961 28.2021 42.4268 28.2016 42.2574C28.2005 41.902 28.2 41.5467 28.1996 41.1913C28.1991 40.7361 28.1967 40.281 28.194 39.8259C28.1921 39.4759 28.1916 39.126 28.1915 38.776C28.1912 38.6083 28.1904 38.4405 28.1891 38.2727C28.1875 38.0378 28.1876 37.8029 28.1883 37.568C28.1874 37.4988 28.1865 37.4296 28.1855 37.3584C28.1891 36.9338 28.2559 36.666 28.5161 36.3281C28.8327 36.1698 29.1805 36.2125 29.5285 36.2106Z" fill="#014339"/>
<path d="M41.6329 36.1186C41.7153 36.118 41.7978 36.1174 41.8828 36.1167C41.9711 36.1166 42.0594 36.1165 42.1503 36.1164C42.2876 36.1159 42.2876 36.1159 42.4276 36.1154C42.6209 36.1149 42.8142 36.1147 43.0075 36.1147C43.3029 36.1145 43.5981 36.1127 43.8935 36.1109C44.0815 36.1106 44.2695 36.1104 44.4575 36.1103C44.5896 36.1092 44.5896 36.1092 44.7245 36.1082C45.1557 36.1097 45.5109 36.1142 45.8983 36.3281C46.1099 36.5878 46.0931 36.7274 46.0753 37.0666C45.9953 37.4051 45.9676 37.4924 45.703 37.6953C45.5173 37.7285 45.5173 37.7285 45.3112 37.7239C45.2372 37.723 45.1633 37.722 45.0871 37.721C45.0104 37.7186 44.9336 37.7161 44.8546 37.7136C44.7378 37.7116 44.7378 37.7116 44.6186 37.7096C44.4267 37.7061 44.2347 37.7009 44.0428 37.6953C44.0437 37.7813 44.0446 37.8673 44.0454 37.9559C44.0533 38.7663 44.0592 39.5767 44.0631 40.3871C44.0651 40.8038 44.0679 41.2204 44.0723 41.6371C44.0765 42.0391 44.0789 42.4412 44.0799 42.8433C44.0806 42.9967 44.082 43.1501 44.0841 43.3035C44.087 43.5184 44.0873 43.7332 44.0872 43.9481C44.088 44.0704 44.0889 44.1927 44.0898 44.3187C44.0343 44.6848 43.9427 44.7979 43.6522 45.0195C43.4569 45.0748 43.4569 45.0748 43.2616 45.0744C43.1649 45.0776 43.1649 45.0776 43.0663 45.0809C42.7571 44.9837 42.6555 44.798 42.4803 44.5312C42.4333 44.213 42.4333 44.213 42.436 43.8483C42.4359 43.7815 42.4359 43.7148 42.4358 43.646C42.4361 43.4267 42.4391 43.2075 42.4422 42.9882C42.4429 42.8356 42.4435 42.683 42.4438 42.5305C42.4453 42.1299 42.4492 41.7294 42.4535 41.3288C42.4575 40.9197 42.4593 40.5106 42.4612 40.1014C42.4654 39.2993 42.4721 38.4973 42.4803 37.6953C42.3639 37.6987 42.2474 37.7021 42.1275 37.7056C41.9745 37.7083 41.8215 37.711 41.6685 37.7136C41.5918 37.7161 41.5151 37.7185 41.436 37.721C41.3621 37.722 41.2881 37.7229 41.2119 37.7239C41.1439 37.7254 41.0759 37.727 41.0058 37.7285C40.7629 37.685 40.678 37.5936 40.5272 37.4023C40.4883 37.1917 40.4883 37.1917 40.4906 36.9629C40.4898 36.8873 40.4891 36.8118 40.4883 36.734C40.5368 36.4712 40.607 36.3886 40.8202 36.2304C41.0956 36.1449 41.3453 36.1201 41.6329 36.1186Z" fill="#014339"/>
</g>
<defs>
<clipPath id="clip0_218_279">
<rect width="50" height="50" fill="white"/>
</clipPath>
</defs>
</svg>
