<svg width="50" height="50" viewBox="0 0 50 50" fill="none" xmlns="http://www.w3.org/2000/svg">
<g clip-path="url(#clip0_302_3476)">
<path fill-rule="evenodd" clip-rule="evenodd" d="M14.6715 30.7993H10.306C6.71324 30.7993 3.77441 27.8602 3.77441 24.2698C3.77441 21.7417 5.23039 19.5371 7.34441 18.4525C7.34432 18.4414 7.34432 18.4301 7.34432 18.4188C7.34432 12.9134 11.8062 8.4496 17.3116 8.4496C17.5823 8.4496 17.8505 8.46038 18.1158 8.48156C19.2231 4.18323 23.1242 1.00656 27.7683 1.00656C30.2881 1.00656 32.5914 1.94235 34.347 3.48617C35.172 3.2395 36.0458 3.10666 36.9513 3.10666C41.4536 3.10666 45.1874 6.38391 45.9023 10.6828C48.4664 11.6075 50.2262 14.0633 50.2262 16.8268C50.2262 20.4172 47.2874 23.3563 43.6946 23.3563H39.7048C39.7475 23.6558 39.7695 23.9609 39.7695 24.2698C39.7695 27.8602 36.8307 30.7993 33.2379 30.7993H28.8725V38.0458H31.4939C31.8412 36.7248 33.0445 35.7492 34.4739 35.7492C36.1744 35.7492 37.5549 37.1297 37.5549 38.8301C37.5549 40.5306 36.1744 41.9111 34.4739 41.9111C33.0445 41.9111 31.8412 40.9355 31.4939 39.6144H28.0881C27.655 39.6144 27.3038 39.2633 27.3038 38.8301V30.7993H22.5563V38.9324C23.8774 39.2797 24.8528 40.483 24.8528 41.9124C24.8528 43.6128 23.4724 44.9934 21.772 44.9934C20.0716 44.9934 18.691 43.6128 18.691 41.9124C18.691 40.483 19.6666 39.2797 20.9876 38.9324V30.7993H16.2401V38.8301C16.2401 39.2633 15.8889 39.6144 15.4558 39.6144H12.05C11.7027 40.9355 10.4994 41.9111 9.07 41.9111C7.36951 41.9111 5.98902 40.5306 5.98902 38.8301C5.98902 37.1297 7.36951 35.7492 9.07 35.7492C10.4994 35.7492 11.7027 36.7248 12.05 38.0458H14.6715V30.7993ZM19.6726 8.73097C21.2612 9.11695 22.7014 9.88362 23.8903 10.9291C24.7153 10.6824 25.5891 10.5496 26.4945 10.5496C30.9969 10.5496 34.7307 13.827 35.4456 18.1258C37.2019 18.7591 38.5808 20.1109 39.2753 21.7876H43.6946C46.4244 21.7876 48.6576 19.5548 48.6576 16.8268C48.6576 14.5919 47.1418 12.6224 44.9875 12.0377C44.6758 11.9532 44.4478 11.6863 44.4131 11.3652C44.0064 7.60313 40.8219 4.67529 36.9513 4.67529C36.0622 4.67529 35.2098 4.8297 34.4183 5.11323C34.1371 5.21391 33.823 5.14617 33.6083 4.93833C32.0968 3.47509 30.0367 2.57519 27.7683 2.57519C23.9066 2.57519 20.654 5.18146 19.6726 8.73097ZM33.2379 29.2307C35.9677 29.2307 38.2009 26.9978 38.2009 24.2698C38.2009 22.0348 36.685 20.0654 34.5308 19.4808C34.2191 19.3962 33.9912 19.1292 33.9565 18.8081C33.5497 15.0461 30.3652 12.1182 26.4945 12.1182C25.6055 12.1182 24.7531 12.2727 23.9617 12.5562C23.6804 12.657 23.3663 12.5891 23.1517 12.3814C21.6401 10.918 19.5799 10.0182 17.3116 10.0182C12.6726 10.0182 8.91294 13.7798 8.91294 18.4188C8.91294 18.5805 8.91657 18.7421 8.92588 18.902C8.9453 19.2362 8.75039 19.546 8.44059 19.673C6.63 20.4159 5.34304 22.1992 5.34304 24.2698C5.34304 26.9978 7.57618 29.2307 10.306 29.2307H33.2379ZM34.4739 37.3178C33.6393 37.3178 32.9617 37.9955 32.9617 38.8301C32.9617 39.6648 33.6393 40.3424 34.4739 40.3424C35.3086 40.3424 35.9863 39.6648 35.9863 38.8301C35.9863 37.9955 35.3086 37.3178 34.4739 37.3178ZM21.772 40.4001C20.9373 40.4001 20.2596 41.0777 20.2596 41.9124C20.2596 42.7472 20.9373 43.4248 21.772 43.4248C22.6067 43.4248 23.2842 42.7472 23.2842 41.9124C23.2842 41.0777 22.6067 40.4001 21.772 40.4001ZM9.07 37.3178C8.2353 37.3178 7.55765 37.9955 7.55765 38.8301C7.55765 39.6648 8.2353 40.3424 9.07 40.3424C9.90461 40.3424 10.5823 39.6648 10.5823 38.8301C10.5823 37.9955 9.90461 37.3178 9.07 37.3178ZM36.9817 9.66176V7.94558C36.9817 7.51274 37.3331 7.16127 37.766 7.16127C38.1989 7.16127 38.5503 7.51274 38.5503 7.94558V9.66176H40.2665C40.6993 9.66176 41.0508 10.0131 41.0508 10.4461C41.0508 10.8789 40.6993 11.2304 40.2665 11.2304H38.5503V12.9465C38.5503 13.3793 38.1989 13.7308 37.766 13.7308C37.3331 13.7308 36.9817 13.3793 36.9817 12.9465V11.2304H35.2656C34.8327 11.2304 34.4813 10.8789 34.4813 10.4461C34.4813 10.0131 34.8327 9.66176 35.2656 9.66176H36.9817Z" fill="#014339"/>
</g>
<defs>
<clipPath id="clip0_302_3476">
<rect width="50" height="50" fill="white"/>
</clipPath>
</defs>
</svg>
