<svg width="60" height="60" viewBox="0 0 60 60" fill="none" xmlns="http://www.w3.org/2000/svg">
<path fill-rule="evenodd" clip-rule="evenodd" d="M38.5269 0.155879C38.4208 0.265541 38.3768 1.01932 38.3768 2.72215C38.3768 4.89376 38.3996 5.15446 38.6056 5.34728C38.9094 5.63164 39.1981 5.61728 39.5023 5.30266C39.7332 5.06394 39.7524 4.87164 39.7524 2.80983C39.7524 0.996819 39.7156 0.521329 39.5577 0.288166C39.3432 -0.028525 38.7756 -0.101328 38.5269 0.155879ZM26.8293 3.47012C26.7155 3.60021 26.6224 3.80195 26.6224 3.91846C26.6224 4.28856 28.7818 8.03946 29.0555 8.14493C29.4181 8.28453 29.7927 8.10794 29.9211 7.73688C30.0135 7.46911 29.8684 7.12539 28.9986 5.55262C28.4309 4.52611 27.8802 3.58431 27.7752 3.45991C27.5272 3.16635 27.0911 3.17102 26.8293 3.47012ZM50.3572 3.39525C50.0261 3.66682 48.1306 7.17571 48.1306 7.51707C48.1306 7.69318 48.1981 7.90704 48.2806 7.99245C48.477 8.19562 49.0651 8.19156 49.23 7.98593C49.6093 7.51347 51.3818 4.16791 51.3818 3.9248C51.3818 3.35878 50.7805 3.04804 50.3572 3.39525ZM31.8744 10.5701C31.4094 10.7546 24.492 15.9765 24.4254 16.1933C24.3844 16.3271 24.4334 16.5645 24.5346 16.7212C24.8381 17.1912 38.6143 32.1676 38.8172 32.2482C38.9206 32.2893 39.1311 32.2588 39.285 32.1807C39.4389 32.1025 42.716 28.597 46.5675 24.3906C52.6024 17.7995 53.5701 16.6892 53.5701 16.3568C53.5701 16.0015 53.3344 15.7961 50.569 13.7422C48.9184 12.5162 47.2354 11.2797 46.8293 10.9942L46.0907 10.4753L39.0764 10.4855C35.2184 10.4911 31.9775 10.5292 31.8744 10.5701ZM29.9093 13.6859C28.5876 14.6653 27.467 15.5074 27.4187 15.5573C27.3704 15.6071 28.6284 15.6479 30.2141 15.6479H33.0972L34.2364 13.8316C34.863 12.8326 35.3758 11.9888 35.3758 11.9565C35.3758 11.9242 34.6865 11.8995 33.8439 11.9017L32.3121 11.9055L29.9093 13.6859ZM37.0286 12.0594C36.958 12.1483 36.4183 12.9776 35.8291 13.9022L34.7581 15.5833L38.9626 15.6173C41.275 15.636 43.1887 15.6289 43.2153 15.6014C43.242 15.574 42.7435 14.7293 42.1079 13.7246L40.952 11.8978H39.0545C37.6883 11.8978 37.121 11.943 37.0286 12.0594ZM42.835 12.2671C42.9621 12.4702 43.4881 13.314 44.0038 14.1422L44.9414 15.6479H47.8694H50.7972L48.2556 13.7729L45.714 11.8978H44.159H42.604L42.835 12.2671ZM18.1702 12.4797C17.9857 12.7708 17.9843 12.8329 18.1556 13.1031C18.396 13.4827 21.7927 15.5186 22.1852 15.5186C22.7587 15.5186 23.0774 14.8455 22.6925 14.4473C22.3183 14.0603 18.9932 12.1564 18.6917 12.1564C18.4919 12.1564 18.2994 12.2758 18.1702 12.4797ZM57.7033 12.9423C55.2878 14.4162 55.2582 14.4391 55.2582 14.8409C55.2582 15.2875 55.4605 15.5186 55.851 15.5186C56.1721 15.5186 59.6025 13.546 59.8538 13.217C60.2089 12.7518 59.878 12.1459 59.2822 12.1698C59.0979 12.1772 58.3875 12.5248 57.7033 12.9423ZM27.3921 17.8405C28.3584 18.9539 37.0589 28.4239 37.0904 28.3967C37.105 28.3841 36.182 25.8305 35.0393 22.7222L32.9617 17.0704H29.8428H26.7237L27.3921 17.8405ZM34.5286 17.2967C34.6311 17.7002 38.9054 29.2879 38.9864 29.3813C39.0293 29.4311 40.0185 26.8707 41.1843 23.6914C42.3503 20.5122 43.3779 17.7218 43.4681 17.4907L43.6322 17.0704H39.0518C34.7509 17.0704 34.4747 17.0843 34.5286 17.2967ZM44.9365 17.5163C44.4288 18.7728 40.9951 28.2266 41.0324 28.2651C41.0797 28.314 51.1677 17.3514 51.2359 17.1771C51.2589 17.1184 49.8913 17.0704 48.1971 17.0704H45.1167L44.9365 17.5163ZM21.2094 33.6887C19.8202 34.0516 17.7821 34.9667 14.3936 36.7496C12.5165 37.7372 10.9275 38.5113 10.8627 38.4698C10.7977 38.4283 10.5776 38.1434 10.3734 37.8365C10.1694 37.5298 9.79849 37.1787 9.54944 37.0565C9.02023 36.7968 8.13761 36.7663 7.72017 36.9934C6.93392 37.421 0.87374 41.8458 0.520975 42.2498C0.0748075 42.7608 -0.0831224 43.3457 0.0407921 44.0284C0.0944445 44.3241 1.76408 46.932 4.94629 51.6904C7.59962 55.6579 9.91867 59.0713 10.0996 59.2756C10.7269 59.9839 11.753 60.2046 12.5177 59.7957C12.8791 59.6023 18.6778 55.4837 19.3669 54.9311C19.8258 54.5629 20.1034 54.0626 20.1935 53.4417C20.2579 52.9978 20.2095 52.7539 19.9466 52.1984C19.7668 51.8182 19.6197 51.4537 19.6197 51.3881C19.6197 51.1584 20.3901 50.3047 20.5975 50.3047C20.7125 50.3047 23.733 51.2467 27.3097 52.3981C33.4579 54.3774 33.8672 54.4915 34.813 54.4883C37.7689 54.4779 42.1665 52.1012 49.5061 46.5474C50.8472 45.5325 52.7323 44.1204 53.6952 43.4092C56.366 41.4365 56.9235 40.809 57.2705 39.3838C57.6722 37.7341 56.5148 35.8977 54.6955 35.298C53.9595 35.0554 52.5741 35.111 51.6319 35.4207C51.1048 35.594 48.9506 36.8195 45.5046 38.9065L40.19 42.125L40.0557 41.5272C39.8583 40.648 39.4692 39.9506 38.8431 39.3538C38.0958 38.6415 38.1397 38.6615 34.9713 37.576C33.44 37.0513 30.9772 36.1155 29.4985 35.4966C25.1935 33.6943 24.897 33.601 23.3086 33.5467C22.3768 33.5149 21.6996 33.5607 21.2094 33.6887ZM21.5387 35.1166C20.268 35.4048 18.8517 36.0314 15.3682 37.846C13.5456 38.7953 11.9756 39.6245 11.8793 39.6883C11.7429 39.7789 12.471 40.9509 15.1816 45.0042L18.6587 50.2038L19.0455 49.7385C19.4509 49.2507 20.1494 48.8821 20.6685 48.8821C20.8371 48.8821 23.976 49.8462 27.6439 51.0246C34.0202 53.073 34.3484 53.1642 35.1256 53.1029C36.2732 53.0123 37.7375 52.4982 39.5254 51.5581C42.2999 50.0992 44.8256 48.3594 51.4006 43.3774C52.6144 42.4576 53.9756 41.4326 54.4256 41.0994C55.5073 40.2987 55.9313 39.6345 55.9396 38.7277C55.9443 38.2243 55.8758 37.9409 55.6844 37.6738C54.8205 36.4669 53.052 36.1919 51.4443 37.0142C51.1692 37.1549 48.4839 38.7544 45.4771 40.5685C40.3765 43.6462 39.9886 43.9053 39.6869 44.4377C38.926 45.7806 37.7438 46.5572 36.3136 46.6542C35.4876 46.7102 35.1179 46.6198 29.7634 45.0517C23.7417 43.2882 23.5994 43.2284 23.8093 42.5441C24.0047 41.9078 24.1407 41.9321 29.9637 43.6397C35.6004 45.2927 36.2534 45.4264 37.0366 45.087C38.5328 44.4386 39.2063 42.5696 38.4657 41.1214C37.9861 40.1833 37.5459 39.9359 34.4923 38.8881C32.9403 38.3556 30.3173 37.36 28.6634 36.6758C24.3868 34.9066 23.4083 34.6924 21.5387 35.1166ZM8.36791 38.2445C8.06124 38.369 1.68767 42.9523 1.5191 43.1695C1.43307 43.2803 1.36618 43.4908 1.37017 43.6373C1.3743 43.7838 3.58377 47.1914 6.28029 51.2099C10.7851 57.9233 11.2132 58.5188 11.5561 58.5475C11.8606 58.5731 12.5497 58.1331 15.3026 56.155C17.7471 54.3986 18.708 53.637 18.7924 53.3887C18.8994 53.0743 18.5153 52.4573 14.1244 45.8885C11.4929 41.9518 9.20188 38.6 9.03322 38.4399C8.71218 38.1352 8.66855 38.1225 8.36791 38.2445ZM11.943 51.2571C10.6593 52.0607 10.4779 54.0139 11.5966 54.9873C12.4197 55.7036 13.4824 55.7752 14.3615 55.1737C14.8996 54.8053 15.3682 53.9326 15.3682 53.2986C15.3682 52.818 15.0794 52.0403 14.7694 51.6857C14.1086 50.9302 12.7858 50.7295 11.943 51.2571ZM12.4489 52.6102C11.9519 53.178 12.3735 54.1841 13.1081 54.1841C13.5263 54.1841 13.9926 53.6765 13.9926 53.2212C13.9926 52.5066 12.9133 52.0795 12.4489 52.6102Z" fill="#014339"/>
</svg>
