<svg width="50" height="50" viewBox="0 0 50 50" fill="none" xmlns="http://www.w3.org/2000/svg">
<path d="M9.5291 4.38018C9.64 4.37948 9.75091 4.37878 9.86517 4.37806C9.98643 4.3778 10.1077 4.37754 10.2326 4.37727C10.3606 4.37663 10.4887 4.37598 10.6205 4.37532C11.0446 4.37327 11.4686 4.37226 11.8926 4.37128C12.0386 4.37089 12.1847 4.37049 12.3308 4.37008C13.0167 4.36822 13.7025 4.36683 14.3884 4.36601C15.1802 4.36506 15.9719 4.36248 16.7637 4.35854C17.3759 4.3556 17.988 4.35415 18.6002 4.35383C18.9658 4.3536 19.3313 4.35272 19.6969 4.35027C20.1045 4.34758 20.5119 4.34798 20.9195 4.34866C21.1014 4.34678 21.1014 4.34678 21.2869 4.34487C21.4533 4.34588 21.4533 4.34588 21.623 4.34692C21.7194 4.34669 21.8157 4.34646 21.915 4.34622C22.2388 4.40811 22.3547 4.53176 22.5585 4.78518C22.6296 5.05284 22.6146 5.29594 22.5585 5.56643C22.3429 5.85633 22.2181 5.94032 21.8749 6.05471C21.7052 6.06385 21.5352 6.0673 21.3653 6.06753C21.2598 6.06792 21.1542 6.06831 21.0455 6.06872C20.8717 6.06864 20.8717 6.06864 20.6945 6.06856C20.5725 6.0689 20.4505 6.06924 20.3249 6.06959C20.0595 6.07031 19.7941 6.07086 19.5288 6.07118C19.1089 6.07176 18.6891 6.07337 18.2693 6.07522C18.1255 6.07584 17.9817 6.07645 17.8379 6.07707C17.7659 6.07738 17.6939 6.07769 17.6197 6.07801C16.6424 6.08212 15.665 6.08534 14.6876 6.08654C14.0283 6.08736 13.369 6.08955 12.7096 6.09331C12.3608 6.09524 12.0121 6.09645 11.6633 6.09596C11.274 6.09543 10.8848 6.0979 10.4955 6.10061C10.3803 6.09996 10.2651 6.09932 10.1463 6.09865C9.55334 6.10544 9.14324 6.11515 8.69129 6.54299C8.32767 6.96989 8.35609 7.40052 8.35886 7.9349C8.35786 8.07029 8.35786 8.07029 8.35683 8.20841C8.35504 8.50638 8.35542 8.8043 8.35598 9.10227C8.35553 9.30989 8.35501 9.51751 8.35443 9.72513C8.35355 10.1603 8.35379 10.5955 8.35476 11.0306C8.35588 11.5872 8.35391 12.1438 8.35106 12.7004C8.34926 13.1292 8.34929 13.5581 8.34985 13.987C8.34987 14.1921 8.34928 14.3972 8.34806 14.6024C8.3466 14.8899 8.34765 15.1772 8.34932 15.4647C8.34838 15.5488 8.34744 15.6329 8.34646 15.7195C8.35504 16.4269 8.56561 16.923 9.02088 17.4622C9.60929 17.9525 10.1813 18.1274 10.9374 18.0664C11.6729 17.8808 12.1917 17.5426 12.5975 16.8946C12.7875 16.4284 12.8202 16.0026 12.8196 15.5056C12.8215 15.3486 12.8236 15.1917 12.8257 15.0347C12.8278 14.7907 12.8295 14.5467 12.83 14.3027C12.8362 12.7522 13.0248 11.4557 14.1265 10.2761C15.2855 9.19905 16.6825 9.15015 18.1825 9.15754C18.3404 9.15759 18.4984 9.15756 18.6563 9.15745C19.0824 9.15739 19.5084 9.15854 19.9345 9.15991C20.3807 9.16113 20.827 9.16124 21.2733 9.16147C22.1171 9.16208 22.961 9.16368 23.8049 9.16564C24.7661 9.16783 25.7273 9.1689 26.6885 9.16988C28.6647 9.17192 30.6409 9.17535 32.6171 9.17971C32.612 8.83373 32.6027 8.48798 32.5927 8.14211C32.5913 8.04455 32.5899 7.94699 32.5885 7.84647C32.5694 7.27229 32.5331 6.88731 32.1288 6.44533C31.747 6.14056 31.4485 6.11561 30.9669 6.11479C30.9011 6.11427 30.8352 6.11374 30.7674 6.1132C30.6252 6.11225 30.483 6.11196 30.3408 6.11226C30.1154 6.1127 29.89 6.11133 29.6646 6.10949C29.1859 6.1059 28.7073 6.10456 28.2286 6.10354C27.6741 6.10236 27.1196 6.10024 26.5651 6.09573C26.3436 6.0944 26.1222 6.09481 25.9007 6.09528C25.7641 6.09436 25.6275 6.09337 25.4909 6.09228C25.3722 6.09208 25.2535 6.09188 25.1313 6.09168C24.7672 6.05048 24.5301 5.95184 24.2186 5.76174C24.0658 5.45613 24.0529 5.11615 24.121 4.78518C24.3445 4.48706 24.4608 4.40237 24.8338 4.34495C24.9618 4.34464 25.0898 4.34433 25.2218 4.34401C25.2926 4.34332 25.3635 4.34264 25.4365 4.34193C25.6707 4.34022 25.9048 4.34135 26.139 4.34267C26.3025 4.34241 26.466 4.34203 26.6295 4.34154C26.9725 4.34097 27.3154 4.3418 27.6584 4.34363C28.0958 4.34584 28.5331 4.34458 28.9704 4.34223C29.3084 4.34081 29.6464 4.34127 29.9844 4.34228C30.1455 4.34254 30.3066 4.34223 30.4677 4.34131C31.6506 4.33607 32.6201 4.42853 33.5196 5.27346C34.0571 5.88502 34.2909 6.50515 34.2868 7.31051C34.2864 7.4194 34.2861 7.52829 34.2858 7.64048C34.285 7.75365 34.2842 7.86682 34.2833 7.98342C34.2829 8.0981 34.2824 8.21278 34.282 8.33094C34.2808 8.61387 34.2792 8.89679 34.2772 9.17971C34.4597 9.17906 34.4597 9.17906 34.6458 9.1784C35.7938 9.17443 36.9417 9.17151 38.0897 9.16959C38.6799 9.16857 39.27 9.16719 39.8602 9.16498C40.43 9.16285 40.9999 9.16168 41.5698 9.16118C41.7868 9.16082 42.0039 9.16012 42.2209 9.15906C42.5257 9.15763 42.8305 9.15745 43.1353 9.15754C43.2244 9.15683 43.3135 9.15613 43.4052 9.15541C44.4955 9.15889 45.2896 9.39003 46.0952 10.1456C46.7173 10.8096 46.9196 11.4796 46.9134 12.3711C46.914 12.4528 46.9146 12.5346 46.9152 12.6188C46.9168 12.8908 46.9164 13.1627 46.9159 13.4347C46.9166 13.6305 46.9174 13.8262 46.9184 14.022C46.9206 14.5522 46.9209 15.0824 46.9207 15.6126C46.9207 16.0553 46.9215 16.498 46.9223 16.9407C46.9242 17.9846 46.9245 19.0286 46.9238 20.0725C46.9232 21.15 46.9254 22.2275 46.929 23.305C46.932 24.2302 46.9331 25.1555 46.9327 26.0807C46.9325 26.6333 46.9331 27.1859 46.9355 27.7385C46.9376 28.2576 46.9375 28.7766 46.9355 29.2957C46.9351 29.4864 46.9356 29.6771 46.937 29.8678C46.9388 30.1277 46.9376 30.3874 46.9356 30.6473C46.9368 30.7231 46.938 30.799 46.9393 30.8771C46.9331 31.2511 46.9067 31.4117 46.6453 31.6875C46.3267 31.8704 46.1626 31.8963 45.8007 31.836C45.542 31.6856 45.542 31.6856 45.3124 31.4453C45.2638 31.1699 45.2472 30.9529 45.2519 30.6776C45.251 30.5608 45.251 30.5608 45.2501 30.4416C45.2486 30.1803 45.2506 29.9192 45.2526 29.6579C45.2523 29.4707 45.2517 29.2835 45.251 29.0963C45.2498 28.6929 45.2501 28.2895 45.2516 27.8861C45.254 27.248 45.2529 26.6098 45.2513 25.9717C45.2489 24.8467 45.2494 23.7218 45.2507 22.5969C45.2525 20.9049 45.252 19.2129 45.2487 17.521C45.2476 16.887 45.248 16.253 45.2497 15.619C45.2505 15.2238 45.25 14.8287 45.2493 14.4336C45.2492 14.2508 45.2497 14.068 45.2506 13.8852C45.2769 12.6222 45.2769 12.6222 44.9218 11.4258C44.5147 11.0866 44.1635 10.9252 43.6362 10.9255C43.553 10.9253 43.4697 10.9251 43.3839 10.9249C43.2467 10.9253 43.2467 10.9253 43.1067 10.9258C43.0096 10.9257 42.9124 10.9256 42.8123 10.9255C42.4853 10.9254 42.1582 10.9259 41.8312 10.9264C41.5974 10.9265 41.3635 10.9264 41.1297 10.9264C40.6255 10.9264 40.1213 10.9266 39.6171 10.9272C38.8881 10.928 38.1591 10.9282 37.4301 10.9284C36.2474 10.9286 35.0647 10.9292 33.882 10.9302C32.733 10.9311 31.584 10.9317 30.435 10.9322C30.3288 10.9322 30.3288 10.9322 30.2205 10.9322C29.8653 10.9324 29.5101 10.9325 29.1549 10.9326C26.2074 10.9336 23.2599 10.9353 20.3124 10.9375C20.3619 11.0297 20.3619 11.0297 20.4123 11.1237C20.4559 11.2073 20.4994 11.2909 20.5443 11.377C20.5874 11.4585 20.6304 11.5401 20.6748 11.6242C21.0098 12.3958 21.0238 13.1043 21.0205 13.9346C21.0208 14.0585 21.0211 14.1824 21.0214 14.31C21.0222 14.6523 21.0218 14.9946 21.0212 15.3368C21.0207 15.7066 21.0214 16.0763 21.022 16.446C21.0228 17.0862 21.023 17.7264 21.0228 18.3665C21.0225 19.2928 21.0236 20.219 21.0252 21.1452C21.0277 22.6489 21.0297 24.1526 21.031 25.6563C21.0311 25.7462 21.0311 25.8362 21.0312 25.9288C21.0323 27.2061 21.0328 28.4833 21.0331 29.7605C21.0331 29.8505 21.0331 29.9405 21.0332 30.0333C21.0332 30.1232 21.0332 30.2131 21.0332 30.3057C21.0336 31.8041 21.0355 33.3025 21.0385 34.8009C21.0404 35.7249 21.041 36.6489 21.0399 37.573C21.0393 38.2058 21.0401 38.8386 21.042 39.4715C21.043 39.8367 21.0434 40.2018 21.0421 40.567C21.0407 40.9628 21.0424 41.3585 21.0443 41.7543C21.0434 41.8698 21.0425 41.9854 21.0416 42.1044C21.0471 42.6964 21.0572 43.1034 21.4843 43.5547C21.9113 43.9184 22.3412 43.8897 22.8757 43.8868C22.9669 43.8875 23.0582 43.8882 23.1522 43.8889C23.4581 43.8907 23.764 43.8905 24.07 43.8902C24.2893 43.8911 24.5086 43.8921 24.7279 43.8932C25.3237 43.8958 25.9195 43.8965 26.5153 43.8967C27.0126 43.897 27.5099 43.898 28.0071 43.8991C29.1132 43.9013 30.2193 43.9022 31.3254 43.902C31.4249 43.902 31.4249 43.902 31.5264 43.902C31.5929 43.9019 31.6593 43.9019 31.7277 43.9019C32.8043 43.9018 33.8808 43.9046 34.9573 43.9087C36.0632 43.9129 37.169 43.9149 38.2749 43.9147C38.8956 43.9146 39.5162 43.9155 40.1369 43.9186C40.7206 43.9214 41.3042 43.9214 41.8879 43.9193C42.1021 43.919 42.3163 43.9197 42.5305 43.9215C42.8231 43.9237 43.1154 43.9224 43.4079 43.9201C43.5349 43.9224 43.5349 43.9224 43.6645 43.9247C44.2071 43.9154 44.492 43.79 44.8889 43.4189C45.29 42.9358 45.2422 42.2848 45.2381 41.691C45.2383 41.6048 45.2385 41.5187 45.2387 41.4299C45.2391 41.2439 45.239 41.058 45.2385 40.872C45.238 40.5777 45.2389 40.2835 45.2402 39.9892C45.2438 39.1528 45.2457 38.3165 45.2446 37.4802C45.244 36.9677 45.2458 36.4554 45.249 35.9429C45.2498 35.7478 45.2497 35.5527 45.2486 35.3576C45.2472 35.0852 45.2488 34.8131 45.2511 34.5407C45.2494 34.4198 45.2494 34.4198 45.2476 34.2964C45.2539 33.9112 45.2743 33.7321 45.542 33.4461C45.8606 33.2671 46.0264 33.2408 46.3866 33.3008C46.645 33.4421 46.645 33.4421 46.8749 33.6914C46.9489 33.995 46.9426 34.2934 46.9396 34.6047C46.9406 34.6971 46.9416 34.7896 46.9427 34.8849C46.9453 35.191 46.9444 35.4971 46.9432 35.8032C46.9437 36.0166 46.9445 36.23 46.9453 36.4434C46.9464 36.8913 46.9458 37.3392 46.9439 37.7871C46.9417 38.3587 46.9443 38.9302 46.9483 39.5017C46.9508 39.9429 46.9506 40.3841 46.9495 40.8253C46.9493 41.0359 46.9501 41.2464 46.9518 41.457C46.9669 43.7386 46.9669 43.7386 46.1123 44.7378C45.3934 45.4359 44.5307 45.6651 43.5527 45.6551C43.4125 45.656 43.4125 45.656 43.2695 45.6569C42.959 45.6585 42.6486 45.6573 42.3381 45.656C42.1144 45.6566 41.8907 45.6573 41.667 45.6581C41.0613 45.6599 40.4556 45.6592 39.8499 45.658C39.2151 45.657 38.5803 45.6579 37.9455 45.6585C36.8114 45.6593 35.6773 45.658 34.5432 45.6561C33.5164 45.6543 32.4896 45.6546 31.4628 45.6564C30.2684 45.6585 29.074 45.6593 27.8796 45.6581C27.248 45.6575 26.6165 45.6574 25.985 45.6587C25.3912 45.6599 24.7974 45.6591 24.2036 45.6568C23.9861 45.6563 23.7685 45.6564 23.551 45.6573C23.2533 45.6584 22.9557 45.657 22.658 45.6551C22.5299 45.6564 22.5299 45.6564 22.3992 45.6577C21.5544 45.6471 20.7911 45.3774 20.169 44.7949C19.4659 44.0147 19.3058 43.216 19.3123 42.1958C19.3122 42.0999 19.312 42.004 19.3118 41.9052C19.3115 41.5848 19.3126 41.2644 19.3136 40.944C19.3137 40.7139 19.3137 40.4839 19.3136 40.2538C19.3135 39.6298 19.3147 39.0058 19.316 38.3818C19.3171 37.7956 19.3173 37.2093 19.3175 36.6231C19.3179 35.4623 19.3192 34.3015 19.3211 33.1407C19.3229 32.0133 19.3243 30.8859 19.3251 29.7585C19.3251 29.689 19.3252 29.6195 19.3252 29.5478C19.3255 29.199 19.3257 28.8501 19.326 28.5013C19.328 25.6089 19.3315 22.7166 19.3358 19.8242C19.2197 19.8251 19.1037 19.826 18.9841 19.8269C17.8865 19.8348 16.7889 19.8407 15.6913 19.8445C15.1271 19.8465 14.5629 19.8493 13.9987 19.8537C13.4535 19.858 12.9084 19.8603 12.3632 19.8613C12.1559 19.862 11.9486 19.8634 11.7414 19.8655C10.154 19.8811 8.88967 19.8021 7.70252 18.6455C7.06991 17.978 6.63158 17.2182 6.62613 16.2807C6.62544 16.1977 6.62474 16.1148 6.62402 16.0294C6.62375 15.9391 6.62349 15.8489 6.62322 15.756C6.62258 15.6604 6.62194 15.5647 6.62128 15.4662C6.61935 15.1496 6.61821 14.833 6.61724 14.5165C6.61684 14.4082 6.61644 14.2998 6.61603 14.1882C6.61399 13.6147 6.6126 13.0412 6.61168 12.4676C6.6106 11.8766 6.60724 11.2856 6.60336 10.6945C6.60081 10.2389 6.59999 9.78332 6.59964 9.32772C6.59917 9.10992 6.59804 8.89213 6.59622 8.67434C6.59383 8.36865 6.59393 8.06305 6.59461 7.75735C6.59336 7.66833 6.59211 7.57932 6.59082 7.4876C6.59812 6.57674 6.89351 5.81853 7.51941 5.15215C8.11959 4.62465 8.73782 4.38361 9.5291 4.38018ZM14.9943 11.8759C14.6253 12.4477 14.508 13.002 14.511 13.6734C14.5099 13.7454 14.5089 13.8174 14.5078 13.8915C14.5045 14.1194 14.5029 14.3473 14.5018 14.5752C14.4955 15.8818 14.3904 16.943 13.8671 18.1641C15.6718 18.1641 17.4764 18.1641 19.3358 18.1641C19.3439 17.3141 19.3519 16.4641 19.3602 15.5884C19.3638 15.322 19.3673 15.0556 19.371 14.7811C19.3722 14.5672 19.3731 14.3534 19.374 14.1396C19.377 13.9763 19.377 13.9763 19.38 13.8097C19.3804 12.9285 19.228 12.1946 18.6217 11.5296C17.9908 10.9664 17.4484 10.8805 16.6163 10.9043C15.883 10.9834 15.4717 11.3362 14.9943 11.8759Z" fill="#014339"/>
<path d="M17.4866 22.8107C18.0951 23.57 18.123 24.3405 18.117 25.2845C18.1176 25.4199 18.1182 25.5552 18.1191 25.6905C18.1209 26.0557 18.1202 26.4209 18.119 26.7861C18.118 27.1696 18.1189 27.5532 18.1195 27.9367C18.1202 28.5807 18.1193 29.2246 18.1174 29.8685C18.1153 30.6112 18.116 31.3539 18.1181 32.0966C18.1199 32.7362 18.1201 33.3757 18.1191 34.0152C18.1185 34.3964 18.1184 34.7776 18.1197 35.1587C18.1209 35.5172 18.1201 35.8756 18.1178 36.2341C18.1171 36.4272 18.1182 36.6202 18.1194 36.8133C18.1117 37.6268 18.0024 38.2551 17.4935 38.9045C15.6684 40.4882 13.1637 40.8777 10.8226 40.8585C10.5957 40.8569 10.3691 40.8585 10.1422 40.8603C7.99421 40.8634 5.36842 40.5029 3.74763 38.9587C3.29781 38.4941 3.08883 38.0294 3.08656 37.3817C3.08545 37.2621 3.08434 37.1425 3.0832 37.0192C3.08346 36.8879 3.08375 36.7566 3.08406 36.6253C3.08335 36.486 3.08251 36.3467 3.08156 36.2074C3.07939 35.8301 3.0791 35.4528 3.07929 35.0755C3.0793 34.76 3.07846 34.4445 3.07765 34.1291C3.07577 33.3845 3.07549 32.6399 3.07615 31.8954C3.0768 31.1284 3.07457 30.3614 3.07094 29.5945C3.06794 28.935 3.06684 28.2754 3.06722 27.6159C3.06742 27.2225 3.06689 26.8291 3.06449 26.4356C3.06231 26.0654 3.06251 25.6953 3.06448 25.3251C3.06482 25.1897 3.06433 25.0543 3.06292 24.9189C3.05372 23.9627 3.1908 23.4394 3.80867 22.7226C6.95313 19.8852 14.3131 20.088 17.4866 22.8107ZM7.32429 22.8515C7.21842 22.8798 7.11255 22.9082 7.00348 22.9373C6.21543 23.1755 5.24133 23.4918 4.78523 24.2187C4.70376 24.4542 4.70376 24.4542 4.78523 24.707C5.70393 25.8531 7.55241 26.1228 8.92952 26.2939C11.2023 26.5431 14.021 26.4341 15.973 25.1098C16.2131 24.9139 16.311 24.8001 16.4552 24.5178C16.3871 24.1009 16.2005 23.9535 15.8742 23.6976C14.3555 22.7069 12.4174 22.5358 10.6568 22.5341C10.5483 22.534 10.5483 22.534 10.4377 22.5338C9.3733 22.5348 8.35787 22.5731 7.32429 22.8515ZM15.8509 26.9775C12.9854 28.2861 9.0389 28.3273 6.05972 27.2766C5.77972 27.1703 5.50344 27.0576 5.2285 26.939C4.97314 26.8252 4.97314 26.8252 4.68757 26.9531C4.55606 28.1196 4.55606 28.1196 4.94392 29.1687C6.45391 30.5021 8.53071 30.5893 10.4371 30.5908C10.5137 30.5908 10.5903 30.5909 10.6692 30.591C12.5229 30.5884 14.67 30.5298 16.1134 29.1992C16.1642 29.1582 16.2151 29.1173 16.2675 29.0751C16.4562 28.8455 16.44 28.702 16.4349 28.4076C16.434 28.3116 16.433 28.2156 16.4321 28.1168C16.4296 28.0167 16.4272 27.9167 16.4246 27.8137C16.4233 27.7125 16.422 27.6114 16.4206 27.5072C16.4172 27.2573 16.4124 27.0076 16.4063 26.7578C16.213 26.7578 16.0202 26.8954 15.8509 26.9775ZM4.78523 31.0546C4.64751 32.3121 4.64751 32.3121 4.93972 33.5025C5.17026 33.7148 5.38218 33.848 5.66414 33.9843C5.79839 34.0546 5.79839 34.0546 5.93536 34.1262C7.3722 34.7974 8.95678 34.8888 10.5164 34.8938C10.5929 34.894 10.6693 34.8943 10.748 34.8945C11.9559 34.895 13.0929 34.8161 14.2579 34.4726C14.3661 34.4421 14.4744 34.4117 14.5859 34.3803C15.3174 34.1451 15.9846 33.7653 16.4063 33.1054C16.4463 32.87 16.4463 32.87 16.4349 32.6187C16.434 32.5274 16.433 32.4361 16.4321 32.3421C16.4296 32.2476 16.4272 32.153 16.4246 32.0556C16.4233 31.9596 16.422 31.8635 16.4206 31.7646C16.4172 31.5279 16.4124 31.2913 16.4063 31.0546C16.295 31.0995 16.1838 31.1443 16.0691 31.1904C14.6131 31.7608 13.0959 32.1761 11.5235 32.2265C11.3413 32.2324 11.3413 32.2324 11.1554 32.2383C8.98378 32.2836 6.76329 31.9878 4.78523 31.0546ZM4.78523 35.3515C4.771 35.6994 4.76236 36.0472 4.75471 36.3952C4.75062 36.4936 4.74653 36.592 4.74231 36.6933C4.72779 37.2807 4.72779 37.2807 4.99466 37.7887C5.13269 37.8875 5.13269 37.8875 5.27351 37.9882C5.36641 38.0576 5.45932 38.127 5.55504 38.1984C7.85837 39.5637 11.3197 39.4986 13.8306 38.8977C14.7173 38.6499 15.8567 38.2718 16.4063 37.5C16.4647 37.1296 16.4524 36.7689 16.4368 36.3952C16.4346 36.295 16.4324 36.1947 16.4302 36.0914C16.4244 35.8446 16.4164 35.5981 16.4063 35.3515C16.1102 35.4482 15.817 35.5481 15.5259 35.659C14.2428 36.1456 12.9003 36.4851 11.5235 36.5234C11.457 36.5254 11.3905 36.5274 11.322 36.5294C9.03006 36.5894 6.9049 36.2458 4.78523 35.3515Z" fill="#014339"/>
<path d="M24.8356 26.1581C24.9089 26.1578 24.9822 26.1575 25.0577 26.1572C25.3039 26.1564 25.5502 26.1562 25.7965 26.1561C25.9728 26.1556 26.149 26.1551 26.3253 26.1546C26.8047 26.1533 27.2841 26.1527 27.7635 26.1523C28.0629 26.152 28.3623 26.1516 28.6617 26.1511C29.598 26.1498 30.5343 26.1489 31.4706 26.1485C32.5522 26.148 33.6337 26.1463 34.7153 26.1435C35.5509 26.1414 36.3865 26.1404 37.222 26.1403C37.7213 26.1402 38.2206 26.1396 38.7198 26.1379C39.1894 26.1363 39.6589 26.136 40.1285 26.1369C40.3009 26.137 40.4733 26.1365 40.6456 26.1356C40.8809 26.1343 41.1161 26.1349 41.3513 26.1359C41.4538 26.1347 41.4538 26.1347 41.5583 26.1335C41.98 26.1378 42.2439 26.2059 42.5785 26.4648C42.8076 26.8084 42.8305 26.9392 42.7738 27.3437C42.5122 27.6835 42.367 27.8176 41.9398 27.8931C41.8041 27.8957 41.6682 27.8956 41.5325 27.8933C41.4574 27.894 41.3822 27.8947 41.3049 27.8954C41.0535 27.8971 40.8023 27.8954 40.551 27.8936C40.3707 27.8941 40.1904 27.8948 40.01 27.8957C39.5205 27.8975 39.0311 27.8963 38.5416 27.8943C38.0296 27.8927 37.5176 27.8936 37.0055 27.8941C36.1457 27.8945 35.286 27.893 34.4262 27.8903C33.4317 27.8871 32.4373 27.8871 31.4428 27.8888C30.4866 27.8904 29.5304 27.8897 28.5741 27.888C28.167 27.8874 27.7598 27.8875 27.3526 27.8882C26.8734 27.8889 26.3942 27.8878 25.9149 27.8851C25.7388 27.8844 25.5628 27.8844 25.3867 27.8851C25.1467 27.886 24.9069 27.8844 24.6669 27.8822C24.5969 27.883 24.5269 27.8838 24.4549 27.8847C24.122 27.8791 23.9535 27.8533 23.6876 27.6457C23.4768 27.3623 23.4857 27.1874 23.5035 26.8459C23.5481 26.5871 23.6368 26.447 23.8285 26.2695C24.1712 26.1553 24.4792 26.1577 24.8356 26.1581Z" fill="#014339"/>
<path d="M24.7688 17.3333C24.8802 17.3323 24.8802 17.3323 24.9938 17.3314C25.2422 17.3298 25.4905 17.3311 25.7389 17.3323C25.9172 17.3318 26.0954 17.3311 26.2736 17.3302C26.7575 17.3285 27.2413 17.3291 27.7251 17.3304C28.2314 17.3314 28.7376 17.3305 29.2439 17.3298C30.094 17.3291 30.9442 17.3301 31.7944 17.3319C32.7774 17.3341 33.7604 17.3334 34.7435 17.3312C35.5873 17.3294 36.4312 17.3292 37.2751 17.3302C37.7792 17.3308 38.2832 17.3309 38.7873 17.3296C39.2612 17.3285 39.735 17.3293 40.2089 17.3315C40.3829 17.332 40.5568 17.3319 40.7308 17.331C40.9682 17.33 41.2055 17.3313 41.4429 17.3333C41.5118 17.3324 41.5807 17.3315 41.6517 17.3306C41.9919 17.336 42.1815 17.3789 42.4729 17.5599C42.7503 17.8513 42.7667 18.0603 42.7738 18.4571C42.6662 18.7889 42.5862 18.8426 42.2856 19.043C42.0402 19.0623 41.8057 19.0702 41.5603 19.0691C41.4486 19.0698 41.4486 19.0698 41.3346 19.0705C41.0843 19.0717 40.834 19.0715 40.5837 19.0714C40.4045 19.072 40.2253 19.0726 40.0462 19.0734C39.5589 19.0751 39.0716 19.0756 38.5844 19.0757C38.1778 19.0759 37.7713 19.0766 37.3648 19.0773C36.4059 19.0789 35.447 19.0793 34.488 19.0792C33.4982 19.0791 32.5084 19.0811 31.5187 19.0842C30.6694 19.0868 29.8201 19.0878 28.9709 19.0877C28.4634 19.0877 27.956 19.0882 27.4485 19.0903C26.9712 19.0922 26.494 19.0922 26.0168 19.0908C25.8416 19.0906 25.6663 19.091 25.4911 19.0922C25.252 19.0937 25.013 19.0928 24.7739 19.0913C24.7044 19.0923 24.635 19.0933 24.5635 19.0943C24.099 19.0879 23.8598 18.984 23.5356 18.6524C23.4707 18.4357 23.4707 18.4357 23.4745 18.2129C23.4733 18.1394 23.472 18.0659 23.4707 17.9902C23.6539 17.3781 24.2147 17.3262 24.7688 17.3333Z" fill="#014339"/>
<path d="M24.7688 12.9387C24.8802 12.9378 24.8802 12.9378 24.9938 12.9369C25.2422 12.9353 25.4905 12.9365 25.7389 12.9378C25.9172 12.9372 26.0954 12.9366 26.2736 12.9357C26.7575 12.9339 27.2413 12.9346 27.7251 12.9359C28.2314 12.9368 28.7376 12.9359 29.2439 12.9353C30.094 12.9346 30.9442 12.9355 31.7944 12.9374C32.7774 12.9395 33.7604 12.9388 34.7435 12.9367C35.5873 12.9349 36.4312 12.9347 37.2751 12.9357C37.7792 12.9363 38.2832 12.9364 38.7873 12.9351C39.2612 12.934 39.735 12.9347 40.2089 12.937C40.3829 12.9375 40.5568 12.9374 40.7308 12.9365C40.9682 12.9354 41.2055 12.9368 41.4429 12.9387C41.5118 12.9378 41.5807 12.937 41.6517 12.9361C41.9919 12.9415 42.1815 12.9843 42.4729 13.1654C42.7503 13.4568 42.7667 13.6658 42.7738 14.0625C42.6988 14.315 42.6382 14.4129 42.421 14.5595C42.0999 14.6821 41.7934 14.6761 41.4546 14.6746C41.3434 14.6753 41.3434 14.6753 41.2299 14.6759C40.9812 14.6772 40.7326 14.677 40.4839 14.6769C40.3057 14.6774 40.1275 14.6781 39.9492 14.6788C39.465 14.6806 38.9808 14.681 38.4965 14.6811C38.0924 14.6813 37.6884 14.682 37.2843 14.6827C36.3311 14.6843 35.3779 14.6848 34.4247 14.6847C33.441 14.6846 32.4572 14.6866 31.4735 14.6897C30.6292 14.6923 29.7849 14.6933 28.9406 14.6932C28.4362 14.6931 27.9318 14.6937 27.4274 14.6957C26.9531 14.6976 26.4789 14.6977 26.0046 14.6962C25.8305 14.696 25.6564 14.6965 25.4822 14.6977C25.2446 14.6992 25.0071 14.6983 24.7695 14.6968C24.7005 14.6978 24.6315 14.6988 24.5605 14.6998C24.0973 14.6933 23.8591 14.5882 23.5356 14.2579C23.4707 14.0412 23.4707 14.0412 23.4745 13.8184C23.4733 13.7449 23.472 13.6714 23.4707 13.5956C23.6539 12.9836 24.2147 12.9317 24.7688 12.9387Z" fill="#014339"/>
<path d="M37.8906 35.7421C38.4338 36.2293 38.7321 36.698 38.7995 37.4382C38.8051 37.7566 38.8102 38.0749 38.8111 38.3933C38.8123 38.5968 38.8171 38.7999 38.822 39.0033C38.8317 39.7988 38.7649 40.4574 38.2813 41.1132C37.7942 41.5885 37.2826 41.8891 36.5841 41.8972C35.8486 41.8534 35.3072 41.6548 34.784 41.1315C34.2706 40.3834 34.2284 39.7153 34.2338 38.84C34.2346 38.6363 34.2318 38.4329 34.2287 38.2293C34.224 37.3661 34.2956 36.6819 34.8564 36.0019C35.7722 35.2498 36.8588 35.0581 37.8906 35.7421ZM36.1119 37.1721C35.7892 37.5981 35.8776 38.1079 35.8826 38.623C35.8803 38.7344 35.8779 38.8458 35.8755 38.9606C35.8594 39.5978 35.8594 39.5978 36.1851 40.1153C36.2645 40.1546 36.344 40.1939 36.4258 40.2343C36.7105 40.1294 36.8924 40.0607 37.1094 39.8437C37.1568 39.4428 37.1456 39.0386 37.146 38.6352C37.1484 38.5229 37.1508 38.4106 37.1533 38.2949C37.1536 38.1869 37.154 38.0789 37.1544 37.9676C37.1552 37.8686 37.156 37.7696 37.1568 37.6677C37.0965 37.33 36.9925 37.2136 36.7188 37.0117C36.3356 36.9729 36.3356 36.9729 36.1119 37.1721Z" fill="#014339"/>
<path d="M30.9572 29.5899C31.4496 29.9578 31.7411 30.3716 31.9337 30.957C31.9842 31.4184 31.98 31.8789 31.9773 32.3426C31.9765 32.5614 31.9793 32.78 31.9824 32.9989C31.9867 33.8649 31.9398 34.4915 31.3581 35.1799C30.7794 35.6726 30.2765 35.8873 29.4969 35.8647C28.7874 35.7766 28.2561 35.4436 27.8139 34.8877C27.4031 34.1511 27.4086 33.4045 27.411 32.5806C27.4094 32.4758 27.4079 32.3711 27.4063 32.2632C27.4058 31.4855 27.4696 30.6866 27.9481 30.0415C28.7951 29.2511 29.91 29.0662 30.9572 29.5899ZM29.1994 31.25C29.0554 31.6819 29.0797 32.1038 29.0773 32.5562C29.0753 32.6486 29.0733 32.741 29.0712 32.8362C29.064 33.5092 29.064 33.5092 29.3947 34.082C29.6284 34.1955 29.6284 34.1955 29.8829 34.1797C30.1013 34.078 30.1013 34.078 30.2736 33.8867C30.3339 33.6088 30.3339 33.6088 30.3254 33.2916C30.326 33.1749 30.3265 33.0582 30.327 32.938C30.3255 32.816 30.324 32.6941 30.3224 32.5684C30.3239 32.4464 30.3254 32.3244 30.327 32.1987C30.3265 32.082 30.326 31.9653 30.3254 31.8451C30.325 31.738 30.3246 31.631 30.3241 31.5207C30.2978 31.2406 30.2978 31.2406 30.0933 31.0663C29.7012 30.8626 29.5067 30.9734 29.1994 31.25Z" fill="#014339"/>
<path d="M35.6812 31.012C36.0275 31.0203 36.106 31.0325 36.3831 31.2622C36.5471 31.5902 36.5553 31.7658 36.5234 32.1289C36.4033 32.3765 36.4033 32.3765 36.2331 32.6233C36.1702 32.7161 36.1072 32.8089 36.0424 32.9045C35.9735 33.003 35.9047 33.1016 35.8337 33.2031C35.7631 33.3066 35.6924 33.41 35.6196 33.5166C35.4727 33.7314 35.3254 33.9458 35.1772 34.1598C34.9776 34.4485 34.7796 34.7384 34.5825 35.0288C34.2827 35.4705 33.9817 35.9113 33.6802 36.3518C33.4253 36.7247 33.1711 37.0981 32.9169 37.4715C32.6756 37.8257 32.4339 38.1797 32.1922 38.5336C32.0447 38.7498 31.8977 38.9664 31.7509 39.183C31.6714 39.2995 31.5919 39.416 31.5125 39.5325C31.4464 39.6298 31.3803 39.7271 31.3122 39.8273C31.1523 40.0391 31.1523 40.0391 30.957 40.1367C30.2573 40.1931 30.2573 40.1931 29.9377 39.9719C29.7577 39.7054 29.6875 39.5816 29.6875 39.2578C29.901 38.723 30.2167 38.2483 30.5481 37.7808C30.6439 37.6435 30.7397 37.5061 30.8353 37.3688C30.8865 37.2956 30.9376 37.2225 30.9903 37.1471C31.2833 36.7257 31.5716 36.3009 31.8604 35.8765C31.9853 35.6931 32.1103 35.5097 32.2353 35.3264C32.4913 34.9507 32.7468 34.5748 33.0021 34.1988C34.0905 32.5967 34.0905 32.5967 34.6497 31.8115C34.689 31.7562 34.7283 31.7009 34.7688 31.6439C35.213 31.0252 35.213 31.0252 35.6812 31.012Z" fill="#014339"/>
<path d="M24.5204 21.763C24.6015 21.7623 24.6825 21.7616 24.766 21.7609C24.8989 21.7605 24.8989 21.7605 25.0345 21.7601C25.128 21.7594 25.2216 21.7588 25.318 21.7581C25.6279 21.7562 25.9378 21.7551 26.2478 21.7541C26.4064 21.7535 26.4064 21.7535 26.5683 21.7529C27.128 21.7508 27.6877 21.7494 28.2473 21.7485C28.8259 21.7474 29.4044 21.7441 29.9829 21.7402C30.4274 21.7377 30.8719 21.7368 31.3164 21.7365C31.5297 21.736 31.743 21.7349 31.9563 21.7331C32.2546 21.7307 32.5528 21.7308 32.8512 21.7315C32.9393 21.7302 33.0275 21.729 33.1184 21.7277C33.5185 21.731 33.7361 21.7455 34.0861 21.9545C34.3522 22.251 34.3754 22.4572 34.3754 22.8516C34.244 23.1394 34.1717 23.2952 33.8871 23.4375C33.7558 23.4472 33.6241 23.4511 33.4924 23.4519C33.4099 23.4526 33.3273 23.4533 33.2423 23.454C33.1061 23.4544 33.1061 23.4544 32.9672 23.4548C32.8718 23.4554 32.7763 23.4561 32.678 23.4567C32.3612 23.4587 32.0444 23.4598 31.7276 23.4608C31.5655 23.4614 31.5655 23.4614 31.4002 23.462C30.8285 23.464 30.2568 23.4654 29.6851 23.4663C29.094 23.4674 28.5029 23.4708 27.9118 23.4746C27.4578 23.4772 27.0039 23.478 26.5499 23.4784C26.3319 23.4788 26.114 23.48 25.8961 23.4818C25.5912 23.4842 25.2864 23.4841 24.9816 23.4834C24.8914 23.4847 24.8012 23.4859 24.7083 23.4872C24.297 23.4838 24.0803 23.4725 23.7234 23.2515C23.5355 23.0469 23.5355 23.0469 23.4775 22.8516C23.4966 22.4449 23.5132 22.167 23.8285 21.875C24.0932 21.7868 24.2484 21.7646 24.5204 21.763Z" fill="#014339"/>
<path d="M36.9912 21.7489C37.105 21.7477 37.2187 21.7464 37.3359 21.7451C37.4584 21.7449 37.5809 21.7447 37.7071 21.7445C37.8333 21.7438 37.9595 21.7432 38.0895 21.7425C38.3563 21.7413 38.6232 21.741 38.8901 21.7411C39.2314 21.7411 39.5726 21.7385 39.9139 21.7351C40.2403 21.7324 40.5667 21.7325 40.8931 21.7323C41.0766 21.7302 41.0766 21.7302 41.2637 21.728C41.3778 21.7286 41.4918 21.7292 41.6093 21.7298C41.7094 21.7296 41.8095 21.7293 41.9126 21.729C42.2631 21.7906 42.4256 21.9187 42.6757 22.1679C42.7896 22.5593 42.8156 22.759 42.6452 23.1323C42.4804 23.3398 42.4804 23.3398 42.2851 23.4374C42.0983 23.4488 41.911 23.454 41.7239 23.4563C41.6062 23.4579 41.4885 23.4594 41.3673 23.461C40.8289 23.4654 40.2905 23.4694 39.7521 23.4716C39.4678 23.4729 39.1836 23.4757 38.8993 23.4796C38.5559 23.4845 38.2125 23.4869 37.8691 23.4876C37.6749 23.4886 37.4808 23.4919 37.2866 23.4953C36.3057 23.493 36.3057 23.493 36.0026 23.2088C35.8046 22.8931 35.7852 22.7297 35.8398 22.3632C35.9231 22.1135 35.9803 22.0075 36.2027 21.866C36.4776 21.7566 36.6954 21.7511 36.9912 21.7489Z" fill="#014339"/>
</svg>
