<svg width="50" height="50" viewBox="0 0 50 50" fill="none" xmlns="http://www.w3.org/2000/svg">
<path d="M24.121 4.14906C24.2562 4.14884 24.2562 4.14884 24.3941 4.14863C24.5833 4.14879 24.7724 4.14991 24.9616 4.15194C25.2494 4.15477 25.537 4.15395 25.8249 4.15268C26.0097 4.15329 26.1945 4.15411 26.3793 4.15516C26.5069 4.15473 26.5069 4.15473 26.6371 4.15429C27.2526 4.16368 27.8081 4.22398 28.2933 4.63256C28.6818 5.04647 28.8449 5.47023 28.9905 6.01063C29.039 6.17048 29.0879 6.33025 29.137 6.48995C29.2116 6.73829 29.2842 6.98663 29.3519 7.23693C29.5794 8.18025 29.5794 8.18025 30.1565 8.91833C30.5985 9.14788 31.0613 9.25595 31.5425 9.37328C31.7956 9.49497 31.7956 9.49497 31.9942 9.61132C32.3832 9.79143 32.5013 9.7687 32.9097 9.66625C33.139 9.56354 33.3562 9.45797 33.5769 9.33972C33.7045 9.27369 33.8321 9.2077 33.9597 9.14173C34.1579 9.03808 34.3559 8.934 34.5536 8.82926C35.3912 8.38713 36.077 8.0338 37.054 8.14037C37.9489 8.54855 38.6605 9.43693 39.354 10.1246C39.4491 10.2186 39.5446 10.3121 39.6405 10.4052C40.8554 11.5842 40.8554 11.5842 40.8687 12.4189C40.8311 13.2251 40.4094 13.9219 40.0314 14.6147C39.9508 14.7638 39.9508 14.7638 39.8686 14.916C39.7592 15.1171 39.6479 15.3172 39.5346 15.5161C39.2317 16.0367 39.2317 16.0367 39.2017 16.6159C39.2523 16.7073 39.3029 16.7987 39.355 16.8928C39.4113 17.0255 39.4663 17.1589 39.5202 17.2926C39.6116 17.5087 39.7036 17.7245 39.7966 17.94C39.9651 18.3401 40.086 18.7034 40.1363 19.1389C40.2537 19.1623 40.3712 19.1857 40.4922 19.2099C41.1256 19.351 41.7367 19.5567 42.3519 19.7615C42.5272 19.8181 42.5272 19.8181 42.706 19.8759C43.5154 20.1443 44.1279 20.369 44.6285 21.092C44.7208 21.369 44.7405 21.5486 44.745 21.8362C44.7473 21.9731 44.7473 21.9731 44.7497 22.1128C44.7541 22.5309 44.7581 22.9489 44.7603 23.3669C44.7619 23.5869 44.7646 23.8069 44.7683 24.0269C44.7737 24.345 44.7758 24.663 44.7772 24.9811C44.7795 25.0787 44.7817 25.1763 44.7839 25.2768C44.782 25.9173 44.6829 26.3755 44.2378 26.8538C43.8141 27.1899 43.2982 27.3528 42.7894 27.5175C42.7193 27.5408 42.6492 27.5641 42.577 27.5881C42.4303 27.6367 42.2835 27.6849 42.1365 27.7328C41.9111 27.8063 41.686 27.881 41.4609 27.9558C41.3178 28.0031 41.1747 28.0502 41.0316 28.0973C40.9642 28.1196 40.8969 28.1419 40.8275 28.1648C40.3544 28.3186 40.3544 28.3186 40.1363 28.3186C40.1273 28.3974 40.1184 28.4762 40.1092 28.5574C40.0214 28.989 39.8635 29.3676 39.6907 29.7712C39.6425 29.886 39.6425 29.886 39.5933 30.0032C39.5144 30.1906 39.4348 30.3777 39.355 30.5647C39.5094 30.5041 39.5094 30.5041 39.6669 30.4423C40.051 30.2916 40.4352 30.1414 40.8195 29.9913C40.9854 29.9264 41.1512 29.8615 41.317 29.7964C41.5562 29.7025 41.7955 29.609 42.0349 29.5156C42.1082 29.4868 42.1816 29.4579 42.2572 29.4281C43.1912 29.0648 44.1455 28.7878 45.1412 29.106C45.8694 29.433 46.3649 29.9715 46.688 30.6944C46.9618 31.498 46.9231 32.2314 46.5816 33.0061C46.3182 33.4982 45.9449 33.844 45.5196 34.1982C45.3876 34.3095 45.2589 34.425 45.1351 34.5453C44.4221 35.2309 43.5739 35.729 42.7428 36.2566C42.3216 36.525 41.9035 36.7982 41.4852 37.071C40.6808 37.5942 39.8753 38.1157 39.0695 38.6367C38.7946 38.8145 38.5197 38.9923 38.2449 39.1702C38.1061 39.26 37.9674 39.3497 37.8286 39.4395C37.485 39.6617 37.1416 39.8842 36.7984 40.1072C36.3817 40.3778 35.9642 40.6472 35.5464 40.9163C35.4721 40.9642 35.3979 41.0122 35.3213 41.0617C34.2154 41.7748 33.0955 42.4474 31.9332 43.0647C31.8661 43.1004 31.799 43.1362 31.7299 43.173C30.0525 44.0597 28.1907 44.8377 26.2691 44.9202C26.1409 44.9277 26.1409 44.9277 26.0101 44.9354C24.3907 44.9854 22.7955 44.6222 21.2215 44.2854C18.3786 43.6776 15.5382 43.5477 12.6399 43.498C12.4076 43.4938 12.1752 43.4896 11.9428 43.4853C11.3797 43.4749 10.8166 43.465 10.2535 43.4553C10.2559 43.5278 10.2583 43.6004 10.2608 43.6751C10.2626 43.7709 10.2645 43.8666 10.2664 43.9653C10.2688 44.06 10.2712 44.1547 10.2737 44.2522C10.2416 44.6922 10.0565 44.9883 9.76518 45.3108C9.30787 45.6748 8.94637 45.8086 8.3712 45.8164C8.28968 45.8176 8.20816 45.8189 8.12417 45.8202C7.99309 45.8212 7.99309 45.8212 7.85936 45.8223C7.76856 45.8231 7.67776 45.8239 7.58421 45.8247C7.39213 45.8261 7.20005 45.8271 7.00797 45.8279C6.8123 45.829 6.61663 45.831 6.42098 45.8339C6.13748 45.8381 5.85407 45.8396 5.57054 45.8406C5.48395 45.8424 5.39735 45.8441 5.30813 45.8458C4.66727 45.8436 4.14906 45.708 3.65906 45.2775C3.05123 44.6143 3.09584 43.8248 3.09774 42.98C3.09724 42.865 3.09674 42.7499 3.09622 42.6314C3.0951 42.3174 3.09486 42.0035 3.09511 41.6895C3.09521 41.4267 3.09473 41.1639 3.09427 40.9011C3.09319 40.2807 3.09314 39.6604 3.09373 39.04C3.09432 38.4016 3.09312 37.7632 3.09104 37.1247C3.08931 36.5751 3.08873 36.0255 3.08905 35.4758C3.08923 35.1482 3.08885 34.8206 3.08761 34.493C3.08641 34.1274 3.08707 33.7619 3.0882 33.3964C3.08745 33.2888 3.08671 33.1813 3.08594 33.0705C3.09096 32.3351 3.16094 31.7557 3.64336 31.1689C4.25507 30.671 4.74916 30.6186 5.51103 30.6234C5.60852 30.6232 5.70601 30.6229 5.80646 30.6226C6.01198 30.6224 6.21751 30.6229 6.42303 30.6242C6.7368 30.6257 7.05045 30.6242 7.36421 30.6223C7.56436 30.6225 7.7645 30.6229 7.96465 30.6234C8.05805 30.6228 8.15144 30.6223 8.24767 30.6216C8.84934 30.628 9.29206 30.6991 9.75183 31.1232C9.79854 31.1806 9.84524 31.238 9.89336 31.2971C9.94132 31.3545 9.98928 31.4119 10.0387 31.4711C10.1558 31.6389 10.1558 31.6389 10.2535 31.9319C10.5824 31.9374 10.5824 31.9374 10.9371 31.8342C11.1318 31.6313 11.255 31.4223 11.3277 31.1506C11.2777 30.8188 11.1874 30.5325 11.053 30.2259C11.0185 30.146 10.984 30.0661 10.9485 29.9837C10.9125 29.9015 10.8765 29.8193 10.8394 29.7346C10.7678 29.571 10.6965 29.4073 10.6258 29.2433C10.5942 29.1712 10.5626 29.0991 10.53 29.0249C10.443 28.7913 10.3938 28.5638 10.3511 28.3186C10.2886 28.3023 10.2261 28.2861 10.1616 28.2693C9.42608 28.0739 8.70392 27.848 7.98296 27.6045C7.81717 27.551 7.81717 27.551 7.64803 27.4963C6.42613 27.0821 6.42613 27.0821 6.05425 26.5608C5.77901 25.9643 5.71674 25.4674 5.71893 24.8156C5.71842 24.7255 5.71791 24.6355 5.71738 24.5428C5.71676 24.3535 5.71688 24.1641 5.71772 23.9748C5.71855 23.6872 5.71574 23.3997 5.71264 23.1121C5.71248 22.9272 5.71254 22.7422 5.71283 22.5573C5.71118 22.43 5.71118 22.43 5.70951 22.3001C5.71711 21.6233 5.86565 21.0196 6.32781 20.5059C6.96864 20.1049 7.65649 19.8744 8.37444 19.654C8.58317 19.5899 8.79119 19.5239 8.99919 19.4574C10.0089 19.1389 10.0089 19.1389 10.3511 19.1389C10.3643 19.0784 10.3776 19.0178 10.3912 18.9554C10.5523 18.2927 10.7927 17.7109 11.108 17.1093C11.3035 16.7202 11.3513 16.526 11.23 16.1116C11.127 15.8907 11.0174 15.6728 10.9035 15.4573C10.8374 15.3299 10.7714 15.2024 10.7055 15.0749C10.602 14.8764 10.4981 14.6781 10.393 14.4804C9.50328 12.8001 9.50328 12.8001 9.74687 11.8147C9.95066 11.3489 10.3253 11.0297 10.6887 10.6852C10.8977 10.4852 11.0864 10.2836 11.2728 10.063C12.8004 8.28974 12.8004 8.28974 13.7935 8.10375C14.8987 8.04135 15.9805 8.82315 16.9061 9.34029C17.0095 9.39612 17.1129 9.45195 17.2195 9.50947C17.3119 9.56068 17.4042 9.61189 17.4994 9.66466C17.9714 9.83588 18.3619 9.68487 18.8049 9.48925C18.8845 9.45476 18.9641 9.42027 19.0462 9.38473C19.1275 9.34873 19.2089 9.31272 19.2928 9.27563C19.4555 9.20399 19.6184 9.13276 19.7814 9.06201C19.8529 9.03041 19.9243 8.99881 19.9979 8.96626C20.2309 8.8788 20.4578 8.82994 20.7027 8.78735C20.738 8.61098 20.738 8.61098 20.774 8.43105C20.9146 7.80034 21.1167 7.19098 21.3191 6.57787C21.3561 6.46181 21.393 6.34574 21.4311 6.22616C21.8981 4.81028 21.8981 4.81028 22.4495 4.47659C23.0201 4.2101 23.4953 4.14097 24.121 4.14906ZM23.2417 5.66235C22.9891 6.20698 22.7712 6.74796 22.5952 7.32174C22.5498 7.46443 22.5043 7.6071 22.4588 7.74975C22.3888 7.97067 22.3193 8.19171 22.2512 8.41322C22.1844 8.62977 22.1153 8.84551 22.0458 9.06124C22.0261 9.12746 22.0063 9.19369 21.986 9.26192C21.8848 9.57058 21.8047 9.74249 21.5448 9.94291C21.3069 10.0488 21.0714 10.1501 20.8267 10.2392C20.6968 10.2874 20.6968 10.2874 20.5644 10.3365C20.3859 10.4017 20.2074 10.4668 20.0288 10.5318C19.4932 10.7306 18.9937 10.954 18.495 11.2338C18.1415 11.3739 17.8558 11.3964 17.4954 11.2566C17.2889 11.1568 17.0884 11.0493 16.8876 10.9385C16.736 10.8579 16.5843 10.7773 16.4327 10.6968C16.1957 10.569 15.959 10.4407 15.7223 10.3122C15.4929 10.1882 15.2626 10.0659 15.0321 9.94358C14.9617 9.90463 14.8913 9.86567 14.8188 9.82554C14.5446 9.68041 14.3168 9.57094 14.0041 9.55863C13.6564 9.71786 13.4084 9.96541 13.1412 10.232C13.0831 10.289 13.0251 10.346 12.9652 10.4047C12.8431 10.5253 12.7215 10.6464 12.6004 10.768C12.4145 10.9537 12.226 11.1363 12.0372 11.319C11.9188 11.4366 11.8005 11.5544 11.6825 11.6724C11.6258 11.7267 11.5692 11.7811 11.5108 11.8371C11.2604 12.0934 11.133 12.2331 11.1297 12.5988C11.2355 12.9049 11.3563 13.1855 11.5035 13.4741C11.5863 13.6378 11.5863 13.6378 11.6708 13.8048C11.7288 13.9175 11.7868 14.0302 11.8465 14.1462C11.9033 14.2581 11.9602 14.3701 12.0187 14.4854C12.1021 14.6495 12.1021 14.6495 12.1871 14.8169C12.2407 14.9227 12.2943 15.0285 12.3495 15.1376C12.44 15.3128 12.5331 15.4868 12.6309 15.6581C12.8873 16.1158 12.9348 16.3868 12.7925 16.8928C12.6842 17.1607 12.5576 17.4167 12.4263 17.6741C12.0944 18.3451 11.8468 19.0081 11.6405 19.7271C11.5047 20.0632 11.4373 20.125 11.1324 20.3108C10.8641 20.4183 10.5901 20.5036 10.3141 20.5889C10.2352 20.614 10.1562 20.6391 10.0749 20.665C9.82334 20.745 9.57152 20.824 9.31963 20.9028C9.06742 20.9821 8.8153 21.0616 8.56334 21.1417C8.40677 21.1914 8.25004 21.2406 8.09316 21.2894C7.76974 21.3918 7.51026 21.4885 7.22612 21.678C7.1079 22.0326 7.11077 22.3606 7.10863 22.7301C7.10807 22.8044 7.10751 22.8787 7.10694 22.9552C7.10602 23.1123 7.10538 23.2694 7.105 23.4265C7.10406 23.6662 7.10103 23.9057 7.09795 24.1453C7.09731 24.2982 7.0968 24.451 7.09642 24.6038C7.09522 24.6752 7.09401 24.7465 7.09277 24.82C7.09466 25.2559 7.12492 25.5494 7.42143 25.8772C7.68637 25.9988 7.92555 26.0902 8.20192 26.1744C8.31661 26.2116 8.31661 26.2116 8.43362 26.2497C8.67759 26.3286 8.92225 26.4051 9.16704 26.4814C9.41092 26.5594 9.65465 26.6379 9.89837 26.7163C10.0499 26.7649 10.2015 26.8131 10.3532 26.8608C10.5483 26.9223 10.7427 26.9855 10.9371 27.0491C11.0302 27.078 11.1234 27.107 11.2194 27.1369C11.4843 27.2752 11.5243 27.3809 11.6199 27.6606C11.6501 27.745 11.6803 27.8295 11.7114 27.9165C11.7419 28.0069 11.7724 28.0973 11.8038 28.1904C11.8702 28.3773 11.937 28.5639 12.0044 28.7504C12.0377 28.8428 12.0711 28.9351 12.1054 29.0302C12.2929 29.5213 12.5296 29.9866 12.7681 30.4544C12.8968 30.7765 12.915 31.0027 12.8902 31.3459C13.5646 31.1459 14.1759 30.8677 14.8006 30.5464C14.8898 30.5011 14.979 30.4559 15.0709 30.4092C15.2883 30.2988 15.5054 30.1879 15.7222 30.0764C15.591 29.725 15.4306 29.3963 15.2567 29.0642C13.8767 26.4118 13.481 23.2975 14.355 20.4084C14.9211 18.6454 15.7805 17.1319 17.0894 15.8186C17.1714 15.736 17.2533 15.6534 17.3377 15.5684C19.5449 13.3788 22.4287 12.3611 25.5073 12.3711C28.5731 12.425 31.3876 13.6864 33.544 15.8589C35.6455 18.075 36.6905 21.1073 36.6186 24.1373C36.4781 27.3658 35.0481 30.2004 32.6851 32.3738C32.0436 32.9305 31.3135 33.3875 30.566 33.7873C30.9138 33.9113 31.1043 33.8586 31.4438 33.7261C31.5408 33.6889 31.6377 33.6517 31.7375 33.6133C31.8942 33.5512 31.8942 33.5512 32.0541 33.4879C32.2171 33.4247 32.2171 33.4247 32.3834 33.3603C32.7322 33.2249 33.0803 33.0881 33.4285 32.9512C33.6589 32.8615 33.8894 32.7719 34.1199 32.6824C34.5619 32.5107 35.0034 32.3376 35.4444 32.1634C35.802 32.0223 36.1602 31.8842 36.5209 31.7511C36.5904 31.7249 36.66 31.6987 36.7317 31.6718C36.9078 31.6057 37.0845 31.541 37.2612 31.4764C37.5139 31.3708 37.5139 31.3708 37.5799 31.1471C37.5885 31.0522 37.5885 31.0522 37.5972 30.9553C37.837 30.2902 38.1322 29.6459 38.4202 29.0007C38.6299 28.5262 38.8051 28.0485 38.953 27.5507C39.2129 27.0536 39.8554 26.9328 40.3568 26.7744C40.5141 26.7233 40.6714 26.6722 40.8286 26.6211C41.0752 26.5417 41.3219 26.4626 41.5686 26.3839C41.8078 26.3073 42.0467 26.2296 42.2855 26.1518C42.3593 26.1286 42.4332 26.1054 42.5093 26.0815C43.0142 25.9389 43.0142 25.9389 43.3589 25.5842C43.3893 25.3016 43.4023 25.0404 43.4013 24.7576C43.4018 24.6766 43.4023 24.5955 43.4028 24.512C43.4035 24.3407 43.4033 24.1694 43.4025 23.9981C43.4017 23.7361 43.4045 23.4744 43.4076 23.2124C43.4077 23.0459 43.4077 22.8794 43.4074 22.7129C43.409 22.5955 43.409 22.5955 43.4107 22.4758C43.4067 22.1518 43.389 21.9211 43.2144 21.644C42.8653 21.4151 42.5055 21.3059 42.1073 21.1874C41.9364 21.1335 41.7654 21.0796 41.5944 21.0257C41.3257 20.9424 41.0568 20.8598 40.7876 20.7783C40.527 20.6989 40.2674 20.6168 40.0077 20.5343C39.9272 20.5108 39.8466 20.4873 39.7636 20.4631C39.3664 20.3353 39.2023 20.2782 38.967 19.9185C38.9339 19.8224 38.9008 19.7262 38.8667 19.6272C38.8311 19.53 38.7955 19.4328 38.7588 19.3327C38.7239 19.2285 38.689 19.1242 38.6531 19.0168C38.5104 18.6002 38.3572 18.2063 38.1629 17.811C38.126 17.7346 38.0891 17.6581 38.051 17.5794C37.9779 17.4301 37.9025 17.2819 37.8245 17.1351C37.6345 16.7434 37.5609 16.4926 37.693 16.0696C37.7548 15.9192 37.8208 15.7704 37.8902 15.6233C37.9257 15.5463 37.9612 15.4692 37.9978 15.3898C38.1144 15.1459 38.2364 14.9054 38.3602 14.665C38.403 14.5799 38.4458 14.4948 38.4899 14.4071C38.6777 14.0346 38.8678 13.6644 39.0712 13.3001C39.1266 13.1987 39.182 13.0972 39.2391 12.9927C39.288 12.9072 39.337 12.8217 39.3875 12.7337C39.4816 12.4951 39.4816 12.4951 39.3442 12.276C39.1281 11.9644 38.8819 11.6951 38.6176 11.4248C38.5653 11.3711 38.5129 11.3174 38.4589 11.262C38.3485 11.1493 38.2377 11.0369 38.1267 10.9247C37.9573 10.7527 37.7904 10.5784 37.6233 10.404C37.5155 10.2945 37.4075 10.1852 37.2993 10.076C37.2498 10.0236 37.2004 9.9712 37.1494 9.91724C36.9108 9.68149 36.7777 9.5699 36.4367 9.56242C36.0609 9.69063 35.72 9.85368 35.3694 10.0389C35.2227 10.1143 35.076 10.1896 34.9292 10.265C34.7002 10.3837 34.4713 10.5029 34.2427 10.6225C34.0206 10.7382 33.7979 10.8525 33.575 10.9667C33.4733 11.0207 33.4733 11.0207 33.3696 11.0758C32.9729 11.2782 32.6819 11.3823 32.2261 11.3264C32.0141 11.255 32.0141 11.255 31.8179 11.1547C31.7441 11.1181 31.6702 11.0815 31.5941 11.0438C31.5166 11.0042 31.4392 10.9645 31.3594 10.9236C30.6571 10.5699 30.6571 10.5699 29.919 10.3033C29.8138 10.271 29.8138 10.271 29.7065 10.2381C29.5162 10.1825 29.3243 10.1325 29.1324 10.0828C28.777 9.91193 28.6903 9.65374 28.5491 9.29661C28.4698 9.06271 28.3935 8.82777 28.3199 8.59203C28.2813 8.47432 28.2428 8.3566 28.203 8.23531C28.0467 7.75311 27.8966 7.26907 27.7467 6.78482C27.7099 6.66781 27.6731 6.5508 27.6351 6.43025C27.6024 6.32479 27.5698 6.21934 27.5361 6.11069C27.4566 5.84642 27.4566 5.84642 27.2457 5.66235C26.9444 5.64521 26.6519 5.63977 26.3507 5.64327C26.2621 5.64355 26.1735 5.64383 26.0823 5.64411C25.7987 5.64521 25.5151 5.64766 25.2315 5.65014C25.0395 5.65112 24.8475 5.65201 24.6555 5.65281C24.1842 5.65497 23.713 5.65834 23.2417 5.66235ZM18.8472 16.0139C18.7771 16.0683 18.707 16.1227 18.6347 16.1787C16.7189 17.7419 15.5399 20.2719 15.2522 22.6973C15.2439 22.8457 15.2377 22.9942 15.2339 23.1428C15.2266 23.2682 15.2266 23.2682 15.2191 23.3961C15.1468 25.4989 15.7634 27.831 17.0894 29.4905C17.1581 29.4764 17.2269 29.4623 17.2977 29.4477C18.3478 29.2503 19.3158 29.1954 20.358 29.4645C20.4255 29.4819 20.493 29.4993 20.5626 29.5173C21.2887 29.7069 22.0078 29.9199 22.726 30.1374C22.8664 30.1798 23.0068 30.222 23.1472 30.2643C23.4381 30.352 23.7289 30.4401 24.0197 30.5283C24.3902 30.6406 24.7611 30.752 25.132 30.8631C25.4207 30.9497 25.7092 31.037 25.9976 31.1245C26.1343 31.1659 26.271 31.207 26.4078 31.2478C28.3562 31.8308 28.3562 31.8308 29.0523 32.7009C29.1965 32.8345 29.1965 32.8345 29.409 32.7925C29.7641 32.6912 30.0629 32.5242 30.3768 32.3347C30.4409 32.2961 30.505 32.2574 30.5711 32.2176C31.2309 31.8062 31.7728 31.3045 32.3238 30.76C32.3948 30.6961 32.4658 30.6321 32.5389 30.5662C34.2454 28.9941 35.1599 26.4575 35.2783 24.185C35.3749 21.3797 34.375 18.7989 32.4669 16.7502C31.7518 15.9989 30.9804 15.4481 30.0777 14.9397C29.9843 14.8863 29.8909 14.8329 29.7946 14.7779C26.2223 12.8597 21.9565 13.5824 18.8472 16.0139ZM42.5811 30.8043C42.4902 30.8401 42.3993 30.876 42.3056 30.913C42.007 31.0313 41.7095 31.152 41.4119 31.2727C41.2014 31.3565 40.9907 31.4401 40.78 31.5235C40.337 31.6989 39.8942 31.8751 39.4516 32.0518C38.4383 32.455 37.42 32.8453 36.4018 33.2357C36.0878 33.3561 35.7739 33.4769 35.4601 33.5979C34.8707 33.8248 34.2809 34.0504 33.691 34.2756C33.5858 34.3159 33.4807 34.3561 33.3724 34.3975C33.0549 34.5189 32.737 34.6396 32.4191 34.7601C32.3232 34.7969 32.2272 34.8336 32.1283 34.8715C31.3121 35.1795 30.5033 35.4094 29.6287 35.4731C29.219 35.562 29.1201 35.6868 28.8692 36.0151C28.377 36.6031 27.8225 36.9308 27.0503 37.01C26.4418 37.0338 25.9102 36.953 25.3181 36.8177C25.1333 36.7776 24.9485 36.7376 24.7636 36.6976C24.4773 36.6347 24.1911 36.5713 23.9051 36.5066C21.8857 36.0525 20.118 35.9526 18.1392 36.6304C17.8048 36.7383 17.5362 36.75 17.1871 36.717C16.9978 36.6072 16.9978 36.6072 16.8941 36.4241C16.8316 35.9241 16.8316 35.9241 17.0028 35.6886C18.1107 34.8261 20.3363 34.6387 21.6792 34.7639C22.948 34.9265 24.2015 35.1726 25.4407 35.489C26.123 35.6563 26.8296 35.802 27.4776 35.478C27.9383 35.0975 27.9383 35.0975 28.1619 34.5613C28.1895 34.0207 28.0919 33.6122 27.7339 33.2014C27.0101 32.7684 26.1981 32.5642 25.3948 32.3275C25.2435 32.2823 25.0923 32.2371 24.9411 32.1919C24.5453 32.0736 24.1491 31.9562 23.7529 31.839C23.4292 31.7431 23.1057 31.6465 22.7822 31.55C22.1137 31.3504 21.4451 31.1512 20.7762 30.9531C20.658 30.9181 20.5398 30.8831 20.418 30.847C19.9336 30.7071 19.5201 30.6388 19.012 30.6257C18.8875 30.6209 18.763 30.6162 18.6347 30.6112C17.5219 30.6726 16.4355 31.2537 15.4533 31.7384C14.2368 32.3357 13.0372 32.7846 11.7183 33.1038C11.2349 33.2327 10.7515 33.3616 10.2535 33.4944C10.2535 36.3303 10.2535 39.1663 10.2535 42.0881C11.188 42.0881 12.1226 42.0881 13.0855 42.0881C16.3829 42.131 19.5451 42.4593 22.7726 43.1295C25.5188 43.6981 27.7339 43.4677 30.273 42.2834C30.3397 42.2527 30.4063 42.222 30.475 42.1904C32.3435 41.3213 34.0589 40.1664 35.7757 39.0357C36.1436 38.7939 36.5132 38.5548 36.8831 38.3162C37.4799 37.9306 38.0759 37.5439 38.6714 37.1565C39.2793 36.7611 39.8875 36.3663 40.4964 35.9724C40.5633 35.9291 40.6302 35.8857 40.6992 35.8411C41.0464 35.6163 41.3942 35.3923 41.7426 35.1694C42.1529 34.9067 42.5614 34.6413 42.9683 34.3733C43.0668 34.3085 43.1652 34.2436 43.2666 34.1768C43.9886 33.6777 45.0084 32.9299 45.4097 32.1272C45.4594 31.5308 45.4173 31.2356 45.0191 30.76C44.6346 30.413 44.3409 30.4213 43.8397 30.4362C43.3874 30.4851 42.9993 30.631 42.5811 30.8043ZM4.71509 32.1482C4.5488 32.3788 4.5528 32.5219 4.55286 32.805C4.55217 32.9046 4.55149 33.0041 4.55078 33.1067C4.55153 33.2158 4.55227 33.3249 4.55304 33.4374C4.55269 33.5524 4.55233 33.6673 4.55196 33.7858C4.55131 34.1012 4.55196 34.4165 4.55327 34.7319C4.55437 35.0616 4.55397 35.3914 4.55378 35.7212C4.55369 36.2749 4.55477 36.8287 4.55657 37.3824C4.55864 38.023 4.55898 38.6637 4.55837 39.3043C4.55782 39.9202 4.55837 40.536 4.55946 41.1519C4.55992 41.4142 4.56 41.6765 4.5598 41.9389C4.55976 42.3048 4.56099 42.6707 4.56258 43.0367C4.56234 43.146 4.5621 43.2553 4.56185 43.368C4.56254 43.4672 4.56323 43.5665 4.56394 43.6688C4.56414 43.7554 4.56434 43.842 4.56455 43.9312C4.57021 44.16 4.57021 44.16 4.78471 44.3342C5.07666 44.355 5.35932 44.3639 5.65141 44.3636C5.73738 44.364 5.82334 44.3644 5.91191 44.3649C6.09382 44.3654 6.27574 44.3655 6.45765 44.3651C6.73673 44.3647 7.01571 44.367 7.29479 44.3695C7.47128 44.3697 7.64777 44.3698 7.82427 44.3697C7.95 44.371 7.95 44.3711 8.07828 44.3724C8.33755 44.3738 8.33755 44.3738 8.69096 44.3342C8.90249 44.0169 8.91088 43.9296 8.91174 43.5631C8.91277 43.4152 8.91277 43.4152 8.91383 43.2644C8.91359 43.1563 8.91335 43.0482 8.9131 42.9369C8.9136 42.823 8.9141 42.7092 8.91461 42.5918C8.91597 42.2144 8.91587 41.8369 8.91565 41.4595C8.91593 41.2639 8.91622 41.0684 8.91657 40.8729C8.91765 40.2581 8.91769 39.6433 8.9171 39.0285C8.91651 38.3939 8.91772 37.7594 8.9198 37.1248C8.92152 36.5802 8.9221 36.0355 8.92179 35.4909C8.92161 35.1655 8.922 34.8402 8.92322 34.5148C8.92442 34.1521 8.92377 33.7895 8.92264 33.4269C8.92338 33.3188 8.92413 33.2107 8.9249 33.0994C8.92387 32.9515 8.92387 32.9515 8.92282 32.8007C8.92285 32.672 8.92285 32.672 8.92287 32.5407C8.90196 32.3171 8.90196 32.3171 8.76059 32.1485C8.46653 31.9394 8.11123 31.988 7.76323 31.9906C7.64134 31.9902 7.64134 31.9902 7.51699 31.9898C7.34527 31.9896 7.17354 31.9901 7.00182 31.9913C6.73881 31.9929 6.47594 31.9914 6.21294 31.9895C6.04611 31.9897 5.87928 31.99 5.71245 31.9906C5.63371 31.99 5.55497 31.9894 5.47384 31.9888C5.07115 31.9853 5.07115 31.9853 4.71509 32.1482Z" fill="#014339"/>
<path d="M29.714 18.3442C29.7844 18.3438 29.8547 18.3435 29.9272 18.3432C30.0761 18.3427 30.225 18.3425 30.3739 18.3425C30.6013 18.3423 30.8287 18.3405 31.0561 18.3386C31.2008 18.3383 31.3455 18.3382 31.4902 18.3381C31.558 18.3374 31.6259 18.3367 31.6958 18.3359C32.0496 18.3376 32.322 18.35 32.617 18.5559C32.7732 18.8681 32.7327 19.2073 32.7345 19.5504C32.7351 19.6296 32.7356 19.7088 32.7362 19.7905C32.7371 19.9582 32.7378 20.1259 32.7381 20.2936C32.7391 20.5504 32.7421 20.8071 32.7452 21.0639C32.7458 21.2267 32.7464 21.3895 32.7467 21.5523C32.7479 21.6292 32.7491 21.7062 32.7504 21.7854C32.7482 22.3133 32.7482 22.3133 32.5872 22.5591C32.2998 22.7299 32.062 22.6972 31.7381 22.6574C31.441 22.4382 31.357 22.3174 31.288 21.951C31.2835 21.8377 31.2789 21.7244 31.2743 21.6076C31.2687 21.4933 31.2632 21.379 31.2575 21.2613C31.2537 21.1306 31.2537 21.1306 31.2498 20.9973C31.1744 21.0729 31.099 21.1486 31.0213 21.2265C30.3117 21.9381 29.6018 22.6494 28.8917 23.3605C28.5266 23.7261 28.1615 24.0919 27.7967 24.4578C27.4449 24.8107 27.0928 25.1633 26.7406 25.5158C26.606 25.6506 26.4715 25.7854 26.3371 25.9203C26.1493 26.1088 25.9613 26.297 25.7731 26.4851C25.7172 26.5414 25.6613 26.5976 25.6037 26.6556C25.1213 27.1368 25.1213 27.1368 24.6781 27.1838C24.2276 27.1413 24.1102 27.0238 23.8009 26.701C23.7563 26.6555 23.7118 26.61 23.6659 26.5631C23.5249 26.4183 23.3866 26.2714 23.2481 26.1242C23.1526 26.0253 23.0569 25.9265 22.9611 25.8278C22.7276 25.5863 22.4959 25.3433 22.2655 25.0989C21.9735 25.2296 21.7746 25.372 21.5529 25.6017C21.462 25.695 21.462 25.695 21.3692 25.7902C21.2724 25.8908 21.2724 25.8908 21.1737 25.9934C21.0353 26.1348 20.8968 26.2761 20.7583 26.4174C20.5409 26.6402 20.3239 26.8634 20.1077 27.0874C19.8986 27.3036 19.6879 27.5184 19.4769 27.7329C19.3808 27.8338 19.3808 27.8338 19.2827 27.9367C18.9994 28.223 18.8199 28.3979 18.429 28.5166C18.0771 28.5169 17.9297 28.4704 17.6756 28.2239C17.6087 27.8947 17.5875 27.7538 17.6756 27.4426C17.8047 27.2587 17.8047 27.2587 17.9729 27.0756C18.0349 27.0078 18.097 26.9399 18.1609 26.87C18.4846 26.5294 18.8127 26.1939 19.1454 25.8622C19.2177 25.7898 19.29 25.7175 19.3644 25.6429C19.5157 25.4915 19.6671 25.3403 19.8187 25.1892C20.0513 24.9571 20.2834 24.7244 20.5155 24.4917C20.663 24.3443 20.8106 24.1968 20.9582 24.0494C21.0276 23.9798 21.0971 23.9101 21.1687 23.8383C21.2651 23.7424 21.2651 23.7424 21.3634 23.6445C21.4199 23.5881 21.4764 23.5317 21.5346 23.4736C21.7322 23.2929 21.8665 23.245 22.1312 23.1946C22.6423 23.2703 22.8834 23.57 23.242 23.927C23.2977 23.9819 23.3533 24.0369 23.4106 24.0935C23.8129 24.4911 24.2118 24.8918 24.6092 25.2942C24.9855 25.1403 25.2389 24.8862 25.5193 24.6016C25.5951 24.5258 25.5951 24.5258 25.6725 24.4485C25.8388 24.282 26.0045 24.1148 26.1702 23.9476C26.2856 23.8318 26.4011 23.716 26.5166 23.6003C26.8202 23.296 27.1231 22.9911 27.426 22.6861C27.7352 22.3749 28.0451 22.0641 28.3549 21.7534C28.9623 21.1438 29.5692 20.5336 30.1756 19.9231C30.0885 19.9206 30.0014 19.918 29.9116 19.9154C29.7402 19.9071 29.7402 19.9071 29.5653 19.8987C29.452 19.8941 29.3387 19.8896 29.222 19.8849C28.8555 19.8159 28.7347 19.732 28.5155 19.4348C28.4436 18.8493 28.4436 18.8493 28.6497 18.5681C28.9975 18.3273 29.3044 18.3448 29.714 18.3442Z" fill="#014339"/>
</svg>
