<svg width="50" height="50" viewBox="0 0 50 50" fill="none" xmlns="http://www.w3.org/2000/svg">
<g clip-path="url(#clip0_318_541)">
<path fill-rule="evenodd" clip-rule="evenodd" d="M17.1432 0.650391C14.3227 0.650391 11.6179 1.77081 9.62351 3.76517L0 13.3886V17.7936C0 20.9058 1.3368 23.7056 3.46751 25.6504C1.3368 27.5951 0 30.395 0 33.5071V37.9121L9.62351 47.5356C11.6179 49.53 14.3227 50.6504 17.1432 50.6504C20.2554 50.6504 23.0553 49.3136 25 47.1829C26.9447 49.3136 29.7446 50.6504 32.8568 50.6504C35.6772 50.6504 38.3821 49.53 40.3765 47.5356L50 37.9121V33.5071C50 30.395 48.6633 27.5951 46.5325 25.6504C48.6633 23.7056 50 20.9058 50 17.7936V13.3886L40.3765 3.76517C38.3821 1.77081 35.6772 0.650391 32.8568 0.650391C29.7446 0.650391 26.9447 1.98719 25 4.1179C23.0553 1.98719 20.2554 0.650391 17.1432 0.650391ZM32.1985 25.6504C32.0786 25.541 31.961 25.4286 31.8458 25.3134L25 18.4676L18.1543 25.3134C18.039 25.4286 17.9214 25.541 17.8015 25.6504C17.9214 25.7598 18.039 25.8721 18.1543 25.9874L25 32.8331L31.8458 25.9874C31.961 25.8721 32.0786 25.7598 32.1985 25.6504ZM27.7778 37.9121V40.0159C27.7778 42.8209 30.0518 45.0949 32.8568 45.0949C34.2038 45.0949 35.4956 44.5598 36.4481 43.6073L44.4445 35.6109V33.5071C44.4445 30.7021 42.1705 28.4281 39.3655 28.4281C38.0185 28.4281 36.7266 28.9633 35.7741 29.9158L27.7778 37.9121ZM22.2222 37.9121L14.2259 29.9158C13.2734 28.9633 11.9816 28.4281 10.6345 28.4281C7.82949 28.4281 5.55555 30.7021 5.55555 33.5071V35.6109L13.5519 43.6073C14.5044 44.5598 15.7962 45.0949 17.1432 45.0949C19.9482 45.0949 22.2222 42.8209 22.2222 40.0159V37.9121ZM22.2222 11.2849V13.3886L14.2259 21.385C13.2734 22.3375 11.9816 22.8726 10.6345 22.8726C7.82949 22.8726 5.55555 20.5986 5.55555 17.7936V15.6899L13.5519 7.69354C14.5044 6.74105 15.7962 6.20595 17.1432 6.20595C19.9482 6.20595 22.2222 8.47988 22.2222 11.2849ZM35.7741 21.385L27.7778 13.3886V11.2849C27.7778 8.47988 30.0518 6.20595 32.8568 6.20595C34.2038 6.20595 35.4956 6.74105 36.4481 7.69354L44.4445 15.6899V17.7936C44.4445 20.5986 42.1705 22.8726 39.3655 22.8726C38.0185 22.8726 36.7266 22.3375 35.7741 21.385Z" fill="#9EFF8C"/>
</g>
<defs>
<clipPath id="clip0_318_541">
<rect width="50" height="50" fill="white" transform="translate(0 0.00488281)"/>
</clipPath>
</defs>
</svg>
