<svg width="208" height="50" viewBox="0 0 208 50" fill="none" xmlns="http://www.w3.org/2000/svg">
<path d="M63.4521 34.3142H78.0758V29.9239H68.6497V13.3873H63.4521V34.3142Z" fill="white"/>
<path d="M86.7397 31.3873C84.6548 31.3873 83.5683 29.5727 83.5683 26.8507C83.5683 24.1288 84.6548 22.2849 86.7397 22.2849C88.8246 22.2849 89.9405 24.1288 89.9405 26.8507C89.9405 29.5727 88.8246 31.3873 86.7397 31.3873ZM86.7691 34.7824C91.6142 34.7824 94.7856 31.358 94.7856 26.8507C94.7856 22.3434 91.6142 18.919 86.7691 18.919C81.9533 18.919 78.7231 22.3434 78.7231 26.8507C78.7231 31.358 81.9533 34.7824 86.7691 34.7824Z" fill="white"/>
<path d="M103.172 39.4946C105.404 39.4946 107.372 38.9971 108.693 37.8264C109.897 36.7434 110.69 35.1044 110.69 32.8507V19.3288H106.109V20.9386H106.05C105.169 19.68 103.819 18.8898 101.822 18.8898C98.0924 18.8898 95.5083 21.9922 95.5083 26.3825C95.5083 30.9776 98.6503 33.4946 102.027 33.4946C103.848 33.4946 104.993 32.7629 105.874 31.7678H105.992V33.2605C105.992 35.0751 105.14 36.1288 103.114 36.1288C101.528 36.1288 100.735 35.4556 100.471 34.6654H95.8313C96.3011 37.7971 99.0321 39.4946 103.172 39.4946ZM103.143 29.9532C101.352 29.9532 100.177 28.4898 100.177 26.2361C100.177 23.9532 101.352 22.4898 103.143 22.4898C105.14 22.4898 106.197 24.1873 106.197 26.2068C106.197 28.3142 105.228 29.9532 103.143 29.9532Z" fill="white"/>
<path d="M120.109 31.3873C118.024 31.3873 116.937 29.5727 116.937 26.8507C116.937 24.1288 118.024 22.2849 120.109 22.2849C122.194 22.2849 123.31 24.1288 123.31 26.8507C123.31 29.5727 122.194 31.3873 120.109 31.3873ZM120.138 34.7824C124.983 34.7824 128.155 31.358 128.155 26.8507C128.155 22.3434 124.983 18.919 120.138 18.919C115.322 18.919 112.092 22.3434 112.092 26.8507C112.092 31.358 115.322 34.7824 120.138 34.7824Z" fill="white"/>
<path d="M129.552 34.3142H134.339V19.3288H129.552V34.3142ZM129.552 17.2507H134.339V13.3873H129.552V17.2507Z" fill="white"/>
<path d="M136.416 39.2605H141.202V32.7629H141.261C142.201 34.0215 143.581 34.7825 145.519 34.7825C149.454 34.7825 152.067 31.68 152.067 26.8215C152.067 22.3142 149.63 18.8898 145.637 18.8898C143.581 18.8898 142.113 19.7971 141.085 21.1434H140.997V19.3288H136.416V39.2605ZM144.286 31.0946C142.23 31.0946 141.056 29.4264 141.056 26.9971C141.056 24.5678 142.113 22.7239 144.198 22.7239C146.253 22.7239 147.222 24.4215 147.222 26.9971C147.222 29.5434 146.106 31.0946 144.286 31.0946Z" fill="white"/>
<path d="M159.86 34.7825C163.795 34.7825 166.702 33.0849 166.702 29.8068C166.702 25.9727 163.589 25.2995 160.947 24.8605C159.038 24.5093 157.335 24.3629 157.335 23.3093C157.335 22.3727 158.245 21.9337 159.42 21.9337C160.741 21.9337 161.651 22.3434 161.828 23.6898H166.232C165.997 20.7337 163.707 18.8898 159.449 18.8898C155.896 18.8898 152.959 20.5288 152.959 23.6898C152.959 27.202 155.749 27.9044 158.363 28.3434C160.359 28.6946 162.18 28.841 162.18 30.1873C162.18 31.1532 161.27 31.68 159.831 31.68C158.245 31.68 157.247 30.9483 157.071 29.4556H152.548C152.695 32.7629 155.455 34.7825 159.86 34.7825Z" fill="white"/>
<path d="M173.204 34.7532C175.289 34.7532 176.61 33.9337 177.697 32.4703H177.785V34.3142H182.366V19.3288H177.579V27.6995C177.579 29.4849 176.581 30.7142 174.937 30.7142C173.41 30.7142 172.676 29.8068 172.676 28.1678V19.3288H167.918V29.1629C167.918 32.4995 169.739 34.7532 173.204 34.7532Z" fill="white"/>
<path d="M184.447 34.3142H189.234V25.9142C189.234 24.1288 190.115 22.8703 191.612 22.8703C193.051 22.8703 193.727 23.8068 193.727 25.4166V34.3142H198.513V25.9142C198.513 24.1288 199.365 22.8703 200.892 22.8703C202.33 22.8703 203.006 23.8068 203.006 25.4166V34.3142H207.792V24.5678C207.792 21.202 206.089 18.8898 202.683 18.8898C200.745 18.8898 199.13 19.7093 197.955 21.5239H197.896C197.133 19.9142 195.635 18.8898 193.668 18.8898C191.495 18.8898 190.056 19.9142 189.116 21.4654H189.028V19.3288H184.447V34.3142Z" fill="white"/>
<path fill-rule="evenodd" clip-rule="evenodd" d="M25.3075 48.9483C38.8223 48.9483 49.7781 38.0284 49.7781 24.5581C49.7781 11.0877 38.8223 0.167847 25.3075 0.167847C11.7927 0.167847 0.836914 11.0877 0.836914 24.5581C0.836914 38.0284 11.7927 48.9483 25.3075 48.9483ZM32.9415 11.5298C33.3131 10.2142 32.0322 9.4363 30.8623 10.267L14.532 21.8624C13.2633 22.7633 13.4629 24.5581 14.8318 24.5581H19.132V24.5249H27.5129L20.6841 26.9265L17.6736 37.5863C17.302 38.902 18.5828 39.6799 19.7527 38.8491L36.083 27.2538C37.3517 26.3529 37.152 24.5581 35.7833 24.5581H29.2621L32.9415 11.5298Z" fill="#9EFF8C"/>
</svg>
