<svg width="252" height="50" viewBox="0 0 252 50" fill="none" xmlns="http://www.w3.org/2000/svg">
<g clip-path="url(#clip0_208_6986)">
<path fill-rule="evenodd" clip-rule="evenodd" d="M31.8814 14.6061C29.8298 13.2326 27.4178 12.4995 24.9505 12.4995V-0.000488281C29.8852 -0.000488281 34.7091 1.46574 38.8122 4.21277C42.9154 6.9598 46.1133 10.8643 48.0018 15.4324C49.8901 20.0005 50.3843 25.0273 49.4216 29.8768C48.4589 34.7263 46.0826 39.1809 42.5931 42.6771C39.1038 46.1735 34.658 48.5545 29.8181 49.5191C24.9782 50.4838 19.9614 49.9886 15.4023 48.0965C10.8432 46.2043 6.9465 43 4.20492 38.8888C1.46332 34.7775 0 29.944 0 24.9995H12.4752C12.4752 27.4718 13.2069 29.8885 14.5777 31.9441C15.9485 33.9998 17.8969 35.6019 20.1765 36.548C22.4559 37.4941 24.9643 37.7416 27.3843 37.2593C29.8042 36.777 32.0271 35.5865 33.7719 33.8384C35.5165 32.0901 36.7047 29.8629 37.186 27.4381C37.6674 25.0134 37.4204 22.5 36.4761 20.216C35.5319 17.9319 33.9329 15.9796 31.8814 14.6061Z" fill="#9EFF8C"/>
<path fill-rule="evenodd" clip-rule="evenodd" d="M12.4752 -0.000481675C12.4752 1.64104 12.1526 3.26649 11.5256 4.78307C10.8987 6.29963 9.97977 7.67762 8.82133 8.83835C7.6629 9.99909 6.28764 10.9198 4.77407 11.548C3.2605 12.1762 1.63827 12.4995 5.45306e-07 12.4995L0 24.9995C3.27654 24.9995 6.521 24.3529 9.54815 23.0965C12.5753 21.8401 15.3258 19.9986 17.6426 17.6771C19.9595 15.3558 21.7974 12.5998 23.0513 9.5666C24.3051 6.53345 24.9505 3.28255 24.9505 -0.000488281L12.4752 -0.000481675Z" fill="#9EFF8C"/>
<path d="M156.713 18.0651H150.66V37.3305H156.713V18.0651Z" fill="white"/>
<path d="M151.334 14.4578C151.966 15.092 152.757 15.4091 153.706 15.4091C154.656 15.4091 155.434 15.092 156.04 14.4578C156.648 13.7971 156.951 13.0043 156.951 12.0793C156.951 11.128 156.648 10.3351 156.04 9.7009C155.434 9.06662 154.656 8.74951 153.706 8.74951C152.757 8.74951 151.966 9.06662 151.334 9.7009C150.726 10.3351 150.423 11.128 150.423 12.0793C150.423 13.0043 150.726 13.7971 151.334 14.4578Z" fill="white"/>
<path d="M63.8186 37.3305V9.34412H70.0299V31.8601H82.413V37.3305H63.8186Z" fill="white"/>
<path fill-rule="evenodd" clip-rule="evenodd" d="M93.5984 37.7665C91.6204 37.7665 89.8269 37.3305 88.218 36.4584C86.6355 35.5599 85.3827 34.3443 84.4596 32.8114C83.5365 31.2787 83.075 29.5609 83.075 27.6582C83.075 25.7554 83.5365 24.0509 84.4596 22.5445C85.3827 21.0382 86.6355 19.8489 88.218 18.9769C89.8005 18.0783 91.594 17.629 93.5984 17.629C95.603 17.629 97.3964 18.0652 98.9789 18.9372C100.561 19.8093 101.814 21.0118 102.737 22.5445C103.66 24.0509 104.122 25.7554 104.122 27.6582C104.122 29.5609 103.66 31.2787 102.737 32.8114C101.814 34.3443 100.561 35.5599 98.9789 36.4584C97.3964 37.3305 95.603 37.7665 93.5984 37.7665ZM93.5984 32.2565C94.4688 32.2565 95.2337 32.0715 95.8931 31.7015C96.5525 31.3052 97.0536 30.7634 97.3964 30.0763C97.7657 29.3628 97.9503 28.5567 97.9503 27.6582C97.9503 26.7597 97.7657 25.98 97.3964 25.3194C97.0271 24.6323 96.5129 24.1038 95.8535 23.7338C95.2205 23.3373 94.4688 23.1392 93.5984 23.1392C92.7545 23.1392 92.0029 23.3373 91.3434 23.7338C90.6841 24.1038 90.1697 24.6323 89.8005 25.3194C89.4312 26.0065 89.2467 26.7993 89.2467 27.6978C89.2467 28.5699 89.4312 29.3628 89.8005 30.0763C90.1697 30.7634 90.6841 31.3052 91.3434 31.7015C92.0029 32.0715 92.7545 32.2565 93.5984 32.2565Z" fill="white"/>
<path fill-rule="evenodd" clip-rule="evenodd" d="M108.916 44.8623C110.525 45.6021 112.384 45.9721 114.494 45.9721C116.552 45.9721 118.385 45.5625 119.994 44.7433C121.602 43.924 122.868 42.7878 123.791 41.3343C124.715 39.8808 125.177 38.163 125.177 36.1809V18.0651H119.242V19.3595C118.8 18.9873 118.299 18.6748 117.738 18.4219C116.71 17.9198 115.536 17.6686 114.217 17.6686C112.45 17.6686 110.881 18.0915 109.51 18.9371C108.138 19.7564 107.057 20.8928 106.265 22.3463C105.474 23.7734 105.079 25.3854 105.079 27.1825C105.079 28.9531 105.474 30.5651 106.265 32.0186C107.057 33.4721 108.138 34.6218 109.51 35.4674C110.881 36.313 112.45 36.7359 114.217 36.7359C115.51 36.7359 116.683 36.4849 117.738 35.9828C118.249 35.7395 118.711 35.4529 119.123 35.1228V36.3395C119.123 37.6873 118.688 38.7311 117.818 39.4711C116.974 40.2111 115.8 40.581 114.297 40.581C113.083 40.581 112.042 40.3696 111.171 39.9468C110.327 39.524 109.562 38.9029 108.876 38.0836L105.158 41.8099C106.081 43.1313 107.334 44.1488 108.916 44.8623ZM117.541 30.7898C116.934 31.1598 116.209 31.3448 115.365 31.3448C114.521 31.3448 113.782 31.1598 113.149 30.7898C112.543 30.4198 112.068 29.9176 111.725 29.2834C111.382 28.6228 111.211 27.9224 111.211 27.1825C111.211 26.3896 111.382 25.6761 111.725 25.0419C112.068 24.4076 112.556 23.9055 113.189 23.5355C113.822 23.1655 114.547 22.9805 115.365 22.9805C116.209 22.9805 116.934 23.1655 117.541 23.5355C118.174 23.9055 118.648 24.4076 118.965 25.0419C119.308 25.6761 119.479 26.3896 119.479 27.1825C119.479 27.9753 119.308 28.6888 118.965 29.323C118.648 29.9309 118.174 30.4198 117.541 30.7898Z" fill="white"/>
<path fill-rule="evenodd" clip-rule="evenodd" d="M137.915 37.7665C135.936 37.7665 134.142 37.3305 132.534 36.4584C130.951 35.5599 129.699 34.3443 128.776 32.8114C127.852 31.2787 127.391 29.5609 127.391 27.6582C127.391 25.7554 127.852 24.0509 128.776 22.5445C129.699 21.0382 130.951 19.8489 132.534 18.9769C134.116 18.0783 135.91 17.629 137.915 17.629C139.919 17.629 141.712 18.0652 143.294 18.9372C144.877 19.8093 146.13 21.0118 147.053 22.5445C147.976 24.0509 148.438 25.7554 148.438 27.6582C148.438 29.5609 147.976 31.2787 147.053 32.8114C146.13 34.3443 144.877 35.5599 143.294 36.4584C141.712 37.3305 139.919 37.7665 137.915 37.7665ZM137.915 32.2565C138.785 32.2565 139.549 32.0715 140.209 31.7015C140.868 31.3052 141.369 30.7634 141.712 30.0763C142.082 29.3628 142.266 28.5567 142.266 27.6582C142.266 26.7597 142.082 25.98 141.712 25.3194C141.343 24.6323 140.829 24.1038 140.169 23.7338C139.537 23.3373 138.785 23.1392 137.915 23.1392C137.07 23.1392 136.318 23.3373 135.659 23.7338C135 24.1038 134.486 24.6323 134.116 25.3194C133.747 26.0065 133.562 26.7993 133.562 27.6978C133.562 28.5699 133.747 29.3628 134.116 30.0763C134.486 30.7634 135 31.3052 135.659 31.7015C136.318 32.0715 137.07 32.2565 137.915 32.2565Z" fill="white"/>
<path fill-rule="evenodd" clip-rule="evenodd" d="M171.261 37.7269C169.97 37.7269 168.783 37.4759 167.701 36.9738C167.132 36.7095 166.618 36.394 166.159 36.0273V45.4569H160.185V18.0651H166.238V19.3948C166.677 19.0349 167.164 18.7238 167.701 18.4615C168.783 17.9329 169.97 17.6686 171.261 17.6686C173.081 17.6686 174.691 18.1048 176.088 18.9769C177.513 19.8489 178.62 21.0381 179.411 22.5445C180.23 24.0509 180.638 25.7686 180.638 27.6978C180.638 29.627 180.23 31.3448 179.411 32.8511C178.62 34.3575 177.513 35.5466 176.088 36.4188C174.691 37.2909 173.081 37.7269 171.261 37.7269ZM170.155 32.2565C171.024 32.2565 171.777 32.0583 172.409 31.6619C173.069 31.2655 173.583 30.7236 173.952 30.0366C174.322 29.3495 174.506 28.5699 174.506 27.6978C174.506 26.7993 174.322 26.0065 173.952 25.3194C173.583 24.6323 173.069 24.1038 172.409 23.7338C171.777 23.3373 171.038 23.1391 170.193 23.1391C169.35 23.1391 168.598 23.3373 167.939 23.7338C167.305 24.1038 166.805 24.6323 166.436 25.3194C166.067 26.0065 165.882 26.7993 165.882 27.6978C165.882 28.5699 166.053 29.3495 166.396 30.0366C166.765 30.7236 167.279 31.2655 167.939 31.6619C168.598 32.0583 169.336 32.2565 170.155 32.2565Z" fill="white"/>
<path d="M186.562 37.3701C187.67 37.6609 188.79 37.8061 189.924 37.8061C192.324 37.8061 194.223 37.2513 195.622 36.1413C197.045 35.0314 197.757 33.5383 197.757 31.6619C197.757 30.4463 197.534 29.4684 197.085 28.7285C196.637 27.9621 196.057 27.3543 195.345 26.905C194.632 26.4558 193.88 26.0989 193.089 25.8346C192.298 25.5704 191.546 25.3458 190.835 25.1608C190.123 24.9758 189.542 24.7644 189.093 24.5265C188.645 24.2886 188.421 23.9715 188.421 23.5751C188.421 23.2051 188.593 22.9276 188.935 22.7426C189.278 22.5313 189.792 22.4256 190.478 22.4256C191.19 22.4256 191.915 22.5709 192.654 22.8616C193.418 23.1523 194.105 23.6545 194.711 24.368L198.153 20.8796C197.283 19.7696 196.149 18.9371 194.751 18.3823C193.38 17.8009 191.877 17.5101 190.241 17.5101C188.685 17.5101 187.327 17.7744 186.167 18.3029C185.005 18.8315 184.108 19.5583 183.476 20.4831C182.843 21.3816 182.526 22.452 182.526 23.6941C182.526 24.8569 182.751 25.8215 183.199 26.5879C183.647 27.3278 184.228 27.9093 184.939 28.332C185.651 28.7549 186.404 29.0853 187.195 29.323C187.986 29.5609 188.738 29.7855 189.45 29.997C190.161 30.182 190.743 30.4066 191.19 30.6709C191.666 30.9088 191.903 31.2655 191.903 31.7411C191.903 32.1111 191.704 32.4018 191.309 32.6133C190.94 32.8246 190.399 32.9304 189.687 32.9304C188.658 32.9304 187.709 32.7454 186.839 32.3754C185.968 31.979 185.216 31.4373 184.584 30.7501L181.142 34.2385C181.802 34.952 182.592 35.5864 183.516 36.1413C184.465 36.6698 185.48 37.0794 186.562 37.3701Z" fill="white"/>
<path d="M208.796 37.7665C207.029 37.7665 205.46 37.4097 204.089 36.6963C202.743 35.9562 201.689 34.952 200.924 33.6835C200.158 32.3886 199.776 30.9087 199.776 29.2437V18.0651H205.829V29.1645C205.829 29.8251 205.934 30.3934 206.146 30.869C206.383 31.3447 206.726 31.7147 207.174 31.979C207.623 32.2432 208.163 32.3754 208.796 32.3754C209.693 32.3754 210.405 32.0979 210.933 31.5429C211.461 30.9615 211.724 30.1687 211.724 29.1645V18.0651H217.777V29.2041C217.777 30.8955 217.395 32.3886 216.629 33.6835C215.864 34.952 214.81 35.9562 213.464 36.6963C212.119 37.4097 210.564 37.7665 208.796 37.7665Z" fill="white"/>
<path d="M226.839 18.0651H220.786V37.3305H226.839V26.0725C226.839 25.4119 226.971 24.8569 227.234 24.4076C227.525 23.9584 227.908 23.6148 228.382 23.377C228.857 23.1126 229.397 22.9805 230.004 22.9805C230.874 22.9805 231.599 23.258 232.179 23.813C232.787 24.3415 233.09 25.0948 233.09 26.0725V37.3305H239.143V26.0725C239.143 25.4119 239.275 24.8569 239.538 24.4076C239.829 23.9584 240.211 23.6148 240.686 23.377C241.16 23.1126 241.702 22.9805 242.308 22.9805C243.179 22.9805 243.904 23.258 244.484 23.813C245.09 24.3415 245.393 25.0948 245.393 26.0725V37.3305H251.447V25.3986C251.447 23.7866 251.104 22.4124 250.418 21.276C249.758 20.1131 248.849 19.2279 247.689 18.6201C246.555 17.9858 245.248 17.6686 243.771 17.6686C242.268 17.6686 240.909 17.999 239.697 18.6598C238.908 19.0806 238.22 19.6239 237.63 20.2894C237.08 19.5933 236.411 19.0236 235.621 18.5804C234.567 17.9726 233.367 17.6686 232.022 17.6686C230.597 17.6686 229.319 17.9726 228.185 18.5804C227.691 18.8333 227.243 19.1361 226.839 19.489V18.0651Z" fill="white"/>
</g>
<defs>
<clipPath id="clip0_208_6986">
<rect width="252" height="50" fill="white" transform="translate(0 -0.000488281)"/>
</clipPath>
</defs>
</svg>
