<svg width="202" height="50" viewBox="0 0 202 50" fill="none" xmlns="http://www.w3.org/2000/svg">
<g clip-path="url(#clip0_208_7067)">
<path d="M32.4902 25.0327C34.1387 23.6569 35.187 21.5904 35.187 19.2799C35.187 16.9695 34.1387 14.9031 32.4902 13.5273C32.6792 13.4361 32.861 13.3371 33.0342 13.2299C34.1276 12.5523 35.4182 12.161 36.8005 12.161C40.7456 12.161 43.9436 15.3483 43.9436 19.2799C43.9436 23.2116 40.7456 26.3989 36.8005 26.3989C35.4182 26.3989 34.1276 26.0075 33.0342 25.33C32.861 25.2228 32.6792 25.1239 32.4902 25.0327Z" fill="#9EFF8C"/>
<path d="M30.5067 20.4007C31.2441 18.3878 31.1152 16.0758 29.956 14.0749C28.7968 12.074 26.8522 10.8067 24.7344 10.4367C24.8523 10.2637 24.96 10.0874 25.0561 9.90818C25.6632 8.77653 26.5846 7.79452 27.7817 7.1057C31.1982 5.13986 35.567 6.30648 37.5395 9.71141C39.5119 13.1164 38.3414 17.4703 34.9248 19.4361C33.7277 20.1249 32.4137 20.4291 31.1268 20.3873C30.9231 20.3805 30.716 20.3855 30.5067 20.4007Z" fill="#9EFF8C"/>
<path d="M26.4641 17.3778C26.0929 15.2672 24.8213 13.3291 22.8136 12.1739C20.8059 11.0187 18.486 10.8902 16.4663 11.6251C16.4816 11.4165 16.4865 11.2101 16.4798 11.007C16.4378 9.72451 16.743 8.41493 17.4342 7.22185C19.4068 3.81692 23.7754 2.6503 27.192 4.61614C30.6084 6.58198 31.7791 10.9359 29.8065 14.3408C29.1153 15.5339 28.13 16.4522 26.9945 17.0572C26.8148 17.1529 26.6379 17.2603 26.4641 17.3778Z" fill="#9EFF8C"/>
<path d="M21.4467 16.7743C20.0662 15.1314 17.9928 14.0866 15.6744 14.0866C13.356 14.0866 11.2826 15.1314 9.90214 16.7743C9.8107 16.586 9.71139 16.4048 9.60375 16.2322C8.9239 15.1424 8.53125 13.8562 8.53125 12.4786C8.53125 8.54688 11.7293 5.35962 15.6744 5.35962C19.6195 5.35962 22.8175 8.54688 22.8175 12.4786C22.8175 13.8562 22.4249 15.1424 21.7451 16.2322C21.6374 16.4048 21.5381 16.586 21.4467 16.7743Z" fill="#9EFF8C"/>
<path d="M16.7979 18.7516C14.7782 18.0168 12.4583 18.1452 10.4506 19.3003C8.44286 20.4556 7.17133 22.3936 6.80007 24.5043C6.62642 24.3868 6.4495 24.2794 6.26971 24.1836C5.13422 23.5786 4.14887 22.6603 3.45771 21.4673C1.48518 18.0623 2.65576 13.7085 6.07228 11.7426C9.4888 9.77676 13.8575 10.9434 15.8301 14.3483C16.5212 15.5414 16.8265 16.851 16.7843 18.1335C16.7777 18.3365 16.7826 18.543 16.7979 18.7516Z" fill="#9EFF8C"/>
<path d="M13.7633 22.7805C11.6454 23.1505 9.70085 24.4178 8.54168 26.4187C7.38252 28.4196 7.25366 30.7316 7.99105 32.7445C7.78171 32.7292 7.57458 32.7244 7.37081 32.7309C6.08392 32.7729 4.76989 32.4687 3.57277 31.7799C0.156252 29.814 -1.01433 25.4601 0.958193 22.0551C2.93072 18.6503 7.2994 17.4836 10.7159 19.4495C11.913 20.1383 12.8344 21.1203 13.4414 22.2519C13.5376 22.4311 13.6454 22.6074 13.7633 22.7805Z" fill="#9EFF8C"/>
<path d="M13.1565 27.7816C11.5081 29.1574 10.4597 31.2238 10.4597 33.5342C10.4597 35.8448 11.5081 37.9112 13.1565 39.287C12.9676 39.378 12.7858 39.4771 12.6127 39.5844C11.5192 40.2619 10.2286 40.6532 8.84627 40.6532C4.90122 40.6532 1.70312 37.4659 1.70312 33.5342C1.70312 29.6025 4.90122 26.4153 8.84627 26.4153C10.2286 26.4153 11.5192 26.8066 12.6127 27.4842C12.7858 27.5915 12.9676 27.6904 13.1565 27.7816Z" fill="#9EFF8C"/>
<path d="M15.14 32.4148C14.4025 34.4277 14.5314 36.7397 15.6905 38.7406C16.8497 40.7416 18.7943 42.0087 20.9122 42.3787C20.7943 42.5519 20.6865 42.7282 20.5904 42.9074C19.9834 44.039 19.062 45.021 17.8649 45.7098C14.4483 47.6757 10.0796 46.509 8.10712 43.1041C6.13459 39.6991 7.30518 35.3453 10.7217 33.3794C11.9188 32.6906 13.2329 32.3864 14.5197 32.4283C14.7235 32.4349 14.9306 32.4301 15.14 32.4148Z" fill="#9EFF8C"/>
<path d="M19.1823 35.439C19.5536 37.5496 20.8251 39.4876 22.8329 40.6428C24.8406 41.798 27.1605 41.9265 29.1803 41.1916C29.165 41.4003 29.1601 41.6066 29.1667 41.8098C29.2088 43.0923 28.9036 44.4019 28.2124 45.5949C26.2398 48.9999 21.8712 50.1665 18.4546 48.2005C15.038 46.2348 13.8675 41.8809 15.8401 38.4759C16.5312 37.2829 17.5166 36.3646 18.652 35.7596C18.8318 35.6638 19.0087 35.5563 19.1823 35.439Z" fill="#9EFF8C"/>
<path d="M24.2004 36.0437C25.5809 37.6866 27.6544 38.7313 29.9727 38.7313C32.2911 38.7313 34.3646 37.6866 35.745 36.0437C35.8364 36.232 35.9357 36.4132 36.0434 36.5857C36.7232 37.6754 37.1159 38.9617 37.1159 40.3394C37.1159 44.2711 33.9178 47.4583 29.9727 47.4583C26.0277 47.4583 22.8296 44.2711 22.8296 40.3394C22.8296 38.9617 23.2222 37.6754 23.902 36.5857C24.0098 36.4132 24.1091 36.232 24.2004 36.0437Z" fill="#9EFF8C"/>
<path d="M28.8496 34.067C30.8693 34.8019 33.1892 34.6735 35.1969 33.5183C37.2046 32.3631 38.4762 30.4251 38.8474 28.3144C39.021 28.4318 39.198 28.5393 39.3778 28.6351C40.5133 29.2401 41.4986 30.1583 42.1898 31.3514C44.1624 34.7564 42.9917 39.1102 39.5753 41.0761C36.1587 43.0419 31.7901 41.8753 29.8175 38.4703C29.1263 37.2773 28.8211 35.9677 28.8631 34.6852C28.8698 34.4822 28.8649 34.2757 28.8496 34.067Z" fill="#9EFF8C"/>
<path d="M37.1101 26.3924C37.1087 26.3949 37.1072 26.3974 37.1058 26.3999C35.9467 28.4008 34.0021 29.6681 31.8843 30.0381C32.002 30.2112 32.1099 30.3875 32.206 30.5666C32.8131 31.6983 33.7345 32.6803 34.9316 33.3691C38.3481 35.335 42.7168 34.1683 44.6894 30.7635C46.3804 27.8443 45.7613 24.2277 43.3974 22.0164C42.3588 24.5002 39.949 26.2719 37.1101 26.3924Z" fill="#9EFF8C"/>
<path d="M62.3961 12.9482V34.2101H57.668V12.9482H62.3961ZM58.4175 34.2101L58.504 30.0439H70.7566V34.2101H58.4175ZM71.4967 26.9982C71.4967 25.4851 71.8138 24.1634 72.448 23.0332C73.0823 21.8839 73.976 20.9932 75.1292 20.3611C76.2823 19.729 77.6277 19.413 79.1654 19.413C80.703 19.413 82.0387 19.729 83.1726 20.3611C84.3259 20.9932 85.2196 21.8839 85.8538 23.0332C86.4881 24.1634 86.8052 25.4851 86.8052 26.9982C86.8052 28.5115 86.4881 29.8332 85.8538 30.9634C85.2196 32.0935 84.3259 32.9745 83.1726 33.6066C82.0387 34.2387 80.703 34.5548 79.1654 34.5548C77.6277 34.5548 76.2823 34.2387 75.1292 33.6066C73.976 32.9745 73.0823 32.0935 72.448 30.9634C71.8138 29.8332 71.4967 28.5115 71.4967 26.9982ZM75.9652 26.9695C75.9652 27.6974 76.0997 28.3391 76.3688 28.8947C76.6379 29.431 77.0127 29.8523 77.4931 30.1589C77.9737 30.4461 78.5311 30.5898 79.1654 30.5898C79.7997 30.5898 80.3569 30.4461 80.8375 30.1589C81.3179 29.8523 81.6831 29.431 81.9331 28.8947C82.2021 28.3391 82.3367 27.6974 82.3367 26.9695C82.3367 26.2416 82.2021 25.6095 81.9331 25.0732C81.6831 24.5369 81.3179 24.1251 80.8375 23.8377C80.3569 23.5312 79.7997 23.378 79.1654 23.378C78.5311 23.378 77.9737 23.5312 77.4931 23.8377C77.0127 24.1251 76.6379 24.5369 76.3688 25.0732C76.0997 25.6095 75.9652 26.2416 75.9652 26.9695ZM87.8078 26.7685C87.8078 25.2935 88.1057 24.0006 88.7015 22.8895C89.2973 21.7786 90.1142 20.9166 91.152 20.3036C92.1899 19.6715 93.3816 19.3555 94.7269 19.3555C95.8609 19.3555 96.8603 19.5853 97.7252 20.0451C98.6094 20.5048 99.2051 21.1082 99.5127 21.8552L99.0802 22.1426L99.4263 19.844H103.434V33.2906C103.434 34.9762 103.107 36.432 102.453 37.658C101.8 38.903 100.868 39.8607 99.6568 40.5311C98.4652 41.2015 97.0429 41.5368 95.39 41.5368C94.0062 41.5368 92.757 41.259 91.6421 40.7035C90.5466 40.1672 89.6529 39.401 88.9609 38.4049C88.2883 37.4089 87.8847 36.2597 87.7501 34.957H92.2476C92.286 35.7807 92.6128 36.4128 93.2278 36.8535C93.862 37.294 94.6692 37.5143 95.6495 37.5143C96.7451 37.5143 97.5907 37.2078 98.1865 36.5948C98.7824 36.001 99.0802 35.2061 99.0802 34.2101V31.1644L99.4838 31.538C99.1763 32.2851 98.5805 32.8884 97.6965 33.3481C96.8123 33.8078 95.7937 34.0377 94.6404 34.0377C93.3142 34.0377 92.1322 33.7312 91.0943 33.1182C90.0758 32.5053 89.2684 31.653 88.6726 30.5611C88.096 29.4693 87.8078 28.2051 87.8078 26.7685ZM92.3052 26.6535C92.3052 27.3431 92.4493 27.956 92.7377 28.4923C93.026 29.0287 93.4104 29.4501 93.8909 29.7565C94.3714 30.0439 94.8999 30.1876 95.4766 30.1876C96.1684 30.1876 96.7739 30.0439 97.2928 29.7565C97.831 29.4501 98.2442 29.0287 98.5324 28.4923C98.8399 27.956 98.9937 27.3431 98.9937 26.6535C98.9937 25.9448 98.8399 25.3414 98.5324 24.8434C98.225 24.3262 97.8021 23.9239 97.2639 23.6366C96.7451 23.3493 96.1396 23.2056 95.4477 23.2056C94.8711 23.2056 94.3426 23.3493 93.862 23.6366C93.3816 23.9239 92.9971 24.3262 92.7089 24.8434C92.4397 25.3606 92.3052 25.9639 92.3052 26.6535ZM105.016 26.9982C105.016 25.4851 105.333 24.1634 105.967 23.0332C106.601 21.8839 107.495 20.9932 108.648 20.3611C109.802 19.729 111.147 19.413 112.685 19.413C114.222 19.413 115.558 19.729 116.692 20.3611C117.845 20.9932 118.739 21.8839 119.373 23.0332C120.007 24.1634 120.324 25.4851 120.324 26.9982C120.324 28.5115 120.007 29.8332 119.373 30.9634C118.739 32.0935 117.845 32.9745 116.692 33.6066C115.558 34.2387 114.222 34.5548 112.685 34.5548C111.147 34.5548 109.802 34.2387 108.648 33.6066C107.495 32.9745 106.601 32.0935 105.967 30.9634C105.333 29.8332 105.016 28.5115 105.016 26.9982ZM109.484 26.9695C109.484 27.6974 109.619 28.3391 109.888 28.8947C110.157 29.431 110.532 29.8523 111.012 30.1589C111.493 30.4461 112.05 30.5898 112.685 30.5898C113.319 30.5898 113.876 30.4461 114.357 30.1589C114.837 29.8523 115.202 29.431 115.452 28.8947C115.721 28.3391 115.856 27.6974 115.856 26.9695C115.856 26.2416 115.721 25.6095 115.452 25.0732C115.202 24.5369 114.837 24.1251 114.357 23.8377C113.876 23.5312 113.319 23.378 112.685 23.378C112.05 23.378 111.493 23.5312 111.012 23.8377C110.532 24.1251 110.157 24.5369 109.888 25.0732C109.619 25.6095 109.484 26.2416 109.484 26.9695ZM122.192 34.2101V19.844H126.66V34.2101H122.192ZM124.441 17.6028C123.729 17.6028 123.124 17.3634 122.624 16.8845C122.144 16.3865 121.904 15.7831 121.904 15.0744C121.904 14.3657 122.144 13.7719 122.624 13.293C123.124 12.8141 123.729 12.5747 124.441 12.5747C125.133 12.5747 125.719 12.8141 126.199 13.293C126.699 13.7719 126.949 14.3657 126.949 15.0744C126.949 15.7831 126.699 16.3865 126.199 16.8845C125.719 17.3634 125.133 17.6028 124.441 17.6028ZM129.55 41.1059V19.844H133.616L133.845 21.5966C134.249 20.9262 134.894 20.3899 135.777 19.9876C136.661 19.5853 137.613 19.3843 138.631 19.3843C139.977 19.3843 141.149 19.6811 142.148 20.2749C143.148 20.8687 143.936 21.7211 144.513 22.8322C145.089 23.9239 145.396 25.2456 145.436 26.7972C145.474 28.3103 145.223 29.6609 144.686 30.8484C144.147 32.0168 143.37 32.9362 142.35 33.6066C141.331 34.2772 140.102 34.6123 138.66 34.6123C137.661 34.6123 136.729 34.4399 135.864 34.0952C134.999 33.7503 134.355 33.3098 133.932 32.7735V41.1059H129.55ZM134.018 27.027C134.018 27.7357 134.162 28.3678 134.451 28.9234C134.759 29.4597 135.172 29.8811 135.691 30.1876C136.228 30.4749 136.844 30.6185 137.535 30.6185C138.247 30.6185 138.853 30.4653 139.352 30.1589C139.871 29.8523 140.266 29.431 140.534 28.8947C140.823 28.3582 140.967 27.7357 140.967 27.027C140.967 26.3182 140.823 25.6957 140.534 25.1594C140.266 24.6231 139.871 24.2016 139.352 23.8952C138.853 23.5887 138.247 23.4355 137.535 23.4355C136.844 23.4355 136.228 23.5887 135.691 23.8952C135.172 24.1826 134.759 24.5944 134.451 25.1307C134.162 25.667 134.018 26.2991 134.018 27.027ZM146.196 29.6703H150.205C150.205 30.1684 150.367 30.5611 150.695 30.8484C151.04 31.1357 151.539 31.2794 152.193 31.2794C152.577 31.2794 152.895 31.2315 153.145 31.1357C153.414 31.0399 153.616 30.9059 153.75 30.7335C153.904 30.5419 153.981 30.3312 153.981 30.1014C153.981 29.8523 153.895 29.6416 153.722 29.4693C153.567 29.2969 153.298 29.1628 152.914 29.067L150.378 28.4061C148.954 28.0231 147.946 27.458 147.35 26.711C146.754 25.9639 146.456 25.1115 146.456 24.1537C146.456 23.196 146.697 22.3628 147.177 21.6541C147.676 20.9262 148.35 20.3707 149.195 19.9876C150.041 19.5853 150.992 19.3843 152.049 19.3843C153.644 19.3843 154.951 19.8248 155.97 20.706C157.008 21.5678 157.556 22.7459 157.614 24.2399H153.606C153.626 23.7419 153.482 23.3493 153.174 23.0619C152.866 22.7555 152.462 22.6023 151.963 22.6023C151.521 22.6023 151.155 22.7172 150.867 22.947C150.598 23.1577 150.463 23.4547 150.463 23.8377C150.463 24.2016 150.598 24.4698 150.867 24.6423C151.137 24.7955 151.501 24.9295 151.963 25.0445L154.529 25.6766C155.721 25.9639 156.624 26.4524 157.239 27.1419C157.854 27.8315 158.161 28.7127 158.161 29.7853C158.161 31.2602 157.614 32.4286 156.518 33.2906C155.422 34.1526 154 34.5836 152.251 34.5836C150.445 34.5836 148.993 34.1335 147.898 33.2332C146.821 32.3137 146.254 31.1261 146.196 29.6703ZM165.245 34.5836C163.554 34.5836 162.247 34.0568 161.324 33.0034C160.402 31.9498 159.94 30.5706 159.94 28.8659V19.844H164.38V27.2569C164.38 28.5977 164.621 29.498 165.101 29.9577C165.582 30.4174 166.216 30.6473 167.004 30.6473C168.023 30.6473 168.724 30.3599 169.108 29.7853C169.492 29.2107 169.685 28.387 169.685 27.3143V19.844H174.125V34.2101H169.945L169.656 32.6011C169.214 33.1948 168.589 33.6737 167.783 34.0377C166.975 34.4016 166.13 34.5836 165.245 34.5836ZM181.454 34.2101H176.985V19.844H181.137L181.454 22.3149L180.964 21.7977C181.348 21.0698 181.925 20.4856 182.694 20.0451C183.482 19.5853 184.327 19.3555 185.231 19.3555C186.653 19.3555 187.767 19.6715 188.575 20.3036C189.402 20.9357 189.997 21.769 190.362 22.8034H189.67C189.901 21.769 190.458 20.9357 191.343 20.3036C192.227 19.6715 193.284 19.3555 194.514 19.3555C196.378 19.3555 197.753 19.8535 198.637 20.8495C199.52 21.8456 199.963 23.1673 199.963 24.8147V34.2101H195.639V25.9065C195.639 25.0061 195.417 24.3357 194.975 23.8952C194.552 23.4547 193.986 23.2344 193.274 23.2344C192.852 23.2344 192.448 23.3302 192.064 23.5216C191.679 23.694 191.361 24.0101 191.112 24.4698C190.862 24.9105 190.737 25.5426 190.737 26.3661V34.2101H186.355V25.9065C186.355 25.0061 186.144 24.3453 185.721 23.9239C185.297 23.4834 184.731 23.2631 184.019 23.2631C183.597 23.2631 183.184 23.3589 182.78 23.5505C182.395 23.7228 182.078 24.0389 181.829 24.4986C181.579 24.9391 181.454 25.5616 181.454 26.3661V34.2101Z" fill="white"/>
</g>
<defs>
<clipPath id="clip0_208_7067">
<rect width="202" height="50" fill="white" transform="translate(0 -0.000488281)"/>
</clipPath>
</defs>
</svg>
