<svg width="204" height="50" viewBox="0 0 204 50" fill="none" xmlns="http://www.w3.org/2000/svg">
<g clip-path="url(#clip0_208_7055)">
<path d="M59.4053 35.1137H74.0053V30.7234H64.5944V14.1868H59.4053V35.1137Z" fill="white"/>
<path d="M82.6555 32.1868C80.574 32.1868 79.4892 30.3722 79.4892 27.6502C79.4892 24.9283 80.574 23.0844 82.6555 23.0844C84.737 23.0844 85.8511 24.9283 85.8511 27.6502C85.8511 30.3722 84.737 32.1868 82.6555 32.1868ZM82.6848 35.5819C87.5222 35.5819 90.6885 32.1575 90.6885 27.6502C90.6885 23.1429 87.5222 19.7185 82.6848 19.7185C77.8768 19.7185 74.6519 23.1429 74.6519 27.6502C74.6519 32.1575 77.8768 35.5819 82.6848 35.5819Z" fill="white"/>
<path d="M99.0615 40.2941C101.29 40.2941 103.254 39.7966 104.573 38.6259C105.775 37.5429 106.567 35.9039 106.567 33.6502V20.1283H101.993V21.7381H101.935C101.055 20.4795 99.7065 19.6893 97.7129 19.6893C93.9896 19.6893 91.4097 22.7917 91.4097 27.182C91.4097 31.7771 94.5466 34.2941 97.9181 34.2941C99.7358 34.2941 100.879 33.5624 101.759 32.5673H101.876V34.06C101.876 35.8746 101.026 36.9283 99.0029 36.9283C97.4197 36.9283 96.6282 36.2551 96.3643 35.4649H91.7322C92.2012 38.5966 94.9278 40.2941 99.0615 40.2941ZM99.0322 30.7527C97.2438 30.7527 96.0711 29.2893 96.0711 27.0356C96.0711 24.7527 97.2438 23.2893 99.0322 23.2893C101.026 23.2893 102.081 24.9868 102.081 27.0063C102.081 29.1137 101.114 30.7527 99.0322 30.7527Z" fill="white"/>
<path d="M115.97 32.1868C113.889 32.1868 112.804 30.3722 112.804 27.6502C112.804 24.9283 113.889 23.0844 115.97 23.0844C118.052 23.0844 119.166 24.9283 119.166 27.6502C119.166 30.3722 118.052 32.1868 115.97 32.1868ZM116 35.5819C120.837 35.5819 124.004 32.1575 124.004 27.6502C124.004 23.1429 120.837 19.7185 116 19.7185C111.192 19.7185 107.967 23.1429 107.967 27.6502C107.967 32.1575 111.192 35.5819 116 35.5819Z" fill="white"/>
<path d="M125.399 35.1137H130.178V20.1283H125.399V35.1137ZM125.399 18.0502H130.178V14.1868H125.399V18.0502Z" fill="white"/>
<path d="M132.25 40.06H137.029V33.5624H137.088C138.026 34.821 139.404 35.582 141.339 35.582C145.267 35.582 147.877 32.4795 147.877 27.621C147.877 23.1137 145.443 19.6893 141.456 19.6893C139.404 19.6893 137.938 20.5966 136.912 21.9429H136.824V20.1283H132.25V40.06ZM140.108 31.8941C138.055 31.8941 136.883 30.2259 136.883 27.7966C136.883 25.3673 137.938 23.5234 140.02 23.5234C142.072 23.5234 143.039 25.221 143.039 27.7966C143.039 30.3429 141.925 31.8941 140.108 31.8941Z" fill="white"/>
<path d="M155.658 35.582C159.586 35.582 162.489 33.8844 162.489 30.6063C162.489 26.7722 159.381 26.099 156.743 25.66C154.837 25.3088 153.137 25.1624 153.137 24.1088C153.137 23.1722 154.045 22.7332 155.218 22.7332C156.537 22.7332 157.446 23.1429 157.622 24.4893H162.02C161.785 21.5332 159.499 19.6893 155.247 19.6893C151.7 19.6893 148.768 21.3283 148.768 24.4893C148.768 28.0015 151.554 28.7039 154.163 29.1429C156.156 29.4941 157.974 29.6405 157.974 30.9868C157.974 31.9527 157.065 32.4795 155.629 32.4795C154.045 32.4795 153.049 31.7478 152.873 30.2551H148.358C148.504 33.5624 151.26 35.582 155.658 35.582Z" fill="white"/>
<path d="M168.979 35.5527C171.061 35.5527 172.38 34.7332 173.465 33.2698H173.553V35.1137H178.126V20.1283H173.348V28.499C173.348 30.2844 172.351 31.5137 170.709 31.5137C169.184 31.5137 168.452 30.6063 168.452 28.9673V20.1283H163.702V29.9624C163.702 33.299 165.52 35.5527 168.979 35.5527Z" fill="white"/>
<path d="M180.205 35.1137H184.984V26.7137C184.984 24.9283 185.863 23.6698 187.359 23.6698C188.795 23.6698 189.469 24.6063 189.469 26.2161V35.1137H194.248V26.7137C194.248 24.9283 195.098 23.6698 196.623 23.6698C198.059 23.6698 198.734 24.6063 198.734 26.2161V35.1137H203.512V25.3673C203.512 22.0015 201.812 19.6893 198.411 19.6893C196.476 19.6893 194.864 20.5088 193.691 22.3234H193.632C192.87 20.7137 191.375 19.6893 189.411 19.6893C187.241 19.6893 185.805 20.7137 184.867 22.2649H184.779V20.1283H180.205V35.1137Z" fill="white"/>
<path fill-rule="evenodd" clip-rule="evenodd" d="M10.5714 4.74525C8.82379 5.9652 7.24346 7.40758 5.8716 9.03126C11.4777 8.51166 18.6 9.3601 26.869 13.4877C35.6991 17.8953 42.8096 18.0443 47.7581 17.0914C47.3091 15.7342 46.7437 14.4298 46.0742 13.1898C40.4095 13.7862 33.1473 12.9967 24.6839 8.77221C19.3095 6.08953 14.5721 4.98444 10.5714 4.74525ZM42.7651 8.48766C38.2916 3.49784 31.7906 0.357605 24.5549 0.357605C22.43 0.357605 20.3682 0.628467 18.4027 1.13746C21.0648 1.86259 23.8927 2.92344 26.869 4.40915C33.0655 7.50215 38.4151 8.49804 42.7651 8.48766ZM48.8161 21.8553C42.8378 23.0338 34.5824 22.7917 24.6839 17.8507C15.4298 13.2315 8.06442 13.2896 3.09693 14.3917C2.84052 14.4486 2.59015 14.5083 2.34583 14.5705C1.69546 15.9826 1.17631 17.4675 0.803822 19.0094C1.20166 18.9033 1.61277 18.8025 2.03693 18.7083C8.06337 17.3714 16.5782 17.4294 26.869 22.5662C36.1231 27.1855 43.4885 27.1273 48.4561 26.0253C48.6263 25.9876 48.794 25.9485 48.9589 25.9083C48.977 25.5238 48.986 25.1368 48.986 24.7478C48.986 23.7692 48.9283 22.8039 48.8161 21.8553ZM48.1612 31.0555C42.2409 32.0888 34.2259 31.6922 24.6839 26.9293C15.4298 22.31 8.06442 22.3682 3.09693 23.4703C1.99429 23.7148 1.00237 24.0127 0.127358 24.3272C0.124973 24.4671 0.123779 24.6073 0.123779 24.7478C0.123779 38.2182 11.062 49.1381 24.5549 49.1381C35.8629 49.1381 45.3767 41.4684 48.1612 31.0555Z" fill="#9EFF8C"/>
</g>
<defs>
<clipPath id="clip0_208_7055">
<rect width="204" height="50" fill="white" transform="translate(0 -0.000488281)"/>
</clipPath>
</defs>
</svg>
