<svg width="204" height="50" viewBox="0 0 204 50" fill="none" xmlns="http://www.w3.org/2000/svg">
<g clip-path="url(#clip0_208_7013)">
<path d="M59.8369 35.3073H74.3501V30.9171H64.9952V14.3805H59.8369V35.3073Z" fill="white"/>
<path d="M82.9487 32.3805C80.8795 32.3805 79.8012 30.5658 79.8012 27.8439C79.8012 25.1219 80.8795 23.278 82.9487 23.278C85.0178 23.278 86.1252 25.1219 86.1252 27.8439C86.1252 30.5658 85.0178 32.3805 82.9487 32.3805ZM82.9778 35.7756C87.7864 35.7756 90.9338 32.3512 90.9338 27.8439C90.9338 23.3366 87.7864 19.9122 82.9778 19.9122C78.1984 19.9122 74.9927 23.3366 74.9927 27.8439C74.9927 32.3512 78.1984 35.7756 82.9778 35.7756Z" fill="white"/>
<path d="M99.2572 40.4878C101.472 40.4878 103.425 39.9902 104.736 38.8195C105.931 37.7366 106.718 36.0976 106.718 33.8439V20.322H102.171V21.9317H102.113C101.239 20.6732 99.8983 19.8829 97.9166 19.8829C94.2155 19.8829 91.6509 22.9854 91.6509 27.3756C91.6509 31.9707 94.7692 34.4878 98.1206 34.4878C99.9275 34.4878 101.064 33.7561 101.938 32.761H102.055V34.2537C102.055 36.0683 101.21 37.122 99.1989 37.122C97.6252 37.122 96.8383 36.4488 96.576 35.6585H91.9715C92.4377 38.7903 95.148 40.4878 99.2572 40.4878ZM99.228 30.9463C97.4503 30.9463 96.2846 29.4829 96.2846 27.2293C96.2846 24.9463 97.4503 23.4829 99.228 23.4829C101.21 23.4829 102.259 25.1805 102.259 27.2C102.259 29.3073 101.297 30.9463 99.228 30.9463Z" fill="white"/>
<path d="M116.066 32.3805C113.997 32.3805 112.918 30.5658 112.918 27.8439C112.918 25.1219 113.997 23.278 116.066 23.278C118.135 23.278 119.242 25.1219 119.242 27.8439C119.242 30.5658 118.135 32.3805 116.066 32.3805ZM116.095 35.7756C120.904 35.7756 124.05 32.3512 124.05 27.8439C124.05 23.3366 120.904 19.9122 116.095 19.9122C111.316 19.9122 108.11 23.3366 108.11 27.8439C108.11 32.3512 111.316 35.7756 116.095 35.7756Z" fill="white"/>
<path d="M125.438 35.3073H130.188V20.322H125.438V35.3073ZM125.438 18.2439H130.188V14.3805H125.438V18.2439Z" fill="white"/>
<path d="M132.249 40.2537H136.999V33.7561H137.058C137.99 35.0146 139.36 35.7756 141.283 35.7756C145.188 35.7756 147.782 32.6732 147.782 27.8146C147.782 23.3073 145.363 19.8829 141.4 19.8829C139.36 19.8829 137.903 20.7903 136.883 22.1366H136.795V20.322H132.249V40.2537ZM140.059 32.0878C138.019 32.0878 136.854 30.4195 136.854 27.9903C136.854 25.561 137.903 23.7171 139.972 23.7171C142.012 23.7171 142.974 25.4146 142.974 27.9903C142.974 30.5366 141.866 32.0878 140.059 32.0878Z" fill="white"/>
<path d="M155.516 35.7756C159.421 35.7756 162.306 34.0781 162.306 30.8C162.306 26.9659 159.217 26.2927 156.594 25.8537C154.7 25.5024 153.01 25.3561 153.01 24.3024C153.01 23.3659 153.913 22.9268 155.079 22.9268C156.39 22.9268 157.294 23.3366 157.468 24.6829H161.84C161.607 21.7268 159.334 19.8829 155.108 19.8829C151.582 19.8829 148.667 21.522 148.667 24.6829C148.667 28.1951 151.436 28.8976 154.03 29.3366C156.011 29.6878 157.818 29.8342 157.818 31.1805C157.818 32.1463 156.915 32.6732 155.487 32.6732C153.913 32.6732 152.922 31.9415 152.747 30.4488H148.259C148.405 33.7561 151.144 35.7756 155.516 35.7756Z" fill="white"/>
<path d="M168.759 35.7464C170.828 35.7464 172.139 34.9268 173.218 33.4634H173.305V35.3073H177.851V20.322H173.101V28.6927C173.101 30.4781 172.11 31.7073 170.478 31.7073C168.963 31.7073 168.234 30.8 168.234 29.161V20.322H163.513V30.1561C163.513 33.4927 165.32 35.7464 168.759 35.7464Z" fill="white"/>
<path d="M179.918 35.3073H184.669V26.9073C184.669 25.122 185.543 23.8634 187.029 23.8634C188.457 23.8634 189.128 24.8 189.128 26.4098V35.3073H193.878V26.9073C193.878 25.122 194.723 23.8634 196.238 23.8634C197.666 23.8634 198.337 24.8 198.337 26.4098V35.3073H203.087V25.561C203.087 22.1951 201.397 19.8829 198.016 19.8829C196.093 19.8829 194.49 20.7024 193.324 22.5171H193.266C192.508 20.9073 191.022 19.8829 189.069 19.8829C186.913 19.8829 185.485 20.9073 184.552 22.4585H184.465V20.322H179.918V35.3073Z" fill="white"/>
<path d="M30.8547 2.41038L26.079 1.12518L22.0543 16.21L18.4208 2.59133L13.6449 3.87652L17.5707 18.5905L7.79249 8.77028L4.29633 12.2815L15.0218 23.0532L1.66494 19.4588L0.385254 24.2551L14.9793 28.1825C14.8122 27.4587 14.7238 26.7045 14.7238 25.9297C14.7238 20.4448 19.1511 15.9984 24.6125 15.9984C30.0738 15.9984 34.5011 20.4448 34.5011 25.9297C34.5011 26.6995 34.4138 27.449 34.2488 28.1686L47.5121 31.7377L48.7917 26.9414L34.1396 22.9984L47.4974 19.4038L46.2176 14.6075L31.5662 18.5501L41.3443 8.72996L37.8482 5.21876L27.2715 15.841L30.8547 2.41038Z" fill="#9EFF8C"/>
<path d="M34.2359 28.2244C33.8264 29.9629 32.962 31.5247 31.7759 32.7761L41.3845 42.4262L44.8807 38.915L34.2359 28.2244Z" fill="#9EFF8C"/>
<path d="M31.6789 32.8771C30.4785 34.1084 28.9615 35.0273 27.2603 35.5009L30.7567 48.6057L35.5325 47.3205L31.6789 32.8771Z" fill="#9EFF8C"/>
<path d="M27.0818 35.5488C26.2926 35.7526 25.4653 35.8609 24.6127 35.8609C23.6993 35.8609 22.8148 35.7365 21.9752 35.5037L18.4756 48.6205L23.2514 49.9056L27.0818 35.5488Z" fill="#9EFF8C"/>
<path d="M21.8065 35.4552C20.1313 34.9582 18.6412 34.0275 17.4653 32.7927L7.83301 42.4664L11.3292 45.9777L21.8065 35.4552Z" fill="#9EFF8C"/>
<path d="M17.3846 32.7072C16.2288 31.4645 15.387 29.9236 14.9863 28.2119L1.67969 31.7927L2.95936 36.589L17.3846 32.7072Z" fill="#9EFF8C"/>
</g>
<defs>
<clipPath id="clip0_208_7013">
<rect width="204" height="50" fill="white" transform="translate(0 -0.000488281)"/>
</clipPath>
</defs>
</svg>
