<svg width="227" height="50" viewBox="0 0 227 50" fill="none" xmlns="http://www.w3.org/2000/svg">
<g clip-path="url(#clip0_208_7000)">
<path fill-rule="evenodd" clip-rule="evenodd" d="M71.9966 3.32717C71.9966 1.63279 73.3851 0.259216 75.0982 0.259216H80.5013C81.7205 0.259216 82.9021 0.677142 83.8448 1.44185L85.4884 2.77512L85.5295 2.81221C85.5674 2.79955 85.6054 2.78718 85.6434 2.77512C88.6088 1.83562 92.2066 1.65695 95.8787 1.65695C99.5507 1.65695 103.149 1.83562 106.114 2.77512C106.152 2.78718 106.19 2.79955 106.228 2.81221L106.269 2.77512L107.913 1.44185C108.855 0.677142 110.037 0.259216 111.256 0.259216H116.659C118.372 0.259216 119.761 1.63279 119.761 3.32717V5.22373C119.761 6.69111 119.136 8.09061 118.039 9.0789L116.713 10.274C116.066 10.8574 115.289 11.2821 114.445 11.5135L114.131 11.5996C115.36 14.4995 116.039 17.5993 116.039 20.1068C116.039 30.1939 109.729 34.5504 104.17 38.3889C99.7916 41.4118 95.8787 44.1134 95.8787 49.0398C95.8787 44.1134 91.9657 41.4118 87.5876 38.3889C82.028 34.5504 75.7184 30.1939 75.7184 20.1068C75.7184 17.5993 76.3972 14.4995 77.6258 11.5996L77.3122 11.5135C76.4683 11.2821 75.6913 10.8574 75.044 10.274L73.718 9.0789C72.6215 8.09061 71.9966 6.69111 71.9966 5.22373V3.32717ZM99.9107 28.3534C99.9107 28.8354 99.6983 29.2974 99.3202 29.6383C98.9422 29.979 98.4294 30.1705 97.8946 30.1705C97.433 30.1705 96.9877 30.0277 96.6313 29.7694C97.2379 31.3755 98.7902 32.8973 101.151 30.45C103.236 28.176 101.059 23.3798 98.9377 20.5337C98.2307 19.585 97.0701 19.1284 95.8787 19.1284C94.6872 19.1284 93.5266 19.585 92.8196 20.5337C90.6987 23.3798 88.5216 28.176 90.606 30.45C92.9671 32.8973 94.5194 31.3755 95.126 29.7694C94.7696 30.0277 94.3243 30.1705 93.8627 30.1705C93.3279 30.1705 92.8151 29.979 92.4371 29.6383C92.059 29.2974 91.8466 28.8354 91.8466 28.3534H99.9107ZM88.1583 14.1557H82.542L86.9682 17.6615C87.9422 18.4328 89.3659 18.1862 89.9685 17.1417C90.7295 15.8229 89.7188 14.1557 88.1583 14.1557ZM103.599 14.1557H109.215L104.789 17.6615C103.815 18.4328 102.391 18.1862 101.789 17.1417C101.028 15.8229 102.039 14.1557 103.599 14.1557Z" fill="#9EFF8C"/>
<path d="M126.451 34.812H131.427V16.0438H126.451V34.812ZM126.451 13.1169H131.427V8.6535H126.451V13.1169Z" fill="white"/>
<path d="M134.633 40.9584H139.608V32.6901H139.682C140.743 34.2999 142.462 35.3609 145.096 35.3609C149.925 35.3609 153.218 31.5194 153.218 25.4462C153.218 19.5926 150.035 15.5316 145.06 15.5316C142.499 15.5316 140.743 16.7389 139.535 18.3853H139.425V16.0438H134.633V40.9584ZM144.035 31.2267C141.072 31.2267 139.499 28.995 139.499 25.5926C139.499 22.2267 140.743 19.556 143.852 19.556C146.925 19.556 148.169 22.0438 148.169 25.5926C148.169 29.1414 146.56 31.2267 144.035 31.2267Z" fill="white"/>
<path d="M163.144 35.3609C167.827 35.3609 171.046 33.0926 171.046 29.3243C171.046 24.9341 167.571 24.056 164.425 23.3975C161.754 22.8487 159.266 22.7023 159.266 21.0926C159.266 19.7389 160.546 19.0072 162.485 19.0072C164.607 19.0072 165.888 19.7389 166.107 21.7511H170.607C170.242 17.9828 167.498 15.5316 162.559 15.5316C158.278 15.5316 154.912 17.4706 154.912 21.5316C154.912 25.6292 158.205 26.5438 161.571 27.2023C164.132 27.7145 166.51 27.8975 166.51 29.6902C166.51 31.0072 165.266 31.8487 163.071 31.8487C160.839 31.8487 159.303 30.8975 158.973 28.7389H154.364C154.656 32.7267 157.693 35.3609 163.144 35.3609Z" fill="white"/>
<path d="M189.938 34.8121V16.0438H184.962V26.873C184.962 29.3608 183.535 31.1169 181.194 31.1169C179.072 31.1169 178.084 29.9096 178.084 27.7145V16.0438H173.145V28.556C173.145 32.6535 175.486 35.3242 179.657 35.3242C182.291 35.3242 183.755 34.3364 185.035 32.6169H185.145V34.8121H189.938Z" fill="white"/>
<path d="M193.156 34.8121H198.132V23.9097C198.132 21.4219 199.485 19.8121 201.497 19.8121C203.327 19.8121 204.388 20.9097 204.388 23.0316V34.8121H209.363V23.9097C209.363 21.4219 210.644 19.8121 212.729 19.8121C214.558 19.8121 215.619 20.9097 215.619 23.0316V34.8121H220.595V22.1902C220.595 18.0926 218.363 15.5316 214.412 15.5316C212.034 15.5316 210.058 16.7755 208.778 18.8243H208.705C207.79 16.8487 205.888 15.5316 203.51 15.5316C200.912 15.5316 199.083 16.8487 198.058 18.5682H197.949V16.0438H193.156V34.8121Z" fill="white"/>
<path d="M0.834229 34.812H5.80984V8.6535H0.834229V34.812Z" fill="white"/>
<path d="M17.9761 35.3609C23.7932 35.3609 27.781 31.0438 27.781 25.4462C27.781 19.8487 23.7932 15.5316 17.9761 15.5316C12.1589 15.5316 8.17114 19.8487 8.17114 25.4462C8.17114 31.0438 12.1589 35.3609 17.9761 35.3609ZM17.9761 31.556C14.9029 31.556 13.22 29.1048 13.22 25.4462C13.22 21.7877 14.9029 19.2999 17.9761 19.2999C21.0127 19.2999 22.7322 21.7877 22.7322 25.4462C22.7322 29.1048 21.0127 31.556 17.9761 31.556Z" fill="white"/>
<path d="M38.3619 41.2145C41.1424 41.2145 43.557 40.556 45.1302 39.0926C46.5204 37.8121 47.3619 36.0194 47.3619 33.3853V16.0438H42.5692V18.0194H42.496C41.3619 16.4463 39.6424 15.5316 37.3009 15.5316C32.5448 15.5316 29.179 19.117 29.179 24.7145C29.179 30.3853 33.2765 33.678 37.4472 33.678C39.8253 33.678 41.2521 32.7267 42.3497 31.4828H42.4594V33.5316C42.4594 36.0926 41.1058 37.4463 38.2887 37.4463C35.9838 37.4463 34.9229 36.5316 34.5204 35.3609H29.5814C30.0936 39.0194 33.2399 41.2145 38.3619 41.2145ZM38.2887 29.6902C35.7277 29.6902 34.0448 27.8243 34.0448 24.6414C34.0448 21.495 35.7277 19.5194 38.2521 19.5194C41.2521 19.5194 42.7155 21.8609 42.7155 24.6048C42.7155 27.3853 41.4351 29.6902 38.2887 29.6902Z" fill="white"/>
<path d="M59.456 35.3609C65.2731 35.3609 69.2609 31.0438 69.2609 25.4462C69.2609 19.8487 65.2731 15.5316 59.456 15.5316C53.6389 15.5316 49.6511 19.8487 49.6511 25.4462C49.6511 31.0438 53.6389 35.3609 59.456 35.3609ZM59.456 31.556C56.3828 31.556 54.6999 29.1048 54.6999 25.4462C54.6999 21.7877 56.3828 19.2999 59.456 19.2999C62.4926 19.2999 64.2121 21.7877 64.2121 25.4462C64.2121 29.1048 62.4926 31.556 59.456 31.556Z" fill="white"/>
<path d="M220.371 11.9462C220.371 11.1043 221.052 10.4218 221.895 10.4218H224.944C225.785 10.4218 226.468 11.1043 226.468 11.9462C226.468 12.788 225.785 13.4706 224.944 13.4706H221.895C221.052 13.4706 220.371 12.788 220.371 11.9462Z" fill="white"/>
</g>
<defs>
<clipPath id="clip0_208_7000">
<rect width="226.829" height="50" fill="white" transform="translate(0 -0.000488281)"/>
</clipPath>
</defs>
</svg>
