<svg width="50" height="50" viewBox="0 0 50 50" fill="none" xmlns="http://www.w3.org/2000/svg">
<g clip-path="url(#clip0_302_3646)">
<path d="M7.89604 9.32581C7.99183 9.3248 8.08761 9.32378 8.1863 9.32273C8.29129 9.3236 8.39628 9.32447 8.50445 9.32537C8.61617 9.32476 8.72789 9.32415 8.84299 9.32352C9.15313 9.32223 9.46322 9.3227 9.77336 9.32391C10.1078 9.32479 10.4423 9.32343 10.7767 9.32235C11.4319 9.32061 12.0871 9.32099 12.7423 9.32212C13.2747 9.323 13.8071 9.32312 14.3395 9.3227C14.4531 9.32261 14.4531 9.32261 14.5689 9.32252C14.7228 9.32239 14.8766 9.32227 15.0304 9.32214C16.4734 9.32102 17.9164 9.32231 19.3594 9.3244C20.598 9.32615 21.8366 9.32585 23.0753 9.32404C24.513 9.32196 25.9508 9.32113 27.3885 9.32233C27.5418 9.32246 27.6951 9.32258 27.8483 9.3227C27.9237 9.32276 27.9991 9.32282 28.0768 9.32288C28.6087 9.32322 29.1406 9.32265 29.6725 9.32173C30.3205 9.32064 30.9685 9.32093 31.6165 9.32301C31.9473 9.32404 32.278 9.32444 32.6087 9.32315C32.967 9.32209 33.3251 9.32341 33.6834 9.32537C33.7883 9.3245 33.8933 9.32363 34.0015 9.32273C34.6931 9.33008 34.6931 9.33008 35.0256 9.53539C35.1943 9.83233 35.2055 10.0319 35.206 10.3735C35.2077 10.5608 35.2077 10.5608 35.2093 10.7519C35.2086 10.89 35.2078 11.0282 35.2069 11.1664C35.2075 11.312 35.2082 11.4577 35.209 11.6034C35.2108 11.9988 35.2101 12.3943 35.2089 12.7897C35.2079 13.2035 35.2088 13.6172 35.2094 14.031C35.2101 14.7259 35.2092 15.4207 35.2073 16.1155C35.2052 16.919 35.2059 17.7225 35.208 18.5259C35.2098 19.2156 35.2101 19.9053 35.209 20.595C35.2084 21.007 35.2084 21.419 35.2096 21.831C35.2108 22.2183 35.21 22.6056 35.2077 22.9929C35.2072 23.1351 35.2074 23.2773 35.2082 23.4195C35.2093 23.6135 35.2077 23.8075 35.206 24.0015C35.2058 24.1644 35.2058 24.1644 35.2056 24.3306C35.1452 24.673 35.0358 24.7879 34.7658 25C34.5705 25.0519 34.5705 25.0519 34.3752 25.0488C34.2785 25.0503 34.2785 25.0503 34.1798 25.0519C33.8938 24.9759 33.7799 24.8367 33.5939 24.6093C33.5458 24.3478 33.5458 24.3478 33.5469 24.0433C33.5461 23.8703 33.5461 23.8703 33.5453 23.6938C33.5474 23.5038 33.5474 23.5038 33.5496 23.31C33.5497 23.173 33.5496 23.0361 33.5494 22.8992C33.5493 22.5325 33.5516 22.166 33.5543 21.7994C33.5566 21.4553 33.5567 21.1113 33.5569 20.7672C33.559 19.7611 33.5645 18.7551 33.5695 17.749C33.5775 15.5012 33.5856 13.2534 33.5939 10.9375C25.3439 10.9375 17.0939 10.9375 8.5939 10.9375C8.5939 22.2812 8.5939 33.625 8.5939 45.3125C14.3613 45.297 14.3613 45.297 20.1287 45.2773C21.2427 45.2755 21.2427 45.2755 21.7638 45.2752C22.1287 45.2748 22.4936 45.2734 22.8585 45.2712C23.3236 45.2686 23.7886 45.2677 24.2537 45.2683C24.4246 45.2682 24.5955 45.2674 24.7664 45.2659C24.9969 45.264 25.2272 45.2644 25.4577 45.2655C25.525 45.2644 25.5922 45.2632 25.6615 45.262C25.9889 45.2662 26.1479 45.2935 26.4087 45.4985C26.5758 45.7205 26.6158 45.8196 26.6115 46.0937C26.6125 46.1582 26.6135 46.2226 26.6145 46.289C26.5367 46.5821 26.411 46.689 26.172 46.875C25.9067 46.9133 25.681 46.9278 25.4159 46.9246C25.3009 46.9255 25.3009 46.9255 25.1837 46.9264C24.9266 46.928 24.6697 46.9267 24.4127 46.9255C24.2285 46.926 24.0444 46.9267 23.8602 46.9276C23.3599 46.9294 22.8595 46.9287 22.3591 46.9274C21.8359 46.9265 21.3126 46.9274 20.7894 46.928C19.9106 46.9287 19.0319 46.9278 18.1532 46.9259C17.1367 46.9238 16.1202 46.9245 15.1037 46.9266C14.2316 46.9284 13.3594 46.9286 12.4873 46.9276C11.9661 46.927 11.445 46.9269 10.9238 46.9282C10.4339 46.9293 9.94401 46.9286 9.45409 46.9263C9.2741 46.9258 9.09411 46.9259 8.91413 46.9268C8.66877 46.9279 8.42354 46.9265 8.1782 46.9246C8.07087 46.9259 8.07087 46.9259 7.96138 46.9272C7.65034 46.9224 7.46082 46.904 7.20855 46.7154C6.97784 46.4145 6.98246 46.241 6.98225 45.8639C6.98123 45.7355 6.98021 45.607 6.97916 45.4747C6.98001 45.3318 6.98089 45.1889 6.9818 45.046C6.98135 44.8945 6.98073 44.743 6.97995 44.5915C6.97832 44.1744 6.97913 43.7574 6.98034 43.3404C6.98122 42.8909 6.97986 42.4415 6.97879 41.992C6.97705 41.1112 6.97742 40.2304 6.97856 39.3496C6.97944 38.634 6.97956 37.9183 6.97913 37.2027C6.97907 37.1009 6.97901 36.9992 6.97895 36.8944C6.97883 36.6877 6.9787 36.481 6.97857 36.2744C6.97746 34.3351 6.97874 32.3959 6.98084 30.4566C6.98258 28.7916 6.98228 27.1266 6.98048 25.4615C6.97839 23.5294 6.97756 21.5972 6.97876 19.665C6.97889 19.4591 6.97901 19.2532 6.97913 19.0473C6.97919 18.9459 6.97925 18.8446 6.97932 18.7402C6.97965 18.0252 6.97908 17.3102 6.97816 16.5951C6.97707 15.7241 6.97736 14.8531 6.97945 13.982C6.98047 13.5373 6.98087 13.0927 6.97958 12.648C6.97842 12.2413 6.97905 11.8346 6.98114 11.4279C6.98157 11.2804 6.98135 11.133 6.9804 10.9855C6.97922 10.7857 6.98066 10.5858 6.98225 10.386C6.98231 10.2748 6.98237 10.1637 6.98244 10.0491C7.07497 9.51333 7.37325 9.32622 7.89604 9.32581Z" fill="#01594D"/>
<path d="M34.3751 26.5137C34.4396 26.5127 34.504 26.5117 34.5704 26.5106C34.8784 26.5924 34.9763 26.687 35.1564 26.9531C35.2042 27.2881 35.1931 27.6167 35.1808 27.9541C35.179 28.0455 35.1773 28.1369 35.1754 28.231C35.1708 28.4562 35.1644 28.6812 35.1564 28.9062C35.2561 28.9083 35.2561 28.9083 35.3578 28.9104C37.6927 29.0253 39.844 30.2744 41.4392 31.9271C42.7334 33.3733 43.8273 35.5179 43.7501 37.5C43.8358 37.4969 43.8358 37.4969 43.9232 37.4938C44.1829 37.4857 44.4425 37.4806 44.7023 37.4756C44.7922 37.4723 44.882 37.469 44.9746 37.4657C45.6383 37.456 45.6383 37.456 45.9581 37.6724C46.0997 37.9 46.1468 38.0159 46.1427 38.2812C46.1442 38.3779 46.1442 38.3779 46.1458 38.4766C46.064 38.7845 45.9694 38.8824 45.7032 39.0625C45.3683 39.1103 45.0397 39.0992 44.7023 39.0869C44.6109 39.0852 44.5195 39.0834 44.4253 39.0816C44.2002 39.077 43.9752 39.0706 43.7501 39.0625C43.7487 39.129 43.7474 39.1954 43.7459 39.2639C43.631 41.5988 42.3819 43.7501 40.7293 45.3453C39.2831 46.6395 37.1385 47.7334 35.1564 47.6562C35.1584 47.7134 35.1605 47.7705 35.1626 47.8293C35.1707 48.089 35.1758 48.3487 35.1808 48.6084C35.1857 48.7432 35.1857 48.7432 35.1907 48.8808C35.2003 49.5444 35.2003 49.5444 34.9839 49.8642C34.7564 50.0058 34.6405 50.053 34.3751 50.0488C34.2784 50.0503 34.2784 50.0503 34.1798 50.0519C33.8719 49.9701 33.774 49.8755 33.5939 49.6094C33.5461 49.2744 33.5572 48.9458 33.5695 48.6084C33.5712 48.517 33.573 48.4256 33.5748 48.3315C33.5794 48.1063 33.5858 47.8813 33.5939 47.6562C33.5274 47.6549 33.4609 47.6535 33.3925 47.6521C31.0575 47.5372 28.9063 46.2881 27.3111 44.6354C25.7184 42.8557 24.9532 40.647 25.0001 38.2812C24.8434 38.2843 24.8434 38.2843 24.6836 38.2874C24.2956 38.2945 23.9076 38.299 23.5195 38.3027C23.3517 38.3047 23.1838 38.3073 23.016 38.3107C22.7745 38.3155 22.5332 38.3177 22.2917 38.3194C22.1794 38.3224 22.1794 38.3224 22.0648 38.3255C21.7152 38.3257 21.5237 38.3112 21.242 38.0958C21.0817 37.8738 21.0408 37.7705 21.045 37.5C21.0435 37.4033 21.0435 37.4033 21.042 37.3047C21.1207 37.0084 21.2402 36.9045 21.4845 36.7188C21.7735 36.6847 22.025 36.6731 22.313 36.6806C22.3927 36.6812 22.4723 36.6817 22.5544 36.6823C22.8082 36.6845 23.0618 36.6894 23.3156 36.6943C23.4878 36.6963 23.6601 36.6981 23.8324 36.6997C24.2543 36.704 24.676 36.7107 25.0978 36.7188C25.112 36.5971 25.1262 36.4755 25.1408 36.3501C25.3834 34.274 26.7576 32.2761 28.3204 30.957C29.7614 29.821 31.7147 28.8331 33.5939 28.9062C33.5908 28.8206 33.5908 28.8206 33.5877 28.7332C33.5795 28.4735 33.5745 28.2138 33.5695 27.9541C33.5662 27.8642 33.5629 27.7743 33.5595 27.6817C33.5499 27.0181 33.5499 27.0181 33.7663 26.6983C33.9939 26.5567 34.1098 26.5095 34.3751 26.5137ZM28.9064 32.7148C27.9922 33.6394 26.7579 35.3235 26.7579 36.7188C26.8487 36.7196 26.8487 36.7196 26.9413 36.7205C27.5703 36.7267 28.1991 36.735 28.828 36.7444C29.0628 36.7476 29.2977 36.7504 29.5325 36.7526C29.8697 36.7558 30.2068 36.761 30.544 36.7664C30.702 36.7674 30.702 36.7674 30.8631 36.7683C30.9608 36.7703 31.0586 36.7722 31.1593 36.7742C31.2884 36.7758 31.2884 36.7758 31.4201 36.7775C31.685 36.8242 31.7724 36.898 31.9337 37.1094C31.9726 37.2986 31.9726 37.2986 31.9703 37.5C31.9715 37.5997 31.9715 37.5997 31.9726 37.7014C31.9213 37.9512 31.8404 38.0267 31.6407 38.1836C31.4164 38.2225 31.4164 38.2225 31.1503 38.2258C31.0506 38.2278 30.9509 38.2297 30.8482 38.2317C30.6871 38.2326 30.6871 38.2326 30.5227 38.2336C30.3575 38.2362 30.3575 38.2362 30.1889 38.2389C29.8367 38.2442 29.4845 38.2475 29.1322 38.2507C28.8936 38.254 28.655 38.2573 28.4164 38.2608C27.831 38.2691 27.2457 38.2758 26.6603 38.2812C26.6587 38.4686 26.6576 38.656 26.6567 38.8434C26.656 38.9478 26.6553 39.0522 26.6546 39.1597C26.6892 40.952 27.84 42.7922 29.0799 44.0182C30.3698 45.1557 31.8806 45.836 33.5939 45.9961C33.5953 45.9414 33.5967 45.8867 33.5982 45.8304C33.6055 45.5824 33.6149 45.3346 33.6244 45.0867C33.6266 45.0006 33.6288 44.9146 33.6311 44.8259C33.6363 44.7018 33.6363 44.7018 33.6416 44.5751C33.6441 44.4989 33.6467 44.4227 33.6493 44.3442C33.7013 44.0934 33.7852 44.0041 33.9845 43.8477C34.1737 43.8087 34.1737 43.8087 34.3751 43.811C34.4416 43.8103 34.5081 43.8095 34.5765 43.8087C34.8246 43.8598 34.9009 43.9445 35.0587 44.1406C35.1009 44.3442 35.1009 44.3442 35.1087 44.5751C35.1122 44.6579 35.1156 44.7407 35.1192 44.8259C35.1214 44.912 35.1236 44.998 35.1259 45.0867C35.1292 45.1738 35.1325 45.261 35.136 45.3508C35.144 45.5659 35.1508 45.7809 35.1564 45.9961C37.2434 45.8011 39.0851 44.8102 40.435 43.2088C41.3463 42.0634 42.09 40.5479 42.09 39.0625C42.0353 39.0611 41.9806 39.0597 41.9243 39.0582C41.6763 39.0509 41.4284 39.0415 41.1805 39.032C41.0945 39.0298 41.0085 39.0276 40.9198 39.0253C40.7957 39.0201 40.7957 39.0201 40.669 39.0148C40.5547 39.011 40.5547 39.011 40.4381 39.0071C40.1873 38.9551 40.0979 38.8712 39.9415 38.6719C39.9026 38.4827 39.9026 38.4827 39.9049 38.2812C39.9042 38.2148 39.9034 38.1483 39.9026 38.0798C39.9536 37.8318 40.0384 37.7555 40.2345 37.5977C40.4381 37.5554 40.4381 37.5554 40.669 37.5477C40.7518 37.5442 40.8345 37.5408 40.9198 37.5372C41.0058 37.535 41.0919 37.5328 41.1805 37.5305C41.2677 37.5272 41.3549 37.5238 41.4447 37.5204C41.6598 37.5124 41.8748 37.5056 42.09 37.5C41.8932 35.3935 40.8879 33.5669 39.2823 32.196C38.0536 31.275 36.687 30.7094 35.1564 30.5664C35.1549 30.6211 35.1535 30.6758 35.1521 30.7321C35.1448 30.9801 35.1353 31.2279 35.1259 31.4758C35.1237 31.5619 35.1214 31.6479 35.1192 31.7366C35.114 31.8607 35.114 31.8607 35.1087 31.9874C35.1061 32.0636 35.1036 32.1398 35.1009 32.2183C35.0489 32.4691 34.9651 32.5584 34.7657 32.7148C34.5765 32.7538 34.5765 32.7538 34.3751 32.7515C34.3087 32.7522 34.2422 32.753 34.1737 32.7538C33.9256 32.7027 33.8494 32.618 33.6915 32.4219C33.6493 32.2183 33.6493 32.2183 33.6416 31.9874C33.6381 31.9046 33.6346 31.8218 33.6311 31.7366C33.6289 31.6505 33.6267 31.5645 33.6244 31.4758C33.6211 31.3887 33.6177 31.3015 33.6143 31.2117C33.6062 30.9966 33.5995 30.7816 33.5939 30.5664C31.878 30.5664 30.144 31.5946 28.9064 32.7148Z" fill="#01594D"/>
<path d="M8.15712 4.63564C8.26956 4.63526 8.38199 4.63489 8.49783 4.6345C8.73344 4.63424 8.96906 4.63495 9.20466 4.63659C9.56578 4.6387 9.92671 4.6366 10.2878 4.63411C10.5175 4.63437 10.7472 4.63487 10.9769 4.63564C11.1387 4.63445 11.1387 4.63445 11.3037 4.63324C11.4038 4.63447 11.5039 4.6357 11.6071 4.63697C11.6949 4.63728 11.7828 4.63759 11.8733 4.63791C12.1838 4.70312 12.302 4.83593 12.5002 5.07814C12.552 5.27345 12.552 5.27345 12.549 5.46877C12.5505 5.56545 12.5505 5.56545 12.552 5.66408C12.472 5.9653 12.3614 6.06318 12.1095 6.25002C11.7944 6.30903 11.4822 6.30443 11.1623 6.30266C11.0696 6.30381 10.9769 6.30496 10.8813 6.30615C10.5847 6.30959 10.2882 6.31049 9.99161 6.31105C9.69677 6.31265 9.40196 6.31482 9.10713 6.31805C8.92387 6.31994 8.7406 6.32088 8.55734 6.32067C7.66966 6.3278 6.86447 6.41264 6.21048 7.07208C5.63506 7.72277 5.55451 8.40513 5.554 9.24906C5.55383 9.31279 5.55366 9.37651 5.55348 9.44217C5.55303 9.65544 5.55326 9.86869 5.5535 10.082C5.55332 10.2365 5.5531 10.3911 5.55283 10.5456C5.55223 10.9702 5.55225 11.3947 5.55236 11.8193C5.55238 12.2772 5.55184 12.7351 5.55138 13.1931C5.55057 14.0902 5.5503 14.9873 5.55025 15.8844C5.5502 16.6136 5.55 17.3428 5.54969 18.072C5.54883 20.1392 5.54838 22.2064 5.54845 24.2737C5.54846 24.4409 5.54846 24.4409 5.54846 24.6114C5.54847 24.723 5.54847 24.8346 5.54848 24.9496C5.54852 26.7582 5.54758 28.5668 5.5462 30.3754C5.5448 32.2323 5.54413 34.0892 5.54421 35.9462C5.54424 36.9887 5.54398 38.0313 5.54292 39.0739C5.54204 39.9615 5.54182 40.8492 5.54249 41.7368C5.54281 42.1896 5.54281 42.6425 5.54196 43.0953C5.5412 43.51 5.54133 43.9248 5.54219 44.3395C5.54234 44.4894 5.54216 44.6392 5.54161 44.789C5.51501 46.2659 5.51501 46.2659 6.1525 47.5586C6.92103 48.3208 7.75787 48.3546 8.78509 48.3527C8.88262 48.3529 8.98015 48.3531 9.08064 48.3533C9.4072 48.3539 9.73376 48.3538 10.0603 48.3537C10.2945 48.354 10.5287 48.3544 10.7629 48.3547C11.2671 48.3555 11.7713 48.356 12.2755 48.3563C13.0723 48.3569 13.8691 48.3585 14.6659 48.3604C14.9387 48.361 15.2114 48.3616 15.4841 48.3622C15.5523 48.3624 15.6204 48.3625 15.6906 48.3627C16.4657 48.3644 17.2408 48.366 18.0159 48.3675C18.1221 48.3677 18.1221 48.3677 18.2305 48.3679C19.3795 48.37 20.5285 48.3711 21.6776 48.3718C22.8575 48.3726 24.0374 48.3749 25.2173 48.3785C25.8797 48.3804 26.5421 48.3817 27.2045 48.3811C27.827 48.3807 28.4495 48.382 29.072 48.3847C29.3008 48.3854 29.5296 48.3854 29.7584 48.3847C30.07 48.3838 30.3815 48.3854 30.6931 48.3875C30.7843 48.3867 30.8755 48.3858 30.9694 48.385C31.5804 48.3927 31.5804 48.3927 31.8921 48.6237C32.0426 48.8446 32.0844 48.954 32.0802 49.2188C32.0812 49.2832 32.0822 49.3477 32.0833 49.4141C32.0029 49.7168 31.895 49.8131 31.6408 50C31.3155 50.0597 30.9929 50.0527 30.6631 50.0496C30.5124 50.0505 30.5124 50.0505 30.3586 50.0515C30.0209 50.053 29.6832 50.0518 29.3455 50.0506C29.1037 50.0511 28.862 50.0518 28.6203 50.0526C28.031 50.0542 27.4418 50.054 26.8526 50.0529C26.3733 50.052 25.8941 50.0519 25.4149 50.0523C25.3467 50.0523 25.2785 50.0524 25.2082 50.0525C25.0696 50.0526 24.931 50.0527 24.7925 50.0528C23.4923 50.054 22.1921 50.0527 20.892 50.0506C19.7777 50.0488 18.6635 50.0491 17.5493 50.0509C16.2549 50.053 14.9604 50.0539 13.6659 50.0527C13.5277 50.0525 13.3894 50.0524 13.2511 50.0523C13.1831 50.0522 13.1151 50.0522 13.045 50.0521C12.567 50.0518 12.089 50.0523 11.611 50.0533C10.9663 50.0545 10.3217 50.0536 9.67697 50.0513C9.44073 50.0508 9.20449 50.051 8.96826 50.0518C8.6449 50.0529 8.32163 50.0516 7.99827 50.0496C7.85917 50.0509 7.85917 50.0509 7.71725 50.0523C6.64486 50.0398 5.7554 49.6654 4.98062 48.9258C3.9794 47.877 3.84831 46.7563 3.8568 45.3603C3.85635 45.1982 3.85573 45.0362 3.85495 44.8741C3.85333 44.431 3.85413 43.9879 3.85534 43.5448C3.85623 43.066 3.85486 42.5872 3.85378 42.1085C3.85205 41.1715 3.85242 40.2345 3.85356 39.2975C3.85444 38.5358 3.85456 37.7741 3.85413 37.0125C3.85404 36.8497 3.85404 36.8497 3.85395 36.6837C3.85383 36.4633 3.8537 36.2428 3.85357 36.0224C3.85246 33.9565 3.85374 31.8907 3.85584 29.8248C3.85758 28.0531 3.85728 26.2814 3.85548 24.5096C3.85339 22.4511 3.85256 20.3925 3.85376 18.3339C3.85389 18.1143 3.85401 17.8947 3.85413 17.6751C3.85419 17.567 3.85425 17.459 3.85431 17.3477C3.85465 16.5871 3.85408 15.8265 3.85316 15.066C3.85207 14.1388 3.85237 13.2117 3.85445 12.2845C3.85547 11.8117 3.85588 11.3389 3.85458 10.866C3.85341 10.4328 3.85406 9.99961 3.85614 9.56637C3.85657 9.41004 3.85635 9.25371 3.8554 9.09739C3.848 7.77806 4.046 6.74077 4.98062 5.76173C5.90537 4.87894 6.90348 4.62632 8.15712 4.63564Z" fill="#01594D"/>
<path d="M22.5632 0.262042C23.3418 0.787818 23.9548 1.42043 24.2001 2.35211C24.2478 2.60963 24.284 2.8652 24.3161 3.12497C24.3771 3.12293 24.4381 3.12088 24.5009 3.11877C24.7811 3.11058 25.0612 3.10555 25.3415 3.10056C25.4374 3.09729 25.5333 3.09401 25.6322 3.09064C26.3808 3.08066 26.8785 3.21783 27.4613 3.69031C28.1452 4.47238 28.246 5.2141 28.259 6.22556C28.2603 6.30528 28.2617 6.38501 28.2631 6.46715C28.2593 6.9479 28.2214 7.31319 27.9294 7.71482C27.539 7.87679 27.2068 7.93429 26.7862 7.93254C26.6775 7.93255 26.5688 7.93256 26.4568 7.93257C26.339 7.93157 26.2212 7.93057 26.0998 7.92954C25.9746 7.92924 25.8494 7.92894 25.7204 7.92864C25.3783 7.92775 25.0361 7.92559 24.6939 7.92308C24.408 7.92107 24.1221 7.91961 23.8362 7.91812C23.1619 7.91457 22.4875 7.9099 21.8132 7.9046C21.1177 7.89915 20.4222 7.89589 19.7267 7.89365C19.129 7.89163 18.5314 7.88812 17.9337 7.88344C17.577 7.88067 17.2203 7.8785 16.8635 7.87783C16.466 7.87701 16.0686 7.8731 15.6712 7.86888C15.553 7.86907 15.4348 7.86925 15.313 7.86944C15.2048 7.8678 15.0967 7.86616 14.9852 7.86447C14.8913 7.86385 14.7974 7.86324 14.7006 7.86261C14.3799 7.79772 14.2626 7.67561 14.0622 7.42185C14.0117 7.14786 14.0117 7.14786 14.0103 6.83438C14.0098 6.72021 14.0093 6.60603 14.0088 6.48839C14.0111 6.30995 14.0111 6.30995 14.0134 6.1279C14.0119 6.01045 14.0103 5.893 14.0088 5.77199C14.0123 4.96189 14.1056 4.40009 14.6447 3.78491C14.7083 3.73229 14.7718 3.67967 14.8373 3.62546C14.9323 3.54426 14.9323 3.54426 15.0292 3.46143C15.4299 3.18535 15.7781 3.1005 16.2614 3.1059C16.411 3.10684 16.411 3.10684 16.5637 3.10781C16.6667 3.10944 16.7698 3.11108 16.8759 3.11277C16.9808 3.11365 17.0858 3.11453 17.1939 3.11544C17.4521 3.11773 17.7103 3.12094 17.9684 3.12497C17.9652 3.00513 17.9619 2.88529 17.9585 2.76181C17.9596 1.96584 18.4052 1.2506 18.945 0.683566C19.916 -0.0815396 21.4421 -0.350833 22.5632 0.262042ZM19.8083 2.30863C19.5943 2.69939 19.5933 2.99934 19.6225 3.43015C19.6654 4.12751 19.6654 4.12751 19.5069 4.43647C19.1618 4.74545 18.7459 4.70038 18.3011 4.70464C18.114 4.70813 18.114 4.70813 17.923 4.7117C17.7257 4.71513 17.5284 4.71799 17.331 4.7193C17.1396 4.72081 16.9482 4.7249 16.7569 4.72905C16.6428 4.73048 16.5287 4.7319 16.4111 4.73337C16.0538 4.79541 15.9405 4.89134 15.7224 5.17575C15.5835 5.54078 15.5835 5.54078 15.6247 6.24997C19.2341 6.24997 22.8434 6.24997 26.5622 6.24997C26.5869 5.48755 26.5869 5.48755 26.2692 4.88278C25.8789 4.67734 25.5393 4.66292 25.1027 4.66077C24.9721 4.65879 24.8415 4.65675 24.7109 4.65467C24.5067 4.65245 24.3025 4.65085 24.0982 4.65028C23.9 4.64935 23.7018 4.64606 23.5036 4.64246C23.3855 4.64166 23.2674 4.64085 23.1457 4.64003C22.8513 4.58982 22.8513 4.58982 22.6647 4.41346C22.5054 4.09263 22.5487 3.78378 22.5705 3.43625C22.5975 2.79292 22.5975 2.79292 22.3447 2.21555C21.9266 1.81605 21.6811 1.64526 21.0995 1.6174C20.5017 1.63784 20.186 1.84692 19.8083 2.30863Z" fill="#01594D"/>
<path d="M30.5807 4.63697C30.6808 4.63574 30.7809 4.63451 30.8841 4.63324C30.9919 4.63403 31.0997 4.63482 31.2108 4.63564C31.3226 4.63526 31.4344 4.63489 31.5496 4.6345C31.7864 4.63424 32.0232 4.63496 32.26 4.63659C32.6197 4.63867 32.9792 4.63662 33.3389 4.63411C33.5695 4.63437 33.8001 4.63487 34.0307 4.63564C34.1903 4.63445 34.1903 4.63445 34.3532 4.63324C35.4807 4.64681 36.3872 4.97898 37.2072 5.76173C38.2932 6.89936 38.3389 8.10834 38.3319 9.59663C38.3324 9.78569 38.3331 9.97475 38.334 10.1638C38.3358 10.6744 38.3351 11.185 38.3338 11.6957C38.3328 12.2308 38.3338 12.7659 38.3344 13.301C38.3351 14.1986 38.3342 15.0963 38.3323 15.9939C38.3302 17.032 38.3309 18.0701 38.333 19.1081C38.3348 20.0002 38.335 20.8923 38.334 21.7843C38.3334 22.3168 38.3333 22.8493 38.3346 23.3818C38.3357 23.8818 38.335 24.3817 38.3327 24.8816C38.3322 25.0652 38.3323 25.2489 38.3332 25.4325C38.3343 25.6827 38.3329 25.9328 38.331 26.183C38.3318 26.256 38.3327 26.329 38.3336 26.4042C38.3285 26.7435 38.3059 26.9215 38.0952 27.1933C37.8735 27.3565 37.772 27.3968 37.5001 27.3926C37.4034 27.3941 37.4034 27.3941 37.3048 27.3956C37.0124 27.318 36.9048 27.1909 36.7189 26.9531C36.6806 26.6936 36.6662 26.4744 36.6695 26.2151C36.6686 26.1031 36.6686 26.1031 36.6677 25.9888C36.6662 25.7383 36.6674 25.4879 36.6687 25.2374C36.6681 25.0579 36.6674 24.8784 36.6666 24.6989C36.6651 24.3121 36.6648 23.9254 36.6655 23.5386C36.6665 22.9267 36.6648 22.3148 36.6627 21.7029C36.6598 20.7345 36.6586 19.7661 36.6583 18.7978C36.6576 17.0651 36.6548 15.3325 36.65 13.5999C36.6484 12.992 36.6478 12.3841 36.6482 11.7763C36.6482 11.3973 36.6475 11.0184 36.6466 10.6395C36.6463 10.4643 36.6464 10.2891 36.6468 10.1138C36.6943 8.52612 36.6943 8.52612 36.0353 7.12892C35.2636 6.36363 34.4225 6.33518 33.3917 6.33051C33.1996 6.32824 33.0074 6.32589 32.8153 6.32345C32.514 6.32001 32.2127 6.31715 31.9114 6.31584C31.6194 6.31433 31.3276 6.31041 31.0357 6.30609C30.9005 6.30637 30.9005 6.30637 30.7626 6.30666C30.1386 6.29471 30.1386 6.29471 29.8263 6.06341C29.6763 5.84279 29.6347 5.73307 29.6388 5.46877C29.6373 5.37209 29.6373 5.37209 29.6357 5.27345C29.7652 4.78608 30.1119 4.63863 30.5807 4.63697Z" fill="#01594D"/>
<path d="M17.0473 34.851C17.2131 35.0961 17.2709 35.2509 17.2853 35.5468C17.2095 35.8363 17.1269 35.9969 16.9191 36.2121C16.6273 36.3661 16.4406 36.3608 16.1134 36.3281C16.0241 36.296 15.9347 36.2639 15.8426 36.2308C15.0356 35.9797 14.1511 36.0483 13.3897 36.4078C12.6937 36.7984 12.209 37.4126 11.9493 38.171C11.7711 39.2269 11.8783 40.1255 12.5002 41.0156C13.0229 41.6317 13.758 41.9706 14.5509 42.0776C15.4564 42.1321 16.1758 41.8582 16.8947 41.3086C17.3844 40.8295 17.6179 40.2467 17.8541 39.6129C17.966 39.362 18.0416 39.2237 18.2619 39.0625C18.9315 38.9881 18.9315 38.9881 19.2812 39.2212C19.5162 39.5784 19.5574 39.8989 19.4795 40.3183C19.041 41.6269 18.2564 42.6479 17.0515 43.3315C15.816 43.9409 14.5161 43.9422 13.2032 43.576C11.9684 43.1305 11.0123 42.1396 10.4501 40.9721C9.99214 39.8111 9.9494 38.3367 10.4173 37.1685C11.0512 35.9249 12.0021 34.9815 13.318 34.4848C14.4318 34.1878 16.0881 34.1492 17.0473 34.851Z" fill="#01594D"/>
<path d="M17.0473 23.9135C17.2131 24.1586 17.2709 24.3134 17.2853 24.6093C17.2095 24.8988 17.1269 25.0594 16.9191 25.2746C16.6273 25.4286 16.4406 25.4233 16.1134 25.3906C16.0241 25.3585 15.9347 25.3264 15.8426 25.2933C15.0356 25.0422 14.1511 25.1108 13.3897 25.4703C12.6937 25.8609 12.209 26.4751 11.9493 27.2335C11.7711 28.2894 11.8783 29.188 12.5002 30.0781C13.0229 30.6942 13.758 31.0331 14.5509 31.1401C15.4564 31.1946 16.1758 30.9207 16.8947 30.3711C17.3844 29.892 17.6179 29.3092 17.8541 28.6754C17.966 28.4245 18.0416 28.2862 18.2619 28.125C18.9315 28.0506 18.9315 28.0506 19.2812 28.2837C19.5162 28.6409 19.5574 28.9614 19.4795 29.3808C19.041 30.6894 18.2564 31.7104 17.0515 32.394C15.816 33.0034 14.5161 33.0047 13.2032 32.6385C11.9684 32.193 11.0123 31.2021 10.4501 30.0346C9.99214 28.8736 9.9494 27.3992 10.4173 26.231C11.0512 24.9874 12.0021 24.044 13.318 23.5473C14.4318 23.2503 16.0881 23.2117 17.0473 23.9135Z" fill="#01594D"/>
<path d="M17.0473 12.976C17.2131 13.2211 17.2709 13.3759 17.2853 13.6718C17.2095 13.9613 17.1269 14.1219 16.9191 14.3371C16.6273 14.4911 16.4406 14.4858 16.1134 14.4531C16.0241 14.421 15.9347 14.3889 15.8426 14.3558C15.0356 14.1047 14.1511 14.1733 13.3897 14.5328C12.6937 14.9234 12.209 15.5376 11.9493 16.296C11.7711 17.3519 11.8783 18.2505 12.5002 19.1406C13.0229 19.7567 13.758 20.0956 14.5509 20.2026C15.4564 20.2571 16.1758 19.9832 16.8947 19.4336C17.3844 18.9545 17.6179 18.3717 17.8541 17.7379C17.966 17.487 18.0416 17.3487 18.2619 17.1875C18.9315 17.1131 18.9315 17.1131 19.2812 17.3462C19.5162 17.7034 19.5574 18.0239 19.4795 18.4433C19.041 19.7519 18.2564 20.7729 17.0515 21.4565C15.816 22.0659 14.5161 22.0672 13.2032 21.701C11.9684 21.2555 11.0123 20.2646 10.4501 19.0971C9.99214 17.9361 9.9494 16.4617 10.4173 15.2935C11.0512 14.0499 12.0021 13.1065 13.318 12.6098C14.4318 12.3128 16.0881 12.2742 17.0473 12.976Z" fill="#01594D"/>
<path d="M19.9219 35.1562C20.166 35.3027 20.166 35.3027 20.3125 35.5469C20.384 35.9367 20.4193 36.1731 20.1908 36.5047C20.137 36.5634 20.0831 36.6222 20.0277 36.6827C19.9655 36.7507 19.9033 36.8186 19.8392 36.8887C19.4487 37.2985 19.0512 37.7009 18.6504 38.1008C18.5577 38.1936 18.465 38.2864 18.3723 38.3792C18.1797 38.572 17.9869 38.7646 17.794 38.957C17.5466 39.2039 17.2997 39.4511 17.0528 39.6985C16.8623 39.8894 16.6715 40.0801 16.4806 40.2708C16.3451 40.4062 16.2098 40.5417 16.0745 40.6773C15.9517 40.7996 15.9517 40.7996 15.8265 40.9244C15.7544 40.9964 15.6823 41.0685 15.608 41.1427C15.317 41.4134 15.0664 41.4587 14.6679 41.4509C14.2336 41.3606 13.9729 41.029 13.6719 40.7226C13.5791 40.6367 13.4863 40.5507 13.3907 40.4621C13.2931 40.37 13.1956 40.2778 13.0981 40.1855C13.0078 40.0999 12.9174 40.0143 12.8242 39.9261C12.5646 39.6079 12.4743 39.3674 12.4023 38.9648C12.6021 38.4255 12.6021 38.4255 12.8906 38.2812C13.2992 38.2249 13.5373 38.1921 13.8866 38.4235C14.0843 38.5971 14.2704 38.7756 14.4531 38.9648C14.5089 39.0206 14.5647 39.0764 14.6221 39.1338C14.663 39.1747 14.7039 39.2156 14.7461 39.2578C15.0691 39.1169 15.2805 38.9421 15.5276 38.6922C15.6032 38.6163 15.6788 38.5404 15.7566 38.4622C15.8777 38.3392 15.8777 38.3392 16.0011 38.2137C16.0846 38.1297 16.1682 38.0457 16.2542 37.9591C16.521 37.6905 16.7872 37.4214 17.0532 37.1521C17.3201 36.8825 17.587 36.6132 17.8543 36.344C18.0207 36.1765 18.1867 36.0087 18.3525 35.8406C18.465 35.7272 18.465 35.7272 18.5797 35.6115C18.6458 35.5446 18.7118 35.4778 18.7799 35.4089C19.1149 35.095 19.4828 35.0964 19.9219 35.1562Z" fill="#01594D"/>
<path d="M19.9219 24.2187C20.166 24.3652 20.166 24.3652 20.3125 24.6094C20.384 24.9992 20.4193 25.2356 20.1908 25.5672C20.137 25.6259 20.0831 25.6847 20.0277 25.7452C19.9655 25.8132 19.9033 25.8811 19.8392 25.9512C19.4487 26.361 19.0512 26.7634 18.6504 27.1633C18.5577 27.2561 18.465 27.3489 18.3723 27.4417C18.1797 27.6345 17.9869 27.8271 17.794 28.0195C17.5466 28.2664 17.2997 28.5136 17.0528 28.761C16.8623 28.9519 16.6715 29.1426 16.4806 29.3333C16.3451 29.4687 16.2098 29.6042 16.0745 29.7398C15.9517 29.8621 15.9517 29.8621 15.8265 29.9869C15.7544 30.0589 15.6823 30.131 15.608 30.2052C15.317 30.4759 15.0664 30.5212 14.6679 30.5134C14.2336 30.4231 13.9729 30.0915 13.6719 29.7851C13.5791 29.6992 13.4863 29.6132 13.3907 29.5246C13.2931 29.4325 13.1956 29.3403 13.0981 29.248C13.0078 29.1624 12.9174 29.0768 12.8242 28.9886C12.5646 28.6704 12.4743 28.4299 12.4023 28.0273C12.6021 27.488 12.6021 27.488 12.8906 27.3437C13.2992 27.2874 13.5373 27.2546 13.8866 27.486C14.0843 27.6596 14.2704 27.8381 14.4531 28.0273C14.5089 28.0831 14.5647 28.1389 14.6221 28.1963C14.663 28.2372 14.7039 28.2781 14.7461 28.3203C15.0691 28.1794 15.2805 28.0046 15.5276 27.7547C15.6032 27.6788 15.6788 27.6029 15.7566 27.5247C15.8777 27.4017 15.8777 27.4017 16.0011 27.2762C16.0846 27.1922 16.1682 27.1082 16.2542 27.0216C16.521 26.753 16.7872 26.4839 17.0532 26.2146C17.3201 25.945 17.587 25.6757 17.8543 25.4065C18.0207 25.239 18.1867 25.0712 18.3525 24.9031C18.465 24.7897 18.465 24.7897 18.5797 24.674C18.6458 24.6071 18.7118 24.5403 18.7799 24.4714C19.1149 24.1575 19.4828 24.1589 19.9219 24.2187Z" fill="#01594D"/>
<path d="M19.9219 13.2812C20.166 13.4277 20.166 13.4277 20.3125 13.6719C20.384 14.0617 20.4193 14.2981 20.1908 14.6297C20.137 14.6884 20.0831 14.7472 20.0277 14.8077C19.9655 14.8757 19.9033 14.9436 19.8392 15.0137C19.4487 15.4235 19.0512 15.8259 18.6504 16.2258C18.5577 16.3186 18.465 16.4114 18.3723 16.5042C18.1797 16.697 17.9869 16.8896 17.794 17.082C17.5466 17.3289 17.2997 17.5761 17.0528 17.8235C16.8623 18.0144 16.6715 18.2051 16.4806 18.3958C16.3451 18.5312 16.2098 18.6667 16.0745 18.8023C15.9517 18.9246 15.9517 18.9246 15.8265 19.0494C15.7544 19.1214 15.6823 19.1935 15.608 19.2677C15.317 19.5384 15.0664 19.5837 14.6679 19.5759C14.2336 19.4856 13.9729 19.154 13.6719 18.8476C13.5791 18.7617 13.4863 18.6757 13.3907 18.5871C13.2931 18.495 13.1956 18.4028 13.0981 18.3105C13.0078 18.2249 12.9174 18.1393 12.8242 18.0511C12.5646 17.7329 12.4743 17.4924 12.4023 17.0898C12.6021 16.5505 12.6021 16.5505 12.8906 16.4062C13.2992 16.3499 13.5373 16.3171 13.8866 16.5485C14.0843 16.7221 14.2704 16.9006 14.4531 17.0898C14.5089 17.1456 14.5647 17.2014 14.6221 17.2588C14.663 17.2997 14.7039 17.3406 14.7461 17.3828C15.0691 17.2419 15.2805 17.0671 15.5276 16.8172C15.6032 16.7413 15.6788 16.6654 15.7566 16.5872C15.8777 16.4642 15.8777 16.4642 16.0011 16.3387C16.0846 16.2547 16.1682 16.1707 16.2542 16.0841C16.521 15.8155 16.7872 15.5464 17.0532 15.2771C17.3201 15.0075 17.587 14.7382 17.8543 14.469C18.0207 14.3015 18.1867 14.1337 18.3525 13.9656C18.465 13.8522 18.465 13.8522 18.5797 13.7365C18.6458 13.6696 18.7118 13.6028 18.7799 13.5339C19.1149 13.22 19.4828 13.2214 19.9219 13.2812Z" fill="#01594D"/>
<path d="M22.455 25.7307C22.5534 25.73 22.6519 25.7293 22.7534 25.7286C23.0792 25.7269 23.4048 25.728 23.7306 25.7294C23.9568 25.7291 24.183 25.7287 24.4092 25.7282C24.8834 25.7277 25.3576 25.7285 25.8317 25.7303C26.4399 25.7325 27.0481 25.7313 27.6563 25.7289C28.1234 25.7275 28.5905 25.728 29.0577 25.729C29.2819 25.7292 29.5062 25.7289 29.7305 25.728C30.0438 25.727 30.357 25.7285 30.6703 25.7307C30.8097 25.7295 30.8097 25.7295 30.952 25.7283C31.5799 25.7364 31.5799 25.7364 31.8935 25.9675C32.0424 26.1882 32.0843 26.2986 32.0802 26.5625C32.0817 26.6592 32.0817 26.6592 32.0833 26.7578C32.0029 27.0601 31.8944 27.1568 31.6407 27.3437C31.3179 27.4034 30.9978 27.3971 30.6703 27.3943C30.5718 27.395 30.4733 27.3957 30.3718 27.3964C30.0461 27.3981 29.7204 27.3969 29.3947 27.3956C29.1684 27.3959 28.9422 27.3963 28.716 27.3968C28.2418 27.3973 27.7677 27.3965 27.2935 27.3947C26.6853 27.3924 26.0772 27.3937 25.469 27.3961C25.0018 27.3975 24.5347 27.397 24.0676 27.396C23.8433 27.3958 23.619 27.3961 23.3948 27.397C23.0814 27.398 22.7683 27.3965 22.455 27.3943C22.362 27.3951 22.2691 27.3959 22.1733 27.3967C21.5453 27.3886 21.5453 27.3886 21.2318 27.1575C21.0828 26.9367 21.0409 26.8264 21.045 26.5625C21.0435 26.4658 21.0435 26.4658 21.042 26.3672C21.231 25.6558 21.8506 25.7256 22.455 25.7307Z" fill="#01594D"/>
<path d="M22.455 14.7932C22.5534 14.7925 22.6519 14.7918 22.7534 14.7911C23.0792 14.7894 23.4048 14.7905 23.7306 14.7919C23.9568 14.7916 24.183 14.7912 24.4092 14.7907C24.8834 14.7902 25.3576 14.791 25.8317 14.7928C26.4399 14.795 27.0481 14.7938 27.6563 14.7914C28.1234 14.79 28.5905 14.7905 29.0577 14.7915C29.2819 14.7917 29.5062 14.7914 29.7305 14.7905C30.0438 14.7895 30.357 14.791 30.6703 14.7932C30.8097 14.792 30.8097 14.792 30.952 14.7908C31.5799 14.7989 31.5799 14.7989 31.8935 15.03C32.0424 15.2507 32.0843 15.3611 32.0802 15.625C32.0817 15.7217 32.0817 15.7217 32.0833 15.8203C32.0029 16.1226 31.8944 16.2193 31.6407 16.4062C31.3179 16.4659 30.9978 16.4596 30.6703 16.4568C30.5718 16.4575 30.4733 16.4582 30.3718 16.4589C30.0461 16.4606 29.7204 16.4594 29.3947 16.4581C29.1684 16.4584 28.9422 16.4588 28.716 16.4593C28.2418 16.4598 27.7677 16.459 27.2935 16.4572C26.6853 16.4549 26.0772 16.4562 25.469 16.4586C25.0018 16.46 24.5347 16.4595 24.0676 16.4585C23.8433 16.4583 23.619 16.4586 23.3948 16.4595C23.0814 16.4605 22.7683 16.459 22.455 16.4568C22.362 16.4576 22.2691 16.4584 22.1733 16.4592C21.5453 16.4511 21.5453 16.4511 21.2318 16.22C21.0828 15.9992 21.0409 15.8889 21.045 15.625C21.0435 15.5283 21.0435 15.5283 21.042 15.4297C21.231 14.7183 21.8506 14.7881 22.455 14.7932Z" fill="#01594D"/>
<path d="M22.0247 28.8557C22.1329 28.8545 22.2411 28.8533 22.3525 28.852C22.4689 28.8528 22.5853 28.8536 22.7052 28.8544C22.8251 28.854 22.945 28.8536 23.0686 28.8533C23.322 28.853 23.5755 28.8537 23.829 28.8553C24.2174 28.8574 24.6056 28.8554 24.994 28.8529C25.2402 28.8531 25.4864 28.8536 25.7325 28.8544C25.8489 28.8536 25.9653 28.8528 26.0852 28.852C26.2475 28.8538 26.2475 28.8538 26.4131 28.8557C26.5082 28.856 26.6033 28.8563 26.7013 28.8567C27.0237 28.9201 27.1403 29.0445 27.3439 29.2969C27.3958 29.4922 27.3958 29.4922 27.3927 29.6875C27.3942 29.7842 27.3942 29.7842 27.3958 29.8828C27.32 30.1679 27.179 30.2826 26.9532 30.4688C26.7013 30.5184 26.7013 30.5184 26.4131 30.5193C26.3049 30.5205 26.1967 30.5218 26.0852 30.523C25.9688 30.5223 25.8525 30.5215 25.7325 30.5206C25.5527 30.5212 25.5527 30.5212 25.3692 30.5218C25.1157 30.522 24.8622 30.5213 24.6087 30.5197C24.2203 30.5176 23.8321 30.5197 23.4437 30.5222C23.1976 30.5219 22.9514 30.5214 22.7052 30.5206C22.5888 30.5214 22.4724 30.5222 22.3525 30.523C22.1902 30.5212 22.1902 30.5212 22.0247 30.5193C21.9296 30.519 21.8344 30.5187 21.7365 30.5184C21.414 30.4549 21.2974 30.3305 21.0939 30.0781C21.042 29.8828 21.042 29.8828 21.045 29.6875C21.0435 29.5908 21.0435 29.5908 21.042 29.4922C21.1773 28.9827 21.5406 28.8573 22.0247 28.8557Z" fill="#01594D"/>
<path d="M22.0247 17.9182C22.1329 17.917 22.2411 17.9158 22.3525 17.9145C22.4689 17.9153 22.5853 17.9161 22.7052 17.9169C22.8251 17.9165 22.945 17.9161 23.0686 17.9158C23.322 17.9155 23.5755 17.9162 23.829 17.9178C24.2174 17.9199 24.6056 17.9179 24.994 17.9154C25.2402 17.9156 25.4864 17.9161 25.7325 17.9169C25.8489 17.9161 25.9653 17.9153 26.0852 17.9145C26.2475 17.9163 26.2475 17.9163 26.4131 17.9182C26.5082 17.9185 26.6033 17.9188 26.7013 17.9192C27.0237 17.9826 27.1403 18.107 27.3439 18.3594C27.3958 18.5547 27.3958 18.5547 27.3927 18.75C27.3942 18.8467 27.3942 18.8467 27.3958 18.9453C27.32 19.2304 27.179 19.3451 26.9532 19.5313C26.7013 19.5809 26.7013 19.5809 26.4131 19.5818C26.3049 19.583 26.1967 19.5843 26.0852 19.5855C25.9688 19.5848 25.8525 19.584 25.7325 19.5831C25.5527 19.5837 25.5527 19.5837 25.3692 19.5843C25.1157 19.5845 24.8622 19.5838 24.6087 19.5822C24.2203 19.5801 23.8321 19.5822 23.4437 19.5847C23.1976 19.5844 22.9514 19.5839 22.7052 19.5831C22.5888 19.5839 22.4724 19.5847 22.3525 19.5855C22.1902 19.5837 22.1902 19.5837 22.0247 19.5818C21.9296 19.5815 21.8344 19.5812 21.7365 19.5809C21.414 19.5174 21.2974 19.393 21.0939 19.1406C21.042 18.9453 21.042 18.9453 21.045 18.75C21.0435 18.6533 21.0435 18.6533 21.042 18.5547C21.1773 18.0452 21.5406 17.9198 22.0247 17.9182Z" fill="#01594D"/>
</g>
<defs>
<clipPath id="clip0_302_3646">
<rect width="50" height="50" fill="white"/>
</clipPath>
</defs>
</svg>
