<svg width="60" height="60" viewBox="0 0 60 60" fill="none" xmlns="http://www.w3.org/2000/svg">
<g clip-path="url(#clip0_318_595)">
<g clip-path="url(#clip1_318_595)">
<path d="M35.2431 12.2222C35.6731 12.5738 36.0598 12.96 36.4453 13.3594C36.5317 13.4421 36.6181 13.5249 36.7072 13.6102C38.2239 15.1505 38.8268 17.3482 38.8477 19.4531C38.8245 21.7873 38.0834 23.9315 36.4105 25.5926C36.306 25.6935 36.2015 25.7945 36.0938 25.8984C36.011 25.9848 35.9282 26.0712 35.8429 26.1603C34.3026 27.677 32.1049 28.2799 30 28.3008C27.6658 28.2777 25.5216 27.5365 23.8605 25.8636C23.7596 25.7591 23.6587 25.6546 23.5547 25.5469C23.4683 25.4641 23.3819 25.3813 23.2928 25.296C21.7761 23.7558 21.1732 21.558 21.1523 19.4531C21.1755 17.1189 21.9166 14.9747 23.5895 13.3136C23.694 13.2127 23.7985 13.1118 23.9062 13.0078C23.989 12.9214 24.0718 12.835 24.1571 12.746C26.9925 9.9538 32.1219 9.89859 35.2431 12.2222ZM26.3672 15.7031C26.2926 15.7729 26.2179 15.8427 26.1411 15.9146C25.1464 16.9434 24.8043 18.2745 24.7986 19.6657C24.8235 21.0149 25.3319 22.1063 26.25 23.0859C26.3547 23.1979 26.3547 23.1979 26.4615 23.3121C27.4903 24.3067 28.8214 24.6488 30.2126 24.6545C31.5618 24.6297 32.6532 24.1212 33.6328 23.2031C33.7447 23.0984 33.7447 23.0984 33.8589 22.9916C34.8536 21.9629 35.1957 20.6318 35.2014 19.2405C35.1765 17.8913 34.6681 16.7999 33.75 15.8203C33.6453 15.7084 33.6453 15.7084 33.5385 15.5942C32.5097 14.5995 31.1786 14.2574 29.7874 14.2517C28.4382 14.2766 27.3468 14.785 26.3672 15.7031Z" fill="#014339"/>
<g clip-path="url(#clip2_318_595)">
<path d="M4.96392 6.89017C5.05146 6.88986 5.139 6.88955 5.22919 6.88923C5.52416 6.88832 5.81912 6.88826 6.1141 6.88819C6.32707 6.88772 6.54004 6.8872 6.75301 6.88663C7.33957 6.88523 7.92614 6.88457 8.51271 6.88403C9.14484 6.88334 9.77698 6.88197 10.4091 6.88072C11.9365 6.87784 13.4639 6.87613 14.9913 6.87462C15.4227 6.87418 15.8541 6.87372 16.2855 6.87324C18.9642 6.87028 21.6429 6.8677 24.3216 6.86624C24.9421 6.8659 25.5627 6.86555 26.1833 6.8652C26.3375 6.86511 26.4917 6.86502 26.6507 6.86493C29.1488 6.86345 31.647 6.85956 34.1451 6.85467C36.7098 6.8497 39.2744 6.84694 41.8391 6.84633C43.2791 6.84593 44.7191 6.84455 46.1591 6.84069C47.3856 6.83741 48.6121 6.83612 49.8386 6.83743C50.4642 6.83804 51.0898 6.8377 51.7153 6.8348C52.2887 6.83216 52.862 6.83225 53.4353 6.83447C53.6421 6.8348 53.8489 6.83415 54.0557 6.83238C55.9047 6.81759 57.2964 7.19573 58.6725 8.49787C59.4511 9.32265 60.013 10.4517 60.0161 11.592C60.0167 11.7103 60.0173 11.8287 60.0179 11.9507C60.018 12.1454 60.0179 12.1454 60.018 12.3441C60.0186 12.4822 60.0191 12.6203 60.0196 12.7626C60.0209 13.1461 60.0217 13.5295 60.0222 13.913C60.0229 14.3266 60.0243 14.7402 60.0255 15.1537C60.0284 16.1527 60.0301 17.1518 60.0316 18.1508C60.032 18.4331 60.0325 18.7154 60.033 18.9977C60.0359 20.752 60.0385 22.5062 60.04 24.2604C60.0403 24.6666 60.0407 25.0729 60.041 25.4792C60.0411 25.5801 60.0412 25.6811 60.0413 25.7851C60.0428 27.4194 60.0467 29.0537 60.0516 30.6879C60.0565 32.3669 60.0593 34.0459 60.0599 35.725C60.0603 36.6672 60.0617 37.6094 60.0655 38.5517C60.0688 39.3544 60.0701 40.1572 60.0688 40.9599C60.0682 41.3691 60.0685 41.7782 60.0714 42.1873C60.0741 42.6322 60.0731 43.077 60.0713 43.5219C60.0729 43.6494 60.0745 43.7769 60.0762 43.9082C60.0604 45.4507 59.4524 46.6629 58.4084 47.7662C57.4706 48.6515 56.3072 49.112 55.0361 49.1098C54.9486 49.1101 54.861 49.1104 54.7708 49.1107C54.4759 49.1116 54.1809 49.1117 53.8859 49.1118C53.6729 49.1122 53.46 49.1128 53.247 49.1133C52.6604 49.1147 52.0739 49.1154 51.4873 49.1159C50.8552 49.1166 50.223 49.118 49.5909 49.1192C48.0635 49.1221 46.5361 49.1238 45.0087 49.1253C44.5773 49.1258 44.1459 49.1262 43.7145 49.1267C41.0359 49.1297 38.3572 49.1323 35.6785 49.1337C35.0579 49.1341 34.4373 49.1344 33.8168 49.1348C33.5854 49.1349 33.5854 49.1349 33.3494 49.135C30.8512 49.1365 28.3531 49.1404 25.8549 49.1453C23.2902 49.1502 20.7256 49.153 18.1609 49.1536C16.7209 49.154 15.2809 49.1554 13.8409 49.1593C12.6144 49.1625 11.3879 49.1638 10.1614 49.1625C9.5358 49.1619 8.91025 49.1622 8.28467 49.1651C7.71132 49.1678 7.13803 49.1677 6.56468 49.1655C6.35789 49.1651 6.1511 49.1658 5.94432 49.1676C4.09529 49.1824 2.70361 48.8042 1.32752 47.5021C0.548893 46.6773 -0.0130021 45.5482 -0.0160484 44.408C-0.0166431 44.2896 -0.0172377 44.1712 -0.0178504 44.0493C-0.0179087 43.9195 -0.0179673 43.7896 -0.0180274 43.6559C-0.0185409 43.5178 -0.0190544 43.3797 -0.0195835 43.2374C-0.0208793 42.8539 -0.0216474 42.4704 -0.022183 42.0869C-0.0228818 41.6734 -0.024242 41.2598 -0.0254982 40.8462C-0.0283707 39.8472 -0.0300861 38.8482 -0.0315989 37.8492C-0.0320341 37.5668 -0.0324997 37.2845 -0.0329762 37.0022C-0.0359342 35.248 -0.0385177 33.4938 -0.0399755 31.7396C-0.0403188 31.3333 -0.0406661 30.927 -0.0410193 30.5208C-0.0411067 30.4198 -0.0411939 30.3189 -0.0412839 30.2148C-0.0427656 28.5806 -0.0466577 26.9463 -0.0515429 25.312C-0.0565207 23.633 -0.0592766 21.954 -0.0598882 20.275C-0.0602876 19.3327 -0.0616566 18.3905 -0.0655253 17.4483C-0.0688161 16.6455 -0.0700916 15.8428 -0.0687837 15.04C-0.0681783 14.6309 -0.0684985 14.2218 -0.0714163 13.8126C-0.0740832 13.3677 -0.0730996 12.9229 -0.0712424 12.478C-0.0728692 12.3505 -0.0744958 12.2231 -0.0761719 12.0917C-0.0603954 10.5493 0.547661 9.33702 1.59165 8.23374C2.52945 7.34842 3.69285 6.88798 4.96392 6.89017ZM6.21094 10.4218C6.76317 11.0713 6.76317 11.0713 7.34302 11.6865C7.4208 11.7647 7.49859 11.843 7.57873 11.9236C7.70364 12.0483 7.70364 12.0483 7.83107 12.1756C7.92123 12.2661 8.01138 12.3566 8.10426 12.4499C8.4049 12.7515 8.70594 13.0527 9.00699 13.354C9.22322 13.5707 9.43943 13.7875 9.65561 14.0044C10.2417 14.592 10.8282 15.1792 11.4148 15.7664C11.7812 16.1331 12.1475 16.4999 12.5139 16.8667C13.5287 17.883 14.5437 18.8992 15.559 19.9149C15.6239 19.9798 15.6887 20.0447 15.7555 20.1116C15.8206 20.1766 15.8856 20.2416 15.9525 20.3086C16.0843 20.4404 16.216 20.5722 16.3477 20.7039C16.413 20.7693 16.4784 20.8347 16.5457 20.902C17.606 21.9628 18.6656 23.0244 19.7248 24.0864C20.8131 25.1774 21.902 26.2678 22.9917 27.3576C23.6031 27.9692 24.2143 28.581 24.8248 29.1936C25.3983 29.7691 25.9727 30.3437 26.5478 30.9178C26.7589 31.1288 26.9697 31.3402 27.1803 31.5518C27.4671 31.8402 27.755 32.1274 28.0432 32.4144C28.1267 32.4988 28.2103 32.5833 28.2963 32.6704C28.9118 33.2797 29.326 33.5266 30.2156 33.5504C31.0384 33.412 31.5557 32.8216 32.1151 32.2561C32.208 32.1635 32.301 32.0709 32.3968 31.9756C32.708 31.6652 33.0179 31.3536 33.3279 31.042C33.5507 30.8192 33.7737 30.5965 33.9967 30.3739C34.5392 29.8321 35.0808 29.2893 35.6221 28.7461C36.2521 28.114 36.8831 27.4829 37.5141 26.8518C38.6395 25.7262 39.764 24.5999 40.888 23.473C41.9796 22.3787 43.0718 21.2849 44.1646 20.1917C44.232 20.1243 44.2993 20.0569 44.3687 19.9874C44.5045 19.8517 44.6402 19.7159 44.7759 19.5801C44.8428 19.5132 44.9098 19.4462 44.9788 19.3772C45.0455 19.3104 45.1123 19.2436 45.1811 19.1748C46.2216 18.1339 47.2616 17.0925 48.3016 16.051C48.679 15.6731 49.0565 15.2952 49.434 14.9174C50.0323 14.3185 50.6305 13.7195 51.2283 13.12C51.5015 12.8459 51.7749 12.572 52.0485 12.2983C52.3443 12.0023 52.6398 11.7059 52.9352 11.4094C53.0227 11.322 53.1102 11.2346 53.2004 11.1445C53.3179 11.0263 53.3179 11.0263 53.4378 10.9057C53.5061 10.8372 53.5745 10.7688 53.6449 10.6982C53.8022 10.5604 53.8022 10.5604 53.7891 10.4218C38.0883 10.4218 22.3875 10.4218 6.21094 10.4218ZM3.51563 13C3.51563 22.9 3.51563 32.8 3.51563 43C4.0252 42.5632 4.50223 42.1451 4.97291 41.674C5.03151 41.6155 5.09012 41.557 5.1505 41.4967C5.34418 41.3032 5.53745 41.1093 5.73072 40.9154C5.87052 40.7756 6.01034 40.6357 6.15018 40.496C6.52786 40.1183 6.90517 39.7403 7.28241 39.3623C7.67742 38.9665 8.07277 38.5711 8.46808 38.1757C9.21576 37.4276 9.96314 36.6793 10.7104 35.9308C11.5615 35.0784 12.413 34.2263 13.2645 33.3742C15.0152 31.6223 16.7656 29.8698 18.5156 28.1172C18.3296 27.6651 18.0412 27.3792 17.6978 27.0359C17.6078 26.9456 17.6078 26.9456 17.5161 26.8535C17.3152 26.6519 17.1135 26.4512 16.9118 26.2505C16.7676 26.1062 16.6235 25.9618 16.4793 25.8174C16.0879 25.4253 15.6957 25.0341 15.3034 24.6429C14.8935 24.234 14.4841 23.8245 14.0747 23.415C13.3874 22.7278 12.6996 22.041 12.0115 21.3546C11.2149 20.5597 10.4188 19.7643 9.6231 18.9685C8.85865 18.204 8.09386 17.4398 7.32888 16.6758C7.00279 16.3501 6.6768 16.0243 6.35088 15.6985C5.96766 15.3154 5.58415 14.9326 5.2004 14.55C5.05919 14.4091 4.91807 14.2682 4.77706 14.1271C4.58546 13.9354 4.3935 13.7441 4.20145 13.5529C4.09384 13.4455 3.98623 13.3381 3.87536 13.2274C3.67399 12.9866 3.67399 12.9866 3.51563 13ZM55.9625 13.3895C55.8762 13.4764 55.8762 13.4764 55.7881 13.565C55.7272 13.6258 55.6663 13.6865 55.6036 13.7491C55.398 13.9545 55.1929 14.1604 54.9877 14.3662C54.8411 14.5128 54.6944 14.6594 54.5478 14.8061C54.1483 15.2055 53.7491 15.6054 53.35 16.0052C52.9334 16.4226 52.5165 16.8396 52.0996 17.2566C51.3096 18.047 50.5198 18.8377 49.7302 19.6285C48.8315 20.5285 47.9324 21.4282 47.0334 22.3279C45.1833 24.1792 43.3337 26.0308 41.4844 27.8828C41.6705 28.3348 41.9588 28.6208 42.3023 28.964C42.3922 29.0543 42.3922 29.0543 42.4839 29.1465C42.6848 29.348 42.8865 29.5487 43.0882 29.7494C43.2324 29.8938 43.3766 30.0382 43.5207 30.1826C43.9121 30.5746 44.3043 30.9659 44.6966 31.357C45.1066 31.7659 45.5159 32.1755 45.9253 32.5849C46.6126 33.2721 47.3004 33.9589 47.9885 34.6454C48.7852 35.4402 49.5812 36.2356 50.3769 37.0314C51.1414 37.796 51.9062 38.5602 52.6711 39.3242C52.9972 39.6498 53.3232 39.9756 53.6491 40.3015C54.0323 40.6846 54.4159 41.0674 54.7996 41.4499C54.9408 41.5908 55.0819 41.7318 55.2229 41.8729C55.4145 42.0645 55.6065 42.2558 55.7986 42.447C55.9062 42.5544 56.0138 42.6618 56.1247 42.7725C56.326 43.0133 56.326 43.0133 56.4844 43C56.4844 33.1 56.4844 23.2 56.4844 13C56.2508 13 56.1184 13.2343 55.9625 13.3895ZM20.6891 30.9671C20.6027 31.0538 20.6028 31.0538 20.5147 31.1423C20.4538 31.203 20.3929 31.2637 20.3302 31.3262C20.1246 31.5314 19.9194 31.7369 19.7143 31.9424C19.5676 32.0889 19.421 32.2353 19.2743 32.3817C18.8748 32.7807 18.4757 33.1801 18.0766 33.5795C17.66 33.9964 17.243 34.4131 16.8262 34.8298C16.126 35.5297 15.4261 36.2299 14.7263 36.9303C13.9159 37.7413 13.1051 38.5519 12.2941 39.3622C11.5993 40.0566 10.9046 40.7512 10.2101 41.4459C9.79475 41.8615 9.37928 42.277 8.9636 42.6923C8.57292 43.0826 8.18253 43.4733 7.79235 43.8641C7.64865 44.008 7.50484 44.1517 7.36093 44.2954C7.16541 44.4906 6.97024 44.6861 6.77517 44.8818C6.71734 44.9394 6.65951 44.9969 6.59993 45.0563C6.32793 45.2784 6.32793 45.2784 6.21094 45.5781C21.9117 45.5781 37.6125 45.5781 53.7891 45.5781C53.3523 45.0685 52.9342 44.5915 52.4631 44.1208C52.3753 44.0329 52.3753 44.0329 52.2858 43.9432C52.0923 43.7495 51.8984 43.5563 51.7045 43.363C51.5646 43.2232 51.4248 43.0834 51.2851 42.9436C50.9074 42.5659 50.5294 42.1886 50.1514 41.8113C49.7556 41.4163 49.3602 41.021 48.9647 40.6257C48.2167 39.878 47.4684 39.1306 46.7199 38.3833C45.8675 37.5322 45.0154 36.6808 44.1633 35.8293C42.4113 34.0785 40.6589 32.3282 38.9063 30.5781C38.7764 30.6885 38.6466 30.7991 38.5169 30.9098C38.4447 30.9714 38.3724 31.033 38.2979 31.0964C38.0001 31.3561 37.7204 31.6313 37.4414 31.9111C37.3387 32.0135 37.236 32.1159 37.1301 32.2215C36.8791 32.4789 36.642 32.7459 36.4069 33.018C34.8794 34.7772 33.2261 36.6357 30.8203 37.0234C29.788 37.0897 28.8636 37.0308 27.8906 36.6719C27.7988 36.6401 27.7069 36.6084 27.6123 36.5757C26.549 36.1315 25.7666 35.2416 24.9609 34.4453C24.8201 34.3076 24.6793 34.17 24.5384 34.0324C23.9479 33.4515 23.3757 32.8645 22.8392 32.2329C22.5279 31.8844 22.1999 31.5536 21.8701 31.2226C21.8072 31.1592 21.7443 31.0957 21.6794 31.0303C21.186 30.507 21.186 30.507 20.6891 30.9671Z" fill="#014339"/>
</g>
</g>
</g>
<defs>
<clipPath id="clip0_318_595">
<rect width="60" height="60" fill="white"/>
</clipPath>
<clipPath id="clip1_318_595">
<rect width="60" height="60" fill="white"/>
</clipPath>
<clipPath id="clip2_318_595">
<rect width="60" height="60" fill="white" transform="translate(0 -2)"/>
</clipPath>
</defs>
</svg>
