<svg width="30" height="30" viewBox="0 0 30 30" fill="none" xmlns="http://www.w3.org/2000/svg">
<path fill-rule="evenodd" clip-rule="evenodd" d="M7.58591 2.89486C7.37379 3.77892 6.5775 4.43686 5.62868 4.43686C4.51791 4.43686 3.61609 3.53503 3.61609 2.42427C3.61609 1.31344 4.51791 0.411621 5.62868 0.411621C6.5775 0.411621 7.37379 1.06956 7.58591 1.95368H13.0427C13.2549 1.06956 14.0512 0.411621 15 0.411621C15.9487 0.411621 16.745 1.06956 16.9572 1.95368H22.414C22.6261 1.06956 23.4224 0.411621 24.3713 0.411621C25.482 0.411621 26.3839 1.31344 26.3839 2.42427C26.3839 3.53503 25.482 4.43686 24.3713 4.43686C23.4224 4.43686 22.6261 3.77892 22.414 2.89486H16.9572C16.7813 3.62797 16.2037 4.20556 15.4706 4.38144V7.91515C15.6088 8.00527 15.7412 8.10362 15.8671 8.20944C16.1783 8.12462 16.5058 8.07927 16.844 8.07927C18.6509 8.07927 20.1547 9.37109 20.4844 11.0814C20.7385 11.1833 20.9722 11.322 21.1798 11.49H22.9812C24.0376 11.49 24.9023 12.3547 24.9023 13.4111V23.387C24.9023 24.4434 24.0376 25.3082 22.9812 25.3082H18.4357V26.6714H20.1723C21.1368 26.6714 21.8796 27.359 21.8796 28.1292V29.1175C21.8796 29.3774 21.6689 29.5881 21.409 29.5881H8.59221C8.33232 29.5881 8.12162 29.3774 8.12162 29.1175V28.1292C8.12162 27.359 8.86444 26.6714 9.82897 26.6714H11.5656V25.3082H7.01874C5.96238 25.3082 5.09762 24.4434 5.09762 23.387V13.4111C5.09762 12.3547 5.96238 11.49 7.01874 11.49H8.82062C8.94021 11.3932 9.06809 11.3064 9.20297 11.2307C9.2485 9.02974 11.0464 7.25927 13.2583 7.25927C13.7021 7.25927 14.1295 7.33056 14.5294 7.46244V4.38144C13.7963 4.20556 13.2187 3.62797 13.0427 2.89486H7.58591ZM21.9247 12.4312C22.0058 12.5998 22.0699 12.7774 22.1149 12.9617H22.5696C22.9313 12.9617 23.2299 13.2561 23.2299 13.622V22.1368C23.2299 22.3967 23.0193 22.6074 22.7593 22.6074H7.24062C6.98068 22.6074 6.77003 22.3967 6.77003 22.1368V13.622C6.77003 13.2569 7.0665 12.9617 7.43156 12.9617H7.88468C7.92968 12.7769 7.99379 12.5993 8.07474 12.4312H7.01874C6.47991 12.4312 6.03879 12.8723 6.03879 13.4111V23.387C6.03879 23.9259 6.47991 24.367 7.01874 24.367H22.9812C23.52 24.367 23.9611 23.9259 23.9611 23.387V13.4111C23.9611 12.8723 23.52 12.4312 22.9812 12.4312H21.9247ZM22.175 13.9029C22.0236 15.2545 20.8683 16.3148 19.4771 16.3148H10.5229C9.13162 16.3148 7.97638 15.2545 7.82497 13.9029H7.71121V21.6662H22.2887V13.9029H22.175ZM17.4945 25.3082H12.5067V26.6714H17.4945V25.3082ZM19.4771 15.3736C20.4526 15.3736 21.2506 14.5758 21.2506 13.6009C21.2506 12.8022 20.7087 12.0984 19.9389 11.8896C19.7519 11.8388 19.6151 11.6786 19.5943 11.486C19.4444 10.0994 18.2706 9.02044 16.844 9.02044C16.5163 9.02044 16.2021 9.07733 15.9104 9.1818C15.7416 9.24227 15.5532 9.20156 15.4244 9.07691C14.8637 8.53415 14.0997 8.20044 13.2583 8.20044C11.5377 8.20044 10.1433 9.59562 10.1433 11.3163C10.1433 11.3762 10.1446 11.4362 10.148 11.4954C10.1597 11.696 10.0427 11.8818 9.85685 11.9581C9.20968 12.2236 8.74932 12.8608 8.74932 13.6009C8.74932 14.5758 9.54738 15.3736 10.5229 15.3736H19.4771ZM15 1.3528C14.4086 1.3528 13.9285 1.83292 13.9285 2.42427C13.9285 3.01556 14.4086 3.49568 15 3.49568C15.5913 3.49568 16.0714 3.01556 16.0714 2.42427C16.0714 1.83292 15.5913 1.3528 15 1.3528ZM5.62868 1.3528C5.03738 1.3528 4.55727 1.83292 4.55727 2.42427C4.55727 3.01556 5.03738 3.49568 5.62868 3.49568C6.22003 3.49568 6.70015 3.01556 6.70015 2.42427C6.70015 1.83292 6.22003 1.3528 5.62868 1.3528ZM24.3713 1.3528C23.7799 1.3528 23.2998 1.83292 23.2998 2.42427C23.2998 3.01556 23.7799 3.49568 24.3713 3.49568C24.9626 3.49568 25.4427 3.01556 25.4427 2.42427C25.4427 1.83292 24.9626 1.3528 24.3713 1.3528ZM9.06279 28.6469H20.9384V28.1292C20.9384 27.8122 20.5693 27.6126 20.1723 27.6126H9.82897C9.43197 27.6126 9.06279 27.8122 9.06279 28.1292V28.6469Z" fill="#9EFF8C"/>
</svg>
