<svg width="50" height="50" viewBox="0 0 50 50" fill="none" xmlns="http://www.w3.org/2000/svg">
<g clip-path="url(#clip0_72_111)">
<path d="M38.5422 27.0835C35.3923 27.0835 32.5341 28.3626 30.4613 30.4271C30.455 30.4334 30.4467 30.4354 30.4405 30.4417C30.4342 30.4479 30.4322 30.4562 30.4259 30.4625C28.3614 32.5353 27.0844 35.3915 27.0844 38.5413C27.0844 44.8578 32.2237 49.9992 38.5422 49.9992C41.6879 49.9992 44.5419 48.7222 46.6148 46.6618C46.6231 46.6535 46.6356 46.6513 46.644 46.643C46.6523 46.6347 46.6544 46.6222 46.6627 46.6138C48.7231 44.541 50.0001 41.687 50.0001 38.5412C50 32.225 44.8607 27.0835 38.5422 27.0835ZM38.5422 47.9159C33.3736 47.9159 29.1676 43.7099 29.1676 38.5413C29.1676 36.3331 29.9675 34.3269 31.2508 32.7228L44.3607 45.8327C42.7566 47.116 40.7504 47.9159 38.5422 47.9159ZM45.8336 44.3598L32.7216 31.25C34.3258 29.9668 36.3319 29.1668 38.5422 29.1668C43.7128 29.1668 47.9168 33.3729 47.9168 38.5414C47.9168 40.7496 47.1168 42.7558 45.8336 44.3598Z" fill="#9EFF8C"/>
<path d="M27.6718 47.3808C25.4511 47.737 23.149 47.9162 20.8325 47.9162C9.783 47.9162 2.08331 44.0726 2.08331 40.6248V34.3376C5.42068 37.4666 12.4683 39.5831 20.8325 39.5831C21.9242 39.5831 22.9887 39.5394 24.0345 39.4664C24.6074 39.4289 25.0427 38.931 25.0032 38.356C24.9636 37.7831 24.4594 37.3456 23.8928 37.3873C22.8928 37.4561 21.8762 37.4998 20.8324 37.4998C9.7829 37.4998 2.08322 33.6562 2.08322 30.2084V23.9213C5.42058 27.0504 12.4682 29.1669 20.8324 29.1669C23.8031 29.1669 26.6947 28.8919 29.43 28.3524C29.9946 28.2399 30.3613 27.6941 30.2508 27.1295C30.1383 26.5628 29.5904 26.1899 29.0259 26.3087C26.4239 26.8232 23.6678 27.0837 20.8324 27.0837C9.7829 27.0837 2.08322 23.2401 2.08322 19.7923V13.505C5.42058 16.6341 12.4682 18.7506 20.8324 18.7506C29.1967 18.7506 36.2423 16.634 39.5817 13.505V19.8048C39.5754 21.213 38.34 22.4004 37.3005 23.1463C36.8338 23.4838 36.7276 24.1338 37.063 24.6005C37.2651 24.8837 37.586 25.0337 37.9088 25.0337C38.1192 25.0337 38.3317 24.9692 38.5171 24.84C38.9191 24.5505 39.2545 24.2421 39.5816 23.9338V24.1255C39.5816 24.7005 40.0483 25.1671 40.6232 25.1671C41.1982 25.1671 41.6649 24.7005 41.6649 24.1255V19.809C41.6649 19.8048 41.6669 19.7985 41.6669 19.7944C41.6669 19.7903 41.6649 19.7882 41.6649 19.784V9.37608C41.6649 4.12005 32.5132 0.00146484 20.8324 0.00146484C9.15167 0.00146484 0 4.12005 0 9.37608V40.6248C0 45.8808 9.15167 49.9994 20.8324 49.9994C23.2594 49.9994 25.6697 49.8099 27.9989 49.439C28.5676 49.3473 28.953 48.814 28.8634 48.2453C28.7738 47.6786 28.2363 47.2953 27.6718 47.3808ZM20.8324 2.08468C31.882 2.08468 39.5817 5.92827 39.5817 9.37608C39.5817 12.8239 31.882 16.6675 20.8324 16.6675C9.7829 16.6675 2.08322 12.8239 2.08322 9.37608C2.08322 5.92827 9.78085 2.08468 20.8324 2.08468Z" fill="#9EFF8C"/>
</g>
<defs>
<clipPath id="clip0_72_111">
<rect width="50" height="50" fill="white"/>
</clipPath>
</defs>
</svg>
