<svg width="30" height="30" viewBox="0 0 30 30" fill="none" xmlns="http://www.w3.org/2000/svg">
<path fill-rule="evenodd" clip-rule="evenodd" d="M7.60269 19.6794H4.98339C2.82775 19.6794 1.06445 17.9159 1.06445 15.7617C1.06445 14.2448 1.93804 12.9221 3.20645 12.2713C3.20639 12.2646 3.20639 12.2578 3.20639 12.2511C3.20639 8.94783 5.88351 6.26953 9.18675 6.26953C9.34916 6.26953 9.5101 6.27601 9.66928 6.28871C10.3337 3.70971 12.6743 1.80371 15.4608 1.80371C16.9727 1.80371 18.3546 2.36518 19.408 3.29148C19.903 3.14348 20.4273 3.06377 20.9706 3.06377C23.672 3.06377 25.9122 5.03012 26.3412 7.60948C27.8796 8.1643 28.9355 9.63777 28.9355 11.2958C28.9355 13.4501 27.1722 15.2135 25.0166 15.2135H22.6227C22.6483 15.3932 22.6615 15.5763 22.6615 15.7617C22.6615 17.9159 20.8982 19.6794 18.7426 19.6794H16.1233V24.0272H17.6962C17.9045 23.2347 18.6265 22.6493 19.4842 22.6493C20.5045 22.6493 21.3327 23.4776 21.3327 24.4978C21.3327 25.5181 20.5045 26.3464 19.4842 26.3464C18.6265 26.3464 17.9045 25.7611 17.6962 24.9684H15.6527C15.3928 24.9684 15.1821 24.7578 15.1821 24.4978V19.6794H12.3336V24.5592C13.1262 24.7676 13.7115 25.4896 13.7115 26.3472C13.7115 27.3675 12.8832 28.1958 11.863 28.1958C10.8427 28.1958 10.0144 27.3675 10.0144 26.3472C10.0144 25.4896 10.5997 24.7676 11.3924 24.5592V19.6794H8.54387V24.4978C8.54387 24.7578 8.33316 24.9684 8.07328 24.9684H6.02981C5.82145 25.7611 5.09945 26.3464 4.24181 26.3464C3.22151 26.3464 2.39322 25.5181 2.39322 24.4978C2.39322 23.4776 3.22151 22.6493 4.24181 22.6493C5.09945 22.6493 5.82145 23.2347 6.02981 24.0272H7.60269V19.6794ZM10.6034 6.43836C11.5565 6.66995 12.4206 7.12995 13.134 7.75724C13.629 7.60924 14.1533 7.52953 14.6965 7.52953C17.3979 7.52953 19.6382 9.49595 20.0672 12.0752C21.1209 12.4552 21.9483 13.2663 22.365 14.2724H25.0166C26.6545 14.2724 27.9943 12.9327 27.9943 11.2958C27.9943 9.95489 27.0849 8.77324 25.7923 8.42242C25.6053 8.37171 25.4685 8.21153 25.4477 8.01889C25.2036 5.76165 23.2929 4.00495 20.9706 4.00495C20.4371 4.00495 19.9257 4.09759 19.4508 4.26771C19.282 4.32812 19.0936 4.28748 18.9648 4.16277C18.0579 3.28483 16.8218 2.74489 15.4608 2.74489C13.1437 2.74489 11.1922 4.30865 10.6034 6.43836ZM18.7426 18.7382C20.3805 18.7382 21.7203 17.3985 21.7203 15.7617C21.7203 14.4207 20.8108 13.239 19.5183 12.8882C19.3313 12.8375 19.1945 12.6773 19.1737 12.4847C18.9296 10.2274 17.0189 8.47071 14.6965 8.47071C14.1631 8.47071 13.6517 8.56342 13.1768 8.73348C13.008 8.79395 12.8196 8.75324 12.6908 8.62859C11.7839 7.75059 10.5477 7.21071 9.18675 7.21071C6.40334 7.21071 4.14757 9.46765 4.14757 12.2511C4.14757 12.3481 4.14975 12.4451 4.15534 12.5409C4.16698 12.7415 4.05004 12.9274 3.86416 13.0036C2.77781 13.4493 2.00563 14.5193 2.00563 15.7617C2.00563 17.3985 3.34551 18.7382 4.98339 18.7382H18.7426ZM19.4842 23.5905C18.9834 23.5905 18.5768 23.9971 18.5768 24.4978C18.5768 24.9987 18.9834 25.4052 19.4842 25.4052C19.985 25.4052 20.3916 24.9987 20.3916 24.4978C20.3916 23.9971 19.985 23.5905 19.4842 23.5905ZM11.863 25.4398C11.3622 25.4398 10.9556 25.8464 10.9556 26.3472C10.9556 26.8481 11.3622 27.2547 11.863 27.2547C12.3638 27.2547 12.7703 26.8481 12.7703 26.3472C12.7703 25.8464 12.3638 25.4398 11.863 25.4398ZM4.24181 23.5905C3.74098 23.5905 3.33439 23.9971 3.33439 24.4978C3.33439 24.9987 3.74098 25.4052 4.24181 25.4052C4.74257 25.4052 5.14916 24.9987 5.14916 24.4978C5.14916 23.9971 4.74257 23.5905 4.24181 23.5905ZM20.9888 6.99683V5.96712C20.9888 5.70742 21.1997 5.49653 21.4594 5.49653C21.7192 5.49653 21.93 5.70742 21.93 5.96712V6.99683H22.9597C23.2194 6.99683 23.4303 7.20765 23.4303 7.46742C23.4303 7.72712 23.2194 7.938 22.9597 7.938H21.93V8.96765C21.93 9.22736 21.7192 9.43824 21.4594 9.43824C21.1997 9.43824 20.9888 9.22736 20.9888 8.96765V7.938H19.9592C19.6995 7.938 19.4886 7.72712 19.4886 7.46742C19.4886 7.20765 19.6995 6.99683 19.9592 6.99683H20.9888Z" fill="#9EFF8C"/>
</svg>
