<svg width="50" height="50" viewBox="0 0 50 50" fill="none" xmlns="http://www.w3.org/2000/svg">
<path fill-rule="evenodd" clip-rule="evenodd" d="M14.184 44.8449L14.6438 45.6573C14.6442 45.6579 14.6445 45.6585 14.6449 45.6592C15.1173 46.4996 14.8176 47.5719 13.9821 48.0437L12.1402 49.0878C12.1394 49.0882 12.1386 49.0886 12.1377 49.0891C11.2974 49.5616 10.2251 49.2618 9.75302 48.4259L4.33645 38.8549C3.85959 38.0137 4.15939 36.9403 4.99606 36.4678L6.84017 35.4238L6.84086 35.4234C7.67704 34.9511 8.74978 35.2478 9.22596 36.084L9.22694 36.0859L9.58713 36.7224L14.296 33.9962C15.7797 33.138 17.2974 32.587 18.927 33.1162C20.4739 33.6178 22.9989 34.6998 25.5762 35.1655C25.6107 35.1718 25.6449 35.1803 25.6783 35.1912C27.0493 35.6351 27.8799 37.0229 27.5056 38.415C27.4762 38.5244 27.4419 38.63 27.4029 38.7314C27.5786 38.6644 27.752 38.5814 27.9235 38.4816L34.4914 34.6563C36.931 33.2351 38.5601 33.4107 39.4807 34.0283C40.2897 34.5711 40.6671 35.4965 40.6429 36.4062C40.6185 37.3266 40.176 38.2037 39.4542 38.6482L27.5365 45.9858C26.251 46.7792 24.8428 46.966 23.384 46.5768L23.3831 46.5766L15.0518 44.3437L14.184 44.8449ZM13.2777 46.4282L7.86263 36.86L7.86204 36.8589C7.81165 36.772 7.69988 36.7398 7.61233 36.7892L5.7688 37.8328L5.76812 37.8332C5.68125 37.8824 5.65155 37.9941 5.70106 38.0814L5.70135 38.0819L11.1181 47.6533L11.1185 47.6539C11.1679 47.7415 11.2806 47.7712 11.3686 47.722L13.2086 46.6791L13.2097 46.6785C13.2972 46.629 13.327 46.5164 13.2777 46.4282ZM13.4114 43.4796L14.5488 42.8228C14.729 42.7188 14.9431 42.6906 15.1441 42.7445L23.7885 45.0612C24.8155 45.3351 25.8076 45.2095 26.7127 44.6509L26.7134 44.6505L38.6316 37.3126C38.9293 37.1292 39.0648 36.7441 39.0749 36.3646C39.1051 35.2279 37.9596 34.4513 35.281 36.0118L28.7132 39.8368C27.6327 40.4665 26.5005 40.6415 25.2663 40.445C25.2654 40.4449 25.2645 40.4447 25.2636 40.4446L24.4495 40.3122C24.4492 40.3121 24.4489 40.3121 24.4485 40.312C24.4379 40.3102 24.4273 40.3083 24.4168 40.3062C24.4164 40.3061 24.4161 40.306 24.4158 40.3059C22.9311 40.0011 21.5539 39.5528 20.026 39.1422C19.6079 39.0298 19.3597 38.5992 19.472 38.1812C19.5844 37.7631 20.015 37.5149 20.433 37.6273C21.9183 38.0265 23.2572 38.4643 24.6989 38.7627C25.3543 38.8332 25.8396 38.5705 25.9906 38.008L25.9907 38.0077C26.1427 37.4424 25.786 36.8975 25.2386 36.6984C22.6034 36.213 20.025 35.1212 18.443 34.6082L18.4426 34.6081C17.2523 34.2216 16.1651 34.7273 15.0814 35.354L10.3598 38.0876L13.4114 43.4796ZM7.28586 37.8016C7.7039 37.7393 8.09214 38.0279 8.15439 38.4461C8.2141 38.8641 7.92537 39.2548 7.50733 39.3145C7.08929 39.3767 6.70106 39.0856 6.6389 38.6676C6.57919 38.2494 6.86782 37.8613 7.28586 37.8016ZM16.9204 29.5217C16.5728 30.8482 15.365 31.8282 13.9301 31.8282C12.2241 31.8282 10.8392 30.4432 10.8392 28.7374C10.8392 27.0315 12.2241 25.6465 13.9301 25.6465C15.365 25.6465 16.5728 26.6264 16.9204 27.953H23.777V26.8185C23.777 26.3854 24.1281 26.0342 24.5613 26.0342H28.335V22.9738H16.2358C15.816 22.9738 15.4135 22.8072 15.1166 22.5103C14.8199 22.2135 14.6531 21.811 14.6531 21.3913V14.6737C14.6531 14.254 14.8199 13.8515 15.1166 13.5546C15.4135 13.2578 15.816 13.0911 16.2358 13.0911H19.2564V10.569H16.2358C15.816 10.569 15.4135 10.4023 15.1166 10.1055C14.8199 9.80873 14.6531 9.40618 14.6531 8.98648V2.26883C14.6531 1.84912 14.8199 1.44657 15.1166 1.14981C15.4135 0.853044 15.816 0.686279 16.2358 0.686279H42.0028C42.4225 0.686279 42.8251 0.853044 43.1219 1.14981C43.4187 1.44657 43.5855 1.84912 43.5855 2.26883V8.98648C43.5855 9.40618 43.4187 9.80873 43.1219 10.1055C42.8251 10.4023 42.4225 10.569 42.0028 10.569H38.9822V13.0911H42.0028C42.4225 13.0911 42.8251 13.2578 43.1219 13.5546C43.4187 13.8515 43.5855 14.254 43.5855 14.6737V21.3913C43.5855 21.811 43.4187 22.2135 43.1219 22.5103C42.8251 22.8072 42.4225 22.9738 42.0028 22.9738H29.9036V26.0342H33.6772C34.1105 26.0342 34.4615 26.3854 34.4615 26.8185V27.953H39.8108C40.1583 26.6264 41.3662 25.6465 42.8012 25.6465C44.507 25.6465 45.8919 27.0315 45.8919 28.7374C45.8919 30.4432 44.507 31.8282 42.8012 31.8282C41.3662 31.8282 40.1583 30.8482 39.8108 29.5217H34.4615V31.1524C34.4615 31.5855 34.1105 31.9367 33.6772 31.9367H24.5613C24.1281 31.9367 23.777 31.5855 23.777 31.1524V29.5217H16.9204ZM20.825 13.0911H37.4136V10.569H20.825V13.0911ZM13.9301 27.2151C13.0899 27.2151 12.4078 27.8972 12.4078 28.7374C12.4078 29.5775 13.0899 30.2596 13.9301 30.2596C14.7702 30.2596 15.4522 29.5775 15.4522 28.7374C15.4522 27.8972 14.7702 27.2151 13.9301 27.2151ZM32.8929 27.6028H25.3457V30.368H32.8929V27.6028ZM42.0028 2.25491H16.2358C16.232 2.25491 16.2285 2.25638 16.2259 2.25902C16.2232 2.26157 16.2217 2.2652 16.2217 2.26883V8.98648C16.2217 8.9901 16.2232 8.99373 16.2259 8.99628C16.2285 8.99893 16.232 9.0004 16.2358 9.0004H42.0028C42.0065 9.0004 42.0101 8.99893 42.0127 8.99628C42.0154 8.99373 42.0168 8.9901 42.0168 8.98648V2.26883C42.0168 2.2652 42.0154 2.26157 42.0127 2.25902C42.0101 2.25638 42.0065 2.25491 42.0028 2.25491ZM26.2637 3.14148C27.636 3.14148 28.75 4.2555 28.75 5.62765C28.75 6.99981 27.636 8.11383 26.2637 8.11383C24.8915 8.11383 23.7775 6.99981 23.7775 5.62765C23.7775 4.2555 24.8915 3.14148 26.2637 3.14148ZM26.2637 4.7101C25.7573 4.7101 25.3462 5.12128 25.3462 5.62765C25.3462 6.13402 25.7573 6.5452 26.2637 6.5452C26.7702 6.5452 27.1813 6.13402 27.1813 5.62765C27.1813 5.12128 26.7702 4.7101 26.2637 4.7101ZM38.9537 4.41295C38.9537 3.9801 39.3052 3.62863 39.738 3.62863C40.1709 3.62863 40.5223 3.9801 40.5223 4.41295V6.84236C40.5223 7.2752 40.1709 7.62667 39.738 7.62667C39.3052 7.62667 38.9537 7.2752 38.9537 6.84236V4.41295ZM32.2205 4.41295C32.2205 3.9801 32.5718 3.62863 33.0048 3.62863C33.4376 3.62863 33.7891 3.9801 33.7891 4.41295V6.84236C33.7891 7.2752 33.4376 7.62667 33.0048 7.62667C32.5718 7.62667 32.2205 7.2752 32.2205 6.84236V4.41295ZM35.587 4.41295C35.587 3.9801 35.9385 3.62863 36.3713 3.62863C36.8043 3.62863 37.1557 3.9801 37.1557 4.41295V6.84236C37.1557 7.2752 36.8043 7.62667 36.3713 7.62667C35.9385 7.62667 35.587 7.2752 35.587 6.84236V4.41295ZM20.0059 3.14148C21.378 3.14148 22.492 4.2555 22.492 5.62765C22.492 6.99981 21.378 8.11383 20.0059 8.11383C18.6337 8.11383 17.5197 6.99981 17.5197 5.62765C17.5197 4.2555 18.6337 3.14148 20.0059 3.14148ZM20.0059 4.7101C19.4995 4.7101 19.0883 5.12128 19.0883 5.62765C19.0883 6.13402 19.4995 6.5452 20.0059 6.5452C20.5122 6.5452 20.9234 6.13402 20.9234 5.62765C20.9234 5.12128 20.5122 4.7101 20.0059 4.7101ZM42.0028 14.6597H16.2358C16.232 14.6597 16.2285 14.6612 16.2259 14.6638C16.2232 14.6665 16.2217 14.67 16.2217 14.6737V21.3913C16.2217 21.395 16.2232 21.3985 16.2259 21.4012C16.2285 21.4037 16.232 21.4052 16.2358 21.4052H42.0028C42.0065 21.4052 42.0101 21.4037 42.0127 21.4012C42.0154 21.3985 42.0168 21.395 42.0168 21.3913V14.6737C42.0168 14.67 42.0154 14.6665 42.0127 14.6638C42.0101 14.6612 42.0065 14.6597 42.0028 14.6597ZM20.0059 15.5463C21.378 15.5463 22.492 16.6603 22.492 18.0325C22.492 19.4047 21.378 20.5187 20.0059 20.5187C18.6337 20.5187 17.5197 19.4047 17.5197 18.0325C17.5197 16.6603 18.6337 15.5463 20.0059 15.5463ZM20.0059 17.1149C19.4995 17.1149 19.0883 17.5261 19.0883 18.0325C19.0883 18.5389 19.4995 18.9501 20.0059 18.9501C20.5122 18.9501 20.9234 18.5389 20.9234 18.0325C20.9234 17.5261 20.5122 17.1149 20.0059 17.1149ZM26.2637 15.5463C27.636 15.5463 28.75 16.6603 28.75 18.0325C28.75 19.4047 27.636 20.5187 26.2637 20.5187C24.8915 20.5187 23.7775 19.4047 23.7775 18.0325C23.7775 16.6603 24.8915 15.5463 26.2637 15.5463ZM26.2637 17.1149C25.7573 17.1149 25.3462 17.5261 25.3462 18.0325C25.3462 18.5389 25.7573 18.9501 26.2637 18.9501C26.7702 18.9501 27.1813 18.5389 27.1813 18.0325C27.1813 17.5261 26.7702 17.1149 26.2637 17.1149ZM38.9537 16.8178C38.9537 16.385 39.3052 16.0335 39.738 16.0335C40.1709 16.0335 40.5223 16.385 40.5223 16.8178V19.2472C40.5223 19.68 40.1709 20.0315 39.738 20.0315C39.3052 20.0315 38.9537 19.68 38.9537 19.2472V16.8178ZM32.2205 16.8178C32.2205 16.385 32.5718 16.0335 33.0048 16.0335C33.4376 16.0335 33.7891 16.385 33.7891 16.8178V19.2472C33.7891 19.68 33.4376 20.0315 33.0048 20.0315C32.5718 20.0315 32.2205 19.68 32.2205 19.2472V16.8178ZM35.587 16.8178C35.587 16.385 35.9385 16.0335 36.3713 16.0335C36.8043 16.0335 37.1557 16.385 37.1557 16.8178V19.2472C37.1557 19.68 36.8043 20.0315 36.3713 20.0315C35.9385 20.0315 35.587 19.68 35.587 19.2472V16.8178ZM42.8012 27.2151C41.961 27.2151 41.2789 27.8972 41.2789 28.7374C41.2789 29.5775 41.961 30.2596 42.8012 30.2596C43.6413 30.2596 44.3233 29.5775 44.3233 28.7374C44.3233 27.8972 43.6413 27.2151 42.8012 27.2151Z" fill="#014339"/>
</svg>
