<svg width="30" height="30" viewBox="0 0 30 30" fill="none" xmlns="http://www.w3.org/2000/svg">
<g clip-path="url(#clip0_221_7877)">
<path d="M14.9892 -0.0256575C15.056 -0.0250863 15.1229 -0.0245151 15.1917 -0.0239266C16.335 5.16195e-05 17.3802 0.428922 18.1892 1.24601C18.239 1.29888 18.2887 1.35175 18.34 1.40623C18.3832 1.45185 18.4263 1.49747 18.4707 1.54447C19.3192 2.52256 19.5967 3.7386 19.5247 5.00454C19.4298 6.12843 18.8634 7.17692 18.0178 7.9138C17.9797 7.94469 17.9416 7.97558 17.9024 8.00741C17.8051 8.08252 17.8051 8.08252 17.7541 8.2031C17.8164 8.21307 17.8164 8.21307 17.88 8.22324C18.6943 8.41064 19.4156 9.04104 19.8635 9.72654C20.1561 10.2274 20.3918 10.7372 20.508 11.3086C20.5477 11.2824 20.5875 11.2562 20.6284 11.2291C20.9881 10.9955 21.3504 10.7881 21.7385 10.6054C21.7107 10.5826 21.683 10.5598 21.6545 10.5363C20.7437 9.76577 20.1368 8.81877 19.9807 7.61717C19.8981 6.33721 20.1338 5.11022 20.9832 4.10589C21.038 4.04573 21.038 4.04573 21.0939 3.98435C21.1365 3.93639 21.1791 3.88843 21.223 3.83901C22.0308 2.97778 23.1207 2.53925 24.2873 2.44421C25.545 2.41133 26.7748 2.84947 27.6931 3.72068C28.6234 4.70003 29.0447 5.84466 29.0317 7.17711C28.9987 8.23567 28.6375 9.15324 27.9494 9.96091C27.9107 10.0129 27.8721 10.0648 27.8322 10.1184C27.6736 10.3018 27.4923 10.4522 27.3049 10.6054C27.4693 10.7151 27.6279 10.793 27.8066 10.8764C28.7715 11.3577 29.497 12.1887 29.8464 13.2092C29.9672 13.5954 30.0096 13.9425 30.0124 14.345C30.013 14.3965 30.0136 14.448 30.0142 14.5011C30.0159 14.6711 30.0172 14.8412 30.0183 15.0112C30.0187 15.0695 30.019 15.1278 30.0194 15.1879C30.0213 15.4969 30.0228 15.8058 30.0239 16.1147C30.025 16.3694 30.027 16.624 30.0299 16.8787C30.0335 17.1871 30.0353 17.4955 30.0358 17.804C30.0363 17.921 30.0374 18.038 30.0391 18.155C30.0492 18.8724 30.0521 19.4845 29.5368 20.043C29.3677 20.2025 29.2336 20.2864 29.0041 20.332C28.9955 20.376 28.9869 20.4199 28.978 20.4652C28.8426 21.083 28.5852 21.6443 28.0666 22.0312C27.3344 22.4781 26.6477 22.578 25.7952 22.57C25.7272 22.5698 25.6593 22.5697 25.5893 22.5695C25.375 22.5689 25.1608 22.5674 24.9465 22.5659C24.8001 22.5653 24.6537 22.5648 24.5073 22.5643C24.1507 22.563 23.7942 22.5611 23.4377 22.5586C23.4341 22.602 23.4304 22.6455 23.4267 22.6903C23.4217 22.7478 23.4167 22.8052 23.4116 22.8644C23.4068 22.9212 23.4019 22.9779 23.3969 23.0364C23.2296 24.6013 22.3836 26.1092 21.3283 27.2461C21.2972 27.2798 21.2661 27.3134 21.234 27.3482C19.8351 28.8452 17.8611 29.9176 15.7826 30.0094C15.534 30.0121 15.2854 30.0144 15.0368 30.0146C14.9695 30.0147 14.9695 30.0147 14.9008 30.0147C14.2524 30.0138 13.6379 29.9918 13.008 29.8242C12.968 29.8141 12.9281 29.8041 12.8869 29.7937C10.645 29.2246 8.7687 27.7711 7.58206 25.7914C7.03825 24.8502 6.54121 23.6598 6.56269 22.5586C6.52534 22.5588 6.488 22.5591 6.44952 22.5594C6.05785 22.562 5.66619 22.5637 5.27451 22.565C5.12869 22.5656 4.98288 22.5664 4.83706 22.5674C4.62644 22.5688 4.41583 22.5695 4.2052 22.57C4.1409 22.5706 4.07661 22.5712 4.01036 22.5718C3.08295 22.572 2.33196 22.3984 1.64791 21.7513C1.27526 21.3577 1.03255 20.8761 0.996281 20.332C0.934648 20.3121 0.934648 20.3121 0.871769 20.2917C0.435137 20.0924 0.203833 19.782 0.0338426 19.3361C-0.08828 18.9103 -0.0468907 18.438 -0.0423849 17.9997C-0.042324 17.8818 -0.0423852 17.7639 -0.0425619 17.646C-0.0425515 17.3999 -0.04134 17.1538 -0.0392092 16.9076C-0.0365541 16.5943 -0.036487 16.281 -0.037278 15.9676C-0.0376722 15.7244 -0.036886 15.4812 -0.0357384 15.238C-0.0352916 15.1225 -0.0351518 15.0071 -0.0353396 14.8917C-0.0356915 13.5986 0.259379 12.5234 1.19449 11.5775C1.64209 11.1573 2.11316 10.8582 2.6955 10.664C2.55517 10.4916 2.41697 10.3269 2.25971 10.1697C1.45224 9.36218 0.991286 8.32118 0.973979 7.17402C0.976188 5.96977 1.25409 4.97264 2.05097 4.04295C2.0771 4.00843 2.10324 3.97391 2.13016 3.93835C2.74096 3.1543 3.73288 2.702 4.68769 2.51951C4.75295 2.50622 4.8182 2.49292 4.88544 2.47923C6.11865 2.37291 7.29716 2.61368 8.28594 3.38537C9.24163 4.20556 9.91552 5.25781 10.0333 6.53392C10.1057 7.76003 9.81697 8.94224 9.01584 9.90026C8.4595 10.5066 8.4595 10.5066 8.26191 10.6054C8.29085 10.6205 8.3198 10.6356 8.34962 10.6511C8.48163 10.7199 8.61347 10.789 8.7453 10.8581C8.79085 10.8818 8.8364 10.9055 8.88332 10.9299C9.09863 11.0431 9.30429 11.1523 9.49237 11.3086C9.51798 11.2183 9.51798 11.2183 9.5441 11.1262C9.88713 9.95128 10.4746 9.0618 11.5624 8.44389C12.0282 8.2031 12.0282 8.2031 12.2463 8.2031C12.2064 8.16322 12.1665 8.12334 12.1254 8.08225C12.0986 8.05521 12.0718 8.02817 12.0442 8.00031C11.9827 7.93927 11.9202 7.87917 11.857 7.81995C10.9921 6.99607 10.4998 5.86552 10.4609 4.67858C10.4483 3.44369 10.8167 2.32613 11.6603 1.40623C11.697 1.36491 11.7336 1.3236 11.7714 1.28103C12.5988 0.396321 13.7974 -0.037118 14.9892 -0.0256575ZM13.6525 1.28904C13.571 1.32428 13.571 1.32428 13.4877 1.36022C12.5657 1.81207 12.0078 2.5737 11.6571 3.51881C11.3924 4.34379 11.4991 5.27212 11.8659 6.04566C12.3618 6.95216 13.0955 7.57527 14.0849 7.87168C14.9873 8.09762 15.8989 7.99723 16.7177 7.54759C17.6177 6.97904 18.1861 6.2017 18.4343 5.16349C18.6056 4.23186 18.3776 3.30968 17.8713 2.51951C17.3133 1.7517 16.5144 1.25699 15.5861 1.05466C14.9189 0.997985 14.2731 1.02008 13.6525 1.28904ZM3.28144 4.33591C3.23302 4.37209 3.18461 4.40827 3.13472 4.44555C2.52735 4.96357 2.11816 5.77976 2.03799 6.57381C1.98467 7.6226 2.21376 8.50251 2.88593 9.33103C3.56481 10.0599 4.50536 10.4736 5.49701 10.5139C6.5076 10.4831 7.31791 10.0809 8.02753 9.37498C8.08361 9.32195 8.08361 9.32195 8.14083 9.26786C8.76493 8.62847 8.98779 7.74412 8.98254 6.87692C8.95845 5.93194 8.52249 5.10451 7.85175 4.4531C7.80428 4.40382 7.80428 4.40382 7.75585 4.35354C7.16464 3.78616 6.3005 3.52724 5.49701 3.49729C4.6404 3.56751 3.96402 3.80712 3.28144 4.33591ZM22.0095 4.58059C21.2867 5.35819 20.9947 6.20967 21.0212 7.25713C21.0616 8.1445 21.5231 8.94326 22.1486 9.55076C22.1803 9.58362 22.2119 9.61647 22.2445 9.65032C22.8403 10.2221 23.7084 10.4753 24.5143 10.5139C25.4955 10.4806 26.3763 10.0599 27.0705 9.37498C27.7956 8.5069 28.0483 7.55512 27.9494 6.44529C27.8502 5.85577 27.6013 5.34216 27.2463 4.86326C27.1828 4.77262 27.1828 4.77262 27.1181 4.68015C26.5216 4.00541 25.645 3.59435 24.756 3.52659C23.6956 3.46431 22.7578 3.83275 22.0095 4.58059ZM11.3088 9.96091C10.8725 10.4858 10.5385 11.1293 10.5404 11.8236C10.5404 11.8776 10.5404 11.9315 10.5404 11.9871C10.5407 12.0445 10.541 12.102 10.5413 12.1612C10.5414 12.2206 10.5415 12.28 10.5416 12.3412C10.5419 12.5304 10.5427 12.7197 10.5434 12.9089C10.5437 13.0374 10.544 13.1659 10.5442 13.2945C10.5448 13.6091 10.5458 13.9237 10.5471 14.2383C10.6404 14.1916 10.6404 14.1916 10.7357 14.144C11.1415 13.941 11.5474 13.7381 11.9533 13.5351C11.9542 13.487 11.955 13.4388 11.9559 13.3892C11.9603 13.1705 11.9659 12.9518 11.9716 12.7331C11.9729 12.6573 11.9743 12.5815 11.9756 12.5034C11.9777 12.4304 11.9798 12.3573 11.9819 12.282C11.9835 12.2148 11.985 12.1476 11.9866 12.0784C12.0143 11.8769 12.0673 11.764 12.1877 11.6015C12.3688 11.511 12.5155 11.5257 12.715 11.5429C12.8741 11.6641 12.9408 11.7354 12.9814 11.933C12.9826 11.9907 12.9838 12.0484 12.9851 12.1078C12.987 12.1705 12.9889 12.2332 12.9908 12.2978C12.9917 12.3629 12.9925 12.428 12.9934 12.4951C12.9951 12.5611 12.9968 12.6271 12.9986 12.6951C13.0028 12.858 13.0058 13.0207 13.008 13.1836C13.0971 13.1751 13.1862 13.1666 13.2753 13.1579C13.325 13.1532 13.3746 13.1484 13.4257 13.1435C13.5477 13.1301 13.6694 13.1132 13.7907 13.0942C14.1419 13.0484 14.494 13.0555 14.8476 13.0555C14.9805 13.0554 15.1134 13.0543 15.2463 13.0532C15.692 13.0516 16.1139 13.0686 16.5527 13.1583C16.7021 13.184 16.841 13.1879 16.9924 13.1836C16.9929 13.1422 16.9935 13.1008 16.994 13.0582C16.9972 12.8705 17.0021 12.6828 17.007 12.4951C17.0079 12.43 17.0087 12.3649 17.0095 12.2978C17.0114 12.2351 17.0133 12.1724 17.0153 12.1078C17.0165 12.0501 17.0177 11.9925 17.019 11.933C17.0596 11.7355 17.1269 11.6646 17.2853 11.5429C17.5053 11.5155 17.6392 11.5118 17.8347 11.6199C18.0169 11.8091 17.9991 12.0206 18.007 12.2706C18.0095 12.344 18.0119 12.4175 18.0144 12.4931C18.0168 12.5699 18.0191 12.6467 18.0214 12.7258C18.024 12.804 18.0265 12.8823 18.0291 12.9605C18.0353 13.1521 18.0413 13.3436 18.0471 13.5351C18.1093 13.5663 18.1715 13.5974 18.2357 13.6294C18.6415 13.8324 19.0474 14.0353 19.4533 14.2383C19.4593 13.8684 19.4634 13.4985 19.4662 13.1285C19.4674 13.003 19.469 12.8775 19.471 12.752C19.4888 11.6314 19.3851 10.6931 18.5744 9.84373C17.8172 9.18184 16.9629 8.99531 15.978 9.00007C15.8992 8.99995 15.8205 8.99978 15.7417 8.99956C15.5778 8.9993 15.4139 8.99967 15.2501 9.0005C15.0421 9.0015 14.8341 9.00092 14.6261 8.99987C14.4638 8.99923 14.3015 8.99944 14.1392 8.99989C14.0259 9.00006 13.9126 8.99954 13.7993 8.99899C12.8718 9.00629 11.9545 9.25784 11.3088 9.96091ZM1.74907 12.5221C1.09225 13.3358 1.02733 14.1428 1.02947 15.1439C1.0292 15.2538 1.02889 15.3637 1.02854 15.4736C1.02802 15.7028 1.02815 15.9319 1.02874 16.1611C1.02942 16.4543 1.02822 16.7475 1.02652 17.0408C1.02544 17.2672 1.02546 17.4937 1.02579 17.7201C1.0258 17.8282 1.02545 17.9364 1.02472 18.0445C1.02385 18.1955 1.02447 18.3465 1.02548 18.4975C1.02491 18.5418 1.02434 18.5861 1.02376 18.6317C1.02795 18.9329 1.10072 19.1031 1.28925 19.3359C1.46668 19.4753 1.65533 19.4744 1.87748 19.4678C2.05046 19.4457 2.15183 19.3879 2.28534 19.2773C2.4687 19.0352 2.48648 18.824 2.4846 18.5299C2.48501 18.4851 2.48542 18.4403 2.48584 18.3941C2.48701 18.2465 2.48698 18.099 2.48699 17.9514C2.48768 17.8486 2.48846 17.7458 2.48933 17.643C2.49145 17.3727 2.49264 17.1024 2.49353 16.8321C2.49498 16.3993 2.4973 15.9664 2.50067 15.5336C2.50163 15.3825 2.50185 15.2314 2.50202 15.0802C2.50259 14.9876 2.50319 14.895 2.50383 14.8023C2.50368 14.7603 2.50353 14.7184 2.50337 14.6751C2.50556 14.4629 2.51322 14.2981 2.63691 14.1211C2.77251 14.0533 2.86311 14.0489 3.0141 14.0442C3.05995 14.042 3.1058 14.0398 3.15303 14.0375C3.28144 14.0625 3.28144 14.0625 3.37587 14.1522C3.48836 14.3522 3.48224 14.5372 3.48089 14.7606C3.4813 14.8071 3.4817 14.8537 3.48211 14.9016C3.48318 15.0554 3.48296 15.2092 3.48262 15.363C3.48289 15.4703 3.4832 15.5776 3.48356 15.6849C3.48408 15.91 3.48394 16.1351 3.48335 16.3602C3.48268 16.6474 3.48386 16.9346 3.48558 17.2219C3.48666 17.4437 3.48663 17.6654 3.4863 17.8872C3.48629 17.9931 3.48664 18.0989 3.48737 18.2047C3.49118 18.8474 3.46186 19.3416 3.12763 19.9072C2.86293 20.158 2.53025 20.3788 2.16816 20.4492C2.21548 20.7936 2.38644 20.9802 2.63691 21.2109C3.11274 21.5368 3.6388 21.5127 4.19468 21.5117C4.25898 21.5117 4.32329 21.5118 4.38955 21.5118C4.52478 21.5119 4.66001 21.5118 4.79523 21.5115C5.00315 21.5112 5.21105 21.5115 5.41896 21.5119C5.55042 21.5119 5.68187 21.5118 5.81333 21.5117C5.90707 21.5118 5.90707 21.5118 6.0027 21.512C6.06003 21.5118 6.11736 21.5117 6.17642 21.5115C6.2271 21.5114 6.27778 21.5114 6.32999 21.5113C6.44564 21.5166 6.44564 21.5166 6.50409 21.4453C6.50973 21.3454 6.51494 21.2455 6.5181 21.1456C6.54591 20.3138 6.70783 19.5112 6.96552 18.7207C6.97841 18.6808 6.9913 18.6409 7.00459 18.5998C7.0686 18.4142 7.13737 18.2426 7.23415 18.071C7.49031 17.6157 7.54946 17.2567 7.54116 16.7393C7.54154 16.6678 7.54193 16.5964 7.54233 16.5228C7.54334 16.2972 7.54207 16.0716 7.54047 15.8459C7.53981 15.6184 7.53965 15.3909 7.5405 15.1634C7.54093 15.0224 7.54045 14.8814 7.53895 14.7404C7.53897 14.677 7.539 14.6136 7.53903 14.5483C7.53862 14.4925 7.53821 14.4367 7.53778 14.3792C7.55878 14.2383 7.55878 14.2383 7.64001 14.1325C7.76449 14.0403 7.84455 14.039 7.99823 14.0405C8.06621 14.0398 8.06621 14.0398 8.13556 14.0391C8.29182 14.068 8.3417 14.1136 8.43769 14.2383C8.49846 14.4206 8.50802 14.5602 8.51482 14.7516C8.51727 14.8172 8.51973 14.8827 8.52226 14.9502C8.52456 15.0186 8.52687 15.087 8.52924 15.1574C8.53177 15.2265 8.5343 15.2956 8.53691 15.3668C8.54313 15.5375 8.54911 15.7082 8.55487 15.8789C8.65066 15.7994 8.74592 15.7192 8.83892 15.6365C8.96503 15.5273 8.96503 15.5273 9.10762 15.4236C9.3409 15.2344 9.49459 15.0701 9.5409 14.7686C9.56155 14.5414 9.56123 14.3158 9.55469 14.0879C9.55097 13.9454 9.55227 13.8036 9.55417 13.661C9.55306 13.1837 9.53685 12.8277 9.1942 12.463C9.13877 12.4136 9.13877 12.4136 9.08222 12.3633C9.03943 12.3247 8.99663 12.2861 8.95254 12.2463C8.25183 11.6427 7.47094 11.5242 6.57871 11.5233C6.49464 11.5229 6.41057 11.5225 6.3265 11.5221C6.15068 11.5214 5.97487 11.5212 5.79905 11.5212C5.57607 11.5212 5.35312 11.5196 5.13015 11.5176C4.9565 11.5163 4.78287 11.5161 4.60922 11.5161C4.52714 11.516 4.44507 11.5155 4.363 11.5146C3.34368 11.5042 2.46081 11.7651 1.74907 12.5221ZM20.665 12.6482C20.2928 13.1217 20.4176 14.1745 20.4657 14.7532C20.5204 15.1708 20.753 15.4158 21.0691 15.6734C21.2412 15.817 21.2412 15.817 21.4455 15.8789C21.4464 15.836 21.4472 15.7932 21.4481 15.7491C21.4525 15.5543 21.4581 15.3595 21.4638 15.1648C21.4651 15.0974 21.4665 15.03 21.4678 14.9605C21.4699 14.8953 21.472 14.8302 21.4741 14.7631C21.4756 14.7032 21.4772 14.6434 21.4788 14.5818C21.5103 14.3732 21.5881 14.2129 21.7385 14.0625C21.8534 14.0506 21.8534 14.0506 21.9948 14.0478C22.0412 14.0463 22.0876 14.0448 22.1353 14.0433C22.3005 14.0676 22.341 14.1067 22.4416 14.2383C22.4618 14.3773 22.4618 14.3773 22.4595 14.5436C22.4591 14.6061 22.4588 14.6685 22.4584 14.7329C22.4573 14.8006 22.4562 14.8684 22.4551 14.9382C22.455 15.0826 22.4549 15.227 22.455 15.3715C22.4541 15.5984 22.4526 15.8252 22.4494 16.0521C22.4393 16.883 22.4345 17.5802 22.8537 18.3136C23.0068 18.582 23.0895 18.8518 23.1667 19.1491C23.1808 19.2014 23.195 19.2536 23.2095 19.3074C23.3699 19.9122 23.4499 20.4977 23.4763 21.1218C23.4668 21.3304 23.4668 21.3304 23.5549 21.5039C23.6435 21.51 23.7324 21.512 23.8212 21.5124C23.8779 21.5128 23.9347 21.5131 23.9932 21.5135C24.0551 21.5136 24.117 21.5137 24.1809 21.5137C24.2444 21.5139 24.308 21.5141 24.3735 21.5143C24.5086 21.5146 24.6437 21.5148 24.7788 21.5147C24.984 21.5149 25.1893 21.5159 25.3945 21.517C25.5259 21.5172 25.6572 21.5173 25.7885 21.5174C25.8494 21.5178 25.9103 21.5182 25.973 21.5187C26.5884 21.5168 27.0785 21.465 27.5392 21.0351C27.7258 20.839 27.7872 20.712 27.8322 20.4492C27.7739 20.4279 27.7739 20.4279 27.7143 20.4062C27.1459 20.1904 26.8776 19.9392 26.6017 19.3945C26.5231 19.1655 26.5341 18.93 26.5337 18.6908C26.5333 18.6202 26.5333 18.6202 26.5328 18.5481C26.532 18.3926 26.5316 18.2371 26.5313 18.0816C26.5309 17.9735 26.5306 17.8654 26.5302 17.7572C26.5296 17.5307 26.5293 17.3041 26.5291 17.0775C26.5288 16.7871 26.5273 16.4967 26.5257 16.2062C26.5246 15.983 26.5243 15.7597 26.5242 15.5364C26.524 15.4293 26.5236 15.3222 26.5228 15.2151C26.5218 15.0655 26.5219 14.9158 26.5223 14.7662C26.5217 14.7219 26.5212 14.6776 26.5206 14.632C26.5221 14.4453 26.5321 14.3165 26.6245 14.1521C26.7476 14.0353 26.8148 14.0326 26.9826 14.0368C27.0279 14.0369 27.0732 14.037 27.1199 14.0371C27.2739 14.068 27.325 14.1172 27.4221 14.2383C27.5101 14.4144 27.4896 14.5959 27.4899 14.789C27.4902 14.8337 27.4905 14.8784 27.4908 14.9245C27.4914 15.0217 27.4919 15.1189 27.4923 15.2161C27.493 15.3701 27.4942 15.524 27.4954 15.6779C27.4991 16.1156 27.5022 16.5533 27.5042 16.991C27.5054 17.2586 27.5075 17.5262 27.5101 17.7938C27.5109 17.8958 27.5114 17.9977 27.5116 18.0997C27.5119 18.2425 27.5132 18.3852 27.5148 18.528C27.5147 18.5701 27.5145 18.6121 27.5143 18.6554C27.5186 18.9118 27.5598 19.0724 27.715 19.2773C27.9178 19.4453 28.096 19.4844 28.3598 19.4739C28.5891 19.4331 28.7628 19.3123 28.8955 19.1228C28.9682 18.9215 28.9628 18.724 28.9625 18.5126C28.9629 18.4653 28.9633 18.4179 28.9637 18.369C28.9648 18.2123 28.9651 18.0555 28.9652 17.8988C28.9656 17.7893 28.966 17.6798 28.9664 17.5703C28.9671 17.3404 28.9673 17.1105 28.9672 16.8806C28.9672 16.5879 28.9688 16.2952 28.9708 16.0024C28.9721 15.7759 28.9724 15.5495 28.9723 15.323C28.9724 15.2152 28.9729 15.1074 28.9739 14.9996C28.9816 13.9893 28.8233 13.1471 28.1105 12.3779C27.366 11.6895 26.5196 11.505 25.5288 11.5118C25.4452 11.5117 25.3616 11.5114 25.2781 11.5111C25.1043 11.5108 24.9306 11.5113 24.7569 11.5124C24.5367 11.5137 24.3165 11.513 24.0963 11.5116C23.9242 11.5107 23.752 11.511 23.5799 11.5116C23.4988 11.5117 23.4177 11.5116 23.3366 11.511C22.235 11.5051 21.3894 11.8065 20.665 12.6482ZM10.0783 15.8789C10.037 15.9124 9.99568 15.946 9.95311 15.9805C9.61484 16.2596 9.34996 16.5877 9.08222 16.9336C9.04226 16.9836 9.00231 17.0337 8.96114 17.0853C7.75906 18.6497 7.38405 20.626 7.5762 22.558C7.83687 24.5048 8.93586 26.3017 10.4898 27.491C11.3111 28.088 12.2091 28.4946 13.1838 28.7695C13.2542 28.7895 13.3246 28.8095 13.3971 28.8302C15.2562 29.2628 17.2906 28.8769 18.9088 27.8881C19.3622 27.599 19.769 27.2666 20.1564 26.8945C20.2095 26.8451 20.2626 26.7957 20.3173 26.7448C20.7174 26.362 21.0332 25.9561 21.3283 25.4883C21.3687 25.425 21.4091 25.3618 21.4508 25.2967C22.4234 23.6931 22.7281 21.6897 22.3188 19.8592C22.0151 18.6472 21.4789 17.6001 20.6838 16.6406C20.6447 16.5925 20.6055 16.5444 20.5652 16.4948C20.2697 16.1457 19.9321 15.8645 19.5705 15.5859C19.5198 15.546 19.4691 15.5062 19.4169 15.4651C16.641 13.3532 12.6717 13.6164 10.0783 15.8789Z" fill="#9EFF8C"/>
<path d="M17.5857 15.8606C18.4228 16.5623 18.8888 17.5025 19.0433 18.5742C19.1144 19.6671 18.844 20.7199 18.141 21.5751C18.11 21.6096 18.0791 21.6441 18.0472 21.6797C18.0102 21.7221 17.9732 21.7644 17.935 21.8081C17.5671 22.2034 17.0999 22.5619 16.5823 22.7344C16.5198 22.8589 16.5198 22.8589 16.4725 23.009C16.2921 23.488 16.0169 23.757 15.5496 23.9795C15.0639 24.0874 14.6325 24.0747 14.1951 23.825C13.8208 23.5575 13.5936 23.2364 13.4769 22.793C13.4522 22.6006 13.4489 22.4118 13.4512 22.218C13.4517 22.1664 13.4521 22.1148 13.4526 22.0616C13.468 21.4513 13.6383 20.9559 14.0628 20.5078C14.3497 20.236 14.6474 20.1016 15.0188 19.9759C15.4104 19.8414 15.6884 19.7251 15.8792 19.3359C15.9599 19.0454 15.9404 18.8388 15.8261 18.5662C15.7004 18.352 15.5145 18.2161 15.2933 18.1055C15.0047 18.0738 14.7736 18.0736 14.5096 18.2007C14.2077 18.4738 14.0955 18.7286 14.0335 19.1272C13.9389 19.6583 13.7775 19.9444 13.3711 20.3039C12.9787 20.5685 12.5253 20.548 12.0706 20.5078C11.6544 20.4071 11.372 20.0865 11.1331 19.7461C10.8038 19.1161 10.9634 18.4096 11.1331 17.7539C11.2977 17.2364 11.5587 16.8291 11.8948 16.4062C11.9217 16.369 11.9486 16.3318 11.9763 16.2934C12.3768 15.7687 13.0446 15.4001 13.6526 15.1758C13.7264 15.1478 13.7264 15.1478 13.8016 15.1192C15.1171 14.7073 16.5086 15.0511 17.5857 15.8606ZM13.1839 16.6406C13.13 16.6762 13.13 16.6762 13.0749 16.7125C12.4984 17.1436 12.1596 17.8773 12.0418 18.5673C12.009 18.8178 11.9882 18.9874 12.0889 19.2224C12.2529 19.4213 12.2529 19.4213 12.5027 19.4751C12.7119 19.4713 12.7119 19.4713 12.8403 19.3627C12.9827 19.175 13.0041 18.9954 13.0337 18.7683C13.1311 18.1697 13.3257 17.7788 13.8032 17.3865C14.3192 17.0191 14.856 16.9915 15.469 17.0508C15.9541 17.1495 16.3212 17.4435 16.6409 17.8125C16.9562 18.2891 17.0466 18.8291 16.9685 19.3918C16.8445 19.9231 16.58 20.355 16.1294 20.6678C15.9311 20.7787 15.7239 20.8499 15.5091 20.9223C15.0857 21.0684 14.8303 21.219 14.5856 21.603C14.5087 21.7954 14.5116 21.9676 14.5096 22.1741C14.5071 22.2882 14.5071 22.2882 14.5045 22.4045C14.5355 22.6482 14.5898 22.7421 14.7659 22.9101C14.968 22.983 14.968 22.983 15.1761 22.9687C15.4003 22.7981 15.4415 22.6551 15.4837 22.3828C15.5573 22.0581 15.5573 22.0581 15.6808 21.9436C15.8035 21.8843 15.9257 21.8399 16.055 21.7969C16.8753 21.4489 17.4627 20.8467 17.8105 20.0299C18.0844 19.2802 18.022 18.514 17.7327 17.7768C17.3441 16.9699 16.7371 16.4891 15.9161 16.1666C14.9652 15.8374 13.9898 16.0855 13.1839 16.6406Z" fill="#9EFF8C"/>
<path d="M15.8785 25.1953C16.2063 25.4288 16.4217 25.7435 16.523 26.1328C16.5841 26.6594 16.5191 27.0957 16.1971 27.5208C15.861 27.8791 15.4871 28.0249 14.9996 28.0445C14.512 28.0249 14.1381 27.8791 13.8021 27.5208C13.4827 27.0991 13.4059 26.6558 13.4761 26.1328C13.6086 25.7017 13.8602 25.3812 14.2378 25.1367C14.8027 24.8602 15.3264 24.9168 15.8785 25.1953ZM14.7249 26.1072C14.5753 26.2445 14.5753 26.2445 14.5235 26.4514C14.512 26.6667 14.512 26.6667 14.6517 26.8323C14.814 26.9632 14.814 26.9632 14.9996 26.9898C15.2406 26.9396 15.3275 26.8607 15.4683 26.6602C15.4877 26.4492 15.4877 26.4492 15.4097 26.25C15.2817 26.1017 15.2817 26.1017 15.1167 26.0157C14.8858 25.996 14.8858 25.996 14.7249 26.1072Z" fill="#9EFF8C"/>
</g>
<defs>
<clipPath id="clip0_221_7877">
<rect width="30" height="30" fill="white"/>
</clipPath>
</defs>
</svg>
