<svg width="104" height="80" viewBox="0 0 104 80" fill="none" xmlns="http://www.w3.org/2000/svg">
<g clip-path="url(#clip0_318_559)">
<path opacity="0.2" d="M64.5412 80.0049C28.8961 80.0049 -4.37706e-06 51.1597 -2.81621e-06 15.5774C-1.25537e-06 -20.0049 28.8961 -48.8501 64.5412 -48.8501C100.186 -48.8501 129.082 -20.0049 129.082 15.5774C129.082 51.1597 100.186 80.0049 64.5412 80.0049ZM64.5412 -29.5219C39.5896 -29.5219 19.3623 -9.33009 19.3623 15.5774C19.3623 40.485 39.5896 60.6766 64.5412 60.6766C89.4926 60.6766 109.72 40.485 109.72 15.5774C109.72 -9.33009 89.4926 -29.5219 64.5412 -29.5219Z" fill="white"/>
</g>
<defs>
<clipPath id="clip0_318_559">
<rect width="80" height="104" fill="white" transform="translate(0 80.0049) rotate(-90)"/>
</clipPath>
</defs>
</svg>
