<svg width="41" height="46" viewBox="0 0 41 46" fill="none" xmlns="http://www.w3.org/2000/svg">
<path d="M38.3408 9.51071L34.7002 7.389L20.1016 42.4135C19.8794 42.3772 19.7038 42.3174 19.6014 42.2576L13.1691 38.5106L33.1416 6.47985L31.5359 5.54548L6.75742 34.7759L4.41851 33.4139C3.98218 33.1609 3.52041 32.3531 3.52041 31.8439V29.8704L30.1234 4.7225L23.1582 0.666363C22.4217 0.236309 21.4778 0 20.4994 0C19.522 0 18.5775 0.236309 17.8412 0.666363L2.65865 9.51071C1.14298 10.3928 0 12.3888 0 14.1557V31.8438C0 33.6104 1.14309 35.6081 2.65865 36.4894L17.8412 45.3354C18.5775 45.7637 19.5219 46 20.4994 46C21.4778 46 22.4217 45.7637 23.1582 45.3354L38.3409 36.4894C39.8575 35.6081 41 33.6103 41 31.8438V14.1557C41 12.3889 39.8575 10.3928 38.3408 9.51071ZM3.52041 14.1557C3.52041 13.647 3.98218 12.8401 4.41851 12.5853L19.6014 3.74244C19.7581 3.64979 20.0777 3.55194 20.4994 3.55194C20.9223 3.55194 21.2417 3.64979 21.3988 3.74244L25.1546 5.92915L3.52041 21.1178V14.1557ZM37.4796 31.8438C37.4796 32.353 37.0174 33.1609 36.581 33.4138L28.6719 38.0199L35.3884 11.8913L36.581 12.5853C37.0174 12.8401 37.4796 13.647 37.4796 14.1557V31.8438Z" fill="#9EFF8C"/>
</svg>
