<svg width="208" height="50" viewBox="0 0 208 50" fill="none" xmlns="http://www.w3.org/2000/svg">
<g clip-path="url(#clip0_208_7043)">
<path d="M62.7395 35.7595H77.3631V31.3693H67.9371V14.8327H62.7395V35.7595Z" fill="white"/>
<path d="M86.0271 32.8327C83.9422 32.8327 82.8557 31.018 82.8557 28.2961C82.8557 25.5741 83.9422 23.7302 86.0271 23.7302C88.112 23.7302 89.2278 25.5741 89.2278 28.2961C89.2278 31.018 88.112 32.8327 86.0271 32.8327ZM86.0564 36.2278C90.9016 36.2278 94.073 32.8034 94.073 28.2961C94.073 23.7888 90.9016 20.3644 86.0564 20.3644C81.2406 20.3644 78.0105 23.7888 78.0105 28.2961C78.0105 32.8034 81.2406 36.2278 86.0564 36.2278Z" fill="white"/>
<path d="M102.46 40.94C104.691 40.94 106.659 40.4425 107.98 39.2717C109.184 38.1888 109.977 36.5498 109.977 34.2961V20.7742H105.396V22.3839H105.337C104.456 21.1254 103.106 20.3351 101.109 20.3351C97.3795 20.3351 94.7954 23.4376 94.7954 27.8278C94.7954 32.4229 97.9374 34.94 101.314 34.94C103.135 34.94 104.28 34.2083 105.161 33.2132H105.279V34.7059C105.279 36.5205 104.427 37.5742 102.401 37.5742C100.815 37.5742 100.022 36.901 99.758 36.1108H95.1184C95.5883 39.2425 98.3192 40.94 102.46 40.94ZM102.43 31.3986C100.639 31.3986 99.4644 29.9351 99.4644 27.6815C99.4644 25.3986 100.639 23.9351 102.43 23.9351C104.427 23.9351 105.484 25.6327 105.484 27.6522C105.484 29.7595 104.515 31.3986 102.43 31.3986Z" fill="white"/>
<path d="M119.396 32.8327C117.311 32.8327 116.225 31.018 116.225 28.2961C116.225 25.5741 117.311 23.7302 119.396 23.7302C121.481 23.7302 122.596 25.5741 122.596 28.2961C122.596 31.018 121.481 32.8327 119.396 32.8327ZM119.426 36.2278C124.27 36.2278 127.442 32.8034 127.442 28.2961C127.442 23.7888 124.27 20.3644 119.426 20.3644C114.61 20.3644 111.38 23.7888 111.38 28.2961C111.38 32.8034 114.61 36.2278 119.426 36.2278Z" fill="white"/>
<path d="M128.84 35.7595H133.627V20.7742H128.84V35.7595ZM128.84 18.6961H133.627V14.8327H128.84V18.6961Z" fill="white"/>
<path d="M135.703 40.7059H140.489V34.2083H140.548C141.488 35.4669 142.868 36.2278 144.806 36.2278C148.741 36.2278 151.354 33.1254 151.354 28.2669C151.354 23.7595 148.917 20.3351 144.923 20.3351C142.868 20.3351 141.4 21.2425 140.372 22.5888H140.284V20.7742H135.703V40.7059ZM143.573 32.54C141.517 32.54 140.343 30.8717 140.343 28.4425C140.343 26.0132 141.4 24.1693 143.485 24.1693C145.54 24.1693 146.509 25.8669 146.509 28.4425C146.509 30.9888 145.393 32.54 143.573 32.54Z" fill="white"/>
<path d="M159.147 36.2278C163.082 36.2278 165.989 34.5303 165.989 31.2522C165.989 27.4181 162.876 26.7449 160.234 26.3059C158.325 25.9547 156.622 25.8083 156.622 24.7547C156.622 23.8181 157.532 23.379 158.707 23.379C160.028 23.379 160.938 23.7888 161.114 25.1351H165.519C165.284 22.179 162.994 20.3351 158.736 20.3351C155.183 20.3351 152.246 21.9742 152.246 25.1351C152.246 28.6473 155.036 29.3498 157.649 29.7888C159.646 30.14 161.467 30.2864 161.467 31.6327C161.467 32.5986 160.557 33.1254 159.118 33.1254C157.532 33.1254 156.534 32.3937 156.357 30.901H151.835C151.982 34.2083 154.742 36.2278 159.147 36.2278Z" fill="white"/>
<path d="M172.491 36.1986C174.576 36.1986 175.897 35.379 176.984 33.9156H177.072V35.7595H181.653V20.7742H176.866V29.1449C176.866 30.9303 175.868 32.1595 174.223 32.1595C172.696 32.1595 171.962 31.2522 171.962 29.6132V20.7742H167.205V30.6083C167.205 33.9449 169.026 36.1986 172.491 36.1986Z" fill="white"/>
<path d="M183.735 35.7595H188.521V27.3595C188.521 25.5742 189.402 24.3156 190.9 24.3156C192.339 24.3156 193.014 25.2522 193.014 26.862V35.7595H197.801V27.3595C197.801 25.5742 198.652 24.3156 200.179 24.3156C201.618 24.3156 202.293 25.2522 202.293 26.862V35.7595H207.08V26.0132C207.08 22.6473 205.377 20.3351 201.97 20.3351C200.032 20.3351 198.417 21.1547 197.243 22.9693H197.184C196.42 21.3595 194.923 20.3351 192.955 20.3351C190.782 20.3351 189.344 21.3595 188.404 22.9108H188.316V20.7742H183.735V35.7595Z" fill="white"/>
<path fill-rule="evenodd" clip-rule="evenodd" d="M24.5946 49.1742C38.1094 49.1742 49.0651 38.2543 49.0651 24.7839C49.0651 11.3136 38.1094 0.393738 24.5946 0.393738C11.0799 0.393738 0.124023 11.3136 0.124023 24.7839C0.124023 38.2543 11.0799 49.1742 24.5946 49.1742ZM28.3716 19.2383C30.4575 17.1592 30.4575 13.7883 28.3716 11.7092C26.2856 9.63005 22.9036 9.63005 20.8176 11.7092C18.7318 13.7883 18.7318 17.1592 20.8176 19.2383L24.5946 23.0028L28.3716 19.2383ZM30.1586 28.5486C32.2446 30.6277 35.6265 30.6277 37.7125 28.5486C39.7984 26.4694 39.7984 23.0986 37.7125 21.0194C35.6265 18.9404 32.2446 18.9404 30.1586 21.0194L26.3816 24.7841L30.1586 28.5486ZM28.3716 37.8588C30.4575 35.7797 30.4575 32.4088 28.3716 30.3297L24.5946 26.5652L20.8176 30.3297C18.7318 32.4088 18.7318 35.7797 20.8176 37.8588C22.9036 39.938 26.2856 39.938 28.3716 37.8588ZM11.4767 28.5486C9.39078 26.4694 9.39078 23.0986 11.4767 21.0194C13.5627 18.9404 16.9447 18.9404 19.0307 21.0194L22.8076 24.7841L19.0307 28.5486C16.9447 30.6277 13.5627 30.6277 11.4767 28.5486Z" fill="#9EFF8C"/>
</g>
<defs>
<clipPath id="clip0_208_7043">
<rect width="208" height="50" fill="white" transform="translate(0 -0.000488281)"/>
</clipPath>
</defs>
</svg>
