<svg id="Component_13_1" data-name="Component 13 – 1" xmlns="http://www.w3.org/2000/svg" xmlns:xlink="http://www.w3.org/1999/xlink" width="100" height="100" viewBox="0 0 100 100">
  <defs>
    <clipPath id="clip-path">
      <rect id="Rectangle_115" data-name="Rectangle 115" width="72" height="72" transform="translate(281.327 3742.327)" fill="none" stroke="#f05936" stroke-width="3"/>
    </clipPath>
    <clipPath id="clip-path-2">
      <rect id="Rectangle_116" data-name="Rectangle 116" width="54" height="62" transform="translate(0.137 -0.474)" fill="none" stroke="#f05936" stroke-width="3"/>
    </clipPath>
  </defs>
  <rect id="Rectangle_76" data-name="Rectangle 76" width="100" height="100" rx="20" fill="#fff"/>
  <g id="Mask_Group_14" data-name="Mask Group 14" transform="translate(-267.327 -3727.831)" clip-path="url(#clip-path)">
    <g id="Group_438" data-name="Group 438" transform="translate(292.19 3749.8)">
      <g id="Group_437" data-name="Group 437" transform="translate(-2 -2)" clip-path="url(#clip-path-2)">
        <path id="Path_3411" data-name="Path 3411" d="M3.135,9.29,1.484,10.941a2.923,2.923,0,0,0-.85,1.683C.265,15.366.091,23.265,8.1,31.735c3.447,3.644,9.628,9.163,18.4,7.785a3.027,3.027,0,0,0,1.457-.679l1.758-1.465a3.016,3.016,0,0,0,.192-4.454l-4.695-4.646a3.012,3.012,0,0,0-4.382.154l-.641.728a2.97,2.97,0,0,1-3.009.931,11.615,11.615,0,0,1-7.3-6.169,3.032,3.032,0,0,1,.575-3.485l1.561-1.561a3.012,3.012,0,0,0,.145-4.1L7.546,9.447A3.018,3.018,0,0,0,3.135,9.29Z" transform="translate(2.89 17.928)" fill="none" stroke="#f05936" stroke-linecap="round" stroke-linejoin="round" stroke-width="3"/>
        <path id="Path_3412" data-name="Path 3412" d="M26.076,9.2a8.7,8.7,0,1,1-8.7-8.7,8.7,8.7,0,0,1,8.7,8.7" transform="translate(18.451 2.889)" fill="none" stroke="#f05936" stroke-width="3"/>
        <circle id="Ellipse_15" data-name="Ellipse 15" cx="8.696" cy="8.696" r="8.696" transform="translate(27.135 3.389)" fill="none" stroke="#f05936" stroke-linecap="round" stroke-linejoin="round" stroke-width="3"/>
        <path id="Path_3413" data-name="Path 3413" d="M21.544,7.788a15.781,15.781,0,0,0-14.8,10.286A4.093,4.093,0,0,0,10.6,23.567H32.49a4.093,4.093,0,0,0,3.851-5.493,15.781,15.781,0,0,0-14.8-10.286" transform="translate(14.286 16.749)" fill="none" stroke="#f05936" stroke-width="3"/>
        <path id="Path_3414" data-name="Path 3414" d="M21.544,7.788a15.781,15.781,0,0,0-14.8,10.286A4.093,4.093,0,0,0,10.6,23.567H32.49a4.093,4.093,0,0,0,3.851-5.493A15.781,15.781,0,0,0,21.544,7.788Z" transform="translate(14.286 16.749)" fill="none" stroke="#f05936" stroke-linecap="round" stroke-linejoin="round" stroke-width="3"/>
      </g>
    </g>
  </g>
</svg>
