<svg width="22" height="27" viewBox="0 0 22 27" fill="none" xmlns="http://www.w3.org/2000/svg">
<path d="M18.0532 14.3255C18.066 13.3288 18.3289 12.3516 18.8177 11.4847C19.3065 10.6179 20.0051 9.88953 20.8486 9.3675C20.3128 8.59711 19.6058 7.96311 18.784 7.51586C17.9621 7.0686 17.048 6.82042 16.1142 6.79101C14.1222 6.58053 12.191 7.99088 11.176 7.99088C10.1412 7.99088 8.57836 6.8119 6.8954 6.84676C5.80682 6.88216 4.74591 7.20081 3.81604 7.77166C2.88617 8.34252 2.11905 9.1461 1.58944 10.1041C-0.704756 14.1025 1.0065 19.9787 3.20415 23.2107C4.30368 24.7933 5.58871 26.5611 7.27015 26.4984C8.91554 26.4297 9.53006 25.4423 11.5162 25.4423C13.4839 25.4423 14.0604 26.4984 15.776 26.4586C17.5416 26.4297 18.654 24.8689 19.7149 23.2713C20.5049 22.1437 21.1128 20.8974 21.5161 19.5786C20.4904 19.1418 19.615 18.4108 18.9992 17.4767C18.3834 16.5425 18.0544 15.4466 18.0532 14.3255Z" fill="black"/>
<path d="M14.8121 4.66816C15.7748 3.50486 16.2491 2.00962 16.1342 0.5C14.6635 0.655497 13.3049 1.36307 12.3293 2.48175C11.8522 3.02825 11.4869 3.66403 11.2541 4.35275C11.0213 5.04148 10.9256 5.76963 10.9725 6.49559C11.7082 6.50322 12.4359 6.34272 13.101 6.02617C13.7661 5.70963 14.3512 5.2453 14.8121 4.66816Z" fill="black"/>
</svg>
