<svg width="22" height="24" viewBox="0 0 22 24" fill="none" xmlns="http://www.w3.org/2000/svg">
<path d="M10.1481 11.4842L0.589355 21.5889C0.589715 21.5909 0.590433 21.5927 0.59077 21.5948C0.883931 22.6921 1.89024 23.5 3.08451 23.5C3.56193 23.5 4.01015 23.3715 4.39455 23.1458L4.42508 23.128L15.1853 16.9442L10.1481 11.4842Z" fill="#EB3131"/>
<path d="M19.8201 9.76323L19.8109 9.75699L15.1654 7.07489L9.93164 11.7131L15.1836 16.943L19.8046 14.2876C20.6147 13.852 21.1647 13.0014 21.1647 12.0205C21.1647 11.0467 20.6222 10.2003 19.8201 9.76323Z" fill="#F6B60B"/>
<path d="M0.587668 2.40961C0.530203 2.62065 0.5 2.8417 0.5 3.07125V20.9271C0.5 21.1562 0.529847 21.3781 0.588032 21.5883L10.4768 11.7419L0.587668 2.40961Z" fill="#5778C5"/>
<path d="M10.2196 12L15.1675 7.07373L4.41943 0.867533C4.02875 0.634494 3.57278 0.5 3.08487 0.5C1.8906 0.5 0.88293 1.30939 0.589715 2.40792C0.589356 2.40899 0.589355 2.40973 0.589355 2.41067L10.2196 12Z" fill="#3BAD49"/>
</svg>
